<svg width="5" height="6" viewBox="0 0 5 6" fill="none" xmlns="http://www.w3.org/2000/svg">
<path d="M4.69063 2.98455C4.69056 3.44549 4.5554 3.89605 4.30224 4.27928C4.04908 4.6625 3.68929 4.96117 3.26836 5.13751C2.84743 5.31386 2.38427 5.35996 1.93745 5.27C1.49062 5.18003 1.0802 4.95803 0.758073 4.63207C0.435948 4.30611 0.216589 3.89083 0.127734 3.43875C0.0388786 2.98666 0.0845173 2.51806 0.258879 2.09222C0.433241 1.66637 0.728495 1.3024 1.10731 1.04632C1.48612 0.790244 1.93148 0.653564 2.38706 0.653564C2.99804 0.653658 3.58396 0.899284 4.01595 1.33642C4.44795 1.77355 4.69063 2.36639 4.69063 2.98455Z" fill="#748AF9"/>
</svg>
