<svg width="18" height="20" viewBox="0 0 18 20" fill="none" xmlns="http://www.w3.org/2000/svg">
<path d="M7.54767 18.2032C7.54767 18.4666 7.47389 18.7241 7.33567 18.9431C7.19745 19.1622 7.001 19.3329 6.77114 19.4337C6.54129 19.5345 6.28837 19.5609 6.04436 19.5095C5.80035 19.4581 5.57621 19.3312 5.40029 19.145C5.22437 18.9587 5.10457 18.7214 5.05603 18.463C5.00749 18.2046 5.0324 17.9368 5.12761 17.6934C5.22282 17.4501 5.38405 17.242 5.59091 17.0957C5.79777 16.9493 6.04098 16.8712 6.28977 16.8712C6.62338 16.8712 6.94334 17.0115 7.17924 17.2613C7.41514 17.5111 7.54767 17.8499 7.54767 18.2032Z" fill="white"/>
<path d="M15.9338 18.2032C15.9338 18.4666 15.86 18.7241 15.7218 18.9431C15.5836 19.1622 15.3871 19.3329 15.1573 19.4337C14.9275 19.5345 14.6745 19.5609 14.4305 19.5095C14.1865 19.4581 13.9624 19.3312 13.7865 19.145C13.6106 18.9587 13.4908 18.7214 13.4423 18.463C13.3937 18.2046 13.4186 17.9368 13.5138 17.6934C13.609 17.4501 13.7703 17.242 13.9771 17.0957C14.184 16.9493 14.4272 16.8712 14.6759 16.8712C15.0095 16.8712 15.3295 17.0115 15.5654 17.2613C15.8013 17.5111 15.9338 17.8499 15.9338 18.2032Z" fill="white"/>
<path d="M16.9896 3.43051H3.53138L3.03363 0.549137C3.00529 0.391811 2.92906 0.250707 2.81819 0.150393C2.70733 0.0500789 2.56887 -0.00309165 2.42691 0.000139008H0V1.37229H1.92977L4.24709 14.5462C4.27543 14.7035 4.35167 14.8446 4.46253 14.9449C4.57339 15.0452 4.71186 15.0984 4.85381 15.0951H15.7761V13.7223H5.35156L4.85443 10.978H15.7761C15.9164 10.9819 16.0535 10.9307 16.1641 10.8331C16.2747 10.7355 16.352 10.5976 16.3828 10.4429L17.5963 4.2675C17.6166 4.16571 17.6162 4.06001 17.5949 3.95845C17.5737 3.8569 17.5322 3.76216 17.4737 3.68145C17.4152 3.60074 17.3412 3.53619 17.2573 3.4927C17.1734 3.44922 17.0818 3.42794 16.9896 3.43051ZM15.2906 9.60587H4.623L3.77383 4.80266H16.2304L15.2906 9.60587Z" fill="white"/>
</svg>
