<svg width="14" height="17" viewBox="0 0 14 17" fill="none" xmlns="http://www.w3.org/2000/svg">
<path d="M5.99994 15.1466C5.99994 15.3561 5.94129 15.5609 5.83141 15.7351C5.72154 15.9093 5.56536 16.045 5.38264 16.1252C5.19992 16.2054 4.99886 16.2263 4.80489 16.1855C4.61091 16.1446 4.43273 16.0437 4.29288 15.8956C4.15304 15.7474 4.0578 15.5587 4.01921 15.3532C3.98063 15.1478 4.00043 14.9348 4.07612 14.7413C4.1518 14.5477 4.27997 14.3823 4.44442 14.2659C4.60886 14.1495 4.80219 14.0874 4.99997 14.0874C5.26518 14.0874 5.51952 14.199 5.70705 14.3976C5.89459 14.5963 5.99994 14.8657 5.99994 15.1466Z" fill="#7489F9"/>
<path d="M12.6664 15.1466C12.6664 15.3561 12.6077 15.5609 12.4978 15.7351C12.388 15.9093 12.2318 16.045 12.0491 16.1252C11.8664 16.2054 11.6653 16.2263 11.4714 16.1855C11.2774 16.1446 11.0992 16.0437 10.9594 15.8956C10.8195 15.7474 10.7243 15.5587 10.6857 15.3532C10.6471 15.1478 10.6669 14.9348 10.7426 14.7413C10.8183 14.5477 10.9465 14.3823 11.1109 14.2659C11.2753 14.1495 11.4687 14.0874 11.6664 14.0874C11.9316 14.0874 12.186 14.199 12.3735 14.3976C12.561 14.5963 12.6664 14.8657 12.6664 15.1466Z" fill="#7489F9"/>
<path d="M13.5058 3.39921H2.80727L2.41158 1.10784C2.38905 0.982725 2.32845 0.870514 2.24032 0.790741C2.15219 0.710967 2.04212 0.668684 1.92927 0.671253H0V1.76243H1.53407L3.37622 12.2388C3.39874 12.3639 3.45935 12.4761 3.54748 12.5559C3.63561 12.6356 3.74568 12.6779 3.85853 12.6753H12.5412V11.5836H4.25422L3.85902 9.40125H12.5412C12.6527 9.40433 12.7617 9.36361 12.8496 9.28602C12.9376 9.20843 12.999 9.09876 13.0235 8.97568L13.9882 4.06481C14.0043 3.98386 14.0039 3.89981 13.987 3.81905C13.9702 3.73829 13.9372 3.66295 13.8907 3.59876C13.8442 3.53458 13.7854 3.48324 13.7187 3.44866C13.652 3.41408 13.5792 3.39717 13.5058 3.39921ZM12.1553 8.31007H3.67505L3 4.49039H12.9023L12.1553 8.31007Z" fill="#7489F9"/>
</svg>
