<svg width="14" height="14" viewBox="0 0 14 14" fill="none" xmlns="http://www.w3.org/2000/svg">
<path d="M2.58293 4.92495e-06C2.25995 -0.000646013 1.94003 0.0632358 1.64151 0.187985C1.343 0.312734 1.07177 0.495894 0.843393 0.726956C0.615014 0.958017 0.43398 1.23243 0.31068 1.53445C0.187379 1.83647 0.124239 2.16016 0.124883 2.48693V11.1342C0.124239 11.4609 0.187379 11.7846 0.31068 12.0866C0.43398 12.3887 0.615014 12.6631 0.843393 12.8941C1.07177 13.1252 1.343 13.3084 1.64151 13.4331C1.94003 13.5579 2.25995 13.6217 2.58293 13.6211H7.21517V8.29621H5.82347V6.37907H7.21517V4.741C7.21517 3.45432 8.03742 2.27136 9.93161 2.27136C10.3773 2.26996 10.8226 2.29481 11.2654 2.3458L11.2208 4.13629C11.2208 4.13629 10.6423 4.13064 10.0115 4.13064C9.32834 4.13064 9.21885 4.44817 9.21885 4.97738V6.3773H11.2762L11.1866 8.29445H9.2192V13.6214H11.1298C11.4527 13.6221 11.7727 13.5582 12.0712 13.4335C12.3697 13.3087 12.6409 13.1256 12.8693 12.8945C13.0977 12.6634 13.2787 12.389 13.402 12.087C13.5253 11.785 13.5885 11.4613 13.5878 11.1345V2.48693C13.5885 2.16016 13.5253 1.83647 13.402 1.53445C13.2787 1.23243 13.0977 0.958017 12.8693 0.726956C12.6409 0.495894 12.3697 0.312734 12.0712 0.187985C11.7727 0.0632358 11.4527 -0.000646013 11.1298 4.92495e-06H2.58293Z" fill="#748AF9"/>
</svg>
