<svg width="24" height="24" viewBox="0 0 24 24" fill="none" xmlns="http://www.w3.org/2000/svg">
<circle cx="12" cy="12" r="12" fill="#FF9B9B"/>
<path d="M16.9898 8.78752C16.7184 8.53828 16.3962 8.34057 16.0415 8.20567C15.6868 8.07077 15.3067 8.00134 14.9228 8.00134C14.5389 8.00134 14.1587 8.07077 13.8041 8.20567C13.4494 8.34057 13.1272 8.53828 12.8558 8.78752L12.5016 9.1166L12.1504 8.78819L12.1482 8.78618C11.8768 8.53694 11.5546 8.33922 11.1999 8.20433C10.8453 8.06943 10.4651 8 10.0812 8C9.69731 8 9.31716 8.06943 8.9625 8.20433C8.60783 8.33922 8.2856 8.53694 8.01421 8.78618L7.85653 8.93091C7.58499 9.18 7.36958 9.47577 7.22261 9.8013C7.07564 10.1268 7 10.4758 7 10.8281C7 11.1805 7.07564 11.5294 7.22261 11.855C7.36958 12.1805 7.58499 12.4763 7.85653 12.7254L12.0209 16.5474L12.4899 16.9993L12.5013 16.9889L12.5133 17L12.9524 16.5735L17.1453 12.7254C17.6926 12.2218 18 11.5395 18 10.8281C18 10.1168 17.6926 9.4345 17.1453 8.93091L16.9898 8.78752Z" fill="white"/>
</svg>
