<svg width="15" height="14" viewBox="0 0 15 14" fill="none" xmlns="http://www.w3.org/2000/svg">
<path d="M14.2545 4.13276C14.2469 3.54494 14.1382 2.96296 13.9334 2.41283C13.7557 1.94875 13.4842 1.52728 13.1364 1.17536C12.7886 0.823441 12.372 0.548814 11.9133 0.369034C11.3766 0.165178 10.8096 0.0549495 10.2364 0.0430423C9.4985 0.00776178 9.26487 0 7.39091 0C5.51695 0 5.27739 7.62294e-08 4.54475 0.0430423C3.97192 0.0550688 3.40526 0.165295 2.86886 0.369034C2.41011 0.548719 1.99349 0.823312 1.64564 1.17524C1.2978 1.52717 1.02639 1.94869 0.848793 2.41283C0.64703 2.95538 0.538412 3.52883 0.527632 4.10841C0.492762 4.85565 0.484741 5.09238 0.484741 6.98801C0.484741 8.88363 0.484741 9.1253 0.527632 9.8676C0.538811 10.4476 0.647413 11.0214 0.848793 11.5646C1.02665 12.0285 1.29819 12.4498 1.64608 12.8015C1.99397 13.1533 2.41055 13.4277 2.86921 13.6073C3.40414 13.8193 3.9709 13.9375 4.5451 13.9566C5.28367 13.9919 5.51765 14 7.39126 14C9.26487 14 9.50478 14 10.2374 13.9566C10.8106 13.9453 11.3776 13.8354 11.9144 13.6317C12.3729 13.4517 12.7894 13.177 13.1372 12.8251C13.485 12.4732 13.7565 12.0518 13.9344 11.5879C14.1361 11.0448 14.2447 10.4709 14.2556 9.89088C14.2905 9.14435 14.2985 8.90762 14.2985 7.01129C14.2985 5.11496 14.2985 4.87541 14.2538 4.1324L14.2545 4.13276ZM7.38673 10.5725C6.6854 10.5724 5.99985 10.362 5.41676 9.9677C4.83367 9.57344 4.37922 9.0131 4.11088 8.35753C3.84255 7.70196 3.77237 6.98061 3.90924 6.28469C4.0461 5.58878 4.38385 4.94955 4.87979 4.44784C5.37572 3.94613 6.00756 3.60447 6.69541 3.46607C7.38326 3.32767 8.09623 3.39873 8.74416 3.67029C9.39209 3.94184 9.94588 4.40168 10.3355 4.99166C10.7251 5.58165 10.9331 6.27527 10.9331 6.98483C10.9332 7.45603 10.8415 7.92262 10.6633 8.35796C10.4851 8.7933 10.2239 9.18886 9.89457 9.52203C9.56523 9.8552 9.17425 10.1195 8.74394 10.2997C8.31364 10.4799 7.85245 10.5726 7.38673 10.5725V10.5725ZM11.0743 4.09994C10.9108 4.10008 10.7508 4.05114 10.6148 3.95931C10.4787 3.86748 10.3727 3.73689 10.31 3.58405C10.2473 3.43121 10.2308 3.263 10.2626 3.10068C10.2945 2.93837 10.3731 2.78926 10.4887 2.6722C10.6043 2.55514 10.7517 2.4754 10.9121 2.44307C11.0725 2.41074 11.2387 2.42726 11.3899 2.49055C11.541 2.55384 11.6701 2.66106 11.761 2.79864C11.8519 2.93621 11.9004 3.09797 11.9004 3.26344C11.9005 3.37326 11.8792 3.48202 11.8377 3.58351C11.7963 3.68499 11.7354 3.77721 11.6587 3.8549C11.582 3.93258 11.4909 3.99421 11.3906 4.03626C11.2903 4.0783 11.1829 4.09994 11.0743 4.09994V4.09994Z" fill="#748AF9"/>
<path d="M9.69063 6.98455C9.69056 7.44549 9.5554 7.89605 9.30224 8.27928C9.04908 8.6625 8.68929 8.96117 8.26836 9.13751C7.84743 9.31386 7.38427 9.35996 6.93745 9.27C6.49062 9.18003 6.0802 8.95803 5.75807 8.63207C5.43595 8.30611 5.21659 7.89083 5.12773 7.43875C5.03888 6.98666 5.08452 6.51806 5.25888 6.09222C5.43324 5.66637 5.7285 5.3024 6.10731 5.04632C6.48612 4.79024 6.93148 4.65356 7.38706 4.65356C7.99804 4.65366 8.58396 4.89928 9.01595 5.33642C9.44795 5.77355 9.69063 6.36639 9.69063 6.98455Z" fill="#748AF9"/>
</svg>
