<svg width="15" height="14" viewBox="0 0 15 14" fill="none" xmlns="http://www.w3.org/2000/svg">
<path d="M3.24216 0.000244141C2.54339 0.00238495 1.87385 0.284203 1.37978 0.784146C0.885706 1.28409 0.607248 1.96153 0.605225 2.66851V10.9481C0.607433 11.655 0.886031 12.3323 1.38017 12.832C1.87431 13.3318 2.54383 13.6134 3.24251 13.6153H11.426C12.1246 13.6134 12.7941 13.3318 13.2882 12.832C13.7823 12.3323 14.0608 11.655 14.0629 10.9481V2.66851C14.0609 1.96153 13.7824 1.28409 13.2884 0.784146C12.7943 0.284203 12.1248 0.00238495 11.426 0.000244141H3.24216ZM3.9047 2.24691C4.05068 2.23589 4.19733 2.25559 4.3354 2.30477C4.47348 2.35394 4.59999 2.43153 4.70696 2.53263C4.81392 2.63373 4.89903 2.75616 4.95691 2.89219C5.01478 3.02822 5.04418 3.17491 5.04323 3.32301C5.04229 3.47111 5.01103 3.6174 4.95143 3.75267C4.89183 3.88794 4.80517 4.00925 4.69693 4.10895C4.58868 4.20865 4.4612 4.28458 4.32251 4.33195C4.18381 4.37933 4.03693 4.39711 3.8911 4.3842H3.88064C3.73504 4.39355 3.5891 4.37238 3.45197 4.322C3.31483 4.27163 3.18946 4.19314 3.0837 4.09145C2.97795 3.98977 2.8941 3.86708 2.8374 3.73107C2.7807 3.59507 2.75238 3.44868 2.75421 3.30109C2.75604 3.15349 2.78798 3.00787 2.84803 2.87334C2.90809 2.73882 2.99496 2.6183 3.1032 2.51933C3.21144 2.42036 3.33872 2.34508 3.47706 2.2982C3.6154 2.25132 3.76182 2.23386 3.90714 2.24691H3.9047ZM9.89795 5.08451C11.2353 5.08451 12.2374 5.96864 12.2374 7.8692V11.417H10.2052V8.10735C10.2052 7.27578 9.9112 6.70812 9.17543 6.70812C8.94623 6.70954 8.72304 6.78252 8.53637 6.91708C8.34969 7.05164 8.20863 7.24123 8.13244 7.45995C8.08027 7.62169 8.05758 7.79169 8.06549 7.96164V11.417H6.03322C6.03322 11.417 6.05972 5.81023 6.03322 5.22987H8.06514V6.10624C8.24907 5.78289 8.51706 5.51673 8.84 5.33666C9.16294 5.15659 9.52848 5.06951 9.89691 5.08487L9.89795 5.08451ZM2.87601 5.23022H4.90829V11.417H2.87601V5.23022Z" fill="#748AF9"/>
</svg>
