<svg width="16" height="20" viewBox="0 0 16 20" fill="none" xmlns="http://www.w3.org/2000/svg">
<path d="M7.30557 11C6.65179 11 6.01269 10.7947 5.4691 10.4101C4.9255 10.0256 4.50181 9.47893 4.25162 8.83939C4.00143 8.19985 3.93597 7.49612 4.06352 6.81718C4.19106 6.13825 4.50589 5.51461 4.96818 5.02513C5.43047 4.53564 6.01947 4.2023 6.66069 4.06725C7.30191 3.9322 7.96655 4.00152 8.57056 4.26642C9.17458 4.53133 9.69083 4.97993 10.0541 5.55551C10.4173 6.13108 10.6111 6.80777 10.6111 7.5C10.6111 7.95963 10.5256 8.41475 10.3595 8.83939C10.1934 9.26403 9.94992 9.64987 9.64297 9.97487C9.33601 10.2999 8.97161 10.5577 8.57056 10.7336C8.16951 10.9095 7.73967 11 7.30557 11ZM7.30557 5.40015C6.91333 5.40015 6.5299 5.5233 6.20376 5.75404C5.87763 5.98477 5.62344 6.31272 5.47333 6.69642C5.32323 7.08012 5.28395 7.50233 5.36048 7.90966C5.437 8.31699 5.62588 8.69115 5.90324 8.98482C6.18059 9.27849 6.53397 9.47848 6.91867 9.5595C7.30337 9.64053 7.70213 9.59894 8.06451 9.44001C8.4269 9.28108 8.73663 9.01193 8.95455 8.66662C9.17246 8.3213 9.28878 7.91531 9.28878 7.5C9.28878 6.94309 9.07983 6.40898 8.70791 6.01518C8.33599 5.62138 7.83155 5.40015 7.30557 5.40015Z" fill="#748AF9"/>
<path d="M7.55557 20L1.76104 12.8934C1.68064 12.7866 1.60096 12.6793 1.52202 12.5715C0.532359 11.2158 -0.00231574 9.55981 7.53943e-06 7.85766C7.51852e-06 6.82577 0.195438 5.804 0.57514 4.85066C0.954843 3.89733 1.51138 3.0311 2.21298 2.30145C2.91458 1.5718 3.7475 0.993013 4.66418 0.598128C5.58087 0.203244 6.56336 0 7.55557 0C8.54778 0 9.53028 0.203244 10.447 0.598128C11.3636 0.993013 12.1966 1.5718 12.8982 2.30145C13.5998 3.0311 14.1563 3.89733 14.536 4.85066C14.9157 5.804 15.1111 6.82577 15.1111 7.85766C15.1136 9.55924 14.5791 11.2147 13.5899 12.57C13.5899 12.57 13.3843 12.851 13.353 12.8896L7.55557 20ZM2.6154 11.7109C2.6154 11.7109 2.77595 11.9308 2.81228 11.9784L7.55557 17.7938L12.3018 11.9761C12.3316 11.9368 12.4928 11.7155 12.4936 11.7147C13.3024 10.6064 13.7393 9.25279 13.7373 7.86143C13.7373 7.01728 13.5775 6.18138 13.2668 5.40148C12.9562 4.62158 12.5009 3.91294 11.9269 3.31603C11.353 2.71912 10.6716 2.24563 9.92168 1.92258C9.17176 1.59954 8.368 1.43327 7.5563 1.43327C6.74459 1.43327 5.94084 1.59954 5.19092 1.92258C4.441 2.24563 3.75961 2.71912 3.18565 3.31603C2.61169 3.91294 2.15639 4.62158 1.84577 5.40148C1.53514 6.18138 1.37527 7.01728 1.37527 7.86143C1.37385 9.25294 1.81127 10.6065 2.62048 11.7147L2.6154 11.7109Z" fill="#748AF9"/>
</svg>
