<svg width="23" height="23" viewBox="0 0 23 23" fill="none" xmlns="http://www.w3.org/2000/svg">
<path d="M11.5003 0.00142576C13.0139 -0.0228853 14.5164 0.263936 15.9151 0.844191C17.3139 1.42445 18.5791 2.28583 19.6329 3.37519C20.7179 4.42716 21.5763 5.69083 22.1552 7.08822C22.7341 8.48562 23.0212 9.98709 22.9988 11.5C23.0212 13.0129 22.7341 14.5144 22.1552 15.9118C21.5763 17.3092 20.7179 18.5728 19.6329 19.6248C18.5791 20.7142 17.3139 21.5756 15.9151 22.1558C14.5164 22.7361 13.0139 23.0229 11.5003 22.9986C9.98673 23.0229 8.48423 22.7361 7.08551 22.1558C5.68679 21.5756 4.42153 20.7142 3.3678 19.6248C2.28279 18.5728 1.4243 17.3091 0.845294 15.9118C0.266285 14.5144 -0.0209712 13.0129 0.00124156 11.5C-0.0213906 9.98706 0.265612 8.48553 0.844532 7.08811C1.42345 5.6907 2.282 4.42705 3.36717 3.37519C4.42104 2.28584 5.68641 1.42447 7.08523 0.844222C8.48405 0.26397 9.98664 -0.0228596 11.5003 0.00142576ZM11.5003 3.45639C11.0463 3.44991 10.5956 3.53497 10.1751 3.70651C9.75452 3.87805 9.37265 4.13257 9.05215 4.45494C8.72184 4.76607 8.45998 5.14289 8.28331 5.56129C8.10664 5.97968 8.01906 6.43044 8.02617 6.88471C8.02073 7.34268 8.10896 7.79692 8.28542 8.21939C8.46187 8.64187 8.72282 9.02363 9.05215 9.34112C9.369 9.67089 9.74996 9.93201 10.1715 10.1083C10.593 10.2847 11.0461 10.3725 11.5029 10.3663C11.9556 10.3736 12.4049 10.2861 12.8221 10.1096C13.2392 9.9331 13.6151 9.67137 13.9257 9.34112C14.2473 9.01939 14.5011 8.63615 14.672 8.21417C14.8429 7.7922 14.9275 7.34009 14.9207 6.88471C14.9227 6.43427 14.8357 5.98788 14.6646 5.57134C14.4936 5.15479 14.2419 4.77634 13.9241 4.45782C13.6063 4.13931 13.2288 3.88704 12.8132 3.7156C12.3976 3.54415 11.9523 3.45691 11.5029 3.45893L11.5003 3.45639ZM11.5003 19.8132C12.8748 19.8235 14.2288 19.4785 15.4315 18.8115C16.6195 18.1588 17.6279 17.2216 18.367 16.0836C18.3381 15.6821 18.2065 15.2948 17.9847 14.9592C17.763 14.6236 17.4587 14.351 17.1011 14.1677C16.2415 13.6032 15.2954 13.1837 14.3004 12.9261C13.388 12.6715 12.4467 12.5354 11.4997 12.5214C10.5527 12.5363 9.61156 12.6723 8.69898 12.9261C7.7041 13.1846 6.75849 13.6055 5.90016 14.1721C5.54188 14.3607 5.23455 14.6335 5.00449 14.9671C4.77443 15.3008 4.62851 15.6854 4.57923 16.088C5.33304 17.2364 6.36057 18.1784 7.56889 18.8287C8.77721 19.479 10.1288 19.8178 11.5003 19.8132Z" fill="#FFD80B"/>
</svg>
