<svg width="16" height="12" viewBox="0 0 16 12" fill="none" xmlns="http://www.w3.org/2000/svg">
<path d="M15.4325 0.172132H1.47131C1.34393 0.167945 1.22012 0.215088 1.12708 0.303204C1.03404 0.391319 0.979374 0.5132 0.975098 0.642068V1.58476C0.975098 1.62816 1.02531 1.6779 1.06576 1.69837L8.40328 5.6519C8.42244 5.66224 8.44382 5.66765 8.46553 5.66765C8.48724 5.66765 8.50862 5.66224 8.52777 5.6519L15.6418 1.70048C15.6815 1.67967 15.7879 1.62357 15.828 1.59817C15.8761 1.56712 15.9256 1.53925 15.9256 1.48351V0.642068C15.9212 0.513828 15.867 0.392528 15.7746 0.304578C15.6823 0.216628 15.5593 0.169152 15.4325 0.172485V0.172132Z" fill="#748AF9"/>
<path d="M15.8695 3.55929C15.8517 3.54892 15.8316 3.54346 15.811 3.54346C15.7905 3.54346 15.7704 3.54892 15.7526 3.55929L11.9971 5.79572C11.982 5.80451 11.9692 5.81663 11.9594 5.83116C11.9497 5.84569 11.9433 5.86226 11.9408 5.87964C11.9383 5.89701 11.9397 5.91474 11.9449 5.93149C11.9501 5.94824 11.959 5.96358 11.9709 5.97636L15.7282 10.0738C15.7441 10.0909 15.7647 10.1028 15.7873 10.108C15.81 10.1131 15.8336 10.1112 15.8552 10.1026C15.8768 10.0939 15.8953 10.0789 15.9083 10.0595C15.9214 10.0401 15.9284 10.0172 15.9284 9.99375V3.66055C15.9285 3.6399 15.9232 3.61959 15.913 3.60168C15.9028 3.58378 15.8882 3.56891 15.8705 3.55859L15.8695 3.55929Z" fill="#748AF9"/>
<path d="M10.5713 6.54651C10.5513 6.52669 10.5255 6.51391 10.4978 6.51003C10.47 6.50616 10.4418 6.5114 10.4172 6.52499L8.79815 7.42146C8.70204 7.47327 8.59495 7.50072 8.48605 7.50146C8.37715 7.50219 8.2697 7.4762 8.17292 7.4257L6.7481 6.66011C6.72493 6.64778 6.69867 6.64271 6.67265 6.64554C6.64663 6.64837 6.62203 6.65897 6.60199 6.67599L1.18933 11.3969C1.17534 11.4088 1.16448 11.4241 1.15773 11.4413C1.15098 11.4586 1.14854 11.4772 1.15063 11.4957C1.15306 11.5142 1.15987 11.5319 1.17049 11.5473C1.18111 11.5626 1.19523 11.5752 1.21165 11.5839C1.28718 11.6277 1.3725 11.6514 1.45958 11.6527H15.3221C15.3458 11.6531 15.3691 11.6467 15.3893 11.6342C15.4095 11.6217 15.4258 11.6036 15.4362 11.5821C15.4459 11.5613 15.4489 11.5379 15.4448 11.5153C15.4408 11.4926 15.4298 11.4718 15.4135 11.4558L10.5713 6.54651Z" fill="#748AF9"/>
<path d="M5.11079 5.90407C5.12409 5.89162 5.13432 5.87618 5.14065 5.859C5.14698 5.84182 5.14924 5.82337 5.14724 5.80515C5.14524 5.78692 5.13903 5.76943 5.12913 5.75407C5.11922 5.73872 5.10589 5.72593 5.09021 5.71673L1.14771 3.43867C1.13011 3.42863 1.1102 3.42343 1.08999 3.42359C1.06978 3.42374 1.04996 3.42925 1.0325 3.43956C1.01505 3.44987 1.00056 3.46463 0.990494 3.48236C0.980424 3.50009 0.975118 3.52018 0.975104 3.54063V9.51891C0.974871 9.5419 0.98137 9.56444 0.993781 9.58369C1.00619 9.60295 1.02396 9.61806 1.04484 9.62711C1.06573 9.63617 1.08879 9.63877 1.11113 9.63458C1.13347 9.63039 1.15409 9.61961 1.17038 9.60358L5.11079 5.90407Z" fill="#748AF9"/>
</svg>
