<svg width="15" height="15" viewBox="0 0 15 15" fill="none" xmlns="http://www.w3.org/2000/svg">
<path fill-rule="evenodd" clip-rule="evenodd" d="M11.3659 10.2467C12.3574 8.97112 12.8253 7.36566 12.6745 5.75721C12.5236 4.14877 11.7653 2.65828 10.5539 1.58924C9.34252 0.520192 7.76917 -0.0470332 6.15419 0.00305595C4.53921 0.0531451 3.00404 0.716783 1.86126 1.85884C0.718477 3.00091 0.0540099 4.53552 0.00315021 6.15022C-0.0477095 7.76492 0.518862 9.33829 1.58751 10.55C2.65615 11.7617 4.14651 12.5206 5.75514 12.6722C7.36376 12.8238 8.9697 12.3567 10.246 11.3659L10.2803 11.4019L13.6449 14.7675C13.7186 14.8412 13.8061 14.8997 13.9024 14.9396C13.9987 14.9795 14.102 15 14.2062 15C14.3105 15 14.4137 14.9795 14.51 14.9396C14.6063 14.8997 14.6938 14.8412 14.7675 14.7675C14.8412 14.6938 14.8997 14.6063 14.9396 14.5101C14.9795 14.4138 15 14.3106 15 14.2063C15 14.1021 14.9795 13.9989 14.9396 13.9026C14.8997 13.8063 14.8412 13.7188 14.7675 13.6451L11.4019 10.2811C11.3902 10.2698 11.3782 10.2587 11.3659 10.2478V10.2467ZM9.7193 2.99043C10.3848 3.65588 10.8381 4.50372 11.0217 5.42672C11.2053 6.34972 11.1111 7.30643 10.7509 8.17588C10.3907 9.04533 9.78072 9.78846 8.99812 10.3113C8.21551 10.8341 7.29541 11.1132 6.35418 11.1132C5.41295 11.1132 4.49286 10.8341 3.71025 10.3113C2.92764 9.78846 2.31767 9.04533 1.95748 8.17588C1.59728 7.30643 1.50303 6.34972 1.68666 5.42672C1.87028 4.50372 2.32352 3.65588 2.98907 2.99043C3.43098 2.54859 3.9556 2.19809 4.53299 1.95897C5.11038 1.71984 5.72922 1.59676 6.35418 1.59676C6.97914 1.59676 7.59798 1.71984 8.17537 1.95897C8.75276 2.19809 9.27739 2.54859 9.7193 2.99043Z" fill="#0A1A58"/>
</svg>
