<svg id="visual" viewBox="0 0 960 540" width="960" height="540" xmlns="http://www.w3.org/2000/svg" xmlns:xlink="http://www.w3.org/1999/xlink" version="1.1"><g transform="translate(478.8801506699909 253.00776469698877)"><path d="M124.6 -198.4C159.3 -195.9 183.6 -157.9 191.7 -119C199.9 -80 191.9 -40 188.9 -1.8C185.9 36.5 187.8 73 175.1 104.2C162.4 135.4 135.2 161.2 103.6 186.8C72 212.4 36 237.7 3.5 231.6C-29 225.6 -58 188.1 -92.1 164C-126.1 139.8 -165.3 128.9 -181.8 103.8C-198.3 78.7 -192.1 39.3 -191 0.7C-189.8 -38 -193.6 -76 -183.8 -112.7C-174 -149.3 -150.5 -184.6 -117.6 -188.1C-84.7 -191.7 -42.3 -163.3 1.3 -165.6C45 -167.9 90 -200.9 124.6 -198.4" fill="#fff"></path></g></svg>