<svg width="260" height="249" viewBox="0 0 260 249" fill="none" xmlns="http://www.w3.org/2000/svg">
<g clip-path="url(#clip0)">
<path d="M241.577 65.9553V52.0166H239.41V65.9553C238.788 66.2067 238.273 66.6666 237.954 67.2561C237.634 67.8456 237.529 68.5279 237.657 69.1862C237.785 69.8445 238.138 70.4377 238.656 70.8642C239.173 71.2907 239.823 71.524 240.494 71.524C241.164 71.524 241.814 71.2907 242.332 70.8642C242.849 70.4377 243.202 69.8445 243.33 69.1862C243.458 68.5279 243.354 67.8456 243.034 67.2561C242.714 66.6666 242.199 66.2067 241.577 65.9553Z" fill="#E6E6E6"/>
<path d="M246.635 206.622H231.824V26.7308H226.045V206.622H211.234C209.479 206.622 207.741 206.967 206.12 207.639C204.498 208.311 203.025 209.295 201.784 210.536C200.542 211.777 199.558 213.251 198.886 214.872C198.215 216.494 197.869 218.232 197.869 219.987V219.987H260V219.987C260 218.232 259.654 216.494 258.983 214.872C258.311 213.251 257.326 211.777 256.085 210.536C254.844 209.295 253.371 208.311 251.749 207.639C250.128 206.967 248.39 206.622 246.635 206.622Z" fill="#E6E6E6"/>
<path d="M197.899 53.4616H259.97L256.174 6.01792C256.036 4.38196 255.29 2.85715 254.083 1.74346C252.877 0.629775 251.297 0.00783503 249.656 0H208.213C206.572 0.00783593 204.992 0.629775 203.786 1.74346C202.579 2.85715 201.833 4.38196 201.695 6.01792L197.899 53.4616Z" fill="#6C63FF"/>
<path d="M22.0701 165.274H211.526V145.932C211.526 93.6988 169.031 51.2039 116.798 51.2039C64.5651 51.2039 22.0701 93.6988 22.0701 145.932V165.274Z" fill="#3F3D56"/>
<path opacity="0.2" d="M22.0701 165.274H211.526V145.932C211.526 93.6988 169.031 51.2039 116.798 51.2039C64.5651 51.2039 22.0701 93.6988 22.0701 145.932V165.274Z" fill="black"/>
<path d="M46.6243 171.97H192.427C192.289 164.299 189.146 156.988 183.675 151.609C178.205 146.231 170.842 143.213 163.17 143.204H75.8815C68.2093 143.213 60.8468 146.231 55.376 151.609C49.9052 156.988 46.7629 164.299 46.6243 171.97Z" fill="#6C63FF"/>
<path d="M29.2615 168.994C45.4222 168.994 58.523 155.893 58.523 139.732C58.523 123.572 45.4222 110.471 29.2615 110.471C13.1008 110.471 0 123.572 0 139.732C0 155.893 13.1008 168.994 29.2615 168.994Z" fill="#3F3D56"/>
<path d="M206.814 168.994C222.975 168.994 236.076 155.893 236.076 139.732C236.076 123.572 222.975 110.471 206.814 110.471C190.654 110.471 177.553 123.572 177.553 139.732C177.553 155.893 190.654 168.994 206.814 168.994Z" fill="#3F3D56"/>
<path d="M184.744 154.611V165.522H49.5957V154.611H19.3423V207.792C19.3423 211.05 20.6367 214.175 22.9407 216.479C25.2447 218.783 28.3697 220.077 31.628 220.077H202.712C204.325 220.077 205.923 219.76 207.413 219.142C208.904 218.525 210.258 217.62 211.399 216.479C212.54 215.338 213.445 213.984 214.062 212.493C214.68 211.003 214.998 209.405 214.998 207.792V154.611H184.744Z" fill="#3F3D56"/>
<path opacity="0.2" d="M29.2614 145.684C32.5483 145.684 35.2129 143.019 35.2129 139.732C35.2129 136.445 32.5483 133.781 29.2614 133.781C25.9745 133.781 23.3099 136.445 23.3099 139.732C23.3099 143.019 25.9745 145.684 29.2614 145.684Z" fill="black"/>
<path opacity="0.2" d="M206.814 145.684C210.101 145.684 212.766 143.019 212.766 139.732C212.766 136.445 210.101 133.781 206.814 133.781C203.527 133.781 200.863 136.445 200.863 139.732C200.863 143.019 203.527 145.684 206.814 145.684Z" fill="black"/>
<path d="M127.577 47.8613C127.577 47.8613 128.162 58.9779 132.258 61.3183C136.354 63.6586 132.258 79.4559 132.258 79.4559L112.95 80.041L111.78 61.3183C111.78 61.3183 114.12 53.7122 112.95 50.2016C111.78 46.6911 127.577 47.8613 127.577 47.8613Z" fill="#FFB8B8"/>
<path d="M149.225 202.324L142.204 210.515L153.321 221.046L159.172 209.345L149.225 202.324Z" fill="#FFB8B8"/>
<path d="M99.4931 202.324L106.514 210.515L95.3975 221.046L89.5467 209.345L99.4931 202.324Z" fill="#FFB8B8"/>
<path d="M145.422 124.8C145.422 124.8 187.549 138.842 185.208 152.299C182.868 165.756 164.73 213.148 164.73 213.148C164.73 213.148 154.784 213.148 147.178 202.616L152.443 190.915C152.443 190.915 150.103 184.479 154.199 183.309C158.294 182.138 160.635 161.66 160.635 161.66C160.635 161.66 130.795 159.32 124.359 148.203L112.658 120.119L145.422 124.8Z" fill="#2F2E41"/>
<path d="M103.296 124.8C103.296 124.8 61.1701 138.842 63.5104 152.299C65.8507 165.756 83.9884 213.148 83.9884 213.148C83.9884 213.148 93.9349 213.148 101.541 202.616L96.2752 190.915C96.2752 190.915 98.6156 184.479 94.52 183.309C90.4244 182.138 88.084 161.66 88.084 161.66C88.084 161.66 117.923 159.32 124.359 148.203L136.061 120.119L103.296 124.8Z" fill="#2F2E41"/>
<path d="M151.273 216.658C151.273 216.658 157.124 211.393 157.709 215.488C158.294 219.584 157.124 235.966 157.124 235.966C157.124 235.966 162.975 248.253 154.199 248.253C145.422 248.253 141.327 238.892 142.497 229.53C143.667 220.169 138.401 216.658 138.401 216.658C138.401 216.658 131.965 203.787 138.401 202.616C144.837 201.446 147.178 204.372 147.178 204.372C147.178 204.372 144.837 214.903 151.273 216.658Z" fill="#2F2E41"/>
<path d="M97.4454 216.658C97.4454 216.658 91.5946 211.393 91.0095 215.488C90.4244 219.584 91.5946 235.966 91.5946 235.966C91.5946 235.966 85.7437 248.253 94.52 248.253C103.296 248.253 107.392 238.892 106.222 229.53C105.052 220.169 110.317 216.658 110.317 216.658C110.317 216.658 116.753 203.787 110.317 202.616C103.881 201.446 101.541 204.372 101.541 204.372C101.541 204.372 103.881 214.903 97.4454 216.658Z" fill="#2F2E41"/>
<path d="M118.508 54.5897C125.941 54.5897 131.965 48.5648 131.965 41.1328C131.965 33.7007 125.941 27.6758 118.508 27.6758C111.076 27.6758 105.052 33.7007 105.052 41.1328C105.052 48.5648 111.076 54.5897 118.508 54.5897Z" fill="#FFB8B8"/>
<path d="M120.556 64.2437L112.365 57.8077L92.4722 67.1691L91.8871 120.412C91.8871 120.412 79.6003 126.263 83.1108 133.869C83.1108 133.869 93.6424 136.209 98.3231 140.89C103.004 145.571 129.333 139.135 140.449 135.624C151.566 132.114 154.491 128.018 154.491 128.018L143.375 112.221L149.811 71.8498L129.92 58.4768L120.556 64.2437Z" fill="#E6E6E6"/>
<path d="M134.869 31.9737C134.576 31.5759 134.308 31.16 134.067 30.7286C133.649 29.7124 134.308 28.5148 133.693 27.5658C133.064 26.5971 131.468 26.3928 130.382 25.7347C128.709 24.7209 128.405 22.7315 126.838 21.6143C125.709 20.8094 124.098 20.5924 122.589 20.6383C121.08 20.6842 119.591 20.9571 118.082 20.987C116.044 21.0325 114.022 20.619 112.166 19.7772L113.279 21.9557C112.042 21.686 110.86 21.2067 109.783 20.5387C109.291 21.1497 110.192 22.077 109.633 22.6501C109.404 22.8349 109.133 22.9606 108.844 23.0159C106.696 23.6263 104.674 24.6131 102.87 25.9304C102.453 26.1959 102.108 26.5605 101.865 26.9916C101.575 27.635 101.832 28.3455 101.81 29.0295C101.77 30.2723 100.821 31.3561 100.148 32.4758C99.4748 33.5954 99.1113 35.047 100.11 35.9972C100.353 36.1903 100.586 36.3956 100.808 36.6125C101.808 37.7927 100.037 39.5211 100.891 40.7735C101.261 41.3173 102.021 41.5925 102.681 41.9137C103.946 42.505 105.01 43.4534 105.743 44.642L105.229 40.875C105.202 40.7819 105.198 40.6838 105.215 40.5886C105.233 40.4933 105.273 40.4035 105.331 40.3263C105.58 40.073 106.101 40.174 106.444 40.0062C106.821 39.8216 106.85 39.3981 106.835 39.0434L106.719 36.3085C106.667 35.0787 106.653 34.9154 107.559 33.9227C108.191 33.2291 109.187 32.8107 110.187 32.503C112.472 31.7997 114.929 31.5565 117.358 31.3188C120.179 31.0427 123.355 29.674 125.546 31.1272C127.339 32.3168 127.935 34.2722 128.799 36.0063C129.576 37.565 131.569 42.1544 133.229 39.6701C134.271 38.11 135.865 33.7108 134.869 31.9737Z" fill="#2F2E41"/>
<path d="M120.819 37.2291C120.763 37.2292 120.71 37.2512 120.671 37.2904C120.632 37.3296 120.61 37.3827 120.609 37.4381V43.0723C120.61 43.1277 120.632 43.1808 120.671 43.22C120.71 43.2592 120.763 43.2812 120.819 43.2813H130.517C130.573 43.2812 130.626 43.2592 130.665 43.22C130.705 43.1808 130.727 43.1277 130.727 43.0723V37.4381C130.727 37.3827 130.705 37.3296 130.665 37.2904C130.626 37.2512 130.573 37.2292 130.517 37.2291L120.819 37.2291Z" fill="#3F3D56"/>
<path d="M121.903 37.726C121.799 37.7261 121.7 37.7672 121.627 37.8402C121.554 37.9132 121.513 38.0123 121.513 38.1156V42.3947C121.513 42.498 121.554 42.5971 121.627 42.6701C121.7 42.7432 121.799 42.7842 121.903 42.7844H129.434C129.537 42.7842 129.636 42.7432 129.709 42.6701C129.782 42.5971 129.823 42.498 129.823 42.3947V38.1156C129.823 38.0123 129.782 37.9132 129.709 37.8402C129.636 37.7672 129.537 37.7261 129.434 37.726H121.903Z" fill="#FF6584"/>
<path d="M120.928 39.085H115.876V40.2551H120.928V39.085Z" fill="#3F3D56"/>
<path d="M107.084 37.2291C107.029 37.2292 106.976 37.2513 106.937 37.2904C106.898 37.3296 106.876 37.3827 106.875 37.4381V43.0723C106.876 43.1277 106.898 43.1808 106.937 43.22C106.976 43.2591 107.029 43.2812 107.084 43.2813H116.783C116.839 43.2812 116.892 43.2591 116.931 43.22C116.97 43.1808 116.992 43.1277 116.992 43.0723V37.4381C116.992 37.3827 116.97 37.3296 116.931 37.2904C116.892 37.2513 116.839 37.2292 116.783 37.2291L107.084 37.2291Z" fill="#3F3D56"/>
<path d="M108.168 37.726C108.065 37.726 107.966 37.7671 107.893 37.8402C107.82 37.9132 107.779 38.0123 107.779 38.1156V42.3947C107.779 42.4981 107.82 42.5971 107.893 42.6702C107.966 42.7432 108.065 42.7843 108.168 42.7844H115.699C115.803 42.7843 115.902 42.7432 115.975 42.6702C116.048 42.5971 116.089 42.4981 116.089 42.3947V38.1156C116.089 38.0123 116.048 37.9132 115.975 37.8402C115.902 37.7671 115.803 37.726 115.699 37.726H108.168Z" fill="#6C63FF"/>
<path d="M101.783 107.555H135.377C136.718 107.555 138.004 108.088 138.953 109.037C139.901 109.985 140.434 111.271 140.434 112.612H96.7255C96.7255 111.271 97.2583 109.985 98.2067 109.037C99.1551 108.088 100.441 107.555 101.783 107.555Z" fill="#3F3D56"/>
<path d="M137.725 107.194C137.528 107.195 137.333 107.228 137.147 107.292C137.083 107.036 136.928 106.812 136.71 106.662C136.492 106.512 136.227 106.447 135.965 106.48C135.703 106.512 135.461 106.639 135.286 106.838C135.111 107.036 135.015 107.291 135.016 107.555C135.016 107.561 135.017 107.566 135.017 107.571C134.882 107.584 134.748 107.612 134.619 107.654C134.582 107.508 134.515 107.371 134.423 107.252C134.331 107.134 134.215 107.035 134.083 106.963C134.43 106.771 134.705 106.471 134.865 106.108C135.068 106.128 135.273 106.105 135.466 106.041C135.66 105.976 135.838 105.872 135.989 105.734C136.139 105.596 136.259 105.428 136.34 105.241C136.422 105.054 136.463 104.852 136.46 104.648C136.458 104.444 136.413 104.242 136.328 104.057C136.243 103.871 136.12 103.706 135.966 103.571C135.813 103.437 135.633 103.336 135.438 103.275C135.243 103.215 135.038 103.196 134.835 103.221C134.638 103.221 134.443 103.255 134.257 103.319C134.224 103.177 134.162 103.043 134.076 102.926C133.989 102.808 133.88 102.709 133.754 102.635C133.628 102.561 133.489 102.513 133.344 102.495C133.199 102.476 133.052 102.487 132.912 102.527C132.772 102.566 132.641 102.634 132.527 102.726C132.414 102.817 132.32 102.931 132.252 103.06C132.183 103.189 132.142 103.33 132.129 103.476C132.117 103.621 132.135 103.767 132.181 103.906C132.137 103.936 132.097 103.97 132.057 104.003C131.852 103.827 131.587 103.739 131.318 103.757C131.179 103.359 130.904 103.021 130.542 102.805C130.179 102.588 129.752 102.506 129.335 102.573C128.918 102.639 128.537 102.851 128.26 103.17C127.983 103.489 127.828 103.895 127.82 104.318C127.675 104.329 127.532 104.358 127.394 104.403C127.378 104.341 127.358 104.282 127.332 104.224C127.474 104.099 127.589 103.944 127.668 103.771C127.747 103.598 127.789 103.411 127.791 103.221C127.766 102.814 127.581 102.434 127.276 102.163C126.972 101.892 126.572 101.753 126.166 101.776C125.969 101.777 125.774 101.81 125.588 101.874C125.554 101.732 125.493 101.598 125.406 101.481C125.32 101.363 125.21 101.264 125.085 101.19C124.959 101.116 124.819 101.068 124.675 101.05C124.53 101.031 124.383 101.042 124.243 101.082C124.102 101.121 123.971 101.189 123.858 101.281C123.744 101.372 123.65 101.486 123.582 101.615C123.514 101.744 123.472 101.885 123.46 102.031C123.448 102.176 123.465 102.323 123.511 102.461C123.284 102.619 123.096 102.827 122.962 103.07C122.828 103.312 122.752 103.582 122.739 103.859C122.724 103.872 122.706 103.883 122.692 103.898C122.719 103.795 122.733 103.688 122.734 103.582C122.709 103.175 122.523 102.795 122.219 102.524C121.914 102.254 121.515 102.114 121.108 102.137C120.912 102.138 120.717 102.171 120.531 102.235C120.497 102.093 120.436 101.959 120.349 101.842C120.263 101.724 120.153 101.626 120.027 101.552C119.902 101.478 119.762 101.43 119.617 101.411C119.473 101.392 119.326 101.403 119.185 101.443C119.045 101.483 118.914 101.55 118.801 101.642C118.687 101.734 118.593 101.847 118.525 101.976C118.457 102.105 118.415 102.247 118.403 102.392C118.391 102.537 118.408 102.684 118.454 102.822C118.214 102.988 118.018 103.209 117.883 103.468C117.747 103.726 117.677 104.013 117.677 104.304C117.677 104.596 117.747 104.883 117.883 105.141C118.018 105.399 118.214 105.621 118.454 105.786C118.381 105.996 118.381 106.225 118.454 106.435C118.273 106.561 118.116 106.719 117.992 106.901C117.925 106.659 117.775 106.447 117.569 106.303C117.362 106.16 117.112 106.093 116.861 106.114C116.61 106.136 116.375 106.245 116.196 106.422C116.017 106.599 115.906 106.833 115.882 107.084C115.737 106.999 115.58 106.935 115.417 106.896C115.71 106.703 115.94 106.429 116.081 106.108C116.284 106.128 116.489 106.105 116.683 106.041C116.876 105.976 117.054 105.872 117.205 105.734C117.355 105.596 117.475 105.428 117.556 105.241C117.638 105.054 117.679 104.852 117.677 104.648C117.675 104.444 117.629 104.242 117.544 104.057C117.459 103.871 117.336 103.706 117.183 103.571C117.029 103.437 116.849 103.336 116.654 103.275C116.459 103.215 116.254 103.196 116.051 103.221C115.855 103.221 115.659 103.255 115.473 103.319C115.44 103.177 115.378 103.043 115.292 102.926C115.205 102.808 115.096 102.709 114.97 102.635C114.844 102.561 114.705 102.513 114.56 102.495C114.416 102.476 114.269 102.487 114.128 102.527C113.988 102.566 113.857 102.634 113.743 102.726C113.63 102.817 113.536 102.931 113.468 103.06C113.399 103.189 113.358 103.33 113.346 103.476C113.333 103.621 113.351 103.767 113.397 103.906C113.374 103.922 113.353 103.941 113.33 103.958C113.274 103.953 113.219 103.943 113.161 103.943C112.965 103.944 112.77 103.977 112.584 104.041C112.577 104.014 112.566 103.989 112.557 103.962C112.592 103.802 112.589 103.635 112.549 103.475C112.508 103.316 112.432 103.168 112.324 103.043C112.217 102.918 112.082 102.82 111.931 102.756C111.779 102.692 111.615 102.664 111.451 102.674C111.357 102.412 111.203 102.175 111.002 101.982C110.802 101.79 110.559 101.646 110.294 101.562C110.028 101.479 109.747 101.458 109.472 101.501C109.197 101.544 108.936 101.651 108.709 101.812C108.482 101.973 108.295 102.184 108.163 102.429C108.031 102.674 107.958 102.946 107.949 103.225C107.94 103.503 107.995 103.779 108.111 104.032C108.226 104.286 108.399 104.509 108.615 104.684C108.49 104.698 108.368 104.725 108.249 104.764C108.206 104.588 108.12 104.425 107.997 104.292C107.875 104.158 107.721 104.058 107.549 104C107.377 103.942 107.194 103.928 107.015 103.96C106.837 103.992 106.67 104.069 106.529 104.183C106.368 103.992 106.166 103.839 105.939 103.735C105.712 103.631 105.464 103.578 105.214 103.582C105.018 103.583 104.823 103.616 104.637 103.68C104.603 103.538 104.541 103.404 104.455 103.287C104.368 103.169 104.259 103.071 104.133 102.996C104.008 102.922 103.868 102.875 103.723 102.856C103.579 102.837 103.432 102.848 103.291 102.888C103.151 102.927 103.02 102.995 102.907 103.087C102.793 103.179 102.699 103.292 102.631 103.421C102.563 103.55 102.521 103.692 102.509 103.837C102.497 103.982 102.514 104.129 102.56 104.267C102.32 104.433 102.124 104.654 101.989 104.912C101.853 105.171 101.783 105.458 101.783 105.749C101.783 105.755 101.784 105.76 101.784 105.765C101.528 105.727 101.266 105.755 101.024 105.848C100.991 105.705 100.929 105.572 100.843 105.454C100.756 105.337 100.647 105.238 100.521 105.164C100.395 105.09 100.256 105.042 100.111 105.023C99.9665 105.005 99.8195 105.015 99.6791 105.055C99.5387 105.095 99.4077 105.163 99.2942 105.254C99.1807 105.346 99.087 105.46 99.0186 105.589C98.9503 105.717 98.9087 105.859 98.8965 106.004C98.8844 106.15 98.9018 106.296 98.9477 106.435C98.5993 106.67 98.3447 107.021 98.2279 107.425C98.1112 107.829 98.1399 108.262 98.3089 108.647C98.478 109.032 98.7766 109.346 99.1531 109.534C99.5295 109.721 99.9599 109.771 100.369 109.675C100.435 110.052 100.618 110.398 100.893 110.663C101.169 110.929 101.521 111.1 101.9 111.151C102.279 111.203 102.665 111.132 103.001 110.95C103.337 110.767 103.607 110.482 103.77 110.137C105.071 110.306 106.392 110.246 107.672 109.961C107.791 110.303 108.011 110.601 108.303 110.816C108.595 111.031 108.944 111.153 109.307 111.166C109.669 111.179 110.026 111.083 110.333 110.889C110.639 110.696 110.88 110.414 111.024 110.081C111.287 110.076 111.546 110.012 111.781 109.894C111.946 110.185 112.189 110.425 112.482 110.585C112.776 110.746 113.109 110.822 113.443 110.804C113.777 110.786 114.1 110.675 114.374 110.483C114.649 110.292 114.865 110.027 114.997 109.72C115.399 109.644 115.815 109.711 116.172 109.909C116.53 110.108 116.806 110.425 116.954 110.806C117.196 110.476 117.507 110.202 117.865 110.003C118.223 109.805 118.621 109.687 119.029 109.658C119.392 109.759 119.778 109.741 120.13 109.607C120.482 109.472 120.782 109.229 120.985 108.911C120.871 109.351 120.928 109.818 121.143 110.218C121.358 110.618 121.716 110.922 122.146 111.07C122.576 111.217 123.045 111.197 123.461 111.014C123.877 110.831 124.208 110.498 124.389 110.081C124.652 110.076 124.911 110.012 125.147 109.894C125.311 110.185 125.554 110.425 125.848 110.585C126.141 110.746 126.474 110.822 126.808 110.804C127.143 110.786 127.465 110.675 127.74 110.483C128.014 110.292 128.23 110.027 128.362 109.72C128.626 109.715 128.885 109.651 129.12 109.533C129.247 109.759 129.422 109.955 129.632 110.107C129.843 110.259 130.084 110.363 130.339 110.412C130.593 110.462 130.856 110.455 131.108 110.393C131.36 110.33 131.595 110.214 131.798 110.052C131.86 110.397 132.023 110.717 132.265 110.971C132.507 111.225 132.819 111.403 133.161 111.482C133.503 111.562 133.861 111.539 134.19 111.417C134.52 111.296 134.806 111.08 135.015 110.798C135.232 110.964 135.483 111.078 135.751 111.132C136.019 111.186 136.295 111.178 136.56 111.109C136.824 111.04 137.069 110.912 137.276 110.733C137.483 110.555 137.647 110.332 137.754 110.081C137.957 110.101 138.162 110.079 138.356 110.014C138.55 109.95 138.728 109.845 138.878 109.708C139.029 109.57 139.149 109.402 139.23 109.215C139.311 109.027 139.352 108.825 139.35 108.621C139.348 108.417 139.303 108.216 139.218 108.03C139.133 107.845 139.009 107.679 138.856 107.545C138.703 107.41 138.523 107.309 138.328 107.249C138.133 107.188 137.927 107.17 137.725 107.194L137.725 107.194ZM105.439 106.449C105.437 106.457 105.436 106.466 105.434 106.475C105.421 106.474 105.408 106.472 105.395 106.472C105.341 106.473 105.287 106.478 105.234 106.488C105.237 106.481 105.241 106.476 105.244 106.469C105.309 106.466 105.374 106.459 105.439 106.449ZM120.531 105.848C120.525 105.826 120.516 105.807 120.51 105.787C120.786 105.595 121.003 105.331 121.138 105.024C121.375 105.023 121.61 104.972 121.826 104.874C122.043 104.776 122.236 104.633 122.394 104.455C122.38 104.525 122.373 104.595 122.373 104.666C122.374 104.776 122.393 104.885 122.427 104.99C122.117 105.206 121.883 105.514 121.756 105.87C121.363 105.717 120.929 105.709 120.531 105.848V105.848ZM131.35 105.982C131.349 105.96 131.352 105.937 131.35 105.915C131.396 105.915 131.442 105.912 131.488 105.906C131.558 106.14 131.675 106.357 131.832 106.543C131.798 106.553 131.762 106.559 131.729 106.57C131.67 106.338 131.537 106.131 131.35 105.982Z" fill="#F9A825"/>
<path d="M100.364 109.361C99.8519 109.361 99.3449 109.466 98.8742 109.668C98.4035 109.871 97.9789 110.167 97.6265 110.539C97.274 110.911 97.001 111.35 96.8242 111.831C96.6473 112.312 96.5703 112.824 96.5979 113.336L99.0439 146.971C99.0955 147.935 99.5148 148.843 100.215 149.507C100.916 150.171 101.845 150.541 102.81 150.541H134.349C135.315 150.541 136.243 150.171 136.944 149.507C137.645 148.843 138.064 147.935 138.116 146.971L140.562 113.336C140.589 112.824 140.512 112.312 140.335 111.831C140.159 111.35 139.886 110.911 139.533 110.539C139.181 110.167 138.756 109.871 138.285 109.668C137.815 109.466 137.308 109.361 136.795 109.361H100.364Z" fill="#3F3D56"/>
<path d="M104.311 109.361H102.144V150.541H104.311V109.361Z" fill="#6C63FF"/>
<path d="M110.452 109.361H108.285V150.541H110.452V109.361Z" fill="#6C63FF"/>
<path d="M116.593 109.361H114.426V150.541H116.593V109.361Z" fill="#6C63FF"/>
<path d="M122.734 109.361H120.566V150.541H122.734V109.361Z" fill="#6C63FF"/>
<path d="M128.875 109.361H126.707V150.541H128.875V109.361Z" fill="#6C63FF"/>
<path d="M135.016 109.361H132.848V150.541H135.016V109.361Z" fill="#6C63FF"/>
<path d="M132.843 129.773L125.822 133.869C125.822 133.869 108.855 147.911 120.556 150.251C132.258 152.592 135.183 140.305 135.183 140.305L139.279 135.624L132.843 129.773Z" fill="#FFB8B8"/>
<path d="M99.4932 126.848L106.514 130.943C106.514 130.943 123.482 144.985 111.78 147.326C100.078 149.666 97.1528 137.379 97.1528 137.379L93.0573 132.699L99.4932 126.848Z" fill="#FFB8B8"/>
<path d="M142.205 71.2648L149.811 71.8499C149.811 71.8499 155.661 77.1156 155.076 84.1366C155.076 84.1366 160.342 99.3489 159.172 105.785C159.172 105.785 160.342 116.316 158.587 120.412C156.832 124.508 142.205 140.305 142.205 140.305C142.205 140.305 128.748 129.773 129.333 129.188L146.885 111.636L138.109 99.934L142.205 71.2648Z" fill="#E6E6E6"/>
<path d="M92.4722 67.1691L92.1796 67.4616C92.1796 67.4616 79.0152 73.0199 79.6003 80.041C79.6003 80.041 74.3345 95.2532 75.5047 101.689C75.5047 101.689 74.3345 112.221 76.0898 116.316C77.8451 120.412 92.4722 136.209 92.4722 136.209C92.4722 136.209 105.929 125.678 105.344 125.093L87.7915 107.54L96.5678 95.8383L92.4722 67.1691Z" fill="#E6E6E6"/>
</g>
<defs>
<clipPath id="clip0">
<rect width="260" height="248.253" fill="white"/>
</clipPath>
</defs>
</svg>
