<svg width="260" height="227" viewBox="0 0 260 227" fill="none" xmlns="http://www.w3.org/2000/svg">
<g clip-path="url(#clip0)">
<path d="M43.1244 78.9324C42.5161 78.9937 41.904 79.008 41.2935 78.9751C41.1894 78.9638 41.085 78.9937 41.0028 79.0585C40.9206 79.1234 40.8672 79.2179 40.854 79.3217L39.6861 88.082C39.5962 88.7179 39.3359 89.3177 38.9326 89.8175C38.6002 90.2153 38.353 90.6772 38.2066 91.1744C38.0601 91.6717 38.0174 92.1938 38.0812 92.7083V107.589C38.0812 107.589 38.0059 109.573 39.5304 109.573C41.355 109.803 43.2011 109.803 45.0256 109.573C45.0256 109.573 46.2462 109.342 46.2462 107.511V92.859C46.3394 92.3478 46.3202 91.8224 46.1901 91.3194C46.06 90.8163 45.8221 90.3476 45.4928 89.9456C45.103 89.4439 44.8511 88.8492 44.7619 88.2202L43.5488 79.2765C43.5351 79.176 43.4835 79.0844 43.4047 79.0205C43.3258 78.9566 43.2256 78.9251 43.1244 78.9324Z" fill="white"/>
<path d="M42.2727 109.996C41.3505 109.996 40.4292 109.939 39.5142 109.824C39.3097 109.829 39.1065 109.792 38.9172 109.714C38.728 109.637 38.5567 109.521 38.4144 109.374C37.794 108.73 37.8284 107.626 37.8302 107.58L37.8301 92.7235C37.7653 92.1773 37.8126 91.6236 37.969 91.0963C38.1255 90.5689 38.3878 90.079 38.7399 89.6564C39.1132 89.1926 39.3542 88.6364 39.4374 88.0469L40.605 79.2884C40.6278 79.12 40.7152 78.967 40.8488 78.8619C40.9824 78.7568 41.1517 78.7078 41.3208 78.7254C41.9138 78.7567 42.5084 78.7423 43.0993 78.6825L43.1063 78.6819C43.2712 78.6699 43.4344 78.7212 43.5629 78.8253C43.6913 78.9294 43.7753 79.0785 43.7977 79.2423L45.0109 88.1864C45.0942 88.7714 45.3287 89.3246 45.6911 89.7913C46.0402 90.2179 46.2929 90.7148 46.4321 91.2481C46.5713 91.7814 46.5936 92.3385 46.4974 92.8812V107.511C46.4974 109.527 45.0867 109.817 45.0724 109.82C44.1437 109.937 43.2087 109.996 42.2727 109.996ZM41.2594 79.2248C41.222 79.223 41.1853 79.2351 41.1564 79.2589C41.1276 79.2827 41.1086 79.3163 41.1031 79.3533L39.935 88.1152C39.839 88.7967 39.5601 89.4394 39.1281 89.9752C38.8176 90.3471 38.5866 90.7788 38.4494 91.2436C38.3122 91.7083 38.2717 92.1963 38.3305 92.6773L38.3324 92.7082V107.589C38.3319 107.608 38.3052 108.538 38.7774 109.027C38.875 109.126 38.9926 109.204 39.1224 109.255C39.2521 109.306 39.3912 109.329 39.5304 109.322L39.5617 109.324C41.3655 109.551 43.1905 109.551 44.9943 109.324C45.0182 109.318 45.9951 109.095 45.9951 107.511L45.9992 92.8139C46.0861 92.3385 46.0685 91.8499 45.9475 91.382C45.8265 90.9142 45.6051 90.4783 45.2985 90.1047C44.8801 89.5672 44.6095 88.9297 44.5134 88.2553L43.3 79.3101C43.2947 79.2734 43.2759 79.2401 43.2472 79.2165C43.2186 79.1929 43.1822 79.1809 43.1452 79.1827C42.5255 79.2447 41.9019 79.2592 41.28 79.2259C41.2732 79.2252 41.2663 79.2248 41.2593 79.2248H41.2594Z" fill="#3F3D56"/>
<path d="M41.2809 92.9745H43.1319C43.868 92.9745 44.5739 93.2669 45.0944 93.7873C45.6148 94.3078 45.9072 95.0137 45.9072 95.7497V102.714C45.9072 103.45 45.6148 104.156 45.0944 104.677C44.5739 105.197 43.868 105.49 43.1319 105.49H41.2809C40.5449 105.49 39.839 105.197 39.3185 104.677C38.7981 104.156 38.5057 103.45 38.5057 102.714V95.7498C38.5057 95.3853 38.5775 95.0244 38.7169 94.6877C38.8564 94.351 39.0608 94.0451 39.3185 93.7873C39.5762 93.5296 39.8822 93.3252 40.2189 93.1857C40.5556 93.0463 40.9165 92.9745 41.2809 92.9745Z" fill="#6C63FF"/>
<path d="M7.25089 220.89H13.2856L16.1566 197.613L7.24982 197.614L7.25089 220.89Z" fill="#9F616A"/>
<path d="M5.71162 218.92L17.5962 218.92H17.5967C19.6053 218.92 21.5316 219.718 22.952 221.138C24.3723 222.558 25.1703 224.485 25.1704 226.493V226.739L5.71198 226.74L5.71162 218.92Z" fill="#2F2E41"/>
<path d="M3.45705 137.751C3.45705 137.751 0.841636 140.707 5.17235 152.232L4.40953 215.423L18.444 215.149L21.529 184.325L27.1457 139.344L3.45705 137.751Z" fill="#2F2E41"/>
<path d="M31.9591 146.488L31.8055 146.464C13.8515 143.726 0.303063 141.101 0.168305 141.075L0 141.042L4.7065 129.595C4.66932 128.398 3.65053 94.8082 5.60083 85.1574C7.48884 75.8148 16.3883 74.2838 17.4024 74.1397L18.4207 70.7657L31.2856 77.4601L33.5294 85.1822L33.9851 106.347L31.9591 146.488Z" fill="#3F3D56"/>
<path d="M39.7075 102.926C39.1282 102.926 38.5551 103.046 38.0243 103.278C37.4935 103.51 37.0165 103.85 36.6233 104.275H14.9995L7.0788 105.961L8.37925 115.991L36.5554 109.932C37.0218 110.458 37.6129 110.86 38.2745 111.1C38.9361 111.339 39.6472 111.41 40.3429 111.304C41.0385 111.198 41.6966 110.919 42.257 110.494C42.8174 110.068 43.2623 109.509 43.5511 108.867C43.8398 108.226 43.9632 107.522 43.91 106.82C43.8568 106.119 43.6286 105.441 43.2464 104.851C42.8642 104.26 42.3401 103.774 41.7219 103.438C41.1037 103.102 40.4112 102.926 39.7075 102.926H39.7075Z" fill="#9F616A"/>
<path d="M39.8951 66.974C42.6558 61.9237 40.7998 55.5916 35.7495 52.8308C30.6991 50.0701 24.367 51.9262 21.6063 56.9765C18.8456 62.0268 20.7016 68.3589 25.7519 71.1196C30.8022 73.8804 37.1343 72.0243 39.8951 66.974Z" fill="#9F616A"/>
<path d="M20.9491 53.6438L20.4439 52.6269L22.9861 51.3639C22.9861 51.3639 25.7905 46.8007 30.8652 48.0831C35.9399 49.3654 38.2231 50.1329 38.2231 50.1329L40.7589 51.4088L39.4862 52.675L41.7694 53.4425L40.2441 54.2004L42.0188 55.2204L41.0634 60.4497C41.0634 60.4497 39.4766 56.4835 36.426 57.9992C33.3754 59.5149 27.7954 57.2157 27.7954 57.2157L22.9476 66.5977C22.9476 66.5977 21.9475 63.3088 20.1644 64.1858C20.1643 64.1858 15.6089 56.931 20.9491 53.6438Z" fill="#2F2E41"/>
<path d="M8.51767 117.871L6.0448 110.516L5.44664 85.9958L6.50028 82.5169C6.87952 81.2647 7.50766 80.102 8.34702 79.0985C9.18639 78.0949 10.2197 77.2712 11.3851 76.6765C12.5505 76.0819 13.8239 75.7287 15.1291 75.638C16.4342 75.5473 17.7442 75.7211 18.9806 76.1488C20.217 76.5766 21.3544 77.2496 22.3244 78.1274C23.2945 79.0053 24.0774 80.0699 24.6261 81.2576C25.1749 82.4452 25.4782 83.7315 25.518 85.0392C25.5577 86.3469 25.333 87.6491 24.8574 88.8679L19.21 103.34L19.4971 103.897L31.7322 103.798L36.0783 111.621L8.51767 117.871Z" fill="#3F3D56"/>
<path d="M130.932 114.849C131.389 114.541 131.772 114.138 132.056 113.666C132.34 113.194 132.516 112.666 132.574 112.118C132.631 111.571 132.568 111.017 132.388 110.497C132.208 109.976 131.917 109.502 131.534 109.106L137.565 97.16L130.657 97.9613L125.989 109.183C125.367 109.87 125.019 110.762 125.011 111.688C125.003 112.615 125.335 113.513 125.944 114.211C126.553 114.91 127.398 115.361 128.317 115.478C129.236 115.596 130.167 115.372 130.932 114.849Z" fill="#FFB7B7"/>
<path d="M179.299 199.469L173.864 199.469L171.278 178.504L179.3 178.505L179.299 199.469Z" fill="#FFB7B7"/>
<path d="M180.685 204.737L163.16 204.737V204.515C163.16 202.706 163.879 200.971 165.158 199.692C166.437 198.413 168.172 197.694 169.981 197.694H169.982L180.686 197.694L180.685 204.737Z" fill="#2F2E41"/>
<path d="M149.596 199.469L144.161 199.469L141.575 178.504L149.597 178.505L149.596 199.469Z" fill="#FFB7B7"/>
<path d="M149.652 204.737L132.127 204.737V204.515C132.127 202.706 132.846 200.971 134.125 199.692C135.404 198.413 137.139 197.694 138.948 197.694H138.949L149.652 197.694L149.652 204.737Z" fill="#2F2E41"/>
<path d="M149.151 110.925L143.831 123.182L139.442 193.627L150.525 193.184L153.553 159.602L162.89 129.692L168.259 163.037L170.476 192.297L179.646 192.694L183.301 110.925H149.151Z" fill="#2F2E41"/>
<path d="M175.744 50.4478L160.324 50.8335L151.272 55.4807L150.775 89.767L145.129 113.439C145.129 113.439 180.406 115.867 185.282 112.32L179.519 85.2767L187.249 56.0506L175.744 50.4478Z" fill="#6C63FF"/>
<path d="M153.653 56.049L152.218 55.0796C152.218 55.0796 146.271 56.8619 144.513 64.7914C144.513 64.7914 143.168 68.7696 142.578 71.5048C141.901 74.642 126.954 103.459 126.954 103.459L135.903 106.026L152.31 79.493L153.653 56.049Z" fill="#6C63FF"/>
<path d="M187.007 119.246C186.653 118.824 186.396 118.33 186.253 117.798C186.111 117.266 186.087 116.71 186.182 116.168C186.278 115.626 186.492 115.111 186.808 114.661C187.124 114.21 187.535 113.834 188.013 113.559L185.51 100.413L191.929 103.089L193.321 115.162C193.729 115.994 193.818 116.947 193.571 117.84C193.323 118.734 192.756 119.505 191.978 120.008C191.2 120.512 190.264 120.712 189.348 120.571C188.432 120.431 187.599 119.959 187.007 119.246Z" fill="#FFB7B7"/>
<path d="M184.929 56.4601L186.576 55.9241C186.576 55.9241 191.8 59.2771 191.303 67.3838C191.303 67.3838 191.499 71.5787 191.312 74.3706C191.098 77.5728 193.972 109.394 193.972 109.394H184.662L180.672 80.5772L184.929 56.4601Z" fill="#6C63FF"/>
<path d="M179.529 36.0632C179.529 38.1772 178.902 40.2438 177.727 42.0016C176.553 43.7593 174.883 45.1293 172.93 45.9383C170.977 46.7473 168.828 46.959 166.755 46.5466C164.681 46.1342 162.777 45.1161 161.282 43.6213C159.787 42.1264 158.769 40.2219 158.356 38.1485C157.944 36.0751 158.156 33.9259 158.965 31.9728C159.774 30.0197 161.144 28.3503 162.902 27.1758C164.659 26.0013 166.726 25.3744 168.84 25.3744C171.668 25.3674 174.382 26.4839 176.387 28.4785C178.391 30.473 179.522 33.1822 179.529 36.0099C179.529 36.0277 179.529 36.0454 179.529 36.0632Z" fill="#FFB7B7"/>
<path d="M158.187 21.7062C159.439 19.0137 161.862 19.546 163.981 20.4587C166.665 19.8634 169.217 18.0813 172.109 19.1352C174.957 23.2778 184.519 22.059 182.485 28.8031C182.482 30.4191 185.526 29.4785 184.995 32.1252C186.607 37.2187 179.175 46.8651 174.908 44.8337C175.964 42.8999 178.374 38.5075 174.718 38.0719C166.854 45.3894 173.907 24.1377 164.025 30.3181C160.754 33.3123 156.274 24.7012 158.187 21.7062Z" fill="#2F2E41"/>
<path d="M188.878 120.311C189.388 120.414 189.913 120.403 190.417 120.281C190.922 120.158 191.394 119.926 191.799 119.602C192.204 119.277 192.534 118.867 192.763 118.402C192.993 117.936 193.118 117.426 193.13 116.907L219.968 91.6455L213.93 86.8284L189.401 113.238C188.528 113.277 187.699 113.634 187.072 114.243C186.445 114.852 186.063 115.67 185.998 116.542C185.934 117.414 186.191 118.28 186.722 118.974C187.253 119.669 188.02 120.145 188.878 120.311Z" fill="#9F616A"/>
<path d="M216.165 95.7288L210.944 89.6097C210.795 89.4356 210.686 89.2315 210.623 89.0114C210.561 88.7912 210.547 88.5602 210.581 88.3339C210.616 88.1077 210.699 87.8917 210.825 87.7005C210.951 87.5093 211.116 87.3474 211.31 87.226L218.108 82.9706C219.003 82.2154 220.161 81.8459 221.328 81.9433C222.495 82.0407 223.576 82.5969 224.333 83.49C225.091 84.3831 225.463 85.5402 225.369 86.7075C225.275 87.8748 224.721 88.957 223.83 89.7169L218.577 95.7421C218.427 95.9146 218.241 96.0526 218.032 96.1467C217.823 96.2409 217.597 96.289 217.368 96.2877C217.139 96.2865 216.913 96.2359 216.706 96.1394C216.498 96.043 216.314 95.903 216.165 95.7289V95.7288Z" fill="#CBCBCB"/>
<path d="M202.125 220.379L195.562 220.379L192.441 195.068L202.126 195.069L202.125 220.379Z" fill="#9F616A"/>
<path d="M203.798 226.74L182.639 226.739V226.472C182.639 224.287 183.507 222.193 185.052 220.648C186.596 219.104 188.691 218.236 190.875 218.236H190.875L203.798 218.237L203.798 226.74Z" fill="#2F2E41"/>
<path d="M254.578 220.379L248.017 220.379L244.895 195.068L254.58 195.069L254.578 220.379Z" fill="#9F616A"/>
<path d="M256.252 226.74L235.093 226.739V226.472C235.093 224.287 235.961 222.193 237.506 220.648C239.05 219.104 241.145 218.236 243.329 218.236H243.329L256.252 218.237L256.252 226.74Z" fill="#2F2E41"/>
<path d="M236.928 109.146L243.542 84.7075L234.961 79.8842H222.984L218.325 84.8682C218.325 84.8682 210.542 90.2835 212.426 96.2834L215.465 109.949L210.817 131.654L187.398 164.131L181.854 196.032L203.677 201.753L227.274 155.289L238.715 206.737L260 205.667L252.666 143.285C252.666 143.285 250.575 124.282 239.615 112.416L236.928 109.146Z" fill="#2F2E41"/>
<path d="M250.588 130.768C250.957 130.403 251.241 129.961 251.42 129.473C251.6 128.986 251.671 128.466 251.627 127.948C251.584 127.431 251.427 126.929 251.169 126.478C250.911 126.028 250.557 125.639 250.133 125.34L245 90.7169L237.634 93.0429L245.008 126.389C244.553 127.136 244.388 128.023 244.543 128.884C244.699 129.744 245.165 130.517 245.853 131.057C246.541 131.597 247.402 131.865 248.275 131.812C249.148 131.759 249.971 131.388 250.588 130.768Z" fill="#9F616A"/>
<path d="M246.269 96.1509L238.278 97.0723C238.05 97.0985 237.82 97.0754 237.602 97.0046C237.385 96.9337 237.185 96.8168 237.016 96.6618C236.848 96.5068 236.715 96.3173 236.627 96.1062C236.538 95.8952 236.496 95.6675 236.503 95.4388L236.762 87.4233C236.635 86.2593 236.974 85.0922 237.706 84.178C238.437 83.2637 239.502 82.6769 240.665 82.5462C241.829 82.4155 242.997 82.7515 243.913 83.4806C244.83 84.2097 245.419 85.2724 245.553 86.4357L247.625 94.1565C247.684 94.3775 247.695 94.6088 247.657 94.8344C247.618 95.0601 247.532 95.2749 247.403 95.4642C247.275 95.6534 247.107 95.8128 246.911 95.9313C246.715 96.0498 246.496 96.1247 246.269 96.1509V96.1509Z" fill="#CBCBCB"/>
<path d="M215.578 72.9344V62.6376C215.578 58.9783 217.032 55.4688 219.619 52.8812C222.207 50.2937 225.716 48.84 229.376 48.84C233.035 48.84 236.544 50.2937 239.132 52.8812C241.72 55.4688 243.173 58.9783 243.173 62.6376V72.9344C243.173 73.4258 242.977 73.8969 242.63 74.2444C242.282 74.5918 241.811 74.7873 241.32 74.7878H217.431C216.94 74.7873 216.469 74.5918 216.121 74.2444C215.774 73.8969 215.578 73.4258 215.578 72.9344Z" fill="#2F2E41"/>
<path d="M231.392 73.3084C236.295 70.6286 238.096 64.4822 235.417 59.5799C232.737 54.6777 226.59 52.876 221.688 55.5558C216.786 58.2357 214.984 64.3821 217.664 69.2844C220.344 74.1866 226.49 75.9883 231.392 73.3084Z" fill="#9F616A"/>
<path d="M212.314 63.4614C212.317 60.5677 213.468 57.7935 215.514 55.7473C217.56 53.7011 220.335 52.5501 223.228 52.5469H225.288C228.181 52.5501 230.956 53.7011 233.002 55.7473C235.048 57.7935 236.199 60.5677 236.202 63.4615V63.6674H231.85L230.366 59.5109L230.069 63.6674H227.82L227.071 61.5702L226.921 63.6674H212.314V63.4614Z" fill="#2F2E41"/>
<path d="M225.545 75.9457C225.34 75.6691 225.218 75.3403 225.193 74.9973C225.167 74.6543 225.239 74.3111 225.4 74.0071C227.582 69.8562 230.637 62.1863 226.582 57.4562L226.29 57.1163H238.065V74.7938L227.368 76.681C227.26 76.7002 227.15 76.7099 227.04 76.71C226.748 76.71 226.461 76.6407 226.201 76.5078C225.941 76.375 225.716 76.1823 225.545 75.9457Z" fill="#2F2E41"/>
<path d="M117.323 85.3588C117.174 85.5123 117.037 85.6774 116.913 85.8524L97.7289 85.383L95.4908 81.2933L88.8773 83.8643L92.1357 91.4893C92.399 92.1053 92.8549 92.6193 93.4351 92.9541C94.0154 93.2889 94.6885 93.4265 95.3536 93.3461L117.029 90.7277C117.54 91.375 118.236 91.8513 119.025 92.0932C119.813 92.3352 120.657 92.3313 121.443 92.0821C122.229 91.8329 122.921 91.3502 123.427 90.6983C123.932 90.0463 124.227 89.256 124.272 88.4324C124.317 87.6088 124.11 86.7909 123.679 86.0876C123.248 85.3843 122.613 84.8289 121.859 84.4952C121.105 84.1616 120.267 84.0655 119.456 84.2198C118.646 84.374 117.902 84.7713 117.323 85.3588H117.323Z" fill="#FFB7B7"/>
<path d="M54.7842 201.868H61.0922L64.0931 177.537L54.7831 177.538L54.7842 201.868Z" fill="#FFB7B7"/>
<path d="M53.1752 199.809L65.5979 199.808H65.5985C67.698 199.809 69.7116 200.643 71.1963 202.127C72.6809 203.612 73.5151 205.626 73.5152 207.725V207.982L53.1756 207.983L53.1752 199.809Z" fill="#2F2E41"/>
<path d="M112.063 201.728L117.864 199.25L111.066 175.696L102.504 179.354L112.063 201.728Z" fill="#FFB7B7"/>
<path d="M109.774 200.466L121.198 195.586L121.199 195.586C123.13 194.761 125.309 194.737 127.257 195.519C129.206 196.301 130.764 197.825 131.589 199.756L131.69 199.993L112.986 207.983L109.774 200.466Z" fill="#2F2E41"/>
<path d="M85.4454 90.6294L85.9015 98.0212L72.5683 99.4482L58.6166 100.941L62.7229 89.717L85.4454 90.6294Z" fill="#FFB7B7"/>
<path d="M85.9138 93.2819C85.7627 93.2226 70.7026 87.3644 61.4521 92.1545L61.2246 92.2724L59.3792 83.189L58.3277 63.6601L65.1701 60.4269L67.0541 56.2069L79.8863 55.4475L82.5232 59.0639L91.5013 62.0063L86.1355 93.3696L85.9138 93.2819Z" fill="#E4E4E4"/>
<path d="M86.3854 75.6545L87.9726 63.1832L91.5867 62.0831L91.6477 62.1056C91.7311 62.1362 93.6952 62.888 94.2329 65.6073C94.749 68.2173 98.6357 84.4596 98.6749 84.6234L98.7138 84.7859L89.5817 88.4396L86.3854 75.6545Z" fill="#E4E4E4"/>
<path d="M107.365 197.452L119.521 194.958L100.092 141.346L93.4423 123.06C93.4423 123.06 89.2248 108.398 87.3193 102.724L86.1693 95.1105L58.9475 98.1236C58.9475 98.1236 51.3445 109.289 53.6543 127.489L52.6096 195.893L64.7659 196.517L74.9481 127.527L92.8189 165.347C92.8189 165.347 98.4516 181.486 102.482 184.984L107.365 197.452Z" fill="#2F2E41"/>
<path d="M69.8641 100.663C69.65 100.657 69.4359 100.669 69.2237 100.698L56.5242 86.3107L58.0014 81.8889L51.6196 78.7872L48.2436 86.361C47.9709 86.9728 47.904 87.6567 48.053 88.3098C48.202 88.9629 48.5588 89.55 49.0699 89.9831L65.7269 104.097C65.5999 104.912 65.724 105.746 66.0828 106.489C66.4415 107.232 67.0179 107.848 67.7352 108.255C68.4526 108.662 69.2769 108.841 70.0985 108.769C70.9202 108.696 71.7002 108.375 72.3349 107.848C72.9695 107.321 73.4287 106.613 73.6514 105.819C73.8741 105.025 73.8497 104.182 73.5815 103.402C73.3133 102.622 72.814 101.942 72.1499 101.452C71.4859 100.963 70.6886 100.688 69.8641 100.663Z" fill="#FFB7B7"/>
<path d="M50.4698 80.9188L55.4346 66.7772C55.9925 65.1102 56.6917 64.0974 57.5128 63.767C57.6745 63.6942 57.8496 63.6558 58.0269 63.6541C58.2042 63.6525 58.38 63.6876 58.5431 63.7573L60.7693 66.5699L62.8355 75.2497L57.5379 87.7109L50.4698 80.9188Z" fill="#E4E4E4"/>
<path d="M83.3318 52.521H61.5365C61.0882 52.5205 60.6584 52.3422 60.3414 52.0251C60.0244 51.7081 59.8461 51.2783 59.8456 50.83V41.4355C59.8456 38.0967 61.1718 34.8948 63.5327 32.5339C65.8935 30.1731 69.0955 28.8468 72.4342 28.8468C75.7729 28.8468 78.9749 30.1731 81.3357 32.5339C83.6966 34.8948 85.0229 38.0967 85.0229 41.4355V50.83C85.0224 51.2783 84.844 51.7081 84.527 52.0251C84.21 52.3422 83.7802 52.5205 83.3318 52.521Z" fill="#2F2E41"/>
<path d="M75.021 52.3024C80.1184 52.3024 84.2506 48.1702 84.2506 43.0728C84.2506 37.9755 80.1184 33.8433 75.021 33.8433C69.9237 33.8433 65.7915 37.9755 65.7915 43.0728C65.7915 48.1702 69.9237 52.3024 75.021 52.3024Z" fill="#FFB7B7"/>
<path d="M88.001 42.375H74.6738L74.5371 40.4616L73.8537 42.375H71.8016L71.5308 38.5827L70.1765 42.375H66.2057V42.1871C66.2087 39.5469 67.2588 37.0157 69.1257 35.1489C70.9925 33.282 73.5237 32.2319 76.1638 32.2289H78.0428C80.683 32.2319 83.2142 33.282 85.0811 35.1489C86.9479 37.0157 87.9981 39.5469 88.001 42.1871L88.001 42.375Z" fill="#2F2E41"/>
<path d="M74.5647 54.2747C74.4643 54.2746 74.3642 54.2658 74.2654 54.2483L64.5066 52.5264V36.3979H75.2492L74.9832 36.708C71.2828 41.0237 74.0706 48.0215 76.0618 51.8086C76.2085 52.086 76.274 52.3992 76.2505 52.7121C76.2271 53.025 76.1158 53.325 75.9294 53.5774C75.7733 53.7933 75.5682 53.9691 75.3309 54.0903C75.0937 54.2115 74.8311 54.2747 74.5647 54.2747Z" fill="#2F2E41"/>
<path d="M191.464 93.0425C190.856 93.1038 190.244 93.1181 189.633 93.0852C189.529 93.0739 189.425 93.1038 189.343 93.1686C189.26 93.2335 189.207 93.328 189.194 93.4318L188.026 102.192C187.936 102.828 187.676 103.428 187.272 103.928C186.94 104.325 186.693 104.787 186.546 105.285C186.4 105.782 186.357 106.304 186.421 106.818V121.699C186.421 121.699 186.346 123.683 187.87 123.683C189.695 123.913 191.541 123.913 193.365 123.683C193.365 123.683 194.586 123.452 194.586 121.622V106.969C194.679 106.458 194.66 105.933 194.53 105.429C194.4 104.926 194.162 104.458 193.833 104.056C193.443 103.554 193.191 102.959 193.102 102.33L191.889 93.3866C191.875 93.2861 191.823 93.1946 191.744 93.1306C191.666 93.0667 191.565 93.0352 191.464 93.0425Z" fill="white"/>
<path d="M190.612 124.106C189.69 124.106 188.769 124.049 187.854 123.935C187.649 123.939 187.446 123.902 187.257 123.824C187.068 123.747 186.896 123.631 186.754 123.484C186.134 122.84 186.168 121.737 186.17 121.69L186.17 106.834C186.105 106.288 186.152 105.734 186.309 105.206C186.465 104.679 186.727 104.189 187.08 103.767C187.453 103.303 187.694 102.747 187.777 102.157L188.945 93.3987C188.968 93.2302 189.055 93.0772 189.189 92.9721C189.322 92.867 189.491 92.8181 189.661 92.8356C190.254 92.8669 190.848 92.8526 191.439 92.7927L191.446 92.7921C191.611 92.7801 191.774 92.8314 191.903 92.9355C192.031 93.0396 192.115 93.1887 192.137 93.3525L193.351 102.297C193.434 102.882 193.668 103.435 194.031 103.902C194.38 104.328 194.633 104.825 194.772 105.358C194.911 105.892 194.933 106.449 194.837 106.991V121.621C194.837 123.637 193.426 123.928 193.412 123.93C192.483 124.047 191.548 124.106 190.612 124.106ZM189.599 93.335C189.562 93.3332 189.525 93.3454 189.496 93.3691C189.467 93.3929 189.448 93.4265 189.443 93.4635L188.275 102.225C188.179 102.907 187.9 103.55 187.468 104.085C187.157 104.457 186.926 104.889 186.789 105.354C186.652 105.819 186.611 106.307 186.67 106.788L186.672 106.818V121.699C186.672 121.718 186.645 122.648 187.117 123.137C187.215 123.237 187.332 123.314 187.462 123.365C187.592 123.416 187.731 123.439 187.87 123.432L187.901 123.434C189.705 123.661 191.53 123.661 193.334 123.434C193.358 123.429 194.335 123.206 194.335 121.621L194.339 106.924C194.426 106.449 194.408 105.96 194.287 105.492C194.166 105.024 193.945 104.589 193.638 104.215C193.22 103.677 192.949 103.04 192.853 102.366L191.64 93.4204C191.634 93.3837 191.616 93.3503 191.587 93.3267C191.558 93.3032 191.522 93.2911 191.485 93.293C190.865 93.355 190.242 93.3694 189.62 93.3361C189.613 93.3354 189.606 93.335 189.599 93.335Z" fill="#3F3D56"/>
<path d="M189.621 107.085H191.472C192.208 107.085 192.914 107.377 193.434 107.897C193.955 108.418 194.247 109.124 194.247 109.86V116.824C194.247 117.56 193.955 118.266 193.434 118.787C192.914 119.307 192.208 119.6 191.472 119.6H189.621C188.885 119.6 188.179 119.307 187.658 118.787C187.138 118.266 186.845 117.56 186.845 116.824V109.86C186.845 109.124 187.138 108.418 187.658 107.897C188.179 107.377 188.885 107.085 189.621 107.085Z" fill="#6C63FF"/>
<path d="M128.65 80.9766C128.042 81.0379 127.43 81.0522 126.82 81.0193C126.715 81.0079 126.611 81.0379 126.529 81.1027C126.447 81.1675 126.393 81.2621 126.38 81.3659L125.212 90.1262C125.122 90.7621 124.862 91.3618 124.459 91.8617C124.126 92.2595 123.879 92.7213 123.733 93.2186C123.586 93.7159 123.543 94.238 123.607 94.7525V109.633C123.607 109.633 123.532 111.618 125.056 111.618C126.881 111.847 128.727 111.847 130.552 111.618C130.552 111.618 131.772 111.386 131.772 109.556V94.9032C131.865 94.392 131.846 93.8666 131.716 93.3636C131.586 92.8605 131.348 92.3917 131.019 91.9898C130.629 91.4881 130.377 90.8933 130.288 90.2644L129.075 81.3207C129.061 81.2202 129.01 81.1286 128.931 81.0647C128.852 81.0008 128.752 80.9693 128.65 80.9766Z" fill="white"/>
<path d="M127.799 112.04C126.877 112.04 125.955 111.983 125.04 111.869C124.836 111.874 124.632 111.836 124.443 111.759C124.254 111.681 124.083 111.565 123.94 111.418C123.32 110.774 123.354 109.671 123.356 109.624L123.356 94.7678C123.291 94.2216 123.339 93.6679 123.495 93.1406C123.651 92.6132 123.914 92.1233 124.266 91.7007C124.639 91.2369 124.88 90.6807 124.963 90.0912L126.131 81.3327C126.154 81.1643 126.241 81.0113 126.375 80.9062C126.508 80.8011 126.678 80.7522 126.847 80.7697C127.44 80.801 128.034 80.7867 128.625 80.7268L128.632 80.7262C128.797 80.7142 128.96 80.7655 129.089 80.8696C129.217 80.9737 129.301 81.1228 129.324 81.2866L130.537 90.2307C130.62 90.8157 130.855 91.3689 131.217 91.8356C131.566 92.2622 131.819 92.7591 131.958 93.2924C132.097 93.8257 132.12 94.3828 132.023 94.9255V109.556C132.023 111.571 130.613 111.862 130.598 111.864C129.67 111.981 128.735 112.04 127.799 112.04ZM126.785 81.2691C126.748 81.2673 126.711 81.2795 126.682 81.3032C126.654 81.327 126.635 81.3606 126.629 81.3976L125.461 90.1595C125.365 90.841 125.086 91.4837 124.654 92.0195C124.344 92.3914 124.113 92.8231 123.975 93.2879C123.838 93.7526 123.798 94.2406 123.856 94.7216L123.858 94.7525V109.633C123.858 109.652 123.831 110.582 124.303 111.071C124.401 111.171 124.519 111.248 124.648 111.299C124.778 111.35 124.917 111.373 125.056 111.366L125.088 111.368C126.892 111.595 128.717 111.595 130.52 111.368C130.544 111.363 131.521 111.14 131.521 109.556L131.525 94.8582C131.612 94.3828 131.594 93.8942 131.473 93.4263C131.352 92.9585 131.131 92.5226 130.824 92.149C130.406 91.6115 130.135 90.974 130.039 90.2996L128.826 81.3544C128.821 81.3178 128.802 81.2844 128.773 81.2608C128.745 81.2373 128.708 81.2252 128.671 81.227C128.051 81.289 127.428 81.3035 126.806 81.2702C126.799 81.2695 126.792 81.2691 126.785 81.2691Z" fill="#3F3D56"/>
<path d="M126.807 95.0187H128.658C129.394 95.0187 130.1 95.3111 130.62 95.8315C131.141 96.352 131.433 97.0579 131.433 97.7939V104.758C131.433 105.495 131.141 106.2 130.62 106.721C130.1 107.241 129.394 107.534 128.658 107.534H126.807C126.071 107.534 125.365 107.241 124.845 106.721C124.324 106.2 124.032 105.495 124.032 104.758V97.7939C124.032 97.0579 124.324 96.352 124.845 95.8315C125.365 95.3111 126.071 95.0187 126.807 95.0187Z" fill="#6C63FF"/>
<path d="M118.004 68.201C117.396 68.2623 116.784 68.2765 116.173 68.2437C116.069 68.2323 115.965 68.2623 115.882 68.3271C115.8 68.3919 115.747 68.4864 115.734 68.5903L114.566 77.3506C114.476 77.9865 114.216 78.5862 113.812 79.0861C113.48 79.4838 113.233 79.9457 113.086 80.443C112.94 80.9403 112.897 81.4624 112.961 81.9769V96.8578C112.961 96.8578 112.886 98.8419 114.41 98.8419C116.235 99.0712 118.081 99.0712 119.905 98.8419C119.905 98.8419 121.126 98.6109 121.126 96.7799V82.1275C121.219 81.6163 121.2 81.091 121.07 80.5879C120.94 80.0849 120.702 79.6161 120.372 79.2142C119.983 78.7125 119.731 78.1177 119.642 77.4887L118.428 68.5451C118.415 68.4445 118.363 68.353 118.284 68.2891C118.205 68.2252 118.105 68.1937 118.004 68.201Z" fill="white"/>
<path d="M117.152 99.2646C116.23 99.2647 115.309 99.2074 114.394 99.093C114.189 99.0979 113.986 99.0604 113.797 98.9829C113.608 98.9054 113.436 98.7897 113.294 98.6429C112.674 97.9985 112.708 96.8949 112.71 96.8482L112.71 81.9922C112.645 81.446 112.692 80.8923 112.849 80.3649C113.005 79.8376 113.267 79.3477 113.619 78.9251C113.993 78.4612 114.234 77.9051 114.317 77.3155L115.485 68.5571C115.507 68.3886 115.595 68.2357 115.728 68.1306C115.862 68.0255 116.031 67.9765 116.2 67.9941C116.793 68.0254 117.388 68.011 117.979 67.9512L117.986 67.9506C118.151 67.9386 118.314 67.9899 118.442 68.094C118.571 68.1981 118.655 68.3472 118.677 68.511L119.89 77.4551C119.974 78.0401 120.208 78.5933 120.571 79.06C120.92 79.4865 121.173 79.9835 121.312 80.5168C121.451 81.0501 121.473 81.6072 121.377 82.1499V96.7799C121.377 98.7955 119.966 99.0861 119.952 99.0888C119.023 99.2058 118.088 99.2645 117.152 99.2646ZM116.139 68.4935C116.102 68.4917 116.065 68.5038 116.036 68.5276C116.007 68.5513 115.988 68.585 115.983 68.622L114.815 77.3838C114.719 78.0653 114.44 78.7081 114.008 79.2438C113.697 79.6158 113.466 80.0475 113.329 80.5123C113.192 80.977 113.151 81.465 113.21 81.946L113.212 81.9768V96.8578C113.211 96.8763 113.185 97.8069 113.657 98.2957C113.755 98.3951 113.872 98.4728 114.002 98.5236C114.132 98.5745 114.271 98.5974 114.41 98.5909L114.441 98.5928C116.245 98.8192 118.07 98.8192 119.874 98.5928C119.898 98.5869 120.875 98.3641 120.875 96.7799L120.879 82.0826C120.966 81.6072 120.948 81.1186 120.827 80.6507C120.706 80.1828 120.485 79.7469 120.178 79.3733C119.76 78.8358 119.489 78.1983 119.393 77.524L118.18 68.5788C118.174 68.5421 118.155 68.5087 118.127 68.4852C118.098 68.4616 118.062 68.4496 118.025 68.4514C117.405 68.5134 116.782 68.5278 116.16 68.4946C116.153 68.4938 116.146 68.4935 116.139 68.4935Z" fill="#3F3D56"/>
<path d="M116.161 82.243H118.012C118.748 82.243 119.453 82.5354 119.974 83.0559C120.494 83.5764 120.787 84.2823 120.787 85.0183V91.9829C120.787 92.7189 120.494 93.4248 119.974 93.9453C119.453 94.4657 118.748 94.7581 118.012 94.7581H116.161C115.424 94.7581 114.719 94.4657 114.198 93.9453C113.678 93.4248 113.385 92.7189 113.385 91.9829V85.0183C113.385 84.2823 113.678 83.5764 114.198 83.0559C114.719 82.5354 115.424 82.243 116.161 82.243Z" fill="#6C63FF"/>
<path d="M19.9398 25.1965C24.8397 25.1965 28.8118 21.2244 28.8118 16.3245C28.8118 11.4246 24.8397 7.45251 19.9398 7.45251C15.0399 7.45251 11.0678 11.4246 11.0678 16.3245C11.0678 21.2244 15.0399 25.1965 19.9398 25.1965Z" fill="#F0F0F0"/>
<path d="M224.35 17.744C229.25 17.744 233.222 13.7719 233.222 8.87199C233.222 3.97213 229.25 0 224.35 0C219.451 0 215.478 3.97213 215.478 8.87199C215.478 13.7719 219.451 17.744 224.35 17.744Z" fill="#F0F0F0"/>
<path d="M122.855 40.1014C126.383 40.1014 129.243 37.2414 129.243 33.7135C129.243 30.1856 126.383 27.3257 122.855 27.3257C119.327 27.3257 116.467 30.1856 116.467 33.7135C116.467 37.2414 119.327 40.1014 122.855 40.1014Z" fill="#F0F0F0"/>
</g>
<defs>
<clipPath id="clip0">
<rect width="260" height="226.74" fill="white"/>
</clipPath>
</defs>
</svg>
