<svg width="260" height="174" viewBox="0 0 260 174" fill="none" xmlns="http://www.w3.org/2000/svg">
<g clip-path="url(#clip0)">
<path d="M259.985 99.5244C259.729 113.47 255.592 127.069 248.036 138.794C240.48 150.518 229.806 159.905 217.211 165.899C207.31 170.593 196.486 173.022 185.528 173.007C183.952 173.007 182.388 172.958 180.835 172.86C146.978 170.739 113.022 170.739 79.1652 172.86C77.613 172.957 76.0487 173.006 74.4721 173.007C61.755 173.025 49.2494 169.753 38.1712 163.508C26.7918 157.087 17.2859 147.807 10.5937 136.585C3.90158 125.363 0.255123 112.588 0.0150592 99.5244C-0.810673 57.5374 32.4251 23.2094 74.1246 23.0161C96.3331 22.9141 116.292 32.6034 130 48.0415C143.708 32.6034 163.667 22.9141 185.875 23.0161C227.575 23.2094 260.811 57.5374 259.985 99.5244Z" fill="#F2F2F2"/>
<path d="M217.211 165.899C207.31 170.593 196.486 173.021 185.528 173.007C183.952 173.007 182.388 172.958 180.835 172.86C146.978 170.739 113.022 170.739 79.1652 172.86C77.613 172.957 76.0486 173.006 74.4721 173.007C61.755 173.025 49.2494 169.753 38.1712 163.508C54.9289 156.249 87.6603 151.318 125.296 151.318C166.933 151.318 202.568 157.352 217.211 165.899Z" fill="#605F74"/>
<path d="M165.636 61.9711C164.791 61.2432 163.76 60.7651 162.658 60.5906C161.556 60.416 160.427 60.5519 159.398 60.9829C156.294 62.3365 154.943 66.1389 155.16 69.518C155.377 72.897 156.785 76.0667 157.696 79.3277C158.921 83.7076 159.239 88.4548 157.804 92.7703C156.368 97.0858 152.991 100.889 148.609 102.109C144.543 103.241 140.229 102.106 136.162 100.974" stroke="#3F3D56" stroke-miterlimit="10"/>
<path d="M172.999 55.2193C173.026 54.7543 172.961 54.2885 172.808 53.8486C172.655 53.4086 172.417 53.0031 172.107 52.6552C171.798 52.3073 171.422 52.0239 171.003 51.8211C170.584 51.6183 170.129 51.5001 169.664 51.4733C169.199 51.4465 168.733 51.5115 168.293 51.6648C167.853 51.818 167.448 52.0564 167.1 52.3664C166.752 52.6764 166.469 53.0518 166.267 53.4712C166.064 53.8907 165.946 54.3459 165.92 54.811L165.511 61.8905L172.591 62.2988C173.056 62.3256 173.521 62.2606 173.961 62.1075C174.401 61.9544 174.806 61.7161 175.154 61.4064C175.501 61.0967 175.784 60.7215 175.987 60.3023C176.19 59.8831 176.308 59.4281 176.335 58.9632C176.361 58.4984 176.296 58.0328 176.143 57.5931C175.99 57.1533 175.752 56.7481 175.442 56.4004C175.132 56.0528 174.757 55.7695 174.338 55.5669C173.919 55.3642 173.464 55.2461 172.999 55.2193Z" fill="#6C63FF"/>
<path d="M165.386 73.6526C165.441 72.7138 165.12 71.792 164.494 71.0899C163.869 70.3877 162.99 69.9629 162.051 69.9087C161.112 69.8546 160.19 70.1756 159.488 70.8011C158.786 71.4267 158.361 72.3055 158.307 73.2443L157.899 80.3238L164.978 80.7321C165.917 80.7856 166.838 80.4643 167.54 79.8388C168.241 79.2133 168.666 78.3348 168.72 77.3964C168.774 76.458 168.453 75.5365 167.828 74.8345C167.203 74.1324 166.325 73.7073 165.386 73.6526Z" fill="#6C63FF"/>
<path d="M155.186 53.9062C154.829 53.6068 154.416 53.3806 153.972 53.2406C153.528 53.1006 153.06 53.0495 152.596 53.0903C152.132 53.1311 151.681 53.2629 151.268 53.4782C150.855 53.6936 150.488 53.9882 150.189 54.3453C149.89 54.7024 149.664 55.1149 149.524 55.5593C149.384 56.0037 149.334 56.4713 149.375 56.9353C149.416 57.3993 149.548 57.8507 149.764 58.2636C149.979 58.6765 150.274 59.0429 150.632 59.3418L156.067 63.8959L160.621 58.4603C160.921 58.1035 161.147 57.6911 161.287 57.2468C161.427 56.8025 161.478 56.3349 161.437 55.8709C161.396 55.4068 161.265 54.9554 161.049 54.5423C160.834 54.1292 160.539 53.7626 160.182 53.4634C159.825 53.1643 159.413 52.9384 158.968 52.7987C158.524 52.6591 158.056 52.6083 157.592 52.6495C157.128 52.6906 156.677 52.8227 156.264 53.0384C155.851 53.254 155.485 53.5489 155.186 53.9062H155.186Z" fill="#6C63FF"/>
<path d="M197.528 58.7435C196.907 57.8167 196.04 57.0811 195.025 56.6194C194.009 56.1576 192.885 55.9879 191.778 56.1292C188.426 56.6071 186.11 59.9121 185.42 63.2269C184.729 66.5417 185.241 69.9719 185.252 73.3579C185.266 77.9059 184.308 82.5662 181.774 86.3434C179.241 90.1206 174.972 92.8865 170.424 92.8953C166.203 92.9035 162.348 90.6601 158.73 88.4856" stroke="#3F3D56" stroke-miterlimit="10"/>
<path d="M206.423 54.1969C206.573 53.756 206.634 53.2899 206.604 52.8253C206.573 52.3607 206.452 51.9066 206.246 51.489C206.04 51.0714 205.754 50.6985 205.404 50.3915C205.054 50.0845 204.646 49.8494 204.205 49.6998C203.765 49.5501 203.299 49.4887 202.834 49.5192C202.369 49.5496 201.915 49.6713 201.498 49.8773C201.08 50.0832 200.707 50.3694 200.4 50.7194C200.093 51.0695 199.858 51.4766 199.708 51.9175L197.429 58.6325L204.144 60.9118C204.585 61.0615 205.051 61.1229 205.515 61.0924C205.98 61.062 206.434 60.9403 206.852 60.7344C207.269 60.5284 207.642 60.2422 207.949 59.8922C208.256 59.5421 208.491 59.135 208.641 58.6941C208.791 58.2532 208.852 57.7871 208.822 57.3225C208.791 56.8578 208.669 56.4038 208.464 55.9862C208.258 55.5686 207.971 55.1956 207.621 54.8886C207.271 54.5816 206.864 54.3466 206.423 54.1969Z" fill="#6C63FF"/>
<path d="M194.176 69.9364C194.478 69.046 194.414 68.0719 193.998 67.2285C193.582 66.3851 192.848 65.7415 191.958 65.4393C191.067 65.137 190.093 65.2008 189.25 65.6168C188.406 66.0327 187.763 66.7666 187.461 67.657L185.181 74.372L191.896 76.6514C192.787 76.9536 193.761 76.8898 194.604 76.4739C195.447 76.0579 196.091 75.324 196.393 74.4336C196.696 73.5431 196.632 72.5691 196.216 71.7257C195.8 70.8823 195.066 70.2387 194.176 69.9364Z" fill="#6C63FF"/>
<path d="M189.603 48.1862C189.339 47.8025 189.002 47.4747 188.611 47.2215C188.22 46.9682 187.783 46.7944 187.325 46.7101C186.867 46.6259 186.396 46.6327 185.941 46.7302C185.485 46.8277 185.054 47.014 184.67 47.2785C184.287 47.543 183.959 47.8804 183.706 48.2716C183.453 48.6627 183.28 49.0998 183.196 49.558C183.112 50.0162 183.119 50.4865 183.217 50.9419C183.314 51.3973 183.501 51.829 183.766 52.2123L187.792 58.0498L193.629 54.0237C194.404 53.4898 194.934 52.6702 195.104 51.7453C195.274 50.8204 195.069 49.866 194.535 49.0919C194.001 48.3178 193.182 47.7875 192.257 47.6176C191.332 47.4478 190.377 47.6523 189.603 48.1862Z" fill="#6C63FF"/>
<path d="M182.248 11.4727C183.35 11.2991 184.478 11.4358 185.507 11.8677C186.536 12.2995 187.424 13.0094 188.071 13.9177C189.997 16.7027 189.144 20.6471 187.18 23.4054C185.216 26.1638 182.35 28.117 179.858 30.409C176.51 33.4876 173.74 37.3558 172.688 41.7805C171.636 46.2051 172.505 51.2168 175.587 54.561C178.448 57.6651 182.713 58.9714 186.767 60.1503" stroke="#3F3D56" stroke-miterlimit="10"/>
<path d="M179.544 1.85599C179.766 1.44669 180.066 1.08513 180.428 0.791933C180.79 0.498741 181.205 0.279665 181.652 0.147214C182.098 0.0147629 182.566 -0.0284712 183.029 0.0199832C183.493 0.0684375 183.942 0.207631 184.351 0.429614C184.76 0.651597 185.122 0.952022 185.415 1.31374C185.708 1.67546 185.927 2.09138 186.06 2.53776C186.192 2.98414 186.235 3.45225 186.187 3.91534C186.138 4.37843 185.999 4.82744 185.777 5.23674L182.396 11.4702L176.163 8.08948C175.754 7.8675 175.392 7.56707 175.099 7.20536C174.806 6.84364 174.587 6.42772 174.454 5.98133C174.322 5.53495 174.278 5.06685 174.327 4.60376C174.375 4.14067 174.515 3.69166 174.737 3.28236C174.959 2.87306 175.259 2.5115 175.621 2.2183C175.982 1.92511 176.398 1.70604 176.845 1.57359C177.291 1.44113 177.759 1.3979 178.222 1.44636C178.685 1.49481 179.134 1.634 179.544 1.85599V1.85599Z" fill="#6C63FF"/>
<path d="M176.309 21.5353C176.531 21.126 176.831 20.7644 177.193 20.4713C177.555 20.1781 177.971 19.959 178.417 19.8265C178.863 19.6941 179.331 19.6509 179.795 19.6993C180.258 19.7478 180.707 19.887 181.116 20.1089C181.525 20.3309 181.887 20.6313 182.18 20.9931C182.473 21.3548 182.692 21.7707 182.825 22.2171C182.957 22.6635 183 23.1316 182.952 23.5947C182.904 24.0577 182.764 24.5068 182.542 24.9161L179.162 31.1496L172.928 27.7688C172.519 27.5468 172.157 27.2464 171.864 26.8847C171.571 26.523 171.352 26.107 171.219 25.6607C171.087 25.2143 171.044 24.7462 171.092 24.2831C171.141 23.82 171.28 23.371 171.502 22.9617C171.724 22.5524 172.024 22.1908 172.386 21.8976C172.748 21.6044 173.163 21.3854 173.61 21.2529C174.056 21.1205 174.524 21.0772 174.987 21.1257C175.451 21.1741 175.9 21.3133 176.309 21.5353L176.309 21.5353Z" fill="#6C63FF"/>
<path d="M195.379 10.1196C195.84 10.0529 196.31 10.0778 196.761 10.1927C197.212 10.3077 197.637 10.5104 198.01 10.7895C198.383 11.0685 198.697 11.4183 198.935 11.8189C199.173 12.2195 199.329 12.663 199.396 13.1241C199.462 13.5852 199.437 14.0548 199.321 14.5062C199.206 14.9575 199.003 15.3818 198.724 15.7546C198.444 16.1274 198.094 16.4415 197.694 16.679C197.293 16.9165 196.849 17.0727 196.388 17.1386L189.369 18.148L188.36 11.1289C188.226 10.1981 188.467 9.2523 189.031 8.49949C189.594 7.74668 190.434 7.24857 191.365 7.11473C192.295 6.98088 193.241 7.22227 193.994 7.78579C194.747 8.34932 195.245 9.18881 195.379 10.1196Z" fill="#6C63FF"/>
<path d="M121.638 86.5138H115.105V89.9108H121.638V86.5138Z" fill="#FBBEBE"/>
<path opacity="0.1" d="M121.638 86.5138H115.105V89.9108H121.638V86.5138Z" fill="black"/>
<path d="M103.085 37.6492C107.703 37.6492 111.447 33.9055 111.447 29.2874C111.447 24.6693 107.703 20.9255 103.085 20.9255C98.4672 20.9255 94.7234 24.6693 94.7234 29.2874C94.7234 33.9055 98.4672 37.6492 103.085 37.6492Z" fill="#2F2E41"/>
<path d="M122.03 84.8153C122.03 84.8153 119.417 84.0314 118.894 84.2927C118.372 84.554 120.724 86.6445 120.724 86.6445L122.03 84.8153Z" fill="#FBBEBE"/>
<path opacity="0.1" d="M122.03 84.8153C122.03 84.8153 119.417 84.0314 118.894 84.2927C118.372 84.554 120.724 86.6445 120.724 86.6445L122.03 84.8153Z" fill="black"/>
<path d="M104 151.71C104 151.71 110.01 152.494 111.055 152.494C112.1 152.494 114.975 153.539 113.407 154.846C111.839 156.152 101.909 157.981 100.603 157.198C99.2963 156.414 97.4672 154.062 98.7737 153.801C100.08 153.539 104 151.71 104 151.71Z" fill="#3F3D56"/>
<path d="M93.2864 161.378L91.1959 165.037L93.809 166.343L98.7738 167.389L101.387 163.992L100.342 160.072L93.2864 161.378Z" fill="#FBBEBE"/>
<path d="M107.136 134.464C107.136 134.464 103.739 148.836 104.261 149.62C104.784 150.404 105.829 152.494 104.784 153.278C103.739 154.062 99.5576 154.323 99.5576 154.323L100.864 146.745L102.693 137.6L107.136 134.464Z" fill="#2F2E41"/>
<path d="M97.7285 104.152L101.125 119.569C101.125 119.569 101.648 127.147 100.342 130.022C99.035 132.896 91.9797 163.208 91.9797 163.208C91.9797 163.208 99.2963 163.469 100.864 162.685C102.432 161.901 105.076 143.802 105.076 143.802C105.076 143.802 113.668 126.625 113.407 123.228C113.146 119.831 114.705 102.575 112.488 101.273C110.271 99.9712 97.7285 104.152 97.7285 104.152Z" fill="#2F2E41"/>
<path d="M98.2511 166.082L101.387 162.946C101.387 162.946 109.749 167.127 111.055 167.389C112.362 167.65 115.236 169.74 112.362 170.524C109.487 171.308 98.7737 170.786 96.1606 170.524C93.5476 170.263 88.3214 170.002 89.1053 168.434C89.8893 166.866 91.1958 161.378 91.1958 161.378C91.1958 161.378 91.918 160.38 92.3408 161.663C92.7636 162.946 93.0249 164.775 94.0702 164.775C95.1154 164.775 98.2511 166.082 98.2511 166.082Z" fill="#3F3D56"/>
<path d="M138.493 99.7099L145.809 99.1873L150.774 101.8L150.251 104.936L148.161 105.459C148.161 105.459 142.412 103.107 139.015 103.891C135.618 104.675 138.493 99.7099 138.493 99.7099Z" fill="#A0616A"/>
<path d="M147.116 100.755C147.116 100.755 149.99 103.899 147.116 105.071C147.116 105.071 147.638 105.981 149.729 106.243C151.819 106.504 154.694 108.333 155.478 108.333C156.261 108.333 159.658 107.81 157.568 104.936C155.478 102.062 147.116 95.7902 147.116 95.7902C147.116 95.7902 144.764 94.745 143.98 96.8355C143.196 98.9259 142.782 99.4034 142.782 99.4034C142.782 99.4034 146.593 100.232 147.116 100.755Z" fill="#2F2E41"/>
<path d="M125.166 125.841C125.166 125.841 127.518 134.725 127.518 135.248C127.518 135.77 130.653 133.157 130.653 133.157L131.176 128.454C131.176 128.454 129.085 126.363 129.085 125.057C129.085 123.75 125.166 125.841 125.166 125.841Z" fill="#A0616A"/>
<path d="M129.869 132.112C129.869 132.112 128.04 134.464 126.734 133.68L127.518 142.564C127.518 142.564 128.04 147.007 129.869 145.177C131.699 143.348 133.528 134.202 133.528 134.202C133.528 134.202 136.141 128.715 134.05 127.931C132.864 127.477 131.64 127.127 130.392 126.886C130.392 126.886 130.392 132.373 129.869 132.112Z" fill="#2F2E41"/>
<path d="M112.884 102.323L120.724 118.524C120.724 118.524 123.337 127.67 124.382 127.931C125.427 128.192 129.347 126.363 129.869 126.102C130.392 125.841 125.427 115.65 125.427 113.82C125.427 111.991 119.417 101.8 119.417 101.8L112.884 102.323Z" fill="#FF6584"/>
<path opacity="0.1" d="M112.884 102.323L120.724 118.524C120.724 118.524 123.337 127.67 124.382 127.931C125.427 128.192 129.347 126.363 129.869 126.102C130.392 125.841 125.427 115.65 125.427 113.82C125.427 111.991 119.417 101.8 119.417 101.8L112.884 102.323Z" fill="black"/>
<path d="M118.372 74.1017C118.372 74.1017 118.633 79.5892 117.588 83.2475C116.543 86.9058 118.894 98.926 118.894 98.926C118.894 98.926 122.814 99.1873 123.859 98.926C124.904 98.6647 139.015 98.4034 139.799 98.926C140.583 99.4486 140.322 108.594 139.799 108.333C139.276 108.072 125.688 105.197 119.156 106.243C112.623 107.288 111.839 105.72 111.578 105.197C111.316 104.675 106.874 90.5641 106.874 90.5641L105.306 83.7701L103.216 76.4535L104.522 69.3982L118.372 74.1017Z" fill="#FF6584"/>
<path d="M102.563 40.001C106.459 40.001 109.618 36.8422 109.618 32.9457C109.618 29.0492 106.459 25.8904 102.563 25.8904C98.6662 25.8904 95.5074 29.0492 95.5074 32.9457C95.5074 36.8422 98.6662 40.001 102.563 40.001Z" fill="#A0616A"/>
<path d="M89.3666 56.594C93.2632 56.594 96.422 53.4353 96.422 49.5387C96.422 45.6422 93.2632 42.4834 89.3666 42.4834C85.4701 42.4834 82.3113 45.6422 82.3113 49.5387C82.3113 53.4353 85.4701 56.594 89.3666 56.594Z" fill="#FBBEBE"/>
<path d="M104.522 37.7799C104.522 37.7799 109.226 40.9156 108.442 42.7448C107.658 44.5739 105.568 46.6644 105.568 46.6644L105.306 49.5388L109.226 50.8453L119.156 51.3679C119.156 51.3679 118.633 42.4835 115.497 40.1317C112.362 37.7799 108.703 36.2121 108.181 34.1216C107.658 32.0312 104.522 37.7799 104.522 37.7799Z" fill="#A0616A"/>
<path d="M117.488 44.2253C115.777 41.0306 110.966 41.4188 109.969 44.9025C109.838 45.3243 109.798 45.7689 109.85 46.2075C109.902 46.6461 110.045 47.0688 110.271 47.4483C112.1 50.584 113.407 52.9358 113.407 52.9358L119.156 52.4132C119.156 52.4132 119.269 47.5527 117.488 44.2253Z" fill="#A0616A"/>
<path d="M106.426 45.7273C106.426 45.7273 99.5576 50.0614 100.08 52.9358C100.603 55.8102 101.125 60.775 101.125 62.6042C101.125 64.4333 102.955 70.1821 105.568 71.2273C108.181 72.2726 108.181 69.3982 111.839 72.7952C115.497 76.1922 119.417 77.76 119.156 78.2826C118.894 78.8052 120.201 73.5791 118.11 71.4886C116.02 69.3982 113.668 63.3881 115.759 60.775C117.849 58.1619 119.678 51.3679 119.678 51.3679C119.678 51.3679 119.417 49.8001 117.849 50.0614C116.281 50.3227 106.613 49.2775 106.09 47.9709C105.938 47.6016 105.889 47.1978 105.948 46.8026C106.007 46.4074 106.173 46.0358 106.426 45.7273Z" fill="#2F2E41"/>
<path d="M105.451 47.9432C105.451 47.9432 112.623 40.1317 113.668 40.393C114.713 40.6543 117.724 43.7467 117.724 43.7467L113.668 40.9156L105.451 48.3835L105.451 47.9432Z" fill="#2F2E41"/>
<path d="M95.3767 50.8453C95.3767 50.8453 96.3582 61.4142 97.6966 62.4011C99.035 63.3881 87.5375 63.1268 87.5375 63.1268C87.5375 63.1268 90.1506 55.0263 88.5827 53.981C87.0149 52.9358 95.3767 50.8453 95.3767 50.8453Z" fill="#FBBEBE"/>
<path d="M97.9898 59.4685C97.9898 59.4685 89.1053 57.1167 88.0601 58.4232C87.0149 59.7298 84.9244 70.966 84.9244 70.966C84.9244 70.966 85.9696 78.544 87.7988 84.0314C89.6279 89.5189 91.9797 108.856 93.8089 108.856C95.638 108.856 98.7737 105.981 99.5576 105.981C100.342 105.981 105.045 103.63 107.919 104.152C109.571 104.477 111.276 104.387 112.884 103.891C112.884 103.891 111.578 92.9159 108.442 90.0415C105.306 87.1671 103.739 67.3077 103.739 67.3077C103.739 67.3077 99.2963 58.9459 97.9898 59.4685Z" fill="#3F3D56"/>
<path d="M111.578 84.2927C111.578 84.2927 114.549 88.3254 117.506 88.5302L119.156 88.4736C119.156 88.4736 116.543 95.2676 117.849 95.5289C119.156 95.7902 123.075 90.564 121.769 87.6897C120.462 84.8153 116.543 80.373 116.543 80.373L111.578 84.2927Z" fill="#FBBEBE"/>
<path d="M122.03 84.2927C122.03 84.2927 117.588 88.4737 119.417 90.3028C121.246 92.132 123.598 90.3028 123.598 90.3028C123.598 90.3028 125.427 87.6897 122.03 84.2927Z" fill="#FBBEBE"/>
<path opacity="0.1" d="M122.03 84.2927C122.03 84.2927 117.588 88.4737 119.417 90.3028C121.246 92.132 123.598 90.3028 123.598 90.3028C123.598 90.3028 125.427 87.6897 122.03 84.2927Z" fill="black"/>
<path d="M104.914 36.0814C109.533 36.0814 113.276 32.3376 113.276 27.7195C113.276 23.1014 109.533 19.3577 104.914 19.3577C100.296 19.3577 96.5526 23.1014 96.5526 27.7195C96.5526 32.3376 100.296 36.0814 104.914 36.0814Z" fill="#2F2E41"/>
<path d="M108.834 25.6292C111.576 25.6292 113.799 23.4063 113.799 20.6643C113.799 17.9223 111.576 15.6995 108.834 15.6995C106.092 15.6995 103.869 17.9223 103.869 20.6643C103.869 23.4063 106.092 25.6292 108.834 25.6292Z" fill="#2F2E41"/>
<path d="M104.914 19.0964C104.915 17.8702 105.368 16.6874 106.189 15.7759C107.009 14.8644 108.137 14.2886 109.357 14.1595C109.183 14.1411 109.009 14.1318 108.834 14.1316C108.16 14.1312 107.492 14.2681 106.873 14.5341C106.253 14.8 105.694 15.1894 105.23 15.6784C104.766 16.1675 104.406 16.746 104.173 17.3786C103.939 18.0112 103.838 18.6848 103.873 19.3581C103.909 20.0315 104.081 20.6905 104.38 21.2951C104.678 21.8997 105.097 22.4371 105.61 22.8745C106.123 23.312 106.72 23.6404 107.364 23.8396C108.008 24.0388 108.686 24.1048 109.357 24.0334C108.137 23.9043 107.009 23.3285 106.189 22.417C105.368 21.5054 104.915 20.3226 104.914 19.0964Z" fill="#2F2E41"/>
<path d="M102.171 36.0814C105.851 36.0814 108.834 33.8586 108.834 31.1166C108.834 28.3746 105.851 26.1517 102.171 26.1517C98.4907 26.1517 95.5074 28.3746 95.5074 31.1166C95.5074 33.8586 98.4907 36.0814 102.171 36.0814Z" fill="#2F2E41"/>
<path d="M89.6609 46.9194C89.5693 47.4099 89.3517 47.9027 89.5355 48.4078C89.6718 48.782 90.0035 49.0787 90.2027 49.4331C90.6037 50.1466 90.338 51.0599 89.6481 51.3395C89.2602 51.1155 88.8047 51.0385 88.3647 51.1223C88.1642 51.1674 87.9874 51.2847 87.868 51.4518C87.7485 51.6189 87.6948 51.8242 87.717 52.0284C87.809 52.6318 88.5123 53.0184 88.8701 53.5567C89.0899 53.9599 89.2377 54.3984 89.307 54.8524C89.483 55.5571 89.7928 56.2567 89.8286 56.9616C89.8644 57.6665 89.5214 58.4115 88.822 58.5125C88.2338 58.5973 87.6015 58.1987 87.1762 57.7147C86.7509 57.2308 86.4639 56.6568 86.0742 56.1473C84.8081 54.4918 82.6442 53.7203 81.1788 52.218C79.3011 50.2929 78.9034 47.4414 79.5752 45.1684C79.8573 44.2138 80.3241 43.3014 81.1173 42.719C81.9497 42.1078 83.0614 41.9123 83.9936 41.437C84.9905 40.9287 85.7553 40.1157 86.637 39.452C87.5187 38.7883 88.611 38.2562 89.8143 38.4352C90.6537 38.56 91.4498 39.0169 92.2828 39.2324C93.1883 39.4799 94.152 39.4004 95.0047 39.008L94.2308 39.8385C94.7877 40.0593 95.3876 40.1502 95.9848 40.1044C95.7443 40.5974 95.3224 40.9784 94.8076 41.1677C95.2241 41.4936 95.7477 41.6514 96.275 41.61C95.7006 42.2663 95.0836 42.9492 94.1986 43.1778C93.7651 43.2898 93.2929 43.2844 92.8454 43.3575C91.8916 43.5134 91.0886 44.0169 90.3098 44.5111C89.9009 44.7706 89.3865 45.0649 89.3894 45.6035C89.3919 46.0521 89.7544 46.4182 89.6609 46.9194Z" fill="#2F2E41"/>
<path d="M92.7636 62.0815C92.7636 62.0815 90.4119 70.7047 94.5928 72.5338C98.7737 74.363 107.397 81.157 108.965 83.5088C110.533 85.8605 112.362 86.6444 112.362 86.6444C112.362 86.6444 118.633 81.4183 117.327 79.8504C116.02 78.2826 110.794 73.5791 110.794 73.5791C110.794 73.5791 97.4672 59.2071 92.7636 62.0815Z" fill="#3F3D56"/>
<path d="M113.407 62.3429C113.407 62.3429 103.807 59.5986 100.898 59.1416C97.9898 58.6846 90.4119 59.4685 91.9797 60.7751C93.5476 62.0816 102.693 63.1268 102.693 63.1268L113.668 67.3078L113.407 62.3429Z" fill="#A0616A"/>
<path d="M113.407 51.6293C113.407 51.6293 114.191 56.8554 114.191 58.6846C114.191 60.5137 115.497 62.0816 114.452 62.0816C113.407 62.0816 112.623 61.0363 112.623 62.0816C112.623 63.1268 111.055 69.3982 112.623 69.3982C114.191 69.3982 118.11 68.353 118.894 68.353C119.678 68.353 122.291 67.8304 122.03 64.956C121.769 62.0816 120.724 58.9459 121.246 58.4233C121.769 57.9007 122.03 55.2876 121.507 54.765C120.985 54.2423 119.678 50.8453 119.678 50.8453L113.407 51.6293Z" fill="#2F2E41"/>
<g opacity="0.3">
<path opacity="0.3" d="M168.64 104.818C168.157 104.76 167.672 104.896 167.29 105.196C166.908 105.496 166.661 105.936 166.603 106.418C166.545 106.9 166.681 107.386 166.981 107.768C167.281 108.15 167.721 108.397 168.203 108.455L171.84 108.891L172.276 105.255C172.305 105.016 172.286 104.774 172.221 104.542C172.156 104.311 172.047 104.094 171.898 103.905C171.749 103.716 171.565 103.558 171.355 103.44C171.146 103.322 170.915 103.247 170.676 103.218C170.437 103.189 170.195 103.208 169.964 103.273C169.732 103.338 169.516 103.448 169.327 103.596C169.137 103.745 168.979 103.929 168.862 104.139C168.744 104.348 168.668 104.579 168.64 104.818Z" fill="#6C63FF"/>
</g>
<g opacity="0.3">
<path opacity="0.3" d="M212.469 87.3428C212.045 87.1049 211.545 87.0447 211.078 87.1754C210.61 87.3061 210.214 87.6171 209.976 88.0399C209.737 88.4627 209.677 88.9628 209.807 89.4304C209.937 89.898 210.247 90.2948 210.67 90.5336L213.861 92.3321L215.659 89.1413C215.778 88.9318 215.854 88.701 215.883 88.4621C215.912 88.2232 215.894 87.9809 215.829 87.7491C215.765 87.5172 215.655 87.3004 215.507 87.1109C215.358 86.9215 215.174 86.7631 214.964 86.6449C214.755 86.5268 214.524 86.4511 214.285 86.4222C214.046 86.3933 213.804 86.4118 213.572 86.4766C213.34 86.5414 213.123 86.6513 212.934 86.7999C212.745 86.9485 212.587 87.133 212.469 87.3428Z" fill="#6C63FF"/>
</g>
<g opacity="0.3">
<path opacity="0.3" d="M192.941 112.135C192.702 112.106 192.46 112.125 192.229 112.189C191.997 112.254 191.781 112.364 191.591 112.513C191.402 112.661 191.244 112.846 191.126 113.055C191.009 113.265 190.933 113.496 190.904 113.735C190.876 113.973 190.894 114.215 190.959 114.447C191.024 114.679 191.134 114.895 191.283 115.084C191.431 115.273 191.616 115.431 191.825 115.549C192.035 115.667 192.266 115.743 192.504 115.771L196.141 116.208L196.578 112.571C196.636 112.089 196.5 111.604 196.2 111.222C195.9 110.84 195.46 110.593 194.978 110.535C194.496 110.477 194.01 110.613 193.628 110.913C193.246 111.213 192.999 111.652 192.941 112.135Z" fill="#6C63FF"/>
</g>
</g>
<defs>
<clipPath id="clip0">
<rect width="260" height="173.007" fill="white"/>
</clipPath>
</defs>
</svg>
