<svg width="260" height="190" viewBox="0 0 260 190" fill="none" xmlns="http://www.w3.org/2000/svg">
<g clip-path="url(#clip0)">
<path opacity="0.1" d="M18.3744 152.636C25.5241 152.636 31.3202 150.575 31.3202 148.033C31.3202 145.491 25.5241 143.43 18.3744 143.43C11.2246 143.43 5.42862 145.491 5.42862 148.033C5.42862 150.575 11.2246 152.636 18.3744 152.636Z" fill="black"/>
<path opacity="0.1" d="M227.515 171.667C234.664 171.667 240.46 169.606 240.46 167.064C240.46 164.522 234.664 162.461 227.515 162.461C220.365 162.461 214.569 164.522 214.569 167.064C214.569 169.606 220.365 171.667 227.515 171.667Z" fill="black"/>
<path d="M153.304 5.302C133.603 12.9112 112.248 13.2651 92.4126 6.10176C64.3002 -4.04773 27.586 -6.64551 13.9814 39.8643C-9.23755 119.325 38.2648 147.688 38.2648 147.688C38.2648 147.688 71.429 155.122 89.7918 168.554C115.876 187.633 147.821 194.011 177.912 185.064C197.155 179.342 213.648 169.955 218.363 154.595C231.551 111.639 223.179 85.8189 247.046 74.4928C270.912 63.1667 257.632 21.208 240.659 20.2558C223.686 19.3036 183.698 29.0359 171.327 9.67767C166.917 2.8049 160.171 2.64668 153.304 5.302Z" fill="#3E3E3E"/>
<path d="M226.991 167.717C226.991 167.717 230.443 155.968 226.341 147.32C224.594 143.704 224.067 139.619 224.839 135.677C225.221 133.809 225.772 131.979 226.488 130.211" stroke="#535461" stroke-width="2" stroke-miterlimit="10"/>
<path d="M223.933 124.748C223.933 126.187 226.539 130.364 226.539 130.364C226.539 130.364 229.146 126.19 229.146 124.748C229.146 124.057 228.871 123.393 228.382 122.904C227.893 122.415 227.23 122.141 226.538 122.141C225.846 122.141 225.183 122.415 224.694 122.904C224.205 123.393 223.93 124.057 223.93 124.748H223.933Z" fill="#6C63FF"/>
<path d="M219.624 132.726C220.406 133.934 224.865 136.023 224.865 136.023C224.865 136.023 224.785 131.1 224.002 129.892C223.816 129.605 223.575 129.357 223.293 129.163C223.012 128.968 222.694 128.832 222.359 128.76C222.025 128.688 221.679 128.683 221.343 128.745C221.006 128.807 220.685 128.935 220.397 129.121C220.11 129.307 219.862 129.548 219.668 129.83C219.474 130.112 219.337 130.429 219.265 130.764C219.194 131.099 219.189 131.444 219.251 131.781C219.313 132.117 219.44 132.438 219.626 132.726H219.624Z" fill="#6C63FF"/>
<path d="M219.811 146.353C221.096 147.001 225.999 146.555 225.999 146.555C225.999 146.555 223.444 142.346 222.158 141.699C221.541 141.387 220.825 141.334 220.169 141.55C219.512 141.767 218.968 142.235 218.657 142.852C218.346 143.47 218.292 144.185 218.509 144.842C218.725 145.498 219.193 146.042 219.811 146.353Z" fill="#6C63FF"/>
<path d="M222.276 156.635C223.427 157.498 228.34 157.878 228.34 157.878C228.34 157.878 226.534 153.298 225.377 152.444C224.821 152.032 224.125 151.859 223.441 151.961C222.757 152.063 222.142 152.433 221.731 152.989C221.32 153.545 221.146 154.241 221.248 154.925C221.351 155.609 221.72 156.224 222.276 156.635Z" fill="#6C63FF"/>
<path d="M230.337 136.302C229.304 137.306 224.491 138.344 224.491 138.344C224.491 138.344 225.671 133.566 226.703 132.562C227.199 132.08 227.866 131.815 228.558 131.825C229.249 131.835 229.908 132.119 230.39 132.615C230.872 133.111 231.137 133.778 231.127 134.469C231.117 135.161 230.833 135.82 230.337 136.302Z" fill="#6C63FF"/>
<path d="M233.067 148.359C231.781 149.006 226.879 148.56 226.879 148.56C226.879 148.56 229.434 144.351 230.719 143.718C231.337 143.407 232.052 143.354 232.709 143.57C233.366 143.786 233.909 144.255 234.221 144.872C234.532 145.489 234.585 146.205 234.369 146.861C234.153 147.518 233.684 148.062 233.067 148.373V148.359Z" fill="#6C63FF"/>
<path d="M234.111 160.444C232.961 161.307 228.047 161.687 228.047 161.687C228.047 161.687 229.854 157.107 231.01 156.253C231.566 155.841 232.262 155.668 232.946 155.77C233.63 155.872 234.245 156.242 234.657 156.798C235.068 157.354 235.241 158.05 235.139 158.734C235.037 159.418 234.667 160.033 234.111 160.444Z" fill="#6C63FF"/>
<path d="M18.3801 148.068C18.3801 148.068 25.7707 123.005 16.9992 104.536C13.3169 96.7884 12.1086 88.0946 13.7973 79.6885C14.6114 75.7016 15.7891 71.7977 17.3157 68.0258" stroke="#535461" stroke-width="2" stroke-miterlimit="10"/>
<path d="M11.8583 56.3601C11.8583 59.4325 17.4221 68.345 17.4221 68.345C17.4221 68.345 22.9831 59.4268 22.9831 56.3601C22.9831 54.8845 22.3969 53.4693 21.3535 52.4259C20.3101 51.3824 18.8949 50.7963 17.4193 50.7963C15.9437 50.7963 14.5285 51.3824 13.4851 52.4259C12.4417 53.4693 11.8555 54.8845 11.8555 56.3601H11.8583Z" fill="#6C63FF"/>
<path d="M2.66109 73.3824C4.33254 75.9716 13.8462 80.4192 13.8462 80.4192C13.8462 80.4192 13.6736 69.9129 12.0022 67.3353C11.1845 66.1345 9.92963 65.3011 8.50566 65.0133C7.0817 64.7254 5.60164 65.006 4.38177 65.7949C3.16191 66.5839 2.299 67.8187 1.97747 69.2354C1.65595 70.6521 1.9013 72.1384 2.66109 73.3767V73.3824Z" fill="#6C63FF"/>
<path d="M3.06094 102.473C5.80544 103.857 16.2685 102.902 16.2685 102.902C16.2685 102.902 10.8025 93.9201 8.07239 92.545C7.41995 92.2159 6.70907 92.0186 5.98037 91.9643C5.25166 91.9099 4.51939 91.9997 3.82536 92.2283C3.13134 92.457 2.48914 92.8201 1.93546 93.297C1.38177 93.7738 0.927425 94.3551 0.598369 95.0075C0.269312 95.66 0.0719872 96.3709 0.017659 97.0996C-0.0366693 97.8283 0.0530639 98.5605 0.281735 99.2546C0.743557 100.656 1.74327 101.817 3.06094 102.482V102.473Z" fill="#6C63FF"/>
<path d="M8.31122 124.415C10.7824 126.241 21.257 127.067 21.257 127.067C21.257 127.067 17.402 117.286 14.928 115.468C13.7415 114.59 12.2551 114.22 10.7957 114.439C9.33634 114.657 8.02354 115.446 7.1461 116.633C6.26867 117.819 5.89849 119.306 6.11699 120.765C6.33549 122.224 7.12478 123.537 8.31122 124.415Z" fill="#6C63FF"/>
<path d="M25.5291 81.0031C23.3254 83.1435 13.0551 85.3615 13.0551 85.3615C13.0551 85.3615 15.5694 75.1603 17.7731 73.0199C18.8317 71.9899 20.2562 71.4226 21.7331 71.4428C23.21 71.463 24.6184 72.0691 25.6484 73.1278C26.6785 74.1864 27.2458 75.6109 27.2255 77.0878C27.2053 78.5647 26.5992 79.9731 25.5406 81.0031H25.5291Z" fill="#6C63FF"/>
<path d="M31.3547 106.754C28.6102 108.138 18.1471 107.182 18.1471 107.182C18.1471 107.182 23.6131 98.201 26.3432 96.8259C26.9957 96.4968 27.7065 96.2995 28.4352 96.2451C29.1639 96.1908 29.8962 96.2805 30.5902 96.5092C31.2843 96.7379 31.9265 97.101 32.4801 97.5779C33.0338 98.0547 33.4882 98.636 33.8172 99.2884C34.1463 99.9409 34.3436 100.652 34.3979 101.38C34.4523 102.109 34.3625 102.841 34.1339 103.535C33.9052 104.23 33.5421 104.872 33.0652 105.425C32.5883 105.979 32.0071 106.433 31.3547 106.762V106.754Z" fill="#6C63FF"/>
<path d="M33.5842 132.547C31.113 134.374 20.6385 135.2 20.6385 135.2C20.6385 135.2 24.4934 125.419 26.9675 123.6C28.1539 122.723 29.6403 122.353 31.0997 122.571C32.5591 122.79 33.8719 123.579 34.7493 124.766C35.6268 125.952 35.997 127.438 35.7785 128.898C35.56 130.357 34.7707 131.67 33.5842 132.547Z" fill="#6C63FF"/>
<path d="M109.075 86.2447L93.0427 84.1676C92.3926 84.0841 91.892 83.8367 91.9092 83.621C91.938 83.4052 92.4846 83.3045 93.1492 83.3994L109.147 85.7153C109.587 85.7786 109.921 85.9455 109.901 86.0922C109.881 86.2303 109.513 86.3022 109.075 86.2447Z" fill="#6C63FF"/>
<path d="M109.176 86.5181L93.0945 84.8553C92.4414 84.7891 91.8862 84.9099 91.866 85.1257C91.8459 85.3414 92.3666 85.5687 93.0168 85.6263L109.127 87.0647C109.57 87.105 109.933 87.0186 109.947 86.8719C109.958 86.7166 109.616 86.5641 109.176 86.5181Z" fill="#6C63FF"/>
<path d="M133.301 98.6151L149.331 96.538C149.981 96.4546 150.482 96.2072 150.464 95.9915C150.436 95.7757 149.889 95.675 149.224 95.7699L133.226 98.0858C132.786 98.1491 132.453 98.3159 132.473 98.4626C132.493 98.6007 132.861 98.6727 133.301 98.6151Z" fill="#6C63FF"/>
<path d="M133.198 98.8886L149.279 97.2257C149.932 97.1596 150.487 97.2804 150.507 97.4962C150.528 97.7119 150.007 97.9392 149.357 97.9967L133.246 99.4352C132.803 99.4754 132.441 99.3891 132.427 99.2424C132.415 99.0871 132.757 98.9346 133.198 98.8886Z" fill="#6C63FF"/>
<path d="M80.2724 115.833H76.3628V171.891H80.2724V115.833Z" fill="#40414D"/>
<path d="M165.663 115.833H161.753V171.891H165.663V115.833Z" fill="#40414D"/>
<path d="M74.8697 111.27H165.202C166.881 111.27 168.491 111.937 169.678 113.124C170.865 114.311 171.531 115.921 171.531 117.599V118.439H68.5406V117.599C68.5406 115.921 69.2075 114.311 70.3944 113.124C71.5813 111.937 73.1911 111.27 74.8697 111.27Z" fill="#DFE6F5"/>
<path opacity="0.1" d="M74.582 111.27H164.915C166.593 111.27 168.203 111.937 169.39 113.124C170.577 114.311 171.244 115.921 171.244 117.599V118.439H68.253V117.599C68.253 115.921 68.9198 114.311 70.1067 113.124C71.2936 111.937 72.9035 111.27 74.582 111.27Z" fill="black"/>
<path d="M74.8697 109.964H165.202C166.881 109.964 168.491 110.631 169.678 111.818C170.865 113.005 171.531 114.615 171.531 116.293V117.133H68.5406V116.293C68.5406 114.615 69.2075 113.005 70.3944 111.818C71.5813 110.631 73.1911 109.964 74.8697 109.964Z" fill="#DFE6F5"/>
<path d="M120.036 105.402C124.356 105.402 127.858 101.899 127.858 97.5794C127.858 93.2594 124.356 89.7573 120.036 89.7573C115.716 89.7573 112.214 93.2594 112.214 97.5794C112.214 101.899 115.716 105.402 120.036 105.402Z" fill="#FFD77C" stroke="#FFAB50" stroke-miterlimit="10"/>
<path d="M120.036 103.779C123.46 103.779 126.236 101.003 126.236 97.5795C126.236 94.1555 123.46 91.3799 120.036 91.3799C116.612 91.3799 113.837 94.1555 113.837 97.5795C113.837 101.003 116.612 103.779 120.036 103.779Z" fill="#FFD77C" stroke="#FFAB50" stroke-miterlimit="10"/>
<path d="M120.036 102.303C122.645 102.303 124.76 100.188 124.76 97.5795C124.76 94.9706 122.645 92.8557 120.036 92.8557C117.427 92.8557 115.312 94.9706 115.312 97.5795C115.312 100.188 117.427 102.303 120.036 102.303Z" fill="#FFD77C" stroke="#FFAB50" stroke-miterlimit="10"/>
<path d="M120.036 100.235C121.503 100.235 122.691 99.0459 122.691 97.5794C122.691 96.1129 121.503 94.9241 120.036 94.9241C118.57 94.9241 117.381 96.1129 117.381 97.5794C117.381 99.0459 118.57 100.235 120.036 100.235Z" fill="#FFD77C" stroke="#FFAB50" stroke-miterlimit="10"/>
<path d="M115.473 109.639C119.793 109.639 123.296 106.137 123.296 101.817C123.296 97.497 119.793 93.9949 115.473 93.9949C111.153 93.9949 107.651 97.497 107.651 101.817C107.651 106.137 111.153 109.639 115.473 109.639Z" fill="#FFD77C" stroke="#FFAB50" stroke-miterlimit="10"/>
<path d="M115.473 108.017C118.897 108.017 121.673 105.241 121.673 101.817C121.673 98.3931 118.897 95.6174 115.473 95.6174C112.049 95.6174 109.274 98.3931 109.274 101.817C109.274 105.241 112.049 108.017 115.473 108.017Z" fill="#FFD77C" stroke="#FFAB50" stroke-miterlimit="10"/>
<path d="M115.473 106.541C118.082 106.541 120.197 104.426 120.197 101.817C120.197 99.2082 118.082 97.0933 115.473 97.0933C112.865 97.0933 110.75 99.2082 110.75 101.817C110.75 104.426 112.865 106.541 115.473 106.541Z" fill="#FFD77C" stroke="#FFAB50" stroke-miterlimit="10"/>
<path d="M115.473 104.472C116.94 104.472 118.129 103.284 118.129 101.817C118.129 100.351 116.94 99.1617 115.473 99.1617C114.007 99.1617 112.818 100.351 112.818 101.817C112.818 103.284 114.007 104.472 115.473 104.472Z" fill="#FFD77C" stroke="#FFAB50" stroke-miterlimit="10"/>
<path d="M124.599 109.639C128.919 109.639 132.421 106.137 132.421 101.817C132.421 97.497 128.919 93.9949 124.599 93.9949C120.279 93.9949 116.777 97.497 116.777 101.817C116.777 106.137 120.279 109.639 124.599 109.639Z" fill="#FFD77C" stroke="#FFAB50" stroke-miterlimit="10"/>
<path d="M124.599 108.017C128.023 108.017 130.798 105.241 130.798 101.817C130.798 98.3931 128.023 95.6174 124.599 95.6174C121.175 95.6174 118.399 98.3931 118.399 101.817C118.399 105.241 121.175 108.017 124.599 108.017Z" fill="#FFD77C" stroke="#FFAB50" stroke-miterlimit="10"/>
<path d="M124.599 106.541C127.208 106.541 129.323 104.426 129.323 101.817C129.323 99.2082 127.208 97.0933 124.599 97.0933C121.99 97.0933 119.875 99.2082 119.875 101.817C119.875 104.426 121.99 106.541 124.599 106.541Z" fill="#FFD77C" stroke="#FFAB50" stroke-miterlimit="10"/>
<path d="M124.599 104.472C126.065 104.472 127.254 103.284 127.254 101.817C127.254 100.351 126.065 99.1617 124.599 99.1617C123.132 99.1617 121.943 100.351 121.943 101.817C121.943 103.284 123.132 104.472 124.599 104.472Z" fill="#FFD77C" stroke="#FFAB50" stroke-miterlimit="10"/>
<path d="M103.739 99.5386H136.331V101.069C136.331 102.58 136.033 104.077 135.455 105.473C134.876 106.869 134.029 108.137 132.96 109.206C131.892 110.275 130.623 111.122 129.227 111.7C127.831 112.279 126.334 112.576 124.823 112.576H115.246C113.735 112.576 112.239 112.279 110.842 111.7C109.446 111.122 108.178 110.275 107.109 109.206C106.041 108.137 105.193 106.869 104.615 105.473C104.036 104.077 103.739 102.58 103.739 101.069V99.5386Z" fill="#6C63FF"/>
<path opacity="0.1" d="M133.39 99.5358C133.306 102.935 131.896 106.167 129.462 108.541C127.027 110.916 123.762 112.245 120.361 112.246H113.891C114.835 112.461 115.8 112.571 116.768 112.574H123.287C125 112.574 126.696 112.238 128.278 111.583C129.861 110.928 131.298 109.968 132.51 108.757C133.721 107.546 134.682 106.109 135.337 104.526C135.993 102.944 136.33 101.248 136.33 99.5358H133.39Z" fill="black"/>
<path d="M163.709 162.438V158.528H78.9692V162.438H163.709Z" fill="#40414D"/>
<path d="M47.1974 144.875H43.7768V175.996H47.1974V144.875Z" fill="#40414D"/>
<path d="M74.2138 144.875H70.7932V175.996H74.2138V144.875Z" fill="#40414D"/>
<path d="M76.9526 139.745C76.9526 141.822 69.9101 143.508 61.222 143.508C52.534 143.508 45.8338 141.825 45.8338 139.745C45.8338 137.665 52.534 135.982 61.222 135.982C69.9101 135.982 76.9526 137.677 76.9526 139.745Z" fill="#F6C6CD"/>
<path d="M41.041 139.742H76.9496V142.878C76.9496 143.679 76.6314 144.448 76.0649 145.014C75.4984 145.581 74.7301 145.899 73.929 145.899H46.2193C44.8459 145.899 43.5288 145.353 42.5576 144.382C41.5865 143.411 41.041 142.094 41.041 140.721V139.742Z" fill="#40414D"/>
<path d="M34.943 103.759L35.6838 103.592C36.2048 103.474 36.7512 103.568 37.2027 103.854C37.6543 104.139 37.974 104.592 38.0916 105.113L47.0599 144.843L45.9374 145.097C44.9952 145.31 44.007 145.139 43.1904 144.623C42.3737 144.107 41.7954 143.288 41.5828 142.346L33.4164 106.168C33.3581 105.91 33.3513 105.642 33.3965 105.381C33.4417 105.12 33.538 104.871 33.6798 104.647C33.8216 104.423 34.0062 104.229 34.2229 104.077C34.4397 103.925 34.6844 103.817 34.943 103.759Z" fill="#40414D"/>
<path d="M193.447 176.549H196.868V145.427H193.447V176.549Z" fill="#40414D"/>
<path d="M166.431 176.549H169.851V145.427H166.431V176.549Z" fill="#40414D"/>
<path d="M163.698 140.298C163.698 142.375 170.74 144.061 179.428 144.061C188.116 144.061 194.817 142.378 194.817 140.298C194.817 138.218 188.114 136.526 179.428 136.526C170.743 136.526 163.698 138.221 163.698 140.298Z" fill="#F6C6CD"/>
<path d="M194.425 146.454H166.716C165.914 146.454 165.146 146.136 164.58 145.569C164.013 145.003 163.695 144.235 163.695 143.433V140.298H199.604V141.276C199.604 142.649 199.058 143.966 198.087 144.937C197.116 145.909 195.799 146.454 194.425 146.454Z" fill="#40414D"/>
<path d="M194.712 145.649L193.59 145.396L202.559 105.659C202.677 105.138 202.997 104.685 203.448 104.4C203.9 104.115 204.446 104.021 204.967 104.138L205.708 104.306C206.229 104.423 206.682 104.743 206.967 105.194C207.252 105.646 207.346 106.192 207.229 106.713L199.061 142.897C198.849 143.838 198.272 144.657 197.456 145.173C196.641 145.689 195.654 145.86 194.712 145.649Z" fill="#40414D"/>
<path d="M195.93 128.183L196.94 127.864C196.94 127.864 195.214 116.334 195.231 106C195.231 105.712 195.231 105.404 195.231 105.108C195.251 104.464 195.274 103.825 195.306 103.201C195.346 102.401 195.355 101.639 195.349 100.899C195.444 90.9483 191.523 86.7453 191.523 86.7453C191.523 86.7453 186.92 80.1803 184.161 78.903C183.922 78.155 183.649 77.1942 183.407 76.078C183.496 76.0176 183.583 75.9571 183.666 75.8938C184.805 75.0487 185.896 74.1391 186.931 73.1695C188.347 71.8433 189.705 70.2265 189.63 68.4026C189.637 68.225 189.632 68.0471 189.612 67.8704C189.351 65.6696 187.064 64.0125 186.14 61.9268C185.363 60.1748 185.596 58.2243 184.917 56.4464C184.239 54.6685 181.868 53.0144 180.079 53.9493C179.42 54.2946 179.023 54.9044 178.473 55.3676C177.11 56.5184 174.912 56.6248 173.048 56.1012C171.183 55.5776 170.631 53.443 168.025 53.4373C168.256 53.5149 168.477 53.6201 168.683 53.7508C168.466 53.7142 168.245 53.6949 168.025 53.6933C168.555 53.861 169.025 54.1788 169.378 54.6082C169.732 55.0376 169.953 55.5602 170.015 56.1127C170.011 56.1821 170.004 56.2513 169.992 56.3199C168.951 56.8808 167.582 56.5615 166.333 56.5414C165.084 56.5212 163.663 57.1513 163.787 58.1725C163.766 58.2886 163.766 58.4075 163.787 58.5235C163.951 59.2974 164.987 59.8814 165.113 60.5977C165.113 60.6178 165.113 60.6351 165.113 60.6552C162.803 61.8098 160.303 62.5387 157.734 62.8071C157.651 62.8071 157.688 62.9078 157.809 63.0545H157.734C157.265 63.1034 160.545 65.6955 160.919 65.8652C162.288 66.4866 163.925 66.944 165.375 67.4216L165.502 67.4618C165.013 68.5967 164.762 69.8194 164.762 71.055C164.762 75.4853 167.947 79.208 172.259 80.2609C173.065 81.2016 173.911 82.2344 174.682 83.2614H174.627C174.627 83.2614 169.67 89.8551 169.828 99.7026C169.814 100.937 169.88 102.171 170.024 103.396C166.836 103.215 159.987 102.375 154.777 98.5605C147.749 93.4195 139.909 94.9615 141.543 98.0455C143.177 101.129 151.546 103.698 152.895 103.957C153.022 103.98 153.315 104.049 153.735 104.153C152.073 104.467 150.933 105.016 151.002 105.755C151.138 107.168 158.301 111.667 162.625 111.923C165.482 112.093 168.919 112.973 171.632 113.747C171.894 119.659 170.464 121.431 170.464 121.431C170.464 121.431 170.89 121.693 171.595 122.064L171.293 122.927C169.538 123.94 167.374 124.996 165.407 125.421C162.899 125.937 160.462 126.748 158.146 127.838L148.413 132.542C147.544 132.945 146.792 133.563 146.228 134.338C145.665 135.112 145.308 136.018 145.191 136.969C144.978 138.963 145.58 141.454 148.836 143.43C149.037 145.05 150.027 146.94 152.625 148.672C157.659 152.021 170.89 162.052 172.691 163.422C172.725 165.87 172.403 170.781 169.383 171.546C165.597 172.507 168.643 176.149 171.704 176.005C172.43 176.28 173.221 176.338 173.98 176.172C177.225 175.401 189.118 171.281 189.929 165.119C189.963 164.852 189.978 164.583 189.975 164.313C190.022 163.263 189.76 162.222 189.221 161.319C189.348 161.597 189.451 161.886 189.529 162.182C188.545 159.938 186.149 158.528 184.285 157.734C184.285 157.714 184.285 157.691 184.285 157.671C183.997 157.559 183.709 157.467 183.473 157.383C183.478 157.216 183.465 157.05 183.436 156.885L164.785 144.035C164.785 144.035 172.895 137.352 181.275 138.382C189.656 139.412 190.99 137.89 190.99 137.89C190.99 137.89 195.288 133.802 195.72 129.095L195.99 129.023C195.99 129.023 195.97 128.727 195.93 128.183Z" fill="url(#paint0_linear)"/>
<path d="M173.154 161.655C173.154 161.655 173.916 170.047 170.102 171.065C166.287 172.084 169.848 176.152 172.898 175.381C175.947 174.61 187.141 170.548 187.904 164.449C188.666 158.35 180.274 156.31 180.274 156.31L173.154 161.655Z" fill="#B8616E"/>
<path opacity="0.05" d="M173.154 161.655C173.154 161.655 173.916 170.047 170.102 171.065C166.287 172.084 169.848 176.152 172.898 175.381C175.947 174.61 187.141 170.548 187.904 164.449C188.666 158.35 180.274 156.31 180.274 156.31L173.154 161.655Z" fill="black"/>
<path d="M174.687 161.909C174.687 161.909 175.45 170.3 171.635 171.319C167.82 172.337 171.382 176.405 174.431 175.634C177.481 174.863 188.675 170.801 189.437 164.702C190.199 158.603 181.808 156.563 181.808 156.563L174.687 161.909Z" fill="#B8616E"/>
<path opacity="0.1" d="M182.57 156.822L175.455 162.164C175.455 162.164 175.487 162.527 175.507 163.105C178.194 162.369 184.049 160.412 184.138 157.351C183.626 157.144 183.103 156.967 182.57 156.822Z" fill="black"/>
<path d="M178.119 83.7017H175.067V85.9916H178.119V83.7017Z" fill="#F8BDC5"/>
<path d="M175.197 120.703C175.197 120.703 170.349 124.512 166.368 125.416C164 125.928 161.705 126.731 159.535 127.806L150.378 132.461C149.546 132.879 148.833 133.5 148.303 134.265C147.774 135.031 147.444 135.917 147.346 136.843C147.084 139.432 148.126 142.838 154.339 144.863L173.922 161.14L180.027 156.054L159.173 140.036L175.197 130.116V120.703Z" fill="#758AC8"/>
<path opacity="0.1" d="M175.197 120.703C175.197 120.703 170.349 124.512 166.368 125.416C164 125.928 161.705 126.731 159.535 127.806L150.378 132.461C149.546 132.879 148.833 133.5 148.303 134.265C147.774 135.031 147.444 135.917 147.346 136.843C147.084 139.432 148.126 142.838 154.339 144.863L173.922 161.14L180.027 156.054L159.173 140.036L175.197 130.116V120.703Z" fill="black"/>
<path d="M172.397 103.667C172.397 103.667 162.987 103.92 156.373 98.8338C149.76 93.7476 142.386 95.2723 143.911 98.3246C145.436 101.377 153.321 103.92 154.593 104.173C155.864 104.426 174.175 109.515 174.175 109.515L172.397 103.667Z" fill="#F8BDC5"/>
<path opacity="0.05" d="M172.397 103.667C172.397 103.667 162.987 103.92 156.373 98.8338C149.76 93.7476 142.386 95.2723 143.911 98.3246C145.436 101.377 153.321 103.92 154.593 104.173C155.864 104.426 174.175 109.515 174.175 109.515L172.397 103.667Z" fill="black"/>
<path d="M173.416 118.419L170.363 127.576C170.363 127.576 153.197 138.131 151.796 139.53C150.709 140.617 149.253 144.872 154.339 148.43C159.426 151.989 173.413 163.183 173.413 163.183C173.413 163.183 184.095 160.881 183.332 156.566L165.784 143.851C165.784 143.851 173.413 137.234 181.298 138.255C189.184 139.276 190.455 137.746 190.455 137.746C190.455 137.746 196.56 131.636 194.523 125.796C192.486 119.956 173.416 118.419 173.416 118.419Z" fill="#758AC8"/>
<path d="M169.601 76.9755C169.601 76.9755 178.249 86.3856 177.74 89.1819C177.23 91.9782 184.607 81.0434 184.607 81.0434C184.607 81.0434 182.305 75.4479 182.826 69.3433L169.601 76.9755Z" fill="#F8BDC5"/>
<path opacity="0.1" d="M177.147 85.606C177.737 84.9831 178.358 84.3907 179.008 83.831C180.31 82.7638 181.504 81.5719 182.573 80.2723C184.354 77.9709 190.965 87.9017 190.965 87.9017C190.965 87.9017 195.032 92.4788 194.526 103.417C194.02 114.354 195.162 128.977 195.162 128.977L193.623 129.406C192.326 129.838 190.947 129.964 189.594 129.771C188.241 129.579 186.951 129.075 185.826 128.298C183.795 126.894 181.224 125.421 179.267 125.289C175.453 125.036 172.018 122.873 172.018 122.873C172.018 122.873 173.672 118.931 171.129 106.213C168.586 93.4943 175.067 84.4553 175.067 84.4553C175.067 84.4553 175.579 87.2228 177.147 85.606Z" fill="black"/>
<path d="M196.051 127.829L194.526 128.339L193.62 128.641C192.323 129.074 190.944 129.199 189.591 129.007C188.238 128.814 186.948 128.31 185.824 127.533C183.795 126.132 181.221 124.656 179.264 124.524C175.455 124.268 171.14 121.472 171.14 121.472C171.14 121.472 173.683 118.166 171.14 105.448C168.597 92.7291 175.081 83.7016 175.081 83.7016C175.081 83.7016 175.594 86.4547 177.161 84.8351C177.75 84.2129 178.37 83.6214 179.02 83.0629C180.321 81.9958 181.515 80.8039 182.584 79.5043C184.365 77.2028 190.976 87.1337 190.976 87.1337C190.976 87.1337 195.044 91.7107 194.538 102.648C194.483 103.799 194.46 104.984 194.457 106.184C194.42 116.42 196.051 127.829 196.051 127.829Z" fill="#5E52AD"/>
<path opacity="0.1" d="M181.554 102.904L181.808 108.5C181.808 108.5 168.327 109.262 165.53 106.466C162.734 103.67 173.154 114.691 175.456 115.367C177.616 116.003 183.194 116.564 186.12 116.621C186.956 116.648 187.781 116.432 188.496 115.998C189.211 115.564 189.785 114.932 190.148 114.179C190.489 113.437 190.599 112.61 190.464 111.805C189.955 108.5 190.464 101.377 190.464 101.377L181.554 102.904Z" fill="black"/>
<path d="M181.554 102.395L181.808 107.991C181.808 107.991 168.327 108.753 165.53 105.957C162.734 103.161 152.616 103.779 152.815 105.957C152.941 107.355 159.682 111.805 163.747 112.061C167.812 112.317 173.154 114.182 175.455 114.858C177.616 115.494 183.194 116.055 186.12 116.112C186.956 116.139 187.781 115.922 188.496 115.489C189.211 115.055 189.785 114.423 190.147 113.67C190.489 112.928 190.599 112.101 190.464 111.296C189.955 107.991 190.464 100.868 190.464 100.868L181.554 102.395Z" fill="#F8BDC5"/>
<path opacity="0.1" d="M184.607 86.1182C184.607 86.1182 178.758 86.8805 179.52 95.5283C180.283 104.176 181.301 104.938 181.301 104.938C181.301 104.938 189.949 104.176 190.965 103.92C191.98 103.664 191.474 94.2567 191.474 94.2567C191.474 94.2567 191.218 85.865 184.607 86.1182Z" fill="black"/>
<path d="M184.607 85.865C184.607 85.865 178.758 86.6274 179.52 95.2751C180.283 103.923 181.301 104.685 181.301 104.685C181.301 104.685 189.949 103.923 190.965 103.667C191.98 103.411 191.474 94.0036 191.474 94.0036C191.474 94.0036 191.218 85.6061 184.607 85.865Z" fill="#5E52AD"/>
<path opacity="0.1" d="M182.443 74.8006C182.043 72.7868 182.863 72.1654 183.079 69.5878L169.846 77.2171C169.846 77.2171 171.362 78.8684 173.085 80.9887C173.855 81.1834 174.647 81.2801 175.441 81.2764C178.908 81.2907 180.803 77.5681 182.443 74.8006Z" fill="black"/>
<path d="M175.194 81.0319C180.391 81.0319 184.604 76.8189 184.604 71.6218C184.604 66.4247 180.391 62.2117 175.194 62.2117C169.997 62.2117 165.784 66.4247 165.784 71.6218C165.784 76.8189 169.997 81.0319 175.194 81.0319Z" fill="#F8BDC5"/>
<path opacity="0.1" d="M177.567 68.7651C176.129 69.68 176.109 71.7484 177.035 73.1811C177.961 74.6138 179.558 75.5602 181.094 76.4521C181.54 76.711 182.032 76.9785 182.533 76.921C182.917 76.846 183.274 76.6657 183.562 76.4003C184.637 75.5615 185.663 74.6615 186.635 73.7047C188.033 72.3296 189.377 70.6351 189.158 68.7162C188.91 66.5385 186.759 64.8987 185.89 62.836C185.159 61.1099 185.378 59.1738 184.739 57.4103C184.1 55.6468 181.862 54.0156 180.188 54.9391C179.569 55.2785 179.195 55.8855 178.678 56.343C177.395 57.4764 175.326 57.5886 173.571 57.0708C171.816 56.553 171.296 54.4385 168.847 54.4327C170.064 54.8614 170.887 56.1301 170.7 57.2866C169.719 57.8418 168.43 57.5253 167.248 57.5052C166.065 57.4851 164.659 58.1467 164.863 59.2112C165.041 60.0742 166.287 60.7158 166.103 61.5788C163.942 62.7173 161.586 63.4394 159.158 63.7077C158.718 63.7566 161.802 66.3198 162.153 66.4896C163.439 67.1052 164.984 67.5569 166.345 68.0287C170.041 69.3031 173.827 69.7577 177.567 68.7651Z" fill="black"/>
<path d="M177.567 68.5089C176.129 69.4238 176.109 71.4922 177.035 72.9249C177.961 74.3575 179.558 75.304 181.094 76.1958C181.54 76.4548 182.032 76.7223 182.533 76.6648C182.917 76.5898 183.274 76.4095 183.562 76.1441C184.637 75.3052 185.663 74.4052 186.635 73.4485C188.033 72.0733 189.377 70.3789 189.158 68.46C188.91 66.2822 186.759 64.6425 185.89 62.5798C185.159 60.8537 185.378 58.9175 184.739 57.154C184.1 55.3905 181.862 53.7594 180.188 54.6828C179.569 55.0223 179.195 55.6293 178.678 56.0867C177.395 57.2202 175.326 57.3324 173.571 56.8146C171.816 56.2967 171.296 54.1823 168.847 54.1765C170.064 54.6052 170.887 55.8739 170.7 57.0303C169.719 57.5856 168.43 57.2691 167.248 57.249C166.065 57.2288 164.659 57.8905 164.863 58.9549C165.041 59.818 166.287 60.4595 166.103 61.3226C163.942 62.461 161.586 63.1832 159.158 63.4514C158.718 63.5003 161.802 66.0636 162.153 66.2333C163.439 66.849 164.984 67.3007 166.345 67.7725C170.041 69.0498 173.827 69.4957 177.567 68.5089Z" fill="#916168"/>
<path opacity="0.1" d="M188.772 160.948C189.181 161.889 189.323 162.925 189.184 163.942C188.421 170.047 177.231 174.115 174.178 174.874C172.57 175.277 170.818 174.336 170.084 173.206C170.556 174.535 172.587 175.844 174.434 175.384C177.487 174.621 188.677 170.551 189.44 164.452C189.606 163.242 189.372 162.011 188.772 160.948Z" fill="white"/>
<path d="M107.948 167.884C107.72 167.372 106.541 166.373 100.853 166.158C96.9581 166.011 95.6319 163.954 95.2723 161.946C96.5525 161.779 97.5536 161.549 97.8816 161.229C97.8816 161.229 97.8643 161.137 97.8355 160.973L97.8816 160.939C97.6328 159.491 97.5029 158.024 97.4932 156.555C97.4857 155.297 97.6189 154.043 97.8902 152.815C98.0486 152.003 98.1152 151.176 98.0887 150.349C98.1203 145.459 96.4029 136.863 96.4029 136.863L96.167 129.719C96.1433 128.828 95.8799 127.96 95.4046 127.205C94.9292 126.451 94.2594 125.839 93.4656 125.433C92.9006 125.141 92.2749 124.985 91.6388 124.978C91.6388 124.978 82.6228 123.557 74.5073 122.783C73.9319 122.32 71.9037 121.072 67.2547 121.788L64.5793 113.957C64.5577 113.862 64.5423 113.766 64.5333 113.67C64.6282 112.674 65.2927 111.175 68.3911 111.08L69.0384 111.656C69.0384 111.656 69.1535 111.429 69.3462 111.08C73.1897 111.037 94.1273 110.824 95.2061 111.08C96.3942 111.368 106.803 109.049 107.102 108.762C111.147 104.818 95.2061 106.731 95.2061 106.731C93.6382 106.987 88.5721 106.682 83.3823 106.259C85.9513 102.407 88.3679 89.3315 88.3679 89.3315C88.3679 89.3315 97.5737 84.6912 94.9098 82.0819C92.2458 79.4726 84.2051 87.8816 84.2051 87.8816C84.2051 87.8816 80.9341 97.4529 79.4468 100.353C78.8714 101.503 78.1263 101.739 77.4618 101.607C77.7638 101.365 77.9595 101.222 77.9595 101.222C77.9595 101.222 71.4175 96 70.822 93.9719C70.7111 93.6396 70.5645 93.3203 70.3847 93.0196C70.0712 91.1813 69.5217 89.3718 68.1811 88.1664C67.9559 87.9247 67.7073 87.7059 67.4389 87.5134C67.0764 87.2545 66.665 87.0301 66.3226 86.7481C66.5154 85.8621 66.7398 84.9415 66.9728 84.0497C71.8289 83.4743 75.6033 79.4467 75.6033 74.5561C75.6026 73.8186 75.5147 73.0837 75.3415 72.3668C76.0673 72.4146 76.7931 72.2739 77.4484 71.9583C78.1037 71.6428 78.6662 71.1631 79.0814 70.5659C80.0624 69.1045 80.0308 67.1137 79.208 65.5717C78.8679 64.9457 78.4221 64.3831 77.8904 63.9089C77.0427 63.0551 76.0088 62.4092 74.8697 62.0217C73.883 61.6794 72.7927 61.4751 72.0102 60.8048C71.6605 60.3475 71.3423 59.8669 71.0579 59.3664C70.7295 58.875 70.3432 58.4248 69.9072 58.0258C68.4688 56.5442 66.4377 55.6323 64.3693 55.2295C61.8492 54.7376 59.2456 54.9131 56.6824 55.0885C55.7244 55.1547 54.5995 55.3244 54.168 56.1587C53.8429 56.7859 54.0558 57.5367 54.0127 58.2358C53.8774 60.4596 51.3343 61.688 49.122 62.226C46.9097 62.7639 44.2717 63.23 43.2044 65.1805C42.2349 66.9411 42.9167 69.0757 43.2274 71.0521C43.7449 74.5224 42.9743 78.062 41.0611 81.0031C40.0888 82.4904 38.8345 83.8138 38.0663 85.4104C37.2154 87.1903 37.0178 89.2129 37.5082 91.1238C37.6521 91.6819 37.8592 92.2515 37.7556 92.8211C37.6379 93.2908 37.4068 93.7245 37.0825 94.0841C35.7596 95.7176 34.1133 97.06 32.2468 98.0268C30.3804 98.9937 28.3342 99.5642 26.2368 99.7025C26.4129 100.287 26.7571 100.806 27.2264 101.196C27.8226 101.785 28.5179 102.265 29.2805 102.614C31.2894 103.621 33.4019 104.408 35.5808 104.959C37.0479 105.33 38.5813 105.594 40.0744 105.341C41.5675 105.088 43.0231 104.234 43.6359 102.881C43.9926 102.099 44.0444 101.213 44.3609 100.416C44.9909 98.8222 46.553 97.7894 47.6088 96.423C47.2533 99.9443 47.0852 103.482 47.1054 107.021C47.1054 108.129 47.1054 109.127 47.1054 110.053C47.1054 114.049 46.8177 116.805 44.3407 121.797C44.0455 122.321 43.9162 122.923 43.9696 123.523C43.9158 123.847 43.9471 124.179 44.0606 124.487C44.1741 124.796 44.3658 125.069 44.6169 125.281C44.4443 126.276 44.3605 127.285 44.3666 128.295C44.3321 131.932 45.5605 136.814 52.0737 138.051L63.6702 137.475C63.6702 137.475 80.025 134.285 84.4841 136.612C84.8521 136.691 85.1822 136.893 85.4193 137.185C85.6565 137.477 85.7864 137.841 85.7873 138.218C85.7735 138.46 85.736 138.699 85.6751 138.934C85.5509 139.688 85.5037 140.452 85.5342 141.215C85.514 146.106 86.567 157.205 86.567 157.205V161.911C85.8247 163.028 84.9099 164.679 85.0279 165.896C85.0279 165.922 85.0279 165.95 85.0279 165.976C85.0279 166.002 85.0279 166.048 85.0451 166.083C85.0624 166.117 85.0451 166.146 85.0652 166.178C85.0854 166.209 85.0825 166.238 85.0911 166.27C85.0998 166.301 85.1142 166.339 85.1285 166.37C85.1429 166.402 85.1487 166.422 85.1602 166.448C85.1717 166.474 85.1976 166.523 85.2177 166.557L85.2522 166.618C85.2868 166.673 85.3253 166.726 85.3673 166.776C86.8546 168.502 94.2855 171.842 96.6675 171.707C99.1963 171.563 107.669 171.995 107.968 168.226C108.006 168.114 107.998 167.991 107.948 167.884Z" fill="url(#paint1_linear)"/>
<path d="M86.8086 160.6C86.8086 160.6 83.3564 164.915 84.7948 166.641C86.2332 168.367 93.4253 171.667 95.7268 171.532C98.1721 171.388 106.371 171.819 106.659 168.079C106.659 168.079 107.234 166.353 99.7543 166.066C92.2746 165.778 94.576 158.01 94.576 158.01L86.8086 160.6Z" fill="#594C76"/>
<path opacity="0.1" d="M45.6698 124.351C45.6698 124.351 42.2176 136.146 52.5742 138.16L63.7939 137.585C63.7939 137.585 79.6165 134.42 83.9317 136.722C83.9317 136.722 85.6578 137.009 85.0825 139.311C84.5071 141.612 85.9455 157.147 85.9455 157.147V162.326C85.9455 162.326 95.7268 162.326 96.8775 161.175C96.8775 161.175 96.0145 156.572 96.8775 152.832C97.7406 149.092 95.4391 137.297 95.4391 137.297L95.2118 130.197C95.195 129.32 94.9446 128.463 94.4865 127.715C94.0284 126.966 93.379 126.353 92.6054 125.939C92.061 125.651 91.4552 125.497 90.839 125.491C90.839 125.491 71.2765 122.326 64.3721 122.901C57.4677 123.477 45.6698 124.351 45.6698 124.351Z" fill="black"/>
<path d="M45.6698 124.064C45.6698 124.064 42.2176 135.859 52.5742 137.872L63.7939 137.297C63.7939 137.297 79.6165 134.132 83.9317 136.434C83.9317 136.434 85.6578 136.722 85.0825 139.023C84.5071 141.325 85.9455 156.86 85.9455 156.86V162.038C85.9455 162.038 95.7268 162.038 96.8775 160.887C96.8775 160.887 96.0145 156.284 96.8775 152.544C97.7406 148.804 95.4391 137.009 95.4391 137.009L95.2118 129.909C95.195 129.032 94.9446 128.175 94.4865 127.427C94.0284 126.678 93.379 126.066 92.6054 125.652C92.061 125.363 91.4552 125.209 90.839 125.203C90.839 125.203 71.2765 122.038 64.3721 122.614C57.4677 123.189 45.6698 124.064 45.6698 124.064Z" fill="#8B9CD1"/>
<path d="M75.3012 100.761C75.3012 100.761 77.6027 103.638 79.0411 100.761C80.4795 97.8844 83.6441 88.3908 83.6441 88.3908C83.6441 88.3908 91.4115 80.048 94.0007 82.6371C96.5898 85.2263 87.6716 89.8292 87.6716 89.8292C87.6716 89.8292 84.5071 107.378 81.6303 107.666C78.7534 107.953 74.4382 107.666 74.4382 107.666L72.9998 104.501L75.3012 100.761Z" fill="#F8BDC5"/>
<path opacity="0.05" d="M75.3012 100.761C75.3012 100.761 77.6027 103.638 79.0411 100.761C80.4795 97.8844 83.6441 88.3908 83.6441 88.3908C83.6441 88.3908 91.4115 80.048 94.0007 82.6371C96.5898 85.2263 87.6716 89.8292 87.6716 89.8292C87.6716 89.8292 84.5071 107.378 81.6303 107.666C78.7534 107.953 74.4382 107.666 74.4382 107.666L72.9998 104.501L75.3012 100.761Z" fill="black"/>
<path d="M64.9446 86.3771C64.9446 86.3771 70.1229 92.4184 70.6983 94.4322C71.2737 96.446 77.6027 101.624 77.6027 101.624C77.6027 101.624 72.9998 105.077 73.8628 106.803C74.7259 108.529 67.8214 101.049 67.8214 101.049L59.7663 89.2539L64.9446 86.3771Z" fill="#EB6475"/>
<path opacity="0.1" d="M64.9446 86.3771C64.9446 86.3771 70.1229 92.4184 70.6983 94.4322C71.2737 96.446 77.6027 101.624 77.6027 101.624C77.6027 101.624 72.9998 105.077 73.8628 106.803C74.7259 108.529 67.8214 101.049 67.8214 101.049L59.7663 89.2539L64.9446 86.3771Z" fill="black"/>
<path d="M68.3968 79.4726C68.3968 79.4726 65.8077 87.8154 65.8077 90.9799C65.8077 94.1445 54.8757 90.1169 55.1634 88.3908C55.451 86.6647 61.4924 80.3356 61.7801 77.7465C62.0678 75.1573 68.3968 79.4726 68.3968 79.4726Z" fill="#F8BDC5"/>
<path opacity="0.1" d="M59.7663 85.2264C59.7663 85.2264 49.6974 82.6372 48.2589 97.3091C46.8205 111.981 49.4097 113.707 45.0944 122.625C40.7792 131.543 74.4382 123.776 74.4382 123.776C74.4382 123.776 72.7121 121.762 67.2461 122.625L64.6569 114.858C64.6569 114.858 63.7939 111.406 68.6845 111.406C73.5751 111.406 71.2737 101.337 71.2737 101.337C71.2737 101.337 68.6845 92.7061 67.2461 91.8431C65.8077 90.98 63.2185 85.8017 59.7663 85.2264Z" fill="black"/>
<path d="M59.7663 84.6509C59.7663 84.6509 49.6974 82.0618 48.2589 96.7337C46.8205 111.406 49.4097 113.132 45.0944 122.05C40.7792 130.968 74.4382 123.201 74.4382 123.201C74.4382 123.201 72.7121 121.187 67.2461 122.05L64.6569 114.282C64.6569 114.282 63.7939 110.83 68.6845 110.83C73.5751 110.83 71.2737 100.761 71.2737 100.761C71.2737 100.761 68.6845 92.1307 67.2461 91.2677C65.8077 90.4046 63.2185 85.2263 59.7663 84.6509Z" fill="#EB6475"/>
<path d="M69.8352 105.364C69.8352 105.364 90.8362 107.666 94.2884 107.09C94.2884 107.09 109.708 105.192 105.796 109.104C105.508 109.392 95.4391 111.693 94.2884 111.406C93.1376 111.118 68.6845 111.406 68.6845 111.406L68.3968 108.529L69.8352 105.364Z" fill="#F8BDC5"/>
<path opacity="0.1" d="M53.725 98.172L68.9722 111.981C68.9722 111.981 71.849 106.227 72.7121 106.227C73.5751 106.227 62.3555 89.2538 62.3555 89.2538C62.3555 89.2538 59.4786 85.8016 57.7525 87.5277C56.0264 89.2538 50.8481 88.1031 53.725 98.172Z" fill="black"/>
<path d="M53.4373 97.5967L68.6845 111.406C68.6845 111.406 71.5613 105.652 72.4244 105.652C73.2875 105.652 62.0678 88.6785 62.0678 88.6785C62.0678 88.6785 59.1909 85.2263 57.4648 86.9524C55.7387 88.6785 50.5604 87.5278 53.4373 97.5967Z" fill="#EB6475"/>
<path d="M65.8076 84.6509C71.0508 84.6509 75.3012 80.4005 75.3012 75.1574C75.3012 69.9142 71.0508 65.6638 65.8076 65.6638C60.5645 65.6638 56.3141 69.9142 56.3141 75.1574C56.3141 80.4005 60.5645 84.6509 65.8076 84.6509Z" fill="#F8BDC5"/>
<path opacity="0.1" d="M74.1217 72.7725C75.7328 73.4083 77.7063 72.646 78.6556 71.1989C79.605 69.7519 79.5762 67.7812 78.7765 66.245C77.9767 64.7088 76.498 63.5926 74.8668 63.0114C73.8772 62.6605 72.7754 62.4591 72.0159 61.7341C71.5355 61.2767 71.2507 60.6582 70.8911 60.1001C69.5476 58.0057 67.1512 56.7687 64.7145 56.2825C62.2778 55.7963 59.7577 55.9689 57.2779 56.1415C56.3515 56.2077 55.2641 56.3746 54.8441 57.2031C54.5305 57.8245 54.7347 58.5696 54.6945 59.2629C54.565 61.4695 52.1053 62.6921 49.9563 63.2214C47.8073 63.7508 45.316 64.2485 44.2688 66.1932C43.3309 67.9395 44.0013 70.0568 44.2918 72.0188C44.7887 75.4459 44.046 78.9379 42.1975 81.8662C41.2568 83.342 40.0456 84.6539 39.3005 86.239C38.4763 88.0104 38.2853 90.0111 38.7597 91.9064C38.9006 92.4616 39.0991 93.0255 39.0013 93.5893C38.8886 94.0528 38.6655 94.4821 38.3511 94.8408C37.0903 96.454 35.5051 97.7848 33.6979 98.7471C31.8906 99.7094 29.9016 100.282 27.8593 100.428C28.1873 101.662 29.3812 102.441 30.5175 103.017C32.4566 104.014 34.5 104.794 36.6107 105.341C38.0289 105.709 39.5134 105.971 40.9576 105.721C42.4017 105.471 43.8085 104.622 44.4098 103.281C44.755 102.505 44.8068 101.627 45.1117 100.833C45.7993 99.0524 47.6318 97.9765 48.6157 96.3396C49.5564 94.7746 49.9218 94.5905 50.1606 92.7838C50.3993 90.9772 50.9258 89.0267 52.4103 87.9651C53.9637 86.8518 56.1501 87.0647 57.8762 87.9191C59.6023 88.7735 60.6697 88.4398 62.111 89.6941C64.6394 91.8905 67.4691 93.7138 70.5142 95.1083C70.2265 92.5997 69.7633 89.8005 67.7265 88.3075C67.1512 87.8788 66.4233 87.5509 66.1184 86.8949C65.6322 85.8506 66.4636 84.5762 66.0867 83.4859C65.7099 82.3956 64.2772 81.9928 63.6414 81.0032C63.1006 80.1631 63.2473 79.021 63.7536 78.158C64.2599 77.2949 65.0597 76.6563 65.8566 76.0521C66.5643 75.517 67.2816 74.9944 68.0085 74.4843C68.6653 74.0675 69.2551 73.5534 69.7576 72.9595C70.0453 72.5654 70.2351 71.7024 70.635 71.4233C71.6419 70.7271 73.1897 72.4072 74.1217 72.7725Z" fill="black"/>
<path d="M73.8341 72.4848C75.4451 73.1206 77.4186 72.3583 78.3679 70.9112C79.3173 69.4642 79.2885 67.4935 78.4888 65.9573C77.689 64.4211 76.2103 63.3048 74.5792 62.7237C73.5895 62.3727 72.4877 62.1714 71.7282 61.4464C71.2478 60.989 70.963 60.3705 70.6034 59.8124C69.2599 57.718 66.8635 56.481 64.4268 55.9948C61.9901 55.5086 59.47 55.6812 56.9902 55.8538C56.0638 55.92 54.9764 56.0869 54.5564 56.9154C54.2428 57.5368 54.447 58.2819 54.4068 58.9752C54.2773 61.1817 51.8176 62.4044 49.6686 62.9337C47.5196 63.4631 45.0283 63.9608 43.9811 65.9055C43.0433 67.6517 43.7136 69.7691 44.0041 71.7311C44.501 75.1582 43.7583 78.6502 41.9098 81.5785C40.9691 83.0543 39.7579 84.3662 39.0128 85.9513C38.1886 87.7227 37.9977 89.7234 38.472 91.6187C38.6129 92.1739 38.8114 92.7378 38.7136 93.3016C38.6009 93.7651 38.3778 94.1944 38.0635 94.5531C36.8026 96.1663 35.2174 97.4971 33.4102 98.4594C31.6029 99.4218 29.6139 99.9943 27.5716 100.14C27.8996 101.374 29.0935 102.154 30.2298 102.729C32.1689 103.726 34.2124 104.506 36.323 105.054C37.7412 105.422 39.2257 105.684 40.6699 105.433C42.114 105.183 43.5208 104.334 44.1221 102.994C44.4673 102.217 44.5191 101.34 44.824 100.546C45.5116 98.7648 47.3441 97.6888 48.328 96.0519C49.2687 94.4869 49.6341 94.3028 49.8729 92.4961C50.1117 90.6895 50.6381 88.739 52.1226 87.6774C53.6761 86.5641 55.8625 86.777 57.5886 87.6314C59.3147 88.4858 60.382 88.1521 61.8233 89.4064C64.3517 91.6028 67.1814 93.4261 70.2265 94.8206C69.9388 92.312 69.4756 89.5129 67.4388 88.0198C66.8635 87.5911 66.1356 87.2632 65.8307 86.6072C65.3445 85.563 66.1759 84.2885 65.799 83.1982C65.4222 82.1079 63.9895 81.7051 63.3537 80.7155C62.8129 79.8754 62.9596 78.7333 63.4659 77.8703C63.9723 77.0072 64.772 76.3686 65.5689 75.7644C66.2766 75.2293 66.9939 74.7067 67.7208 74.1966C68.3776 73.7797 68.9674 73.2657 69.4699 72.6718C69.7576 72.2777 69.9475 71.4147 70.3473 71.1356C71.3542 70.4394 72.902 72.1195 73.8341 72.4848Z" fill="#916168"/>
<g opacity="0.1">
<path opacity="0.1" d="M94.2481 160.277C94.2697 159.512 94.3798 158.751 94.5761 158.01L94.4322 158.059C94.2887 158.789 94.2269 159.533 94.2481 160.277Z" fill="white"/>
<path opacity="0.1" d="M95.7268 170.956C93.4253 171.091 86.2332 167.792 84.7948 166.065C84.6059 165.832 84.4899 165.548 84.4611 165.248C84.4189 165.491 84.4268 165.74 84.4841 165.979C84.5415 166.219 84.6472 166.444 84.7948 166.641C86.2332 168.367 93.4253 171.667 95.7268 171.531C98.1721 171.388 106.371 171.819 106.659 168.079C106.68 167.976 106.666 167.868 106.619 167.774C105.96 171.221 98.1117 170.815 95.7268 170.956Z" fill="white"/>
</g>
<path d="M107.378 85.0824H107.09V96.8774H107.378V85.0824Z" fill="#FFD77C" stroke="#FFAB50" stroke-width="0.25" stroke-miterlimit="10"/>
<path d="M107.666 85.0824H107.378V96.8774H107.666V85.0824Z" fill="#FFD77C" stroke="#FFAB50" stroke-width="0.25" stroke-miterlimit="10"/>
<path d="M107.953 85.0824H107.666V96.8774H107.953V85.0824Z" fill="#FFD77C" stroke="#FFAB50" stroke-width="0.25" stroke-miterlimit="10"/>
<path d="M108.241 85.0824H107.953V96.8774H108.241V85.0824Z" fill="#FFD77C" stroke="#FFAB50" stroke-width="0.25" stroke-miterlimit="10"/>
<path d="M108.529 85.0824H108.241V96.8774H108.529V85.0824Z" fill="#FFD77C" stroke="#FFAB50" stroke-width="0.25" stroke-miterlimit="10"/>
<path d="M108.816 85.0824H108.529V96.8774H108.816V85.0824Z" fill="#FFD77C" stroke="#FFAB50" stroke-width="0.25" stroke-miterlimit="10"/>
<path d="M109.104 85.0824H108.816V96.8774H109.104V85.0824Z" fill="#FFD77C" stroke="#FFAB50" stroke-width="0.25" stroke-miterlimit="10"/>
</g>
<defs>
<linearGradient id="paint0_linear" x1="169.126" y1="176.278" x2="169.126" y2="53.4373" gradientUnits="userSpaceOnUse">
<stop stop-color="#808080" stop-opacity="0.25"/>
<stop offset="0.54" stop-color="#808080" stop-opacity="0.12"/>
<stop offset="1" stop-color="#808080" stop-opacity="0.1"/>
</linearGradient>
<linearGradient id="paint1_linear" x1="31209.2" y1="83940" x2="31209.2" y2="36518.3" gradientUnits="userSpaceOnUse">
<stop stop-color="#808080" stop-opacity="0.25"/>
<stop offset="0.54" stop-color="#808080" stop-opacity="0.12"/>
<stop offset="1" stop-color="#808080" stop-opacity="0.1"/>
</linearGradient>
<clipPath id="clip0">
<rect width="260" height="189.049" fill="white"/>
</clipPath>
</defs>
</svg>
