<svg width="8" height="15" viewBox="0 0 8 15" fill="none" xmlns="http://www.w3.org/2000/svg">
    <path d="M6.66093 14.9999C6.49044 15.0004 6.322 14.9651 6.16798 14.8966C6.01396 14.828 5.87827 14.728 5.77088 14.6038L0.25946 8.18275C0.0917028 7.99125 0 7.7511 0 7.50326C0 7.25542 0.0917028 7.01527 0.25946 6.82377L5.96484 0.402298C6.0597 0.291063 6.17727 0.198679 6.31065 0.130548C6.44403 0.0624163 6.59055 0.0199041 6.74166 0.00549647C6.89276 -0.00891112 7.04541 0.00507502 7.19069 0.046637C7.33596 0.088199 7.47094 0.156503 7.58774 0.247556C7.70454 0.33861 7.80081 0.450585 7.87093 0.576937C7.94105 0.703289 7.98361 0.841482 7.99612 0.983438C8.00863 1.12539 7.99084 1.26826 7.94379 1.4037C7.89673 1.53913 7.82137 1.66441 7.72209 1.77221L2.62143 7.50851L7.55098 13.2448C7.69043 13.4019 7.779 13.5932 7.80621 13.796C7.83341 13.9988 7.79812 14.2047 7.7045 14.3893C7.61088 14.5739 7.46286 14.7295 7.27793 14.8377C7.09299 14.946 6.87889 15.0022 6.66093 14.9999Z" fill="white"/>
</svg>
