<svg width="8" height="15" viewBox="0 0 8 15" fill="none" xmlns="http://www.w3.org/2000/svg">
    <path d="M6.60427 14.0985C6.44496 14.099 6.28756 14.0678 6.14363 14.0072C5.9997 13.9466 5.87291 13.8581 5.77256 13.7484L0.622397 8.07255C0.465636 7.90328 0.379944 7.69099 0.379944 7.47192C0.379944 7.25285 0.465636 7.04056 0.622397 6.87129L5.9538 1.19509C6.04245 1.09676 6.15231 1.0151 6.27694 0.954874C6.40158 0.89465 6.5385 0.857072 6.6797 0.844336C6.8209 0.831601 6.96355 0.843964 7.0993 0.880702C7.23505 0.91744 7.36118 0.977817 7.47033 1.0583C7.57947 1.13879 7.66943 1.23777 7.73496 1.34946C7.80048 1.46114 7.84025 1.5833 7.85194 1.70878C7.86363 1.83426 7.847 1.96055 7.80303 2.08026C7.75907 2.19998 7.68864 2.31072 7.59587 2.406L2.82955 7.47656L7.43598 12.5471C7.56629 12.686 7.64905 12.8551 7.67447 13.0343C7.69989 13.2136 7.66691 13.3956 7.57943 13.5588C7.49195 13.722 7.35363 13.8595 7.18082 13.9552C7.00801 14.0508 6.80794 14.1006 6.60427 14.0985Z" fill="#091A58"/>
</svg>
