<svg width="8" height="15" viewBox="0 0 8 15" fill="none" xmlns="http://www.w3.org/2000/svg">
    <path d="M1.33372 14.0985C1.49303 14.099 1.65043 14.0678 1.79436 14.0072C1.93829 13.9466 2.06508 13.8581 2.16543 13.7484L7.31559 8.07255C7.47235 7.90328 7.55804 7.69099 7.55804 7.47192C7.55804 7.25285 7.47235 7.04056 7.31559 6.87129L1.98419 1.19509C1.89554 1.09676 1.78568 1.0151 1.66104 0.954874C1.53641 0.89465 1.39948 0.857072 1.25828 0.844336C1.11708 0.831601 0.974441 0.843964 0.838689 0.880702C0.702938 0.91744 0.576804 0.977817 0.467661 1.0583C0.358518 1.13879 0.268555 1.23777 0.203032 1.34946C0.137509 1.46114 0.0977411 1.5833 0.0860519 1.70878C0.0743628 1.83426 0.0909877 1.96055 0.134954 2.08026C0.178921 2.19998 0.249346 2.31072 0.342115 2.406L5.10844 7.47656L0.50201 12.5471C0.371698 12.686 0.288938 12.8551 0.263516 13.0343C0.238094 13.2136 0.271073 13.3956 0.358554 13.5588C0.446034 13.722 0.584358 13.8595 0.757168 13.9552C0.929978 14.0508 1.13005 14.1006 1.33372 14.0985Z" fill="#091A58"/>
</svg>
