<svg width="8" height="15" viewBox="0 0 8 15" fill="none" xmlns="http://www.w3.org/2000/svg">
    <path d="M1.31596 14.9999C1.48703 15.0004 1.65604 14.965 1.81059 14.8963C1.96514 14.8276 2.10129 14.7274 2.20904 14.603L7.73966 8.16859C7.90799 7.97669 8 7.73604 8 7.48769C8 7.23933 7.90799 6.99868 7.73966 6.80679L2.01443 0.371973C1.8181 0.159071 1.54042 0.0268202 1.24108 0.00365107C0.941738 -0.019518 0.644642 0.068245 0.413663 0.248073C0.182684 0.4279 0.0362652 0.685434 0.00588413 0.965305C-0.0244969 1.24518 0.0635864 1.52504 0.251197 1.74473L5.37153 7.49294L0.422888 13.2412C0.282962 13.3986 0.194096 13.5903 0.166798 13.7935C0.139501 13.9968 0.174913 14.2031 0.268848 14.3881C0.362783 14.5731 0.511312 14.729 0.696873 14.8374C0.882433 14.9458 1.09726 15.0022 1.31596 14.9999Z" fill="white"/>
</svg>
