<svg width="1440" height="400" viewBox="0 0 1440 400" fill="none" xmlns="http://www.w3.org/2000/svg">
<rect width="1440" height="400" fill="#776FFF"/>
<path opacity="0.053083" fill-rule="evenodd" clip-rule="evenodd" d="M315.535 124.114C329.832 124.114 341.422 112.524 341.422 98.227C341.422 83.9302 329.832 72.3405 315.535 72.3405C301.239 72.3405 289.649 83.9302 289.649 98.227C289.649 112.524 301.239 124.114 315.535 124.114Z" fill="#FCFCFC"/>
<path opacity="0.053083" fill-rule="evenodd" clip-rule="evenodd" d="M315.535 368.085C329.832 368.085 341.422 356.495 341.422 342.199C341.422 327.902 329.832 316.312 315.535 316.312C301.239 316.312 289.649 327.902 289.649 342.199C289.649 356.495 301.239 368.085 315.535 368.085Z" fill="#FCFCFC"/>
<path opacity="0.053083" fill-rule="evenodd" clip-rule="evenodd" d="M745.323 281.56C759.619 281.56 771.209 269.97 771.209 255.674C771.209 241.377 759.619 229.787 745.323 229.787C731.026 229.787 719.436 241.377 719.436 255.674C719.436 269.97 731.026 281.56 745.323 281.56Z" fill="#FCFCFC"/>
<path opacity="0.053083" fill-rule="evenodd" clip-rule="evenodd" d="M370.145 231.915C378.958 231.915 386.103 224.771 386.103 215.957C386.103 207.144 378.958 200 370.145 200C361.332 200 354.188 207.144 354.188 215.957C354.188 224.771 361.332 231.915 370.145 231.915Z" fill="#FCFCFC"/>
<path opacity="0.053083" fill-rule="evenodd" clip-rule="evenodd" d="M539.649 316.312C548.462 316.312 555.606 309.168 555.606 300.355C555.606 291.542 548.462 284.397 539.649 284.397C530.836 284.397 523.691 291.542 523.691 300.355C523.691 309.168 530.836 316.312 539.649 316.312Z" fill="#FCFCFC"/>
<path opacity="0.053083" fill-rule="evenodd" clip-rule="evenodd" d="M1135.39 104.255C1144.21 104.255 1151.35 97.111 1151.35 88.2979C1151.35 79.4848 1144.21 72.3405 1135.39 72.3405C1126.58 72.3405 1119.44 79.4848 1119.44 88.2979C1119.44 97.111 1126.58 104.255 1135.39 104.255Z" fill="#FCFCFC"/>
<path opacity="0.053083" fill-rule="evenodd" clip-rule="evenodd" d="M766.599 31.9149C775.412 31.9149 782.557 24.7705 782.557 15.9574C782.557 7.14439 775.412 0 766.599 0C757.786 0 750.642 7.14439 750.642 15.9574C750.642 24.7705 757.786 31.9149 766.599 31.9149Z" fill="#FCFCFC"/>
<path opacity="0.053083" fill-rule="evenodd" clip-rule="evenodd" d="M1099.22 388.652C1108.04 388.652 1115.18 381.508 1115.18 372.695C1115.18 363.882 1108.04 356.738 1099.22 356.738C1090.41 356.738 1083.27 363.882 1083.27 372.695C1083.27 381.508 1090.41 388.652 1099.22 388.652Z" fill="#FCFCFC"/>
<path opacity="0.053083" fill-rule="evenodd" clip-rule="evenodd" d="M836.103 400C844.916 400 852.06 392.856 852.06 384.043C852.06 375.229 844.916 368.085 836.103 368.085C827.29 368.085 820.145 375.229 820.145 384.043C820.145 392.856 827.29 400 836.103 400Z" fill="#FCFCFC"/>
<path opacity="0.103083" fill-rule="evenodd" clip-rule="evenodd" d="M490.004 130.496C498.817 130.496 505.961 123.352 505.961 114.539C505.961 105.726 498.817 98.5815 490.004 98.5815C481.191 98.5815 474.046 105.726 474.046 114.539C474.046 123.352 481.191 130.496 490.004 130.496Z" fill="#FCFCFC"/>
<path opacity="0.053083" fill-rule="evenodd" clip-rule="evenodd" d="M983.621 130.496C992.434 130.496 999.578 123.352 999.578 114.539C999.578 105.726 992.434 98.5815 983.621 98.5815C974.807 98.5815 967.663 105.726 967.663 114.539C967.663 123.352 974.807 130.496 983.621 130.496Z" fill="#FCFCFC"/>
<path opacity="0.053083" fill-rule="evenodd" clip-rule="evenodd" d="M648.16 124.113C656.973 124.113 664.117 116.969 664.117 108.156C664.117 99.3429 656.973 92.1985 648.16 92.1985C639.347 92.1985 632.202 99.3429 632.202 108.156C632.202 116.969 639.347 124.113 648.16 124.113Z" fill="#FCFCFC"/>
<path opacity="0.153083" fill-rule="evenodd" clip-rule="evenodd" d="M365.536 292.908C371.803 292.908 376.883 287.827 376.883 281.56C376.883 275.293 371.803 270.213 365.536 270.213C359.268 270.213 354.188 275.293 354.188 281.56C354.188 287.827 359.268 292.908 365.536 292.908Z" fill="#FCFCFC"/>
<path opacity="0.053083" fill-rule="evenodd" clip-rule="evenodd" d="M857.734 95.0355C864.001 95.0355 869.082 89.955 869.082 83.688C869.082 77.4209 864.001 72.3405 857.734 72.3405C851.467 72.3405 846.386 77.4209 846.386 83.688C846.386 89.955 851.467 95.0355 857.734 95.0355Z" fill="#FCFCFC"/>
<path opacity="0.103083" fill-rule="evenodd" clip-rule="evenodd" d="M993.887 267.773C1008.18 267.773 1019.77 256.183 1019.77 241.887C1019.77 227.59 1008.18 216 993.887 216C979.59 216 968 227.59 968 241.887C968 256.183 979.59 267.773 993.887 267.773Z" fill="#FCFCFC"/>
</svg>
