<svg width="512" height="512" viewBox="0 0 512 512" fill="none" xmlns="http://www.w3.org/2000/svg">
<path d="M275.256 200.295L274.948 266.752L271.979 273.101C268.395 280.883 260.408 288.768 252.216 292.659C246.993 295.117 245.048 295.424 236.036 295.424C227.025 295.424 225.08 295.117 219.96 292.659C212.177 289.075 204.292 281.498 200.401 273.92C197.329 268.186 197.124 267.059 197.124 257.024C197.124 246.887 197.329 245.863 200.504 239.411C204.702 230.912 212.689 223.232 220.984 220.058C225.489 218.215 228.868 217.703 236.036 217.703C248.427 217.703 255.185 220.365 263.582 228.455C266.961 231.834 269.726 234.496 269.828 234.496C269.828 234.496 269.624 224.051 269.316 211.251L268.804 187.904L260.1 184.935C247.915 180.736 230.609 180.019 218.014 183.194C203.678 186.778 193.438 192.512 182.686 203.264C172.446 213.402 167.326 221.389 162.923 234.291L160.26 242.176L159.953 310.17L159.646 378.163L164.971 377.447C175.825 376.013 187.192 367.821 192.414 357.683C195.281 351.949 196.817 341.914 196.408 330.957C196.203 325.735 196.203 321.536 196.408 321.536C196.51 321.536 199.48 322.97 202.859 324.711C222.622 334.643 249.553 334.541 269.419 324.506C277.713 320.41 282.833 316.826 289.182 310.887L294.302 306.176L297.374 309.555C309.252 322.151 327.48 330.957 344.785 332.493L352.26 333.107V315.085C352.26 294.707 353.182 296.96 344.068 295.424C335.262 294.093 325.124 287.232 319.39 278.938C312.734 269.21 312.939 270.746 312.324 213.504L311.812 161.28L309.048 155.443C303.825 144.282 292.459 135.885 280.683 134.451L275.46 133.837L275.256 200.295Z" fill="black"/>
</svg>
