<svg width="192" height="192" viewBox="0 0 192 192" fill="#fff" xmlns="http://www.w3.org/2000/svg">
<path d="M103.221 75.1105L103.106 100.032L101.992 102.413C100.648 105.331 97.6528 108.288 94.5808 109.747C92.6224 110.669 91.8928 110.784 88.5136 110.784C85.1344 110.784 84.4048 110.669 82.4848 109.747C79.5664 108.403 76.6096 105.562 75.1504 102.72C73.9984 100.57 73.9216 100.147 73.9216 96.3841C73.9216 92.5825 73.9984 92.1985 75.1888 89.7793C76.7632 86.5921 79.7584 83.7121 82.8688 82.5217C84.5584 81.8305 85.8256 81.6385 88.5136 81.6385C93.16 81.6385 95.6944 82.6369 98.8432 85.6705C100.11 86.9377 101.147 87.9361 101.186 87.9361C101.186 87.9361 101.109 84.0193 100.994 79.2193L100.802 70.4641L97.5376 69.3505C92.968 67.7761 86.4784 67.5073 81.7552 68.6977C76.3792 70.0417 72.5392 72.1921 68.5072 76.2241C64.6672 80.0257 62.7472 83.0209 61.096 87.8593L60.0976 90.8161L59.9824 116.314L59.8672 141.811L61.864 141.542C65.9344 141.005 70.1968 137.933 72.1552 134.131C73.2304 131.981 73.8064 128.218 73.6528 124.109C73.576 122.15 73.576 120.576 73.6528 120.576C73.6912 120.576 74.8048 121.114 76.072 121.766C83.4832 125.491 93.5824 125.453 101.032 121.69C104.142 120.154 106.062 118.81 108.443 116.582L110.363 114.816L111.515 116.083C115.97 120.806 122.805 124.109 129.294 124.685L132.098 124.915V118.157C132.098 110.515 132.443 111.36 129.026 110.784C125.723 110.285 121.922 107.712 119.771 104.602C117.275 100.954 117.352 101.53 117.122 80.0641L116.93 60.4801L115.893 58.2913C113.934 54.1057 109.672 50.9569 105.256 50.4193L103.298 50.1889L103.221 75.1105Z" fill="black"/>
</svg>
