<svg width="74" height="23" viewBox="0 0 74 23" fill="none" xmlns="http://www.w3.org/2000/svg">
<path d="M 11.5 0 C 13 0 14.5 0.3 15.9 0.8 C 17.3 1.4 18.6 2.3 19.6 3.4 C 20.7 4.4 21.6 5.7 22.2 7.1 C 22.7 8.5 23 10 23 11.5 C 23 13 22.7 14.5 22.2 15.9 C 21.6 17.3 20.7 18.6 19.6 19.6 C 18.6 20.7 17.3 21.6 15.9 22.2 C 14.5 22.7 13 23 11.5 23 C 10 23 8.5 22.7 7.1 22.2 C 5.7 21.6 4.4 20.7 3.4 19.6 C 2.3 18.6 1.4 17.3 0.8 15.9 C 0.3 14.5 0 13 0 11.5 C 0 10 0.3 8.5 0.8 7.1 C 1.4 5.7 2.3 4.4 3.4 3.4 C 4.4 2.3 5.7 1.4 7.1 0.8 C 8.5 0.3 10 0 11.5 0 Z M 11.5 3.5 C 11 3.4 10.6 3.5 10.2 3.7 C 9.8 3.9 9.4 4.1 9.1 4.5 C 8.7 4.8 8.5 5.1 8.3 5.6 C 8.1 6 8 6.4 8 6.9 C 8 7.3 8.1 7.8 8.3 8.2 C 8.5 8.6 8.7 9 9.1 9.3 C 9.4 9.7 9.7 9.9 10.2 10.1 C 10.6 10.3 11 10.4 11.5 10.4 C 12 10.4 12.4 10.3 12.8 10.1 C 13.2 9.9 13.6 9.7 13.9 9.3 C 14.2 9 14.5 8.6 14.7 8.2 C 14.8 7.8 14.9 7.3 14.9 6.9 C 14.9 6.4 14.8 6 14.7 5.6 C 14.5 5.2 14.2 4.8 13.9 4.5 C 13.6 4.1 13.2 3.9 12.8 3.7 C 12.4 3.5 12 3.5 11.5 3.5 L 11.5 3.5 Z M 11.5 19.8 C 12.9 19.8 14.2 19.5 15.4 18.8 C 16.6 18.2 17.6 17.2 18.4 16.1 C 18.3 15.7 18.2 15.3 18 15 C 17.8 14.6 17.5 14.4 17.1 14.2 C 16.2 13.6 15.3 13.2 14.3 12.9 C 13.4 12.7 12.4 12.5 11.5 12.5 C 10.6 12.5 9.6 12.7 8.7 12.9 C 7.7 13.2 6.8 13.6 5.9 14.2 C 5.5 14.4 5.2 14.6 5 15 C 4.8 15.3 4.6 15.7 4.6 16.1 C 5.3 17.2 6.4 18.2 7.6 18.8 C 8.8 19.5 10.1 19.8 11.5 19.8 Z" fill="#ffd80b"/>
</svg>
