<svg width="505" height="422" viewBox="0 0 505 422" fill="none" xmlns="http://www.w3.org/2000/svg">
<g clip-path="url(#clip0_956_767)">
<path d="M328.552 416.38L234.195 246.976C234.168 246.561 234.039 246.16 233.819 245.807C233.6 245.454 233.296 245.16 232.935 244.951C232.521 244.715 232.049 244.601 231.572 244.623C231.557 244.622 231.542 244.623 231.526 244.622C231.511 244.623 231.495 244.622 231.48 244.623C230.835 244.593 230.202 244.813 229.716 245.236C229.229 245.66 228.926 246.254 228.869 246.895L128.865 416.38C128.698 416.668 128.59 416.985 128.546 417.314C128.502 417.643 128.524 417.977 128.61 418.297C128.696 418.618 128.845 418.918 129.048 419.182C129.251 419.445 129.504 419.666 129.792 419.832C130.081 419.998 130.399 420.105 130.73 420.148C131.06 420.192 131.396 420.17 131.717 420.084C132.039 419.998 132.341 419.85 132.605 419.647C132.869 419.445 133.091 419.193 133.257 418.906L231.459 252.477L324.159 418.906C324.325 419.193 324.547 419.445 324.811 419.647C325.075 419.85 325.377 419.998 325.699 420.084C326.021 420.17 326.356 420.192 326.687 420.148C327.017 420.105 327.336 419.998 327.624 419.832C327.913 419.666 328.165 419.445 328.368 419.182C328.571 418.918 328.72 418.618 328.806 418.297C328.892 417.977 328.914 417.643 328.87 417.314C328.827 416.985 328.718 416.668 328.552 416.38Z" fill="#3F3D56"/>
<path d="M215.891 387.316L226.556 384.879L222.193 342.755L206.452 346.351L215.891 387.316Z" fill="#FFB6B6"/>
<path d="M224.137 366.966L208.959 370.433L204.106 360.989L203.831 360.654C201.678 358.023 200.483 354.744 200.441 351.35L187.825 318.12L186.794 317.632C185.996 317.254 185.288 316.711 184.718 316.039C184.147 315.367 183.727 314.581 183.486 313.735C183.245 312.888 183.188 312 183.319 311.13C183.449 310.26 183.765 309.427 184.245 308.688L182.909 305.171L145.224 305.239L145.187 305.229L98.9104 292.302L103.769 263.459L116.787 271.614C121.076 271.336 194.555 266.844 201.343 283.242C207.388 297.844 216.099 322.791 222.342 341.147C222.653 341.971 223.04 342.765 223.498 343.519C224.469 345.008 225.039 346.721 225.153 348.494C225.227 349.265 225.374 350.027 225.594 350.77C228.189 358.494 224.236 366.762 224.196 366.845L224.137 366.966Z" fill="#091A58"/>
<path d="M212.288 383.793L215.755 383.001L228.03 374.426L236.549 378.25L236.55 378.25C240.651 377.314 244.957 378.037 248.521 380.262C252.086 382.487 254.617 386.031 255.558 390.114L255.674 390.615L215.95 399.69L212.288 383.793Z" fill="#2F2E41"/>
<path d="M54.8162 384.74C55.9006 372.986 62.8141 361.219 73.9027 357.051C69.8699 369.242 70.2972 382.46 75.1091 394.367C76.9816 398.952 79.5437 403.858 78.074 408.586C77.1596 411.529 74.7649 413.834 72.0527 415.314C69.3403 416.795 66.3017 417.556 63.301 418.303L62.7221 418.812C57.5773 408.179 53.7319 396.493 54.8162 384.74Z" fill="#F0F0F0"/>
<path d="M74.0212 357.269C67.7272 364.763 63.9643 374.04 63.267 383.785C63.0795 385.88 63.2248 387.991 63.6976 390.041C64.223 392.024 65.2718 393.83 66.735 395.272C68.0723 396.643 69.5997 397.892 70.5788 399.564C71.0672 400.427 71.3669 401.383 71.4581 402.37C71.5494 403.356 71.4303 404.351 71.1085 405.288C70.3677 407.645 68.8207 409.596 67.2413 411.452C65.4877 413.512 63.6335 415.624 62.9462 418.303C62.863 418.628 62.3621 418.48 62.4452 418.156C63.6409 413.495 68.058 410.728 70.0707 406.5C71.0099 404.527 71.3577 402.26 70.3524 400.242C69.4734 398.477 67.8994 397.187 66.5334 395.81C65.0852 394.424 63.9998 392.706 63.3721 390.806C62.796 388.787 62.5693 386.684 62.7015 384.589C62.9238 379.867 63.8901 375.21 65.5653 370.787C67.449 365.729 70.1878 361.029 73.6632 356.89C73.8784 356.634 74.235 357.014 74.0212 357.269L74.0212 357.269Z" fill="white"/>
<path d="M63.306 380.634C61.6801 380.296 60.2279 379.393 59.2088 378.086C58.1897 376.78 57.67 375.156 57.7427 373.503C57.7462 373.436 57.7759 373.373 57.8255 373.327C57.8751 373.281 57.9406 373.256 58.0084 373.257C58.0761 373.258 58.1407 373.285 58.1886 373.333C58.2365 373.381 58.2639 373.445 58.2651 373.513C58.1946 375.051 58.6788 376.564 59.6303 377.779C60.5818 378.993 61.9379 379.829 63.4538 380.135C63.7831 380.202 63.6335 380.701 63.306 380.634H63.306Z" fill="white"/>
<path d="M65.9647 394.665C68.8228 392.839 70.8847 390.008 71.7395 386.735C71.8239 386.411 72.3249 386.559 72.2406 386.882C71.3447 390.286 69.1929 393.228 66.2146 395.122C65.9306 395.302 65.6823 394.844 65.9648 394.665H65.9647Z" fill="white"/>
<path d="M67.949 366.206C68.5507 366.467 69.2082 366.576 69.8624 366.522C70.5167 366.468 71.1472 366.253 71.6974 365.896C71.9789 365.712 72.2269 366.17 71.9472 366.353C71.3375 366.744 70.6408 366.981 69.9181 367.042C69.1954 367.103 68.4686 366.988 67.8012 366.705C67.7361 366.683 67.6815 366.638 67.6487 366.578C67.6159 366.518 67.6073 366.448 67.6246 366.382C67.6445 366.316 67.6897 366.26 67.7504 366.227C67.8112 366.194 67.8825 366.187 67.949 366.206H67.949Z" fill="white"/>
<path d="M108.751 376.867C108.579 376.987 108.406 377.106 108.234 377.231C105.922 378.852 103.747 380.658 101.73 382.63C101.571 382.78 101.413 382.935 101.259 383.089C96.4493 387.893 92.5768 393.544 89.8385 399.755C88.7511 402.228 87.8543 404.779 87.1557 407.387C86.191 410.989 85.433 414.971 83.3899 417.957C83.1802 418.271 82.9513 418.572 82.7043 418.858L63.3904 419.475C63.3458 419.455 63.3011 419.439 63.2563 419.418L62.4863 419.478C62.5129 419.341 62.5435 419.199 62.5701 419.062C62.5852 418.983 62.6045 418.903 62.6196 418.824C62.6311 418.771 62.6427 418.717 62.65 418.669C62.6537 418.651 62.6577 418.634 62.6615 418.62C62.6688 418.572 62.6807 418.527 62.6882 418.483C62.8567 417.692 63.0311 416.9 63.2114 416.108C63.2112 416.103 63.2112 416.103 63.2154 416.099C64.5312 410.051 66.5629 404.179 69.2678 398.608C69.3508 398.442 69.4334 398.273 69.5252 398.107C70.7814 395.639 72.238 393.277 73.8806 391.046C74.7839 389.826 75.7487 388.653 76.7712 387.531C79.4187 384.637 82.5069 382.176 85.9226 380.237C92.7322 376.373 100.707 374.722 108.182 376.71C108.373 376.76 108.56 376.812 108.751 376.867Z" fill="#F0F0F0"/>
<path d="M108.716 377.112C99.1598 379.322 90.5457 384.474 84.0974 391.836C82.6809 393.397 81.5203 395.17 80.6583 397.09C79.8793 398.988 79.6248 401.058 79.9213 403.087C80.1596 404.984 80.6239 406.897 80.3949 408.819C80.263 409.801 79.9242 410.744 79.4006 411.586C78.8771 412.429 78.1806 413.151 77.3568 413.707C75.3405 415.144 72.9257 415.775 70.5428 416.309C67.897 416.903 65.1394 417.478 62.9709 419.205C62.7082 419.414 62.3975 418.996 62.6598 418.787C66.4326 415.782 71.6324 416.221 75.7957 414.052C77.7384 413.04 79.3866 411.439 79.8045 409.224C80.1699 407.288 79.6928 405.315 79.4349 403.396C79.1165 401.421 79.2886 399.399 79.9361 397.505C80.6971 395.548 81.7872 393.733 83.1596 392.139C86.1919 388.503 89.7795 385.363 93.7911 382.836C98.3535 379.927 103.382 377.816 108.659 376.595C108.986 376.52 109.041 377.037 108.716 377.112V377.112Z" fill="white"/>
<path d="M86.0333 389.344C84.9397 388.099 84.3262 386.507 84.3022 384.853C84.2783 383.199 84.8455 381.591 85.9026 380.315C86.1174 380.058 86.5293 380.378 86.3142 380.636C85.3276 381.822 84.7994 383.32 84.8248 384.86C84.8503 386.4 85.4277 387.881 86.453 389.034C86.6755 389.285 86.2545 389.593 86.0333 389.344V389.344Z" fill="white"/>
<path d="M79.6732 402.141C83.0591 402.397 86.4173 401.372 89.0784 399.272C89.3418 399.064 89.6526 399.482 89.3895 399.69C86.6162 401.87 83.1193 402.929 79.5965 402.656C79.2607 402.629 79.3393 402.115 79.6732 402.141V402.141Z" fill="white"/>
<path d="M98.4642 380.608C98.7865 381.177 99.2459 381.658 99.801 382.007C100.356 382.356 100.99 382.563 101.644 382.608C101.98 382.63 101.901 383.144 101.568 383.122C100.844 383.069 100.145 382.84 99.5308 382.456C98.9167 382.072 98.4064 381.543 98.0445 380.917C98.0055 380.861 97.9893 380.792 97.9994 380.725C98.0095 380.657 98.045 380.596 98.0988 380.554C98.1546 380.513 98.2242 380.496 98.2927 380.506C98.3611 380.516 98.4227 380.553 98.4642 380.608H98.4642Z" fill="white"/>
<path d="M370.809 384.74C369.725 372.986 362.812 361.219 351.723 357.051C355.756 369.242 355.329 382.46 350.517 394.367C348.644 398.952 346.082 403.858 347.552 408.586C348.466 411.529 350.861 413.834 353.573 415.314C356.285 416.795 359.324 417.556 362.325 418.303L362.904 418.812C368.049 408.179 371.894 396.493 370.809 384.74Z" fill="#F0F0F0"/>
<path d="M351.605 357.269C357.899 364.763 361.662 374.04 362.359 383.785C362.547 385.88 362.401 387.991 361.929 390.041C361.403 392.024 360.355 393.83 358.891 395.272C357.554 396.643 356.027 397.892 355.048 399.564C354.559 400.427 354.259 401.383 354.168 402.37C354.077 403.356 354.196 404.351 354.518 405.288C355.259 407.645 356.806 409.596 358.385 411.452C360.139 413.512 361.993 415.624 362.68 418.303C362.763 418.628 363.264 418.48 363.181 418.156C361.985 413.495 357.568 410.728 355.556 406.5C354.616 404.527 354.269 402.26 355.274 400.242C356.153 398.477 357.727 397.187 359.093 395.81C360.541 394.424 361.626 392.706 362.254 390.806C362.83 388.787 363.057 386.684 362.925 384.589C362.703 379.867 361.736 375.21 360.061 370.787C358.177 365.729 355.438 361.029 351.963 356.89C351.748 356.634 351.391 357.014 351.605 357.269L351.605 357.269Z" fill="white"/>
<path d="M362.32 380.634C363.946 380.295 365.398 379.392 366.417 378.086C367.436 376.78 367.956 375.156 367.883 373.503C367.88 373.436 367.85 373.372 367.801 373.326C367.751 373.28 367.685 373.255 367.618 373.257C367.55 373.258 367.485 373.285 367.437 373.333C367.389 373.381 367.362 373.445 367.361 373.512C367.431 375.051 366.947 376.564 365.996 377.779C365.044 378.993 363.688 379.829 362.172 380.135C361.843 380.202 361.993 380.7 362.32 380.634V380.634Z" fill="white"/>
<path d="M359.661 394.665C356.803 392.839 354.741 390.008 353.886 386.735C353.802 386.411 353.301 386.559 353.385 386.882C354.281 390.286 356.433 393.228 359.411 395.122C359.695 395.302 359.943 394.844 359.661 394.665H359.661Z" fill="white"/>
<path d="M357.677 366.206C357.075 366.467 356.417 366.576 355.763 366.522C355.109 366.468 354.478 366.253 353.928 365.896C353.647 365.712 353.399 366.17 353.678 366.353C354.288 366.744 354.985 366.981 355.707 367.042C356.43 367.103 357.157 366.988 357.824 366.705C357.89 366.683 357.944 366.638 357.977 366.578C358.01 366.518 358.018 366.448 358.001 366.382C357.981 366.316 357.936 366.26 357.875 366.227C357.814 366.194 357.743 366.187 357.677 366.206H357.677Z" fill="white"/>
<path d="M316.875 376.867C317.047 376.987 317.22 377.106 317.392 377.231C319.704 378.852 321.879 380.658 323.896 382.63C324.055 382.78 324.213 382.935 324.367 383.089C329.177 387.893 333.049 393.544 335.788 399.755C336.875 402.228 337.772 404.779 338.471 407.387C339.435 410.989 340.193 414.971 342.236 417.957C342.446 418.271 342.675 418.572 342.922 418.858L362.236 419.475C362.28 419.455 362.325 419.439 362.37 419.418L363.14 419.478C363.113 419.341 363.083 419.199 363.056 419.062C363.041 418.983 363.022 418.903 363.007 418.824C362.995 418.771 362.984 418.717 362.976 418.669C362.973 418.651 362.969 418.634 362.965 418.62C362.957 418.572 362.945 418.527 362.938 418.483C362.77 417.692 362.595 416.9 362.415 416.108C362.415 416.103 362.415 416.103 362.411 416.099C361.095 410.051 359.063 404.179 356.358 398.608C356.275 398.442 356.193 398.273 356.101 398.107C354.845 395.639 353.388 393.277 351.746 391.046C350.842 389.826 349.877 388.653 348.855 387.531C346.208 384.637 343.119 382.176 339.704 380.237C332.894 376.373 324.919 374.722 317.444 376.71C317.253 376.76 317.066 376.812 316.875 376.867Z" fill="#F0F0F0"/>
<path d="M316.91 377.112C326.466 379.322 335.08 384.474 341.529 391.836C342.945 393.397 344.106 395.17 344.968 397.09C345.747 398.988 346.001 401.058 345.705 403.087C345.466 404.984 345.002 406.897 345.231 408.819C345.363 409.801 345.702 410.744 346.225 411.586C346.749 412.429 347.445 413.151 348.269 413.707C350.285 415.144 352.7 415.775 355.083 416.309C357.729 416.903 360.486 417.478 362.655 419.205C362.918 419.414 363.228 418.996 362.966 418.787C359.193 415.782 353.993 416.221 349.83 414.052C347.887 413.04 346.239 411.439 345.821 409.224C345.456 407.288 345.933 405.315 346.191 403.396C346.509 401.421 346.337 399.399 345.69 397.505C344.929 395.548 343.839 393.733 342.466 392.139C339.434 388.503 335.846 385.363 331.835 382.836C327.272 379.927 322.244 377.816 316.967 376.595C316.64 376.52 316.585 377.037 316.91 377.112V377.112Z" fill="white"/>
<path d="M339.593 389.344C340.686 388.099 341.3 386.507 341.324 384.853C341.348 383.199 340.78 381.591 339.723 380.315C339.508 380.058 339.097 380.378 339.312 380.636C340.298 381.822 340.827 383.32 340.801 384.86C340.776 386.4 340.198 387.881 339.173 389.034C338.95 389.285 339.371 389.593 339.593 389.344V389.344Z" fill="white"/>
<path d="M345.953 402.141C342.567 402.397 339.209 401.372 336.548 399.272C336.284 399.064 335.974 399.482 336.237 399.69C339.01 401.87 342.507 402.929 346.03 402.656C346.366 402.629 346.287 402.115 345.953 402.141V402.141Z" fill="white"/>
<path d="M327.162 380.608C326.84 381.177 326.38 381.658 325.825 382.007C325.27 382.356 324.637 382.563 323.982 382.608C323.646 382.63 323.725 383.144 324.058 383.122C324.782 383.069 325.481 382.84 326.095 382.456C326.709 382.072 327.22 381.543 327.582 380.917C327.621 380.861 327.637 380.792 327.627 380.725C327.617 380.657 327.581 380.596 327.527 380.554C327.471 380.513 327.402 380.496 327.333 380.506C327.265 380.516 327.203 380.553 327.162 380.608H327.162Z" fill="white"/>
<path d="M504.357 420.416C504.356 420.593 504.285 420.763 504.16 420.888C504.034 421.013 503.864 421.084 503.686 421.084H1.33184C1.15396 421.084 0.98336 421.014 0.857578 420.889C0.731795 420.763 0.661133 420.594 0.661133 420.416C0.661133 420.239 0.731795 420.069 0.857578 419.944C0.98336 419.819 1.15396 419.749 1.33184 419.749H503.686C503.864 419.749 504.034 419.819 504.16 419.945C504.285 420.07 504.356 420.239 504.357 420.416V420.416Z" fill="#3F3D56"/>
<path d="M324.241 162.054C325.642 162.054 326.778 160.923 326.778 159.528C326.778 158.133 325.642 157.002 324.241 157.002C322.841 157.002 321.705 158.133 321.705 159.528C321.705 160.923 322.841 162.054 324.241 162.054Z" fill="#3F3D56"/>
<path d="M292.482 178.982L326.675 157.59C326.985 157.397 327.33 157.268 327.691 157.211C328.052 157.154 328.421 157.171 328.775 157.26C329.129 157.349 329.461 157.508 329.752 157.729C330.043 157.949 330.285 158.226 330.465 158.542C330.645 158.859 330.759 159.208 330.8 159.57C330.841 159.931 330.807 160.297 330.702 160.646C330.597 160.994 330.422 161.317 330.187 161.596C329.953 161.876 329.664 162.104 329.338 162.269L293.341 180.49C293.141 180.591 292.909 180.612 292.695 180.547C292.48 180.483 292.299 180.339 292.188 180.144C292.077 179.95 292.046 179.721 292.101 179.504C292.156 179.288 292.292 179.101 292.482 178.982V178.982Z" fill="#E4E4E4"/>
<path d="M223.884 225.043C223.614 224.644 223.474 224.173 223.481 223.693C223.488 223.212 223.642 222.745 223.923 222.354C224.502 221.583 225.272 220.975 226.158 220.589C227.988 219.662 229.959 219.042 231.991 218.754C233.535 218.536 235.221 218.466 236.419 217.471C237.609 216.483 238.273 214.635 239.815 214.48C241.306 214.331 242.452 215.956 243.947 216.057C245.79 216.181 246.996 214.034 248.789 213.593C249.989 213.299 251.224 213.819 252.349 214.327L259.105 217.38L262.568 218.944C263.778 219.491 265.142 220.226 265.371 221.529C265.684 223.32 263.685 224.583 261.975 225.219C249.767 229.705 236.352 229.707 224.142 225.223" fill="#FED500"/>
<path d="M234.062 258.026C283.089 258.026 322.832 252.372 322.832 245.398C322.832 238.424 283.089 232.77 234.062 232.77C185.036 232.77 145.292 238.424 145.292 245.398C145.292 252.372 185.036 258.026 234.062 258.026Z" fill="#3F3D56"/>
<path d="M414.139 323.692H353.268C350.466 323.692 348.195 325.953 348.195 328.743C348.195 331.533 350.466 333.794 353.268 333.794H414.139C416.94 333.794 419.211 331.533 419.211 328.743C419.211 325.953 416.94 323.692 414.139 323.692Z" fill="#3F3D56"/>
<path d="M443.639 233.634L423.534 328.737L428.77 353.078L438.656 399.016V419.664C438.657 419.692 438.655 419.721 438.651 419.748C438.647 420.205 438.563 420.657 438.403 421.084H430.456C430.295 420.657 430.211 420.205 430.208 419.748C430.203 419.721 430.201 419.692 430.202 419.664V399.903L421.229 358.208L419.414 349.789L415.903 333.474L414.889 328.748V328.743L415.892 324.006L416.664 320.352L435.365 231.906C435.478 231.364 435.698 230.851 436.011 230.394C436.324 229.937 436.725 229.546 437.189 229.243C437.654 228.941 438.175 228.732 438.72 228.63C439.266 228.527 439.827 228.533 440.371 228.647C440.914 228.76 441.43 228.979 441.888 229.292C442.347 229.604 442.739 230.003 443.043 230.466C443.346 230.929 443.555 231.448 443.657 231.991C443.76 232.535 443.753 233.093 443.639 233.634L443.639 233.634Z" fill="#3F3D56"/>
<path d="M357.495 328.743V419.665C357.496 419.693 357.494 419.721 357.49 419.749C357.486 420.205 357.402 420.657 357.241 421.085H349.294C349.134 420.657 349.05 420.205 349.046 419.749C349.042 419.721 349.04 419.693 349.041 419.665V328.743C349.041 327.627 349.486 326.556 350.279 325.767C351.072 324.977 352.147 324.534 353.268 324.534C354.389 324.534 355.464 324.977 356.257 325.767C357.05 326.556 357.495 327.627 357.495 328.743Z" fill="#3F3D56"/>
<path d="M363.413 313.589H403.993C408.029 313.589 411.9 315.186 414.754 318.028C417.608 320.869 419.211 324.724 419.211 328.743V328.743H348.195C348.195 324.724 349.798 320.869 352.652 318.028C355.506 315.186 359.377 313.589 363.413 313.589V313.589Z" fill="#3F3D56"/>
<path d="M424.284 358.208H353.268C352.147 358.208 351.071 357.765 350.279 356.975C349.486 356.186 349.041 355.115 349.041 353.999C349.041 352.883 349.486 351.812 350.279 351.022C351.071 350.233 352.147 349.79 353.268 349.79H424.284C425.405 349.79 426.48 350.233 427.273 351.022C428.066 351.812 428.511 352.883 428.511 353.999C428.511 355.115 428.066 356.186 427.273 356.975C426.48 357.765 425.405 358.208 424.284 358.208Z" fill="#3F3D56"/>
<path d="M93.9512 333.947H165.582C168.384 333.947 170.655 331.686 170.655 328.896V327.365C170.655 324.576 168.384 322.314 165.582 322.314H93.9512C91.1497 322.314 88.8787 324.576 88.8787 327.365V328.896C88.8787 331.686 91.1497 333.947 93.9512 333.947Z" fill="#3F3D56"/>
<path d="M93.2136 328.199L91.9171 333.519L87.1602 353.006L85.1088 361.424L75.5834 400.476V417.42C75.5859 418.249 75.3386 419.061 74.8734 419.749C74.5076 420.305 74.0103 420.764 73.425 421.085H69.2878C68.7025 420.764 68.2052 420.305 67.8394 419.749C67.3741 419.061 67.1267 418.249 67.1291 417.42V399.465L77.7141 356.081L84.5452 328.064L61.3804 218.481C61.2657 217.94 61.2593 217.382 61.3613 216.839C61.4634 216.295 61.6721 215.777 61.9753 215.314C62.2786 214.851 62.6705 214.452 63.1287 214.14C63.5869 213.828 64.1023 213.609 64.6456 213.496C65.1889 213.382 65.7493 213.376 66.2949 213.478C66.8404 213.581 67.3604 213.789 67.825 214.091C68.2896 214.394 68.6899 214.785 69.0028 215.241C69.3157 215.698 69.5352 216.211 69.6486 216.752L91.0607 318.018L92.047 322.687L93.1965 328.131L93.2136 328.199Z" fill="#3F3D56"/>
<path d="M169.043 328.131V417.419C169.046 418.249 168.798 419.06 168.333 419.749C167.967 420.305 167.47 420.764 166.884 421.084H162.742C162.159 420.762 161.664 420.304 161.299 419.749C160.833 419.06 160.586 418.249 160.589 417.419V328.131C160.589 327.015 161.034 325.944 161.827 325.155C162.62 324.365 163.695 323.922 164.816 323.922C165.937 323.922 167.012 324.365 167.805 325.155C168.598 325.944 169.043 327.015 169.043 328.131Z" fill="#3F3D56"/>
<path d="M170.655 328.131H88.8789V325.835C88.8789 323.845 89.2725 321.874 90.0372 320.036C90.802 318.197 91.9229 316.527 93.336 315.119C94.7491 313.712 96.4267 312.596 98.273 311.835C100.119 311.073 102.098 310.681 104.097 310.681H155.437C159.473 310.681 163.344 312.278 166.198 315.119C169.052 317.961 170.655 321.816 170.655 325.835V328.131H170.655Z" fill="#3F3D56"/>
<path d="M164.814 361.422H83.0376C81.9165 361.422 80.8413 360.979 80.0485 360.189C79.2558 359.4 78.8104 358.329 78.8104 357.213C78.8104 356.097 79.2558 355.026 80.0485 354.237C80.8413 353.447 81.9165 353.004 83.0376 353.004H164.814C165.935 353.004 167.01 353.447 167.803 354.237C168.596 355.026 169.041 356.097 169.041 357.213C169.041 358.329 168.596 359.4 167.803 360.189C167.01 360.979 165.935 361.422 164.814 361.422Z" fill="#3F3D56"/>
<path d="M269.909 398.141L261.025 393.91L273.229 356.93L286.342 363.175L269.909 398.141Z" fill="#9E616A"/>
<path d="M330.12 394.792L320.567 397.139L306.725 360.744L320.826 357.279L330.12 394.792Z" fill="#9E616A"/>
<path d="M293.504 237.41C294.771 239.459 296.792 240.934 299.137 241.52C301.481 242.106 303.962 241.756 306.051 240.545C306.471 240.292 306.869 240.004 307.241 239.685L335.33 255.737L334.11 239.26L307.624 226.543C306.182 225.101 304.302 224.177 302.276 223.914C300.25 223.651 298.194 224.065 296.43 225.091C295.415 225.699 294.531 226.502 293.832 227.454C293.133 228.407 292.633 229.489 292.36 230.637C292.087 231.784 292.048 232.975 292.244 234.138C292.441 235.302 292.869 236.414 293.504 237.41V237.41Z" fill="#9E616A"/>
<path d="M323.254 249.692L328.219 252.705L350.519 266.246C351.983 267.159 353.614 267.775 355.318 268.059C357.022 268.344 358.766 268.291 360.449 267.904C362.133 267.517 363.723 266.804 365.13 265.804C366.536 264.805 367.731 263.539 368.646 262.08C370.297 259.371 370.881 256.149 370.286 253.036L360.375 203.73C360.009 201.794 359.227 199.96 358.083 198.353C356.94 196.746 355.461 195.403 353.749 194.418C352.037 193.432 350.131 192.826 348.161 192.641C346.192 192.457 344.206 192.697 342.339 193.347C339.2 194.446 336.6 196.693 335.067 199.633C333.533 202.573 333.182 205.984 334.085 209.172L344.449 244.164L328.563 236.789L323.254 249.692Z" fill="#E6E6E6"/>
<path d="M311.514 384.592L296.227 354.061L296.229 353.992L297.738 297.993C297.757 297.495 297.797 296.994 297.858 296.502C298.125 294.257 298.838 292.087 299.955 290.118C301.073 288.15 302.573 286.423 304.367 285.038C306.086 283.699 308.055 282.714 310.16 282.141C312.265 281.568 314.464 281.417 316.628 281.699L360.342 287.333L361.858 281.16L362.141 281.057L404.026 265.771L404.267 266.163C409.753 275.051 413.588 292.805 414.632 298.035L414.647 298.11C414.669 298.22 414.682 298.287 414.687 298.306C416.843 307.231 407.934 322.014 399.058 324.236C380.363 328.981 363.643 325.28 344.283 320.993C337.34 319.456 330.166 317.867 322.262 316.493L322.497 321.124C322.69 324.689 323.434 328.203 324.702 331.543C326.111 335.652 327.225 338.898 324.871 345.666L323.732 348.94C324.323 350.566 324.526 352.305 324.326 354.022C324.126 355.739 323.528 357.387 322.58 358.834L322.351 359.183L332.433 384.587L311.514 384.592Z" fill="#6158F4"/>
<path d="M286.397 371.09L268.166 369.403L274.625 348.835C275.958 335.405 279.316 322.252 284.586 309.819L293.396 289.03C293.416 288.567 293.455 288.101 293.512 287.645C293.779 285.4 294.491 283.23 295.609 281.262C296.726 279.293 298.226 277.566 300.021 276.181C301.74 274.843 303.709 273.858 305.814 273.285C307.919 272.712 310.118 272.562 312.281 272.843L355.931 278.468L357.832 262.578L399.729 256.996L399.921 257.306C407.244 269.171 411.893 278.46 414.552 286.538C414.685 286.95 414.804 287.37 414.905 287.789C417.076 296.774 411.657 305.882 402.824 308.094C380.316 313.808 353.25 313.65 317.664 307.592L300.441 348.406C298.795 352.304 296.757 356.026 294.358 359.516L286.397 371.09Z" fill="#6C63FF"/>
<path d="M349.986 165.05C361.649 165.05 371.104 155.426 371.104 143.553C371.104 131.681 361.649 122.056 349.986 122.056C338.323 122.056 328.869 131.681 328.869 143.553C328.869 155.426 338.323 165.05 349.986 165.05Z" fill="#FFB7B7"/>
<path d="M356.084 279.218L353.054 268.409L352.309 263.077L347.954 263.222L339.407 243.577L336.087 238.396C335.41 237.687 334.797 237.004 334.247 236.349C330.788 232.455 328.014 228.008 326.043 223.195C324.662 219.736 323.851 216.078 323.642 212.362C323.022 201.386 327.669 189.772 337.848 176.861C337.681 176.404 337.57 175.929 337.517 175.445C337.335 173.877 337.782 172.3 338.761 171.059C339.741 169.817 341.173 169.01 342.746 168.815L352.564 167.717C353.327 167.631 354.1 167.697 354.838 167.911C355.576 168.125 356.263 168.483 356.861 168.964C357.484 169.462 358.002 170.079 358.384 170.778C358.766 171.477 359.005 172.245 359.086 173.036C359.217 174.261 358.975 175.497 358.391 176.583C363.396 177.216 368.111 179.273 371.971 182.507C375.83 185.741 378.671 190.015 380.153 194.817C386.027 205.738 390.71 217.254 394.12 229.169C394.792 231.503 394.493 233.907 394.203 236.232C393.936 238.38 393.659 240.601 394.124 242.815C394.597 245.067 395.735 247.325 396.939 249.717C398.318 252.455 399.745 255.287 400.13 258.174L400.158 258.377L356.084 279.218Z" fill="#EDECEC"/>
<path opacity="0.2" d="M326.304 223.088C328.266 227.874 331.024 232.296 334.463 236.168C335.052 236.869 335.674 237.556 336.325 238.246L339.665 243.465C351.979 234.274 361.956 198.084 361.956 198.084L348.062 195.393L326.304 223.088Z" fill="black"/>
<path d="M317.893 167.058C319.109 169.139 319.463 171.611 318.877 173.947C318.292 176.284 316.814 178.3 314.758 179.568C314.336 179.819 313.894 180.035 313.436 180.214L314.42 212.449L300.401 203.661L301.616 174.398C301.02 172.45 301.088 170.361 301.809 168.456C302.53 166.551 303.865 164.937 305.604 163.867C306.617 163.257 307.742 162.855 308.914 162.685C310.085 162.515 311.279 162.581 312.425 162.879C313.571 163.176 314.645 163.699 315.584 164.417C316.523 165.135 317.308 166.033 317.893 167.058V167.058Z" fill="#9E616A"/>
<path d="M315.651 200.281L300.235 202.464L300.898 234.254C300.937 236.522 301.557 238.742 302.7 240.704C303.843 242.666 305.47 244.304 307.428 245.463V245.463C309.82 246.864 312.605 247.454 315.362 247.142C318.12 246.83 320.701 245.634 322.716 243.735L359.112 208.875C361.673 206.456 363.206 203.151 363.395 199.642C363.584 196.132 362.415 192.683 360.129 190.005V190.005C358.998 188.672 357.609 187.578 356.045 186.79C354.482 186.001 352.775 185.533 351.026 185.414C349.277 185.295 347.522 185.526 345.865 186.095C344.208 186.665 342.682 187.559 341.379 188.727C341.019 189.047 340.677 189.386 340.354 189.743L316.322 217.274L315.651 200.281Z" fill="#E6E6E6"/>
<path d="M186.714 407.636L197.656 407.635L202.862 365.607L186.712 365.608L186.714 407.636Z" fill="#FFB6B6"/>
<path d="M124.692 165.674C136.753 165.674 146.531 155.937 146.531 143.927C146.531 131.916 136.753 122.179 124.692 122.179C112.63 122.179 102.852 131.916 102.852 143.927C102.852 155.937 112.63 165.674 124.692 165.674Z" fill="#FFB6B6"/>
<path d="M201.227 394.689H185.732L181.782 389.416L180.712 384.448L179.792 383.561C178.544 382.368 177.736 380.79 177.501 379.082C177.266 377.375 177.617 375.639 178.497 374.155L167.267 321.981C164.326 321.723 131.156 318.77 108.099 314.707C102.198 313.667 97.5911 310.81 94.4056 306.217C86.5782 294.93 89.9313 276.667 89.966 276.484L90.0047 276.28L90.2115 276.257L144.068 270.238L144.141 270.272C145.928 271.115 187.991 291 194.865 297.845C197.969 300.935 204.894 319.299 206.444 338.823C206.722 342.32 205.722 345.882 204.756 349.327C203.851 352.55 202.916 355.883 203.101 359.033C203.386 363.895 203.656 368.994 203.904 374.19C203.944 375.018 204.57 375.875 205.176 376.703C205.809 377.569 206.407 378.386 206.445 379.242C206.813 387.54 201.367 394.513 201.312 394.582L201.227 394.689Z" fill="#091A58"/>
<path d="M204.755 201.851C203.582 201.531 202.353 201.472 201.154 201.677C199.955 201.882 198.816 202.346 197.817 203.036C196.818 203.727 195.983 204.627 195.371 205.674C194.759 206.721 194.386 207.888 194.276 209.095L176.13 214.742L176.887 226.56L202.4 218.226C204.447 218.275 206.441 217.575 208.005 216.258C209.568 214.941 210.592 213.099 210.882 211.08C211.172 209.062 210.709 207.007 209.58 205.306C208.451 203.605 206.734 202.376 204.755 201.851V201.851Z" fill="#FFB6B6"/>
<path d="M192.916 221.407L179.354 226.518L179.007 227.188C178.176 228.794 176.738 230.006 175.009 230.556C173.281 231.106 171.404 230.95 169.791 230.122V230.122L139.307 241.611C139.307 241.611 125.694 228.046 116.002 215.939L119.306 195.708C120.071 191.013 121.697 186.5 124.102 182.392C143.979 186.732 155.389 214.401 155.389 214.401L191.212 207.594L192.916 221.407Z" fill="#03A596"/>
<path d="M121.588 164.512C116.121 165.982 110.093 164.027 105.826 160.319C101.559 156.611 98.8901 151.356 97.3522 145.928C96.2259 141.953 95.6918 137.541 97.4692 133.809C99.2466 130.077 104.03 127.56 107.721 129.445C105.444 126.803 106.582 122.435 109.24 120.175C111.899 117.916 115.551 117.268 119.028 116.914C124.075 116.4 129.288 116.342 134.09 117.97C138.893 119.598 143.256 123.158 144.759 127.983C146.294 128.694 148.023 128.879 149.675 128.508C151.326 128.136 152.808 127.23 153.887 125.931C154.165 127.423 153.941 128.965 153.251 130.318C152.56 131.671 151.441 132.76 150.067 133.416L157.425 131.041C158.69 133.708 156.473 137.009 153.637 137.863C150.802 138.718 147.741 137.784 145.05 136.55C142.359 135.316 139.752 133.756 136.829 133.275C133.906 132.793 130.473 133.728 129.121 136.353C128.413 137.728 128.376 139.338 127.965 140.828C127.554 142.318 126.513 143.863 124.966 143.985C123.988 144.062 123.032 143.543 122.057 143.649C120.849 143.781 119.924 144.87 119.603 146.037C119.36 147.227 119.357 148.452 119.594 149.643L121.463 163.869" fill="#2F2E41"/>
<path d="M94.5312 308.816C94.5271 308.816 94.523 308.816 94.5189 308.815L94.3462 308.785L94.2963 308.618C93.6684 306.515 92.8694 304.363 92.0967 302.281C90.9587 299.398 89.9979 296.448 89.2194 293.449C88.6068 290.581 88.182 287.677 87.9478 284.755C87.7322 282.633 87.5093 280.439 87.1303 278.279C86.962 277.32 87.5998 276.412 88.2166 275.534C88.7885 274.72 89.3287 273.951 89.2153 273.223C89.0994 272.479 88.2707 271.662 87.4694 270.871C86.591 270.005 85.6827 269.109 85.5541 268.167C83.8035 255.303 82.9886 242.33 83.1159 229.349C83.2969 211.389 84.112 199.147 85.5385 192.963C89.3744 176.335 107.096 173.3 109.87 172.926C110.166 172.142 110.62 171.428 111.205 170.826C111.79 170.225 112.492 169.75 113.269 169.431C114.047 169.112 114.881 168.955 115.722 168.971C116.562 168.987 117.39 169.175 118.155 169.524L130.746 175.264C133.3 176.432 135.586 178.111 137.461 180.196C139.336 182.281 140.76 184.728 141.645 187.385L143.516 193.063L144.453 231.183L139.261 258.026L149.406 273.18C95.3357 302.741 94.7054 308.816 94.5312 308.816Z" fill="#03A596"/>
<path d="M180.826 403.401L184.383 403.401L198.273 397.776L205.718 403.4H205.719C209.926 403.4 213.96 405.065 216.935 408.027C219.91 410.989 221.581 415.007 221.582 419.196V419.709L180.827 419.711L180.826 403.401Z" fill="#2F2E41"/>
<path d="M209.299 229.053C208.25 228.44 207.079 228.063 205.868 227.95C204.657 227.836 203.436 227.988 202.29 228.395C201.145 228.802 200.103 229.455 199.238 230.306C198.373 231.158 197.706 232.188 197.284 233.323L178.287 234.061L175.727 242.873L202.735 244.249C204.698 244.829 206.806 244.671 208.661 243.805C210.515 242.94 211.986 241.428 212.795 239.554C213.604 237.681 213.695 235.578 213.051 233.642C212.406 231.707 211.071 230.074 209.299 229.053V229.053Z" fill="#FFB6B6"/>
<path d="M193.694 245.2L174.181 244.957L171.71 244.924L132.008 244.426C132.008 244.426 121.227 234.184 111.839 223.639L113.155 214.161C114.438 204.86 119.072 196.34 126.193 190.187C139.638 199.134 147.436 216.842 147.436 216.842L160.51 222.668C169.711 223.078 178.677 225.692 186.646 230.29L190.945 232.77L193.694 245.2Z" fill="#03A596"/>
<path d="M337.091 412.719L330.598 414.314L327.927 408.495L326.471 415.328L309.25 419.56C308.425 419.763 307.556 419.698 306.77 419.374C305.985 419.051 305.324 418.485 304.883 417.761C304.443 417.037 304.247 416.191 304.324 415.348C304.4 414.505 304.746 413.708 305.309 413.074L316.717 400.237L315.188 394.066L329.866 391.371L337.091 412.719Z" fill="#2F2E41"/>
<path d="M268.306 414.714L262.114 412.197L263.395 405.927L258.179 410.597L241.757 403.922C240.969 403.602 240.306 403.04 239.862 402.318C239.418 401.596 239.218 400.751 239.291 399.908C239.363 399.064 239.704 398.266 240.265 397.629C240.825 396.992 241.575 396.551 242.406 396.369L259.217 392.68L261.629 386.795L275.087 393.222L268.306 414.714Z" fill="#2F2E41"/>
<path d="M246.744 243.153H241.671C236.217 243.147 230.988 240.987 227.131 237.146C223.275 233.306 221.105 228.099 221.099 222.668V222.387H267.316V222.668C267.31 228.099 265.14 233.306 261.284 237.146C257.427 240.987 252.198 243.147 246.744 243.153V243.153Z" fill="#E4E4E4"/>
<path d="M241.671 215.091C241.671 216.486 239.135 217.617 239.135 217.617C239.135 217.617 236.598 216.486 236.598 215.091C236.598 213.696 239.135 212.566 239.135 212.566C239.135 212.566 241.671 213.696 241.671 215.091Z" fill="#3F3D56"/>
<path d="M256.889 215.091C256.889 216.486 254.352 217.617 254.352 217.617C254.352 217.617 251.816 216.486 251.816 215.091C251.816 213.696 254.352 212.566 254.352 212.566C254.352 212.566 256.889 213.696 256.889 215.091Z" fill="#3F3D56"/>
<path d="M246.744 220.142C246.744 221.537 244.207 222.668 244.207 222.668C244.207 222.668 241.671 221.537 241.671 220.142C241.671 218.747 244.207 217.617 244.207 217.617C244.207 217.617 246.744 218.747 246.744 220.142Z" fill="#3F3D56"/>
<path d="M228.99 209.759C230.39 209.759 231.526 208.629 231.526 207.234C231.526 205.839 230.39 204.708 228.99 204.708C227.589 204.708 226.453 205.839 226.453 207.234C226.453 208.629 227.589 209.759 228.99 209.759Z" fill="#3F3D56"/>
<path d="M192.103 201.806L232.105 207.307C232.467 207.357 232.815 207.479 233.128 207.666C233.441 207.854 233.713 208.102 233.927 208.397C234.141 208.692 234.292 209.027 234.372 209.382C234.453 209.737 234.46 210.104 234.394 210.462C234.327 210.82 234.189 211.16 233.987 211.463C233.784 211.766 233.523 212.025 233.217 212.225C232.911 212.424 232.569 212.56 232.209 212.624C231.849 212.687 231.48 212.678 231.124 212.596L191.787 203.51C191.569 203.46 191.378 203.328 191.255 203.141C191.132 202.954 191.087 202.727 191.127 202.508C191.168 202.288 191.292 202.093 191.474 201.962C191.656 201.831 191.881 201.775 192.103 201.806V201.806Z" fill="#E4E4E4"/>
<path d="M240.712 76.3027V0.415283H235.639V76.3027C228.709 76.9324 222.265 80.119 217.572 85.2369C212.88 90.3548 210.277 97.0345 210.277 103.965V111.542H228.031C228.031 114.221 229.099 116.79 231.002 118.685C232.905 120.58 235.485 121.644 238.176 121.644C240.866 121.644 243.447 120.58 245.349 118.685C247.252 116.79 248.321 114.221 248.321 111.542H266.075V103.965C266.074 97.0345 263.472 90.3549 258.779 85.2369C254.087 80.119 247.643 76.9324 240.712 76.3027V76.3027Z" fill="#F0F0F0"/>
<path d="M306.022 57.3308V0.415283H302.217V57.3308C297.019 57.8031 292.186 60.1931 288.667 64.0315C285.147 67.87 283.196 72.8797 283.195 78.0774V83.76H296.51C296.51 85.7695 297.312 87.6967 298.739 89.1176C300.166 90.5385 302.101 91.3368 304.119 91.3368C306.137 91.3368 308.073 90.5385 309.5 89.1176C310.927 87.6967 311.728 85.7695 311.728 83.76H325.044V78.0774C325.043 72.8797 323.092 67.87 319.572 64.0315C316.053 60.1931 311.22 57.8031 306.022 57.3308V57.3308Z" fill="#F0F0F0"/>
<path d="M177.516 57.3308V0.415283H173.712V57.3308C168.514 57.8031 163.681 60.1931 160.161 64.0315C156.642 67.87 154.69 72.8797 154.69 78.0774V83.76H168.005C168.005 85.7695 168.807 87.6967 170.234 89.1176C171.661 90.5385 173.596 91.3368 175.614 91.3368C177.632 91.3368 179.568 90.5385 180.995 89.1176C182.421 87.6967 183.223 85.7695 183.223 83.76H196.539V78.0774C196.538 72.8797 194.586 67.87 191.067 64.0315C187.548 60.1931 182.715 57.8031 177.516 57.3308V57.3308Z" fill="#F0F0F0"/>
<path d="M406.494 134.23C402.905 130.062 401.198 124.531 398.329 119.798C395.459 115.065 390.466 110.828 385.19 111.93C381.554 112.689 378.743 115.885 377.32 119.447C375.898 123.01 375.631 126.938 375.382 130.787C375.47 122.878 370.237 115.21 363.028 112.686C355.82 110.162 347.193 112.978 342.664 119.332C340.687 117.508 338.107 116.469 335.412 116.412C332.718 116.356 330.096 117.286 328.044 119.026C323.993 122.632 323.096 129.495 326.076 134.095C329.055 138.694 335.508 140.408 340.243 137.857L341.917 139.39C340.975 142.672 342.803 146.549 345.874 147.784C348.365 148.786 351.882 148.619 352.814 151.222C353.465 153.041 352.248 154.982 350.953 156.38C349.658 157.778 348.12 159.221 347.965 161.155C347.73 164.073 350.758 166.117 353.511 166.733C360.149 168.217 367.514 165.157 371.34 159.323C371.414 159.211 371.494 159.098 371.581 158.985C373.727 156.252 375.292 153.111 376.178 149.756C377.065 146.4 377.255 142.899 376.737 139.468C376.521 138.12 376.738 137.117 377.672 136.798C381.707 135.417 393.011 138.314 396.432 140.932C399.853 143.55 402.593 147.014 405.888 149.801C409.184 152.588 413.383 154.737 417.567 153.979C420.919 153.371 423.77 150.948 425.687 148.026C427.604 145.104 428.708 141.697 429.697 138.312C422.286 142.575 412.144 140.791 406.494 134.23Z" fill="#2F2E41"/>
</g>
<defs>
<clipPath id="clip0_956_767">
<rect width="503.696" height="420.669" fill="white" transform="translate(0.660767 0.415283)"/>
</clipPath>
</defs>
</svg>
