<svg width="452" height="432" viewBox="0 0 452 432" fill="none" xmlns="http://www.w3.org/2000/svg">
<path d="M419.118 114.842V90.6597H415.359V114.842C414.28 115.278 413.386 116.076 412.833 117.099C412.278 118.122 412.095 119.306 412.317 120.448C412.54 121.59 413.152 122.619 414.051 123.359C414.948 124.099 416.075 124.504 417.239 124.504C418.402 124.504 419.53 124.099 420.428 123.359C421.325 122.619 421.938 121.59 422.16 120.448C422.382 119.306 422.201 118.122 421.646 117.099C421.091 116.076 420.198 115.278 419.118 114.842Z" fill="#E6E6E6"/>
<path d="M427.893 358.89H402.197V46.7926H392.171V358.89H366.475C363.43 358.89 360.415 359.489 357.602 360.655C354.788 361.821 352.233 363.528 350.08 365.681C347.925 367.834 346.218 370.391 345.052 373.203C343.888 376.017 343.288 379.033 343.288 382.078H451.08C451.08 379.033 450.48 376.017 449.316 373.203C448.15 370.391 446.441 367.834 444.288 365.681C442.135 363.528 439.579 361.821 436.765 360.655C433.953 359.489 430.938 358.89 427.893 358.89Z" fill="#A79E9E"/>
<path d="M343.34 93.1671H451.029L444.443 10.8559C444.203 8.01765 442.909 5.37222 440.815 3.44005C438.723 1.5079 435.982 0.428876 433.135 0.415283H361.234C358.387 0.428878 355.646 1.5079 353.554 3.44005C351.46 5.37222 350.165 8.01765 349.926 10.8559L343.34 93.1671Z" fill="#03A596"/>
<path d="M38.2898 287.153H366.981V253.597C366.981 162.976 293.256 89.2505 202.636 89.2505C112.015 89.2505 38.2898 162.976 38.2898 253.597V287.153Z" fill="#4F4F6C"/>
<path opacity="0.2" d="M38.2898 287.153H366.981V253.597C366.981 162.976 293.256 89.2505 202.636 89.2505C112.015 89.2505 38.2898 162.976 38.2898 253.597V287.153Z" fill="#707070"/>
<path d="M80.8892 298.77H333.846C333.606 285.462 328.154 272.777 318.662 263.445C309.172 254.115 296.397 248.879 283.087 248.863H131.648C118.338 248.879 105.564 254.115 96.0727 263.445C86.5813 272.777 81.1296 285.462 80.8892 298.77Z" fill="#3F3F57"/>
<path d="M50.7665 293.607C78.8041 293.607 101.533 270.878 101.533 242.84C101.533 214.803 78.8041 192.074 50.7665 192.074C22.7289 192.074 0 214.803 0 242.84C0 270.878 22.7289 293.607 50.7665 293.607Z" fill="#6A6A80"/>
<path d="M358.807 293.607C386.845 293.607 409.575 270.878 409.575 242.84C409.575 214.803 386.845 192.074 358.807 192.074C330.771 192.074 308.042 214.803 308.042 242.84C308.042 270.878 330.771 293.607 358.807 293.607Z" fill="#6A6A80"/>
<path d="M320.516 268.653V287.582H86.0438V268.653H33.5564V360.918C33.5564 366.57 35.8021 371.992 39.7993 375.989C43.7966 379.986 49.2183 382.231 54.8712 382.231H351.689C354.487 382.231 357.26 381.681 359.845 380.609C362.432 379.539 364.781 377.968 366.76 375.989C368.74 374.009 370.31 371.66 371.38 369.073C372.453 366.488 373.004 363.716 373.004 360.918V268.653H320.516Z" fill="#6A6A80"/>
<path opacity="0.2" d="M50.7673 253.167C56.4698 253.167 61.0927 248.543 61.0927 242.84C61.0927 237.138 56.4698 232.516 50.7673 232.516C45.0648 232.516 40.4419 237.138 40.4419 242.84C40.4419 248.543 45.0648 253.167 50.7673 253.167Z" fill="black"/>
<path opacity="0.2" d="M358.806 253.167C364.509 253.167 369.132 248.543 369.132 242.84C369.132 237.138 364.509 232.516 358.806 232.516C353.104 232.516 348.482 237.138 348.482 242.84C348.482 248.543 353.104 253.167 358.806 253.167Z" fill="black"/>
<path d="M221.337 83.4494C221.337 83.4494 222.351 102.736 229.458 106.796C236.564 110.856 229.458 138.264 229.458 138.264L195.96 139.279L193.93 106.796C193.93 106.796 197.99 93.6002 195.96 87.5096C193.93 81.4191 221.337 83.4494 221.337 83.4494Z" fill="#FFB8B8"/>
<path d="M258.895 351.432L246.714 365.643L266.001 383.913L276.152 363.613L258.895 351.432Z" fill="#FFB8B8"/>
<path d="M172.614 351.432L184.795 365.643L165.508 383.913L155.358 363.613L172.614 351.432Z" fill="#FFB8B8"/>
<path d="M252.296 216.934C252.296 216.934 325.384 241.296 321.322 264.643C317.262 287.99 285.794 370.211 285.794 370.211C285.794 370.211 268.539 370.211 255.343 351.939L264.477 331.639C264.477 331.639 260.418 320.473 267.524 318.443C274.628 316.411 278.69 280.883 278.69 280.883C278.69 280.883 226.92 276.824 215.754 257.537L195.453 208.813L252.296 216.934Z" fill="#6C63FF"/>
<path d="M179.211 216.934C179.211 216.934 106.126 241.296 110.186 264.643C114.247 287.99 145.714 370.211 145.714 370.211C145.714 370.211 162.971 370.211 176.167 351.939L167.031 331.639C167.031 331.639 171.091 320.473 163.986 318.443C156.88 316.411 152.82 280.883 152.82 280.883C152.82 280.883 204.588 276.824 215.754 257.537L236.056 208.813L179.211 216.934Z" fill="#6C63FF"/>
<path d="M262.447 376.3C262.447 376.3 272.598 367.166 273.613 374.271C274.628 381.377 272.598 409.798 272.598 409.798C272.598 409.798 282.749 431.115 267.523 431.115C252.296 431.115 245.191 414.875 247.221 398.632C249.251 382.392 240.115 376.3 240.115 376.3C240.115 376.3 228.949 353.97 240.115 351.939C251.281 349.909 255.342 354.985 255.342 354.985C255.342 354.985 251.281 373.256 262.447 376.3Z" fill="#2F2E41"/>
<path d="M169.06 376.3C169.06 376.3 158.909 367.166 157.894 374.271C156.879 381.377 158.909 409.798 158.909 409.798C158.909 409.798 148.758 431.115 163.985 431.115C179.21 431.115 186.317 414.875 184.287 398.632C182.257 382.392 191.391 376.3 191.391 376.3C191.391 376.3 202.557 353.97 191.391 351.939C180.225 349.909 176.166 354.985 176.166 354.985C176.166 354.985 180.225 373.256 169.06 376.3Z" fill="#2F2E41"/>
<path d="M205.602 95.125C218.497 95.125 228.949 84.6722 228.949 71.7783C228.949 58.8841 218.497 48.4314 205.602 48.4314C192.708 48.4314 182.257 58.8841 182.257 71.7783C182.257 84.6722 192.708 95.125 205.602 95.125Z" fill="#FFB8B8"/>
<path d="M209.157 111.873L194.946 100.707L160.434 116.949L159.418 209.321C159.418 209.321 138.102 219.472 144.192 232.668C144.192 232.668 162.464 236.728 170.584 244.849C178.705 252.97 224.384 241.804 243.67 235.713C262.957 229.623 268.032 222.517 268.032 222.517L248.746 195.11L259.912 125.069L225.403 101.868L209.157 111.873Z" fill="white"/>
<path d="M233.987 55.8875C233.478 55.1974 233.013 54.4758 232.595 53.7274C231.87 51.9644 233.013 49.8866 231.946 48.2402C230.855 46.5595 228.086 46.2051 226.202 45.0633C223.299 43.3045 222.772 39.853 220.053 37.9148C218.095 36.5183 215.3 36.1418 212.682 36.2215C210.064 36.3011 207.48 36.7746 204.862 36.8264C201.327 36.9054 197.819 36.188 194.599 34.7275L196.53 38.5071C194.383 38.0392 192.333 37.2076 190.464 36.0487C189.611 37.1087 191.174 38.7175 190.204 39.7118C189.807 40.0324 189.337 40.2505 188.835 40.3464C185.109 41.4054 181.601 43.1175 178.471 45.4029C177.747 45.8635 177.149 46.4961 176.727 47.244C176.224 48.3602 176.67 49.5929 176.632 50.7796C176.562 52.9357 174.916 54.8161 173.748 56.7586C172.58 58.7011 171.95 61.2195 173.682 62.868C174.104 63.203 174.508 63.5592 174.893 63.9355C176.628 65.9831 173.556 68.9817 175.037 71.1545C175.679 72.098 176.998 72.5754 178.143 73.1327C180.338 74.1586 182.184 75.804 183.455 77.8661L182.563 71.3306C182.517 71.1691 182.51 70.9989 182.539 70.8337C182.57 70.6684 182.64 70.5126 182.74 70.3787C183.172 69.9392 184.076 70.1144 184.671 69.8233C185.325 69.5031 185.376 68.7683 185.35 68.1529L185.148 63.4081C185.058 61.2745 185.034 60.9912 186.606 59.2689C187.702 58.0656 189.43 57.3397 191.165 56.8058C195.13 55.5857 199.392 55.1637 203.606 54.7513C208.501 54.2723 214.011 51.8977 217.812 54.4189C220.923 56.4828 221.957 59.8753 223.456 62.8838C224.804 65.588 228.261 73.5503 231.141 69.2402C232.949 66.5336 235.715 58.9013 233.987 55.8875Z" fill="#2F2E41"/>
<path d="M209.612 65.005C209.515 65.0052 209.423 65.0434 209.355 65.1114C209.287 65.1794 209.249 65.2715 209.248 65.3676V75.1425C209.249 75.2386 209.287 75.3308 209.355 75.3988C209.423 75.4668 209.515 75.5049 209.612 75.5051H226.437C226.534 75.5049 226.626 75.4668 226.694 75.3988C226.763 75.3308 226.802 75.2386 226.802 75.1425V65.3676C226.802 65.2715 226.763 65.1794 226.694 65.1114C226.626 65.0434 226.534 65.0052 226.437 65.005H209.612Z" fill="#3F3D56"/>
<path d="M211.493 65.8667C211.313 65.8669 211.141 65.9382 211.014 66.0648C210.888 66.1915 210.816 66.3634 210.816 66.5426V73.9665C210.816 74.1458 210.888 74.3177 211.014 74.4443C211.141 74.5712 211.313 74.6423 211.493 74.6426H224.559C224.737 74.6423 224.909 74.5712 225.036 74.4443C225.162 74.3177 225.234 74.1458 225.234 73.9665V66.5426C225.234 66.3634 225.162 66.1915 225.036 66.0648C224.909 65.9382 224.737 65.8669 224.559 65.8667H211.493Z" fill="#FF6584"/>
<path d="M209.801 68.2256H201.037V70.2556H209.801V68.2256Z" fill="#3F3D56"/>
<path d="M185.783 65.005C185.687 65.0052 185.595 65.0435 185.528 65.1114C185.46 65.1794 185.422 65.2715 185.42 65.3676V75.1425C185.422 75.2386 185.46 75.3308 185.528 75.3988C185.595 75.4666 185.687 75.5049 185.783 75.5051H202.61C202.707 75.5049 202.799 75.4666 202.867 75.3988C202.934 75.3308 202.972 75.2386 202.972 75.1425V65.3676C202.972 65.2715 202.934 65.1794 202.867 65.1114C202.799 65.0435 202.707 65.0052 202.61 65.005H185.783Z" fill="#3F3D56"/>
<path d="M187.663 65.8667C187.485 65.8667 187.313 65.938 187.186 66.0648C187.06 66.1915 186.989 66.3634 186.989 66.5426V73.9665C186.989 74.1459 187.06 74.3177 187.186 74.4445C187.313 74.5712 187.485 74.6425 187.663 74.6426H200.729C200.91 74.6425 201.081 74.5712 201.208 74.4445C201.335 74.3177 201.406 74.1459 201.406 73.9665V66.5426C201.406 66.3634 201.335 66.1915 201.208 66.0648C201.081 65.938 200.91 65.8667 200.729 65.8667H187.663Z" fill="#6C63FF"/>
<path d="M176.587 187.016H234.87C237.196 187.016 239.427 187.94 241.074 189.587C242.718 191.231 243.643 193.463 243.643 195.789H167.812C167.812 193.463 168.737 191.231 170.382 189.587C172.027 187.94 174.258 187.016 176.587 187.016Z" fill="#3F3D56"/>
<path d="M238.942 186.389C238.6 186.391 238.262 186.448 237.939 186.559C237.828 186.115 237.559 185.726 237.181 185.466C236.803 185.206 236.343 185.093 235.888 185.15C235.434 185.206 235.014 185.426 234.71 185.771C234.407 186.115 234.24 186.557 234.242 187.015C234.242 187.026 234.244 187.034 234.244 187.043C234.009 187.065 233.777 187.114 233.553 187.187C233.489 186.934 233.373 186.696 233.213 186.489C233.054 186.285 232.852 186.113 232.623 185.988C233.225 185.655 233.702 185.134 233.98 184.505C234.332 184.539 234.688 184.499 235.023 184.388C235.359 184.276 235.668 184.095 235.93 183.856C236.19 183.616 236.398 183.325 236.539 183.001C236.681 182.676 236.752 182.326 236.747 181.972C236.744 181.618 236.666 181.267 236.518 180.946C236.371 180.624 236.157 180.337 235.89 180.103C235.625 179.871 235.312 179.695 234.974 179.59C234.636 179.486 234.28 179.453 233.928 179.496C233.586 179.496 233.248 179.555 232.925 179.666C232.868 179.42 232.76 179.187 232.611 178.984C232.46 178.779 232.271 178.608 232.052 178.479C231.834 178.351 231.593 178.268 231.341 178.236C231.09 178.203 230.835 178.223 230.592 178.292C230.349 178.36 230.121 178.478 229.924 178.637C229.728 178.795 229.565 178.993 229.447 179.217C229.327 179.44 229.256 179.685 229.233 179.938C229.212 180.19 229.244 180.443 229.323 180.684C229.247 180.736 229.178 180.795 229.108 180.853C228.753 180.547 228.293 180.395 227.826 180.426C227.585 179.735 227.108 179.149 226.48 178.774C225.85 178.398 225.109 178.256 224.386 178.372C223.662 178.486 223.001 178.854 222.521 179.407C222.04 179.961 221.771 180.665 221.757 181.399C221.506 181.418 221.258 181.469 221.018 181.547C220.991 181.439 220.956 181.337 220.911 181.236C221.157 181.019 221.357 180.75 221.494 180.45C221.631 180.15 221.704 179.826 221.707 179.496C221.664 178.79 221.343 178.131 220.814 177.66C220.286 177.19 219.592 176.949 218.888 176.989C218.546 176.991 218.208 177.048 217.885 177.159C217.826 176.913 217.72 176.68 217.569 176.477C217.42 176.272 217.229 176.101 217.012 175.972C216.794 175.844 216.551 175.761 216.301 175.729C216.05 175.696 215.794 175.716 215.552 175.785C215.307 175.853 215.08 175.971 214.884 176.13C214.686 176.288 214.523 176.486 214.405 176.71C214.287 176.933 214.214 177.178 214.193 177.431C214.172 177.683 214.202 177.938 214.282 178.177C213.888 178.452 213.562 178.812 213.329 179.234C213.097 179.654 212.965 180.122 212.942 180.603C212.916 180.625 212.885 180.644 212.861 180.671C212.908 180.492 212.932 180.306 212.934 180.122C212.89 179.416 212.568 178.757 212.04 178.287C211.511 177.818 210.819 177.575 210.113 177.615C209.773 177.617 209.434 177.674 209.112 177.785C209.053 177.539 208.947 177.307 208.796 177.104C208.647 176.899 208.456 176.729 208.237 176.6C208.02 176.472 207.777 176.389 207.526 176.356C207.276 176.323 207.021 176.342 206.776 176.411C206.533 176.481 206.306 176.597 206.11 176.757C205.912 176.916 205.749 177.112 205.631 177.336C205.513 177.56 205.44 177.806 205.42 178.058C205.399 178.309 205.428 178.564 205.508 178.804C205.092 179.092 204.752 179.475 204.518 179.925C204.282 180.372 204.16 180.87 204.16 181.375C204.16 181.881 204.282 182.379 204.518 182.827C204.752 183.275 205.092 183.66 205.508 183.946C205.381 184.31 205.381 184.708 205.508 185.072C205.194 185.291 204.922 185.565 204.707 185.88C204.59 185.461 204.33 185.093 203.973 184.843C203.614 184.595 203.18 184.479 202.744 184.515C202.309 184.553 201.901 184.742 201.591 185.049C201.28 185.357 201.088 185.763 201.046 186.198C200.794 186.051 200.522 185.939 200.239 185.872C200.748 185.537 201.147 185.062 201.391 184.505C201.743 184.539 202.099 184.499 202.436 184.388C202.77 184.276 203.079 184.095 203.341 183.856C203.601 183.616 203.81 183.325 203.95 183.001C204.092 182.676 204.164 182.326 204.16 181.972C204.157 181.618 204.077 181.267 203.929 180.946C203.782 180.624 203.568 180.337 203.303 180.103C203.036 179.871 202.724 179.695 202.385 179.59C202.047 179.486 201.691 179.453 201.339 179.496C200.999 179.496 200.659 179.555 200.336 179.666C200.279 179.42 200.172 179.187 200.022 178.984C199.871 178.779 199.682 178.608 199.464 178.479C199.245 178.351 199.004 178.268 198.752 178.236C198.503 178.203 198.247 178.223 198.003 178.292C197.76 178.36 197.533 178.478 197.335 178.637C197.139 178.795 196.976 178.993 196.858 179.217C196.738 179.44 196.667 179.685 196.646 179.938C196.624 180.19 196.655 180.443 196.735 180.684C196.695 180.712 196.658 180.745 196.618 180.775C196.521 180.766 196.426 180.749 196.325 180.749C195.985 180.75 195.647 180.808 195.324 180.919C195.312 180.872 195.293 180.828 195.277 180.782C195.338 180.504 195.333 180.214 195.263 179.937C195.192 179.661 195.06 179.404 194.873 179.187C194.687 178.97 194.453 178.8 194.191 178.689C193.928 178.578 193.643 178.53 193.358 178.547C193.195 178.092 192.928 177.681 192.579 177.346C192.232 177.013 191.811 176.763 191.351 176.618C190.89 176.474 190.402 176.437 189.925 176.512C189.448 176.587 188.995 176.772 188.601 177.051C188.207 177.331 187.883 177.697 187.654 178.122C187.425 178.547 187.298 179.019 187.283 179.503C187.267 179.985 187.363 180.464 187.564 180.903C187.763 181.344 188.063 181.731 188.438 182.034C188.221 182.058 188.01 182.105 187.803 182.173C187.729 181.868 187.579 181.585 187.366 181.354C187.154 181.122 186.887 180.948 186.589 180.847C186.29 180.747 185.973 180.723 185.662 180.778C185.354 180.834 185.064 180.967 184.819 181.165C184.54 180.834 184.189 180.568 183.796 180.388C183.402 180.207 182.971 180.115 182.538 180.122C182.198 180.124 181.859 180.181 181.537 180.292C181.478 180.046 181.37 179.813 181.221 179.61C181.07 179.406 180.881 179.236 180.662 179.106C180.445 178.977 180.203 178.896 179.951 178.863C179.701 178.83 179.446 178.849 179.201 178.918C178.959 178.986 178.731 179.104 178.535 179.263C178.337 179.423 178.174 179.619 178.056 179.843C177.938 180.067 177.866 180.313 177.845 180.565C177.824 180.816 177.853 181.071 177.933 181.311C177.517 181.599 177.177 181.982 176.943 182.43C176.707 182.879 176.585 183.377 176.585 183.882C176.585 183.892 176.587 183.901 176.587 183.91C176.143 183.844 175.688 183.892 175.268 184.054C175.211 183.806 175.104 183.575 174.954 183.37C174.803 183.167 174.614 182.995 174.396 182.867C174.177 182.739 173.936 182.655 173.684 182.622C173.434 182.591 173.179 182.608 172.935 182.678C172.692 182.747 172.464 182.865 172.267 183.023C172.07 183.183 171.908 183.38 171.789 183.604C171.671 183.826 171.599 184.073 171.577 184.324C171.556 184.578 171.587 184.831 171.666 185.072C171.062 185.48 170.62 186.089 170.417 186.79C170.215 187.491 170.265 188.242 170.558 188.91C170.851 189.578 171.369 190.122 172.023 190.449C172.676 190.773 173.422 190.86 174.132 190.693C174.247 191.347 174.564 191.948 175.041 192.407C175.52 192.869 176.131 193.165 176.788 193.254C177.446 193.344 178.115 193.221 178.698 192.905C179.281 192.588 179.75 192.093 180.032 191.495C182.29 191.788 184.581 191.684 186.802 191.189C187.009 191.783 187.39 192.3 187.897 192.673C188.404 193.046 189.009 193.257 189.639 193.28C190.267 193.303 190.886 193.136 191.419 192.799C191.95 192.465 192.368 191.975 192.618 191.398C193.074 191.389 193.523 191.278 193.931 191.073C194.217 191.578 194.639 191.994 195.147 192.272C195.657 192.551 196.235 192.683 196.814 192.652C197.394 192.621 197.954 192.428 198.43 192.095C198.907 191.764 199.281 191.304 199.511 190.771C200.208 190.639 200.93 190.756 201.549 191.099C202.17 191.444 202.649 191.994 202.906 192.655C203.326 192.083 203.865 191.607 204.486 191.262C205.107 190.919 205.798 190.714 206.506 190.664C207.135 190.839 207.805 190.808 208.416 190.575C209.027 190.341 209.547 189.919 209.899 189.368C209.701 190.131 209.8 190.941 210.173 191.635C210.546 192.329 211.167 192.857 211.913 193.113C212.66 193.368 213.473 193.334 214.195 193.016C214.917 192.699 215.491 192.121 215.805 191.398C216.261 191.389 216.711 191.278 217.12 191.073C217.405 191.578 217.826 191.994 218.336 192.272C218.845 192.551 219.422 192.683 220.002 192.652C220.583 192.621 221.142 192.428 221.619 192.095C222.094 191.764 222.469 191.304 222.698 190.771C223.156 190.763 223.605 190.652 224.013 190.447C224.233 190.839 224.537 191.179 224.901 191.443C225.267 191.706 225.685 191.887 226.128 191.972C226.568 192.059 227.025 192.046 227.462 191.939C227.899 191.83 228.307 191.628 228.659 191.347C228.767 191.946 229.049 192.501 229.469 192.942C229.889 193.382 230.43 193.691 231.024 193.828C231.617 193.967 232.238 193.927 232.809 193.715C233.381 193.505 233.878 193.131 234.24 192.641C234.617 192.929 235.052 193.127 235.517 193.221C235.982 193.315 236.461 193.301 236.921 193.181C237.379 193.061 237.804 192.839 238.163 192.529C238.522 192.22 238.807 191.833 238.992 191.398C239.344 191.432 239.7 191.394 240.037 191.281C240.373 191.17 240.682 190.988 240.942 190.75C241.204 190.511 241.412 190.22 241.553 189.895C241.693 189.569 241.765 189.218 241.761 188.865C241.758 188.511 241.68 188.162 241.532 187.839C241.385 187.518 241.17 187.23 240.904 186.998C240.639 186.764 240.326 186.588 239.988 186.484C239.65 186.378 239.292 186.347 238.942 186.389ZM182.928 185.096C182.925 185.11 182.923 185.126 182.919 185.141C182.897 185.14 182.874 185.136 182.852 185.136C182.758 185.138 182.664 185.147 182.572 185.164C182.578 185.152 182.585 185.143 182.59 185.131C182.703 185.126 182.815 185.114 182.928 185.096ZM209.112 184.054C209.101 184.015 209.086 183.982 209.075 183.948C209.554 183.615 209.93 183.157 210.165 182.624C210.576 182.622 210.984 182.534 211.358 182.364C211.735 182.194 212.07 181.946 212.344 181.637C212.319 181.758 212.307 181.88 212.307 182.003C212.309 182.194 212.342 182.383 212.401 182.565C211.863 182.94 211.457 183.474 211.237 184.092C210.555 183.826 209.802 183.812 209.112 184.054ZM227.882 184.286C227.88 184.248 227.885 184.208 227.882 184.17C227.962 184.17 228.041 184.165 228.121 184.154C228.243 184.56 228.446 184.937 228.718 185.259C228.659 185.277 228.597 185.287 228.539 185.306C228.437 184.904 228.206 184.545 227.882 184.286Z" fill="#F9A825"/>
<path d="M174.124 190.148C173.236 190.148 172.356 190.331 171.54 190.681C170.723 191.033 169.986 191.547 169.375 192.192C168.764 192.838 168.29 193.599 167.983 194.434C167.676 195.268 167.543 196.156 167.591 197.045L171.834 255.399C171.924 257.071 172.651 258.647 173.866 259.799C175.082 260.951 176.694 261.593 178.368 261.593H233.086C234.762 261.593 236.372 260.951 237.588 259.799C238.804 258.647 239.531 257.071 239.621 255.399L243.865 197.045C243.912 196.156 243.778 195.268 243.471 194.434C243.166 193.599 242.692 192.838 242.08 192.192C241.469 191.547 240.732 191.033 239.915 190.681C239.099 190.331 238.219 190.148 237.329 190.148H174.124Z" fill="#3F3D56"/>
<path d="M180.973 190.148H177.214V261.593H180.973V190.148Z" fill="#FBDA09"/>
<path d="M191.627 190.148H187.867V261.593H191.627V190.148Z" fill="#FBDA09"/>
<path d="M202.28 190.148H198.52V261.593H202.28V190.148Z" fill="#FBDA09"/>
<path d="M212.934 190.148H209.172V261.593H212.934V190.148Z" fill="#FBDA09"/>
<path d="M223.587 190.148H219.826V261.593H223.587V190.148Z" fill="#FBDA09"/>
<path d="M234.243 190.148H230.482V261.593H234.243V190.148Z" fill="#FBDA09"/>
<path d="M230.473 225.562L218.292 232.668C218.292 232.668 188.856 257.03 209.156 261.089C229.458 265.151 234.533 243.834 234.533 243.834L241.639 235.713L230.473 225.562Z" fill="#FFB8B8"/>
<path d="M172.613 220.487L184.793 227.591C184.793 227.591 214.232 251.953 193.929 256.014C173.627 260.074 168.552 238.757 168.552 238.757L161.447 230.638L172.613 220.487Z" fill="#FFB8B8"/>
<path d="M246.714 124.054L259.91 125.069C259.91 125.069 270.059 134.205 269.044 146.386C269.044 146.386 278.18 172.778 276.15 183.944C276.15 183.944 278.18 202.215 275.136 209.321C272.091 216.427 246.714 243.834 246.714 243.834C246.714 243.834 223.367 225.562 224.382 224.547L254.833 194.095L239.608 173.793L246.714 124.054Z" fill="#FAFAFA"/>
<path d="M160.432 116.949L159.924 117.456C159.924 117.456 137.085 127.1 138.1 139.281C138.1 139.281 128.964 165.673 130.994 176.838C130.994 176.838 128.964 195.111 132.009 202.215C135.055 209.321 160.432 236.728 160.432 236.728C160.432 236.728 183.778 218.457 182.763 217.442L152.311 186.989L167.537 166.688L160.432 116.949Z" fill="#FAFAFA"/>
</svg>
