<svg width="484" height="422" viewBox="0 0 484 422" fill="none" xmlns="http://www.w3.org/2000/svg">
<path d="M80.7353 147.291C79.6063 147.405 78.4703 147.431 77.3373 147.37C77.1441 147.349 76.9504 147.405 76.7978 147.525C76.6452 147.645 76.5461 147.821 76.5216 148.013L74.3541 164.272C74.1873 165.452 73.7042 166.565 72.9557 167.493C72.3388 168.231 71.88 169.088 71.6083 170.011C71.3364 170.934 71.2572 171.903 71.3756 172.858V200.266C71.3756 200.405 71.3725 200.543 71.3762 200.682C71.3969 201.458 71.643 204.157 74.0652 204.157C77.3393 204.57 80.6507 204.583 83.9271 204.198C84.1516 204.171 84.3761 204.139 84.5843 204.051C85.2091 203.788 86.529 202.924 86.529 200.33V174.132C86.529 173.47 86.6134 172.811 86.6337 172.149C86.653 171.521 86.5831 170.892 86.4249 170.28C86.1835 169.346 85.7419 168.476 85.1308 167.73C84.4074 166.799 83.9399 165.696 83.7743 164.528L81.5229 147.93C81.4975 147.743 81.4017 147.573 81.2555 147.454C81.1091 147.336 80.9231 147.277 80.7353 147.291Z" fill="white"/>
<path d="M79.1559 204.943C77.719 204.943 76.2833 204.868 74.8546 204.718C74.3093 204.661 73.7499 204.671 73.2223 204.521C73.1227 204.493 73.0246 204.459 72.9285 204.42C72.5773 204.277 72.2594 204.061 71.9953 203.789C70.8439 202.593 70.9078 200.545 70.9111 200.459L70.9109 172.887C70.7907 171.873 70.8784 170.846 71.1687 169.867C71.4592 168.888 71.9459 167.979 72.5994 167.195C73.2922 166.334 73.7395 165.302 73.8939 164.208L76.0609 147.953C76.1032 147.64 76.2654 147.356 76.5133 147.161C76.7613 146.966 77.0755 146.875 77.3893 146.908C78.4899 146.966 79.5934 146.939 80.69 146.828L80.703 146.827C81.0091 146.805 81.3119 146.9 81.5504 147.093C81.7887 147.286 81.9446 147.563 81.9862 147.867L84.2378 164.467C84.3924 165.552 84.8276 166.579 85.5002 167.445C86.148 168.237 86.617 169.159 86.8754 170.149C87.052 170.826 87.1272 171.523 87.1 172.219C87.0749 172.862 86.9966 173.503 86.9966 174.147V200.331C86.9966 204.073 84.3784 204.611 84.3519 204.616C82.6283 204.834 80.8931 204.943 79.1559 204.943ZM77.2754 147.835C77.2059 147.831 77.1378 147.854 77.0842 147.898C77.0307 147.942 76.9955 148.005 76.9853 148.073L74.8174 164.334C74.6392 165.599 74.1216 166.792 73.3199 167.786C72.7436 168.477 72.3149 169.278 72.0603 170.14C71.8056 171.003 71.7305 171.909 71.8396 172.801L71.8431 172.859V200.476C71.8422 200.511 71.7927 202.237 72.669 203.145C72.8501 203.328 73.0684 203.473 73.3093 203.568C73.55 203.662 73.8082 203.705 74.0665 203.692L74.1246 203.696C77.4723 204.117 80.8593 204.117 84.207 203.696C84.2513 203.685 86.0643 203.271 86.0643 200.331L86.0717 174.05C86.0719 173.388 86.1584 172.727 86.1715 172.065C86.1825 171.505 86.1172 170.943 85.976 170.397C85.7514 169.529 85.3405 168.72 84.7715 168.027C83.995 167.029 83.4928 165.846 83.3145 164.594L81.0625 147.993C81.0527 147.925 81.0178 147.863 80.9645 147.819C80.9114 147.776 80.8439 147.753 80.7752 147.757C79.6251 147.872 78.4678 147.899 77.3136 147.837C77.301 147.835 77.2882 147.835 77.2752 147.835H77.2754Z" fill="#3F3D56"/>
<path d="M77.3158 173.353H80.7511C82.1172 173.353 83.4273 173.895 84.3933 174.861C85.3591 175.827 85.9017 177.137 85.9017 178.503V191.428C85.9017 192.794 85.3591 194.105 84.3933 195.071C83.4273 196.037 82.1172 196.58 80.7511 196.58H77.3158C75.9498 196.58 74.6398 196.037 73.6738 195.071C72.708 194.105 72.1653 192.794 72.1653 191.428V178.503C72.1653 177.827 72.2985 177.157 72.5573 176.532C72.8161 175.907 73.1955 175.34 73.6738 174.861C74.152 174.383 74.7199 174.004 75.3448 173.745C75.9697 173.486 76.6395 173.353 77.3158 173.353Z" fill="#6C63FF"/>
<path d="M14.1582 404.808C14.1584 408.09 16.8196 410.752 20.1023 410.752V410.752C23.1038 410.752 25.6343 408.514 26.0017 405.535L29.6126 376.259C30.1832 371.633 26.5741 367.552 21.913 367.553V367.553C17.6291 367.553 14.1567 371.026 14.1569 375.31L14.1582 404.808Z" fill="#9F616A"/>
<path d="M11.3018 414.352C11.3017 410.345 14.5505 407.096 18.5582 407.096H33.3581H33.359C37.0868 407.096 40.6618 408.577 43.2979 411.212C45.9339 413.847 47.4149 417.424 47.4151 421.15V421.15C47.4151 421.403 47.2107 421.607 46.9585 421.607L18.5586 421.608C14.551 421.609 11.302 418.36 11.3018 414.352V414.352Z" fill="#2F2E41"/>
<path d="M7.11751 256.453C7.11751 256.453 2.26356 261.939 10.3009 283.329L8.88522 400.605L34.9318 400.096L40.6573 342.89L51.0813 259.41L7.11751 256.453Z" fill="#2F2E41"/>
<path d="M60.0291 272.38C60.0213 272.534 59.8819 272.648 59.7295 272.624V272.624C26.4087 267.542 1.26411 262.671 1.01402 262.622V262.622C0.852372 262.591 0.760062 262.419 0.8227 262.267L8.5424 243.491C9.13178 242.058 9.41172 240.536 9.36941 238.987C9.04683 227.176 7.83536 174.981 11.0962 158.845C13.982 144.565 25.6941 140.118 30.7881 138.844C32.1272 138.51 33.254 137.552 33.6528 136.23V136.23C34.2947 134.103 36.7122 133.084 38.6829 134.11L54.5917 142.388C57.2569 143.775 59.2389 146.191 60.0772 149.077L62.5257 157.503C62.7933 158.424 62.9393 159.377 62.96 160.336L63.7746 198.171L60.0291 272.38Z" fill="#006787"/>
<path d="M74.3952 191.822C73.3201 191.822 72.2565 192.045 71.2714 192.475V192.475C69.3939 193.296 67.5063 194.326 65.4573 194.326H29.6974C28.9277 194.326 28.1601 194.406 27.4072 194.567L22.2688 195.66C17.5073 196.674 14.3218 201.173 14.9477 206.001V206.001C15.6505 211.421 20.8351 215.084 26.1786 213.935L64.7351 205.644C67.0892 205.138 69.4722 206.171 71.7357 206.992V206.992C72.9636 207.436 74.2833 207.567 75.5745 207.371C76.8654 207.174 78.0868 206.656 79.1269 205.867C80.1669 205.077 80.9926 204.039 81.5286 202.848C82.0644 201.658 82.2934 200.352 82.1947 199.049C82.0959 197.748 81.6724 196.49 80.9631 195.395C80.2538 194.298 79.2811 193.396 78.1338 192.772C76.9864 192.149 75.7012 191.822 74.3952 191.822Z" fill="#9F616A"/>
<path d="M74.7425 125.098C79.8661 115.725 76.4215 103.974 67.0487 98.8499C57.6756 93.7264 45.9239 97.1711 40.8003 106.544C35.6767 115.917 39.1213 127.669 48.4941 132.792C57.867 137.916 69.6187 134.471 74.7425 125.098Z" fill="#FFB7B7"/>
<path d="M38.7449 100.922C39.2034 100.584 39.3863 99.9682 39.1329 99.458V99.458C38.8622 98.9132 39.0844 98.2521 39.6292 97.9815L42.3092 96.65C42.9965 96.3086 43.5691 95.7802 44.0459 95.1789C45.7433 93.0383 50.5516 88.1606 57.9837 90.0387C66.1119 92.0926 70.3813 93.4348 71.3983 93.764C71.5609 93.8166 71.7158 93.8815 71.8685 93.9583L74.9714 95.5196C75.6473 95.8597 75.7914 96.762 75.255 97.2957V97.2957C74.6708 97.8769 74.9025 98.8698 75.6837 99.1324L76.5318 99.4175C77.1551 99.627 77.214 100.486 76.6251 100.778V100.778C76.0971 101.04 76.0746 101.785 76.5857 102.079L77.7802 102.766C78.3218 103.077 78.6086 103.695 78.4964 104.31L78.3837 104.926C77.9577 107.258 73.4426 107.941 71.0758 107.808C70.2393 107.762 69.315 107.94 68.304 108.442C65.2357 109.966 60.7888 109.412 57.3586 108.583C54.4314 107.876 51.2251 109.042 49.8427 111.717L46.5451 118.099C45.3577 120.397 41.5142 119.334 38.9488 119.666V119.666C38.5113 119.723 38.0021 119.731 37.7871 119.346C36.3642 116.797 31.2576 106.442 38.7449 100.922Z" fill="#2F2E41"/>
<path d="M26.2012 217.361C20.6967 218.61 15.1407 215.489 13.342 210.139L12.4494 207.485C12.0983 206.44 11.906 205.349 11.8792 204.247L10.8527 162.168C10.8241 160.998 10.9824 159.831 11.3216 158.711L12.765 153.945C13.4689 151.621 14.6346 149.464 16.1924 147.601C17.7502 145.739 19.6679 144.21 21.8308 143.106C23.9936 142.003 26.3569 141.347 28.7793 141.179C31.2014 141.011 33.6326 141.333 35.9273 142.127C38.2219 142.921 40.3328 144.17 42.133 145.799C43.9334 147.428 45.3864 149.404 46.4047 151.608C47.4233 153.812 47.9862 156.2 48.06 158.627C48.1337 161.054 47.7167 163.47 46.834 165.732L36.5319 192.133C36.4182 192.424 36.4351 192.75 36.5785 193.029V193.029C36.767 193.394 37.1452 193.623 37.5566 193.619L54.4763 193.482C57.6303 193.457 60.5462 195.157 62.0779 197.914V197.914C64.8681 202.936 62.0545 209.231 56.4515 210.501L26.2012 217.361Z" fill="#3F3D56"/>
<path d="M243.698 213.95C244.546 213.379 245.257 212.631 245.784 211.755C246.311 210.879 246.638 209.899 246.746 208.882C246.851 207.867 246.735 206.839 246.4 205.874V205.874C245.804 204.146 245.368 202.198 246.192 200.566L251.588 189.877C253.484 186.123 250.443 181.767 246.265 182.252V182.252C244.365 182.472 242.733 183.703 241.998 185.469L235.253 201.683C234.771 202.843 234.019 203.873 233.456 204.995C232.978 205.947 232.719 207.003 232.709 208.084C232.695 209.804 233.311 211.471 234.441 212.766C235.571 214.064 237.14 214.901 238.845 215.118C240.551 215.337 242.279 214.921 243.698 213.95Z" fill="#FFB7B7"/>
<path d="M333.462 365.643C333.462 368.6 331.065 370.996 328.109 370.996V370.996C325.406 370.996 323.126 368.981 322.796 366.298L319.543 339.93C319.029 335.763 322.28 332.088 326.478 332.088V332.088C330.336 332.089 333.464 335.217 333.463 339.075L333.462 365.643Z" fill="#FFB7B7"/>
<path d="M336.036 374.238C336.035 377.847 333.109 380.772 329.5 380.772H303.922C303.695 380.772 303.51 380.588 303.51 380.36V380.36C303.51 377.003 304.845 373.783 307.218 371.409C309.592 369.036 312.812 367.701 316.169 367.701H316.171H329.5C333.11 367.701 336.036 370.628 336.036 374.238V374.238Z" fill="#2F2E41"/>
<path d="M278.337 365.643C278.337 368.6 275.94 370.996 272.984 370.996V370.996C270.281 370.996 268.001 368.981 267.671 366.298L264.418 339.93C263.904 335.763 267.155 332.088 271.353 332.088V332.088C275.211 332.089 278.339 335.217 278.338 339.075L278.337 365.643Z" fill="#FFB7B7"/>
<path d="M278.44 374.237C278.44 377.846 275.514 380.772 271.904 380.772H246.327C246.1 380.772 245.915 380.588 245.915 380.36V380.36C245.915 377.003 247.249 373.783 249.623 371.409C251.997 369.036 255.217 367.701 258.574 367.701H258.576H271.904C275.514 367.701 278.44 370.627 278.44 374.237V374.237Z" fill="#2F2E41"/>
<path d="M277.51 206.667L267.637 229.414L259.491 360.153L280.06 359.331L285.68 297.006L303.009 241.496L312.973 303.381L317.087 357.685L334.106 358.422L340.889 206.667H277.51Z" fill="#2F2E41"/>
<path d="M326.865 94.4275L298.247 95.1433L281.447 103.768L280.525 167.4L270.046 211.333C270.046 211.333 335.517 215.839 344.566 209.256L333.871 159.066L348.217 104.826L326.865 94.4275Z" fill="#6C63FF"/>
<path d="M285.866 104.822L283.203 103.023C283.203 103.023 272.166 106.331 268.903 121.047C268.903 121.047 266.407 128.431 265.312 133.507C264.056 139.329 236.316 192.811 236.316 192.811L252.924 197.575L283.374 148.332L285.866 104.822Z" fill="#6C63FF"/>
<path d="M347.768 222.111C347.111 221.328 346.634 220.411 346.369 219.424C346.105 218.436 346.061 217.404 346.237 216.398C346.415 215.393 346.812 214.437 347.399 213.602V213.602C348.448 212.104 349.406 210.352 349.064 208.555L346.824 196.795C346.038 192.663 350.162 189.315 354.044 190.933V190.933C355.809 191.669 357.039 193.302 357.258 195.202L359.269 212.649C359.413 213.895 359.85 215.092 360.083 216.324C360.28 217.371 360.239 218.458 359.95 219.501C359.49 221.161 358.438 222.592 356.994 223.525C355.55 224.46 353.813 224.832 352.113 224.57C350.413 224.31 348.867 223.434 347.768 222.111Z" fill="#FFB7B7"/>
<path d="M343.911 105.587L346.968 104.592C346.968 104.592 356.663 110.815 355.741 125.86C355.741 125.86 356.105 133.646 355.758 138.827C355.36 144.77 360.694 203.827 360.694 203.827H343.416L336.011 150.346L343.911 105.587Z" fill="#6C63FF"/>
<path d="M333.891 67.7305C333.891 71.6539 332.727 75.4893 330.546 78.7516C328.367 82.0137 325.268 84.5563 321.643 86.0577C318.019 87.5591 314.031 87.952 310.183 87.1866C306.334 86.4212 302.8 84.5318 300.026 81.7576C297.251 78.9832 295.362 75.4486 294.596 71.6006C293.831 67.7526 294.224 63.7639 295.726 60.1391C297.227 56.5143 299.77 53.4161 303.032 51.2363C306.293 49.0566 310.129 47.8931 314.053 47.8931C319.301 47.8801 324.338 49.9523 328.059 53.654C331.779 57.3556 333.878 62.3836 333.891 67.6316C333.891 67.6646 333.891 67.6974 333.891 67.7305Z" fill="#FFB7B7"/>
<path d="M294.281 41.0861C295.957 37.4822 298.763 36.9914 301.672 37.6332C303.929 38.1309 306.256 38.5163 308.436 37.7521C311.146 36.8025 313.842 35.7043 316.671 35.7084C318.959 35.7118 320.745 37.4478 322.61 38.7737C329.145 43.4208 341.361 43.3248 339.753 52.6782C339.572 53.7319 339.207 54.9952 340.047 55.6571C341.014 56.4197 342.778 56.5767 343.643 57.7019C344.777 59.1761 344.433 61.3572 344.451 63.2168C344.506 69.1539 340.077 76.8244 334.98 81.1552C330.577 84.896 330.014 79.4604 328.417 73.908V73.908C327.6 71.0649 323.92 73.1233 321.138 74.1306C312.974 77.0871 321.163 47.9591 306.011 56.5348C305.429 56.8643 304.882 57.3333 304.308 57.6769C298.341 61.2486 290.886 46.4016 294.281 41.0861Z" fill="#2F2E41"/>
<path d="M351.24 224.087C352.186 224.278 353.16 224.258 354.096 224.031C355.033 223.803 355.909 223.372 356.661 222.771C357.412 222.168 358.025 221.407 358.45 220.544V220.544C359.265 218.892 359.886 217.058 361.228 215.796L403.154 176.332C406.207 173.458 406.006 168.546 402.728 165.931V165.931C399.911 163.684 395.838 163.988 393.385 166.628L355.277 207.658C353.312 209.774 350.275 210.703 348.112 212.617C348.036 212.685 347.961 212.754 347.888 212.825C346.724 213.956 346.015 215.474 345.895 217.092C345.776 218.71 346.253 220.318 347.238 221.606C348.224 222.895 349.647 223.779 351.24 224.087Z" fill="#FFB7B7"/>
<path d="M401.882 178.464C401.882 178.464 401.882 178.464 401.882 178.464L392.193 167.108C391.916 166.785 391.714 166.406 391.597 165.997C391.482 165.589 391.456 165.16 391.519 164.74C391.584 164.32 391.738 163.919 391.972 163.565C392.206 163.21 392.512 162.909 392.872 162.684L404.827 155.2C405.267 154.925 405.68 154.608 406.107 154.312C407.666 153.232 409.559 152.721 411.464 152.88C413.63 153.061 415.636 154.093 417.041 155.75C418.448 157.408 419.138 159.555 418.964 161.722C418.811 163.617 418.006 165.391 416.699 166.749C416.324 167.14 415.929 167.512 415.573 167.92L406.359 178.489C406.08 178.809 405.735 179.065 405.347 179.24C404.959 179.415 404.54 179.504 404.115 179.502C403.69 179.499 403.27 179.405 402.886 179.226C402.5 179.047 402.159 178.788 401.882 178.465C401.882 178.464 401.882 178.464 401.882 178.464V178.464Z" fill="#CBCBCB"/>
<path d="M375.826 403.339C375.826 406.909 372.932 409.803 369.362 409.803V409.803C366.097 409.803 363.345 407.37 362.946 404.13L359.021 372.297C358.4 367.267 362.325 362.829 367.393 362.83V362.83C372.051 362.83 375.827 366.607 375.827 371.265L375.826 403.339Z" fill="#FFB7B7"/>
<path d="M378.93 413.716C378.93 418.074 375.397 421.607 371.039 421.606L340.157 421.605C339.883 421.605 339.661 421.383 339.661 421.109V421.109C339.661 417.054 341.272 413.168 344.139 410.301C347.005 407.435 350.893 405.824 354.946 405.824L371.04 405.825C375.398 405.826 378.93 409.358 378.93 413.716V413.716Z" fill="#2F2E41"/>
<path d="M473.174 403.341C473.173 406.91 470.28 409.803 466.711 409.803V409.803C463.448 409.803 460.696 407.371 460.297 404.132L456.37 372.297C455.75 367.267 459.674 362.829 464.742 362.83V362.83C469.401 362.83 473.176 366.607 473.176 371.265L473.174 403.341Z" fill="#FFB7B7"/>
<path d="M476.279 413.716C476.279 418.074 472.746 421.607 468.388 421.606L437.506 421.605C437.232 421.605 437.01 421.383 437.01 421.109V421.109C437.01 417.054 438.621 413.168 441.488 410.301C444.354 407.435 448.242 405.824 452.295 405.824L468.389 405.825C472.747 405.826 476.279 409.358 476.279 413.716V413.716Z" fill="#2F2E41"/>
<path d="M440.417 203.364L452.692 158.009L436.766 149.057H414.538L405.892 158.307C405.892 158.307 391.447 168.357 394.944 179.493L400.584 204.855L391.958 245.137L348.494 305.411L338.205 364.616L378.706 375.234L422.5 289.001L443.733 384.484L483.236 382.498L469.625 266.723C469.625 266.723 465.744 231.455 445.404 209.433L440.417 203.364Z" fill="#FED500"/>
<path d="M465.767 243.494C466.452 242.816 466.979 241.996 467.311 241.09C467.645 240.186 467.777 239.221 467.695 238.26C467.616 237.301 467.324 236.369 466.845 235.532V235.532C465.931 233.937 464.77 232.391 464.501 230.572L456.577 177.127C455.958 172.948 451.747 170.315 447.719 171.587V171.587C444.327 172.658 442.315 176.143 443.083 179.616L454.456 231.047C455.069 233.819 454.152 236.792 454.49 239.61C454.506 239.739 454.525 239.868 454.548 239.997C454.838 241.593 455.703 243.028 456.979 244.03C458.256 245.032 459.854 245.53 461.474 245.431C463.095 245.333 464.622 244.644 465.767 243.494Z" fill="#FFB7B7"/>
<path d="M457.753 179.247L442.922 180.957C442.499 181.006 442.072 180.963 441.668 180.831C441.265 180.7 440.894 180.483 440.58 180.195C440.268 179.908 440.022 179.556 439.858 179.164C439.693 178.773 439.615 178.35 439.628 177.925L440.109 163.05C439.873 160.889 440.502 158.723 441.861 157.027C443.217 155.33 445.194 154.241 447.352 153.998C449.513 153.756 451.68 154.379 453.38 155.732C454.869 156.916 455.892 158.573 456.291 160.415C456.406 160.944 456.494 161.479 456.635 162.002L460.269 175.546C460.379 175.956 460.399 176.385 460.329 176.804C460.256 177.223 460.097 177.621 459.857 177.973C459.62 178.324 459.308 178.62 458.944 178.84C458.581 179.059 458.174 179.198 457.753 179.247Z" fill="#CBCBCB"/>
<path d="M400.794 136.159V117.049C400.794 110.258 403.493 103.745 408.294 98.9423C413.097 94.1402 419.609 91.4423 426.402 91.4423C433.193 91.4423 439.705 94.1402 444.508 98.9423C449.311 103.745 452.008 110.258 452.008 117.049V136.159C452.008 137.071 451.644 137.945 451 138.59C450.354 139.235 449.48 139.598 448.569 139.599H404.233C403.322 139.598 402.448 139.235 401.802 138.59C401.158 137.945 400.794 137.071 400.794 136.159Z" fill="#2F2E41"/>
<path d="M430.142 136.855C439.241 131.881 442.584 120.474 437.612 111.376C432.638 102.278 421.23 98.9344 412.132 103.908C403.035 108.881 399.69 120.289 404.664 129.387C409.638 138.485 421.044 141.829 430.142 136.855Z" fill="#FFB7B7"/>
<path d="M394.736 118.578C394.741 113.208 396.877 108.059 400.675 104.262C404.472 100.464 409.622 98.3281 414.991 98.3221H418.814C424.183 98.3281 429.333 100.464 433.13 104.262C436.928 108.059 439.064 113.208 439.069 118.579V118.579C439.069 118.79 438.898 118.961 438.687 118.961H432.049C431.415 118.961 430.85 118.562 430.637 117.966L430.413 117.338C429.919 115.953 427.882 116.231 427.777 117.698V117.698C427.726 118.41 427.135 118.961 426.422 118.961H424.047C423.727 118.961 423.441 118.76 423.334 118.458L423.221 118.142C422.971 117.443 421.943 117.583 421.89 118.324V118.324C421.865 118.683 421.566 118.961 421.206 118.961H395.118C394.907 118.961 394.736 118.79 394.736 118.578V118.578Z" fill="#2F2E41"/>
<path d="M419.291 141.748C418.911 141.235 418.684 140.625 418.638 139.988C418.59 139.352 418.723 138.715 419.022 138.15C423.072 130.447 428.741 116.212 421.216 107.434V107.434C421.003 107.186 421.179 106.803 421.505 106.803H435.649C439.448 106.803 442.527 109.882 442.527 113.68V130.381C442.527 135.719 438.695 140.287 433.438 141.214L422.674 143.113C422.474 143.149 422.27 143.167 422.066 143.167C421.524 143.167 420.991 143.038 420.509 142.791C420.026 142.545 419.608 142.187 419.291 141.748Z" fill="#2F2E41"/>
<path d="M218.442 159.22V159.22C217.923 159.754 217.234 160.125 216.489 160.107L185.505 159.349C183.383 159.297 181.45 158.118 180.431 156.257V156.257C178.996 153.635 175.84 152.484 173.055 153.567L172.286 153.866C168.657 155.277 166.917 159.413 168.447 162.994L171.696 170.597C172.185 171.741 173.031 172.695 174.108 173.316C175.185 173.937 176.434 174.193 177.669 174.043L213.371 169.73C216.182 169.391 218.894 170.888 221.6 171.718V171.718C223.063 172.167 224.629 172.16 226.088 171.698C227.547 171.235 228.831 170.339 229.77 169.129C230.707 167.919 231.255 166.453 231.338 164.924C231.422 163.396 231.038 161.878 230.238 160.572C229.438 159.267 228.259 158.236 226.86 157.617C225.461 156.998 223.905 156.819 222.4 157.106C220.897 157.392 219.516 158.129 218.442 159.22Z" fill="#FFB7B7"/>
<path d="M102.376 369.236C102.376 372.668 105.158 375.449 108.589 375.449V375.449C111.727 375.449 114.372 373.11 114.756 369.997L118.53 339.395C119.127 334.56 115.354 330.294 110.482 330.294V330.294C106.004 330.295 102.374 333.925 102.375 338.403L102.376 369.236Z" fill="#FFB7B7"/>
<path d="M99.39 379.212C99.3898 375.023 102.786 371.627 106.975 371.626L122.445 371.625H122.446C126.343 371.627 130.08 373.175 132.835 375.929C135.59 378.685 137.138 382.423 137.139 386.318V386.318C137.139 386.582 136.925 386.795 136.662 386.795L106.976 386.797C102.786 386.797 99.3902 383.401 99.39 379.212V379.212Z" fill="#2F2E41"/>
<path d="M206.238 369.475C207.586 372.631 211.237 374.096 214.393 372.748V372.748C217.278 371.516 218.792 368.326 217.922 365.311L209.372 335.687C208.021 331.006 202.876 328.565 198.395 330.479V330.479C194.277 332.239 192.365 337.003 194.125 341.122L206.238 369.475Z" fill="#FFB7B7"/>
<path d="M207.413 379.822C205.767 375.969 207.556 371.512 211.409 369.866L225.633 363.79C225.634 363.789 225.634 363.789 225.635 363.789V363.789C225.635 363.789 225.636 363.789 225.637 363.789C229.22 362.258 233.264 362.214 236.879 363.665C240.496 365.116 243.387 367.945 244.919 371.528V371.528C245.022 371.771 244.909 372.052 244.666 372.156L217.368 383.817C213.516 385.463 209.059 383.674 207.413 379.822V379.822Z" fill="#2F2E41"/>
<path d="M152.609 168.733C156.399 168.885 159.458 171.879 159.692 175.664V175.664C159.935 179.611 157.031 183.05 153.099 183.471L135.382 185.367L124.658 186.515C117.666 187.263 112.314 180.415 114.731 173.81V173.81C116.148 169.935 119.906 167.419 124.029 167.585L152.609 168.733Z" fill="#FFB7B7"/>
<path d="M160.149 173.924C159.869 173.814 131.918 162.942 114.75 171.832V171.832C114.539 171.941 114.281 171.818 114.234 171.584L111.064 155.984C110.957 155.457 110.889 154.923 110.86 154.386L109.349 126.329C109.109 121.866 111.593 117.701 115.634 115.792L118.713 114.336C120.609 113.441 122.121 111.896 122.975 109.982V109.982C124.31 106.992 127.198 104.995 130.466 104.802L143.749 104.016C146.998 103.823 150.122 105.297 152.039 107.927V107.927C153.221 109.547 154.882 110.755 156.787 111.379L161.502 112.925C166.683 114.622 169.838 119.859 168.919 125.232L160.635 173.651C160.597 173.875 160.361 174.008 160.149 173.924V173.924Z" fill="black"/>
<path d="M161.024 141.208L163.97 118.062L170.677 116.021L170.79 116.062C170.945 116.119 174.59 117.514 175.588 122.561C176.546 127.405 183.76 157.549 183.832 157.853L183.904 158.155L166.956 164.936L161.024 141.208Z" fill="black"/>
<path d="M199.96 367.252L222.521 362.624L186.462 263.125L174.121 229.188C174.121 229.188 166.294 201.977 162.758 191.447L160.623 177.317L110.102 182.909C110.102 182.909 95.9919 203.631 100.279 237.408L98.3398 364.359L120.901 365.517L139.798 237.478L172.964 307.669C172.964 307.669 183.418 337.621 190.898 344.113L199.96 367.252Z" fill="#03A596"/>
<path d="M130.364 187.623V187.623C129.62 187.602 128.879 187.352 128.387 186.794L107.875 163.557C106.471 161.966 106.02 159.747 106.693 157.734V157.734C107.639 154.899 106.337 151.803 103.65 150.496L102.909 150.136C99.406 148.434 95.1898 149.971 93.6043 153.528L90.2381 161.079C89.732 162.215 89.6079 163.484 89.8844 164.696C90.1609 165.908 90.8231 166.998 91.7717 167.802L119.208 191.05C121.368 192.88 122.115 195.886 123.346 198.435V198.435C124.012 199.814 125.081 200.957 126.413 201.712C127.744 202.468 129.274 202.8 130.799 202.666C132.324 202.531 133.771 201.935 134.949 200.957C136.127 199.979 136.979 198.665 137.392 197.192C137.806 195.718 137.76 194.153 137.263 192.706C136.765 191.258 135.838 189.996 134.606 189.087C133.374 188.179 131.894 187.669 130.364 187.623Z" fill="#FFB7B7"/>
<path d="M94.3684 150.978L103.583 124.733C104.618 121.639 105.916 119.759 107.44 119.146C107.74 119.011 108.065 118.94 108.394 118.937C108.723 118.934 109.049 118.999 109.352 119.128L113.483 124.348L117.318 140.457L107.486 163.584L94.3684 150.978Z" fill="black"/>
<path d="M155.358 98.2739H114.908C114.076 98.2729 113.278 97.942 112.69 97.3535C112.102 96.7652 111.771 95.9675 111.77 95.1355V77.7003C111.77 71.5038 114.231 65.5614 118.613 61.1798C122.994 56.7984 128.937 54.3369 135.133 54.3369C141.329 54.3369 147.272 56.7984 151.654 61.1798C156.035 65.5614 158.497 71.5038 158.497 77.7003V95.1355C158.496 95.9675 158.165 96.7652 157.576 97.3535C156.988 97.942 156.19 98.2729 155.358 98.2739Z" fill="#2F2E41"/>
<path d="M139.933 97.8687C149.393 97.8687 157.062 90.1998 157.062 80.7395C157.062 71.2794 149.393 63.6105 139.933 63.6105C130.473 63.6105 122.804 71.2794 122.804 80.7395C122.804 90.1998 130.473 97.8687 139.933 97.8687Z" fill="#FFB7B7"/>
<path d="M164.022 79.0972C164.022 79.2897 163.866 79.4459 163.674 79.4459H139.871C139.543 79.4459 139.27 79.1921 139.247 78.8646V78.8646C139.199 78.1891 138.261 78.0609 138.033 78.6987L137.93 78.9877C137.832 79.2625 137.572 79.4459 137.28 79.4459H135.113C134.462 79.4459 133.922 78.943 133.876 78.294V78.294C133.78 76.9552 131.922 76.7012 131.471 77.9652L131.266 78.538C131.072 79.0824 130.556 79.4459 129.978 79.4459H123.921C123.729 79.4459 123.573 79.2897 123.573 79.0972V79.0972C123.578 74.1972 125.527 69.4995 128.992 66.0349C132.456 62.5702 137.154 60.6213 142.054 60.6157H145.541C150.441 60.6213 155.139 62.5702 158.603 66.0349C162.068 69.4995 164.017 74.1972 164.022 79.0972V79.0972Z" fill="#2F2E41"/>
<path d="M139.087 101.529C138.9 101.529 138.715 101.513 138.531 101.48L129.509 99.8884C124.252 98.9609 120.42 94.3934 120.42 89.0557V74.6307C120.42 71.163 123.231 68.3518 126.699 68.3518H139.599C139.897 68.3518 140.057 68.7012 139.863 68.9273V68.9273C132.996 76.9368 138.17 89.9241 141.865 96.9525C142.137 97.4674 142.259 98.0486 142.215 98.6293C142.172 99.2101 141.965 99.7668 141.619 100.235C141.33 100.636 140.949 100.962 140.509 101.187C140.069 101.412 139.581 101.529 139.087 101.529Z" fill="#2F2E41"/>
<path d="M356.04 173.48C354.912 173.593 353.776 173.62 352.642 173.559C352.449 173.538 352.256 173.593 352.104 173.714C351.95 173.834 351.851 174.01 351.827 174.202L349.659 190.46C349.492 191.641 349.01 192.754 348.26 193.682C347.644 194.419 347.185 195.276 346.913 196.201C346.642 197.123 346.562 198.092 346.681 199.046V226.455C346.681 226.594 346.678 226.731 346.681 226.869C346.702 227.645 346.948 230.345 349.37 230.345C352.645 230.758 355.956 230.772 359.232 230.386C359.456 230.36 359.68 230.328 359.888 230.24C360.513 229.977 361.834 229.114 361.834 226.52V200.319C361.834 199.658 361.918 199 361.939 198.34C361.958 197.711 361.888 197.081 361.73 196.468C361.489 195.534 361.047 194.666 360.437 193.92C359.713 192.988 359.245 191.884 359.08 190.716L356.829 174.118C356.803 173.932 356.706 173.762 356.56 173.643C356.415 173.525 356.227 173.466 356.04 173.48Z" fill="white"/>
<path d="M354.458 231.13C353.01 231.13 351.564 231.054 350.125 230.903C349.601 230.848 349.066 230.855 348.558 230.717C348.447 230.688 348.338 230.651 348.232 230.607C347.881 230.464 347.562 230.248 347.298 229.976C346.147 228.78 346.211 226.733 346.214 226.646V199.075C346.094 198.062 346.181 197.033 346.472 196.054C346.762 195.075 347.248 194.166 347.903 193.383C348.595 192.522 349.043 191.49 349.197 190.395L351.364 174.14C351.407 173.828 351.568 173.544 351.817 173.349C352.064 173.154 352.378 173.063 352.693 173.095C353.794 173.153 354.896 173.127 355.993 173.016L356.006 173.015C356.312 172.992 356.615 173.087 356.854 173.281C357.092 173.474 357.248 173.751 357.288 174.055L359.541 190.655C359.695 191.74 360.13 192.767 360.803 193.633C361.451 194.424 361.921 195.346 362.179 196.336C362.355 197.013 362.43 197.711 362.403 198.406C362.378 199.049 362.299 199.69 362.299 200.333V226.518C362.299 230.26 359.681 230.8 359.655 230.803C357.931 231.021 356.195 231.13 354.458 231.13ZM352.578 174.022C352.509 174.019 352.441 174.041 352.387 174.085C352.333 174.13 352.298 174.192 352.289 174.261L350.121 190.521C349.943 191.787 349.425 192.98 348.623 193.973C348.046 194.663 347.617 195.465 347.363 196.328C347.109 197.191 347.033 198.097 347.142 198.99L347.146 199.045V226.663C347.146 226.698 347.096 228.424 347.972 229.332C348.154 229.517 348.371 229.66 348.612 229.755C348.853 229.849 349.111 229.892 349.369 229.879L349.427 229.883C352.775 230.304 356.162 230.304 359.51 229.883C359.554 229.874 361.368 229.46 361.368 226.518L361.375 200.239C361.375 199.576 361.462 198.914 361.475 198.25C361.485 197.69 361.42 197.13 361.279 196.584C361.054 195.716 360.644 194.908 360.074 194.214C359.298 193.216 358.795 192.034 358.617 190.783L356.366 174.181C356.355 174.112 356.321 174.05 356.268 174.007C356.214 173.963 356.147 173.941 356.078 173.944C354.928 174.059 353.771 174.086 352.617 174.024C352.604 174.023 352.591 174.022 352.578 174.022Z" fill="#3F3D56"/>
<path d="M352.62 199.54H356.056C357.421 199.54 358.732 200.082 359.697 201.047C360.664 202.014 361.206 203.324 361.206 204.69V217.615C361.206 218.981 360.664 220.291 359.697 221.258C358.732 222.223 357.421 222.767 356.056 222.767H352.62C351.254 222.767 349.944 222.223 348.977 221.258C348.012 220.291 347.468 218.981 347.468 217.615V204.69C347.468 203.324 348.012 202.014 348.977 201.047C349.944 200.082 351.254 199.54 352.62 199.54Z" fill="#6C63FF"/>
<path d="M239.462 151.086C238.334 151.2 237.198 151.227 236.066 151.166C235.871 151.144 235.678 151.2 235.526 151.32C235.374 151.441 235.274 151.616 235.249 151.809L233.082 168.067C232.915 169.247 232.432 170.36 231.684 171.288C231.066 172.026 230.608 172.883 230.337 173.806C230.064 174.729 229.984 175.698 230.103 176.653V204.062C230.103 204.2 230.1 204.337 230.104 204.476C230.124 205.251 230.37 207.954 232.792 207.954C236.064 208.364 239.373 208.378 242.648 207.995C242.877 207.969 243.107 207.935 243.32 207.845C243.948 207.577 245.256 206.709 245.256 204.127V177.925C245.256 177.265 245.34 176.607 245.361 175.947C245.38 175.318 245.311 174.688 245.152 174.075C244.911 173.142 244.47 172.272 243.859 171.526C243.135 170.595 242.667 169.491 242.502 168.324L240.251 151.725C240.225 151.538 240.13 151.368 239.984 151.25C239.837 151.131 239.652 151.073 239.462 151.086Z" fill="white"/>
<path d="M237.884 208.736C236.446 208.736 235.007 208.662 233.577 208.512C233.035 208.456 232.48 208.464 231.955 208.317C231.854 208.289 231.754 208.255 231.656 208.215C231.305 208.07 230.988 207.855 230.723 207.582C229.572 206.387 229.635 204.34 229.639 204.253V176.681C229.518 175.667 229.607 174.64 229.897 173.661C230.186 172.682 230.674 171.773 231.328 170.989C232.02 170.128 232.467 169.096 232.621 168.002L234.789 151.747C234.831 151.434 234.993 151.15 235.242 150.955C235.488 150.76 235.804 150.669 236.118 150.702C237.218 150.76 238.321 150.733 239.417 150.622L239.43 150.621C239.737 150.599 240.039 150.694 240.279 150.887C240.516 151.08 240.672 151.357 240.715 151.661L242.966 168.261C243.12 169.346 243.556 170.373 244.228 171.239C244.876 172.031 245.345 172.953 245.603 173.943C245.779 174.617 245.855 175.312 245.828 176.005C245.804 176.653 245.724 177.3 245.724 177.949V204.126C245.724 207.866 243.107 208.406 243.079 208.41C241.357 208.627 239.622 208.736 237.884 208.736ZM236.003 151.629C235.934 151.625 235.865 151.648 235.811 151.692C235.759 151.736 235.724 151.798 235.713 151.867L233.545 168.128C233.367 169.393 232.849 170.586 232.048 171.58C231.472 172.271 231.044 173.072 230.787 173.934C230.533 174.797 230.459 175.702 230.567 176.595L230.57 176.653V204.269C230.57 204.305 230.52 206.031 231.396 206.938C231.578 207.124 231.797 207.267 232.037 207.361C232.278 207.456 232.536 207.499 232.794 207.486L232.853 207.489C236.201 207.911 239.588 207.911 242.934 207.489C242.979 207.48 244.792 207.066 244.792 204.126L244.799 177.845C244.799 177.182 244.886 176.521 244.899 175.858C244.91 175.298 244.844 174.737 244.703 174.191C244.478 173.323 244.068 172.514 243.499 171.821C242.723 170.823 242.22 169.64 242.042 168.388L239.79 151.787C239.781 151.719 239.746 151.657 239.692 151.613C239.64 151.57 239.571 151.547 239.503 151.551C238.352 151.666 237.196 151.693 236.042 151.631C236.029 151.629 236.016 151.629 236.003 151.629Z" fill="#3F3D56"/>
<path d="M236.042 177.146H239.478C240.844 177.146 242.154 177.689 243.119 178.655C244.086 179.621 244.628 180.931 244.628 182.297V195.222C244.628 196.589 244.086 197.898 243.119 198.865C242.154 199.83 240.844 200.374 239.478 200.374H236.042C234.677 200.374 233.366 199.83 232.401 198.865C231.434 197.898 230.892 196.589 230.892 195.222V182.297C230.892 180.931 231.434 179.621 232.401 178.655C233.366 177.689 234.677 177.146 236.042 177.146Z" fill="#6C63FF"/>
<path d="M219.706 127.375C218.578 127.489 217.442 127.515 216.308 127.454C216.115 127.433 215.922 127.489 215.768 127.609C215.616 127.73 215.517 127.905 215.493 128.098L213.326 144.356C213.159 145.536 212.676 146.649 211.926 147.577C211.31 148.315 210.852 149.172 210.579 150.095C210.308 151.018 210.228 151.987 210.347 152.942V180.352C210.347 180.49 210.344 180.627 210.348 180.765C210.368 181.541 210.614 184.242 213.036 184.242C216.31 184.653 219.621 184.667 222.896 184.283C223.122 184.256 223.347 184.224 223.556 184.135C224.182 183.871 225.5 183.007 225.5 180.415V154.214C225.5 153.554 225.584 152.895 225.605 152.235C225.624 151.607 225.555 150.976 225.396 150.364C225.155 149.431 224.713 148.561 224.101 147.815C223.379 146.884 222.911 145.78 222.746 144.612L220.493 128.014C220.469 127.827 220.373 127.657 220.226 127.539C220.079 127.42 219.894 127.362 219.706 127.375Z" fill="white"/>
<path d="M218.124 185.026C216.685 185.026 215.247 184.951 213.817 184.801C213.276 184.744 212.721 184.753 212.197 184.606C212.096 184.578 211.995 184.543 211.897 184.503C211.546 184.359 211.227 184.144 210.964 183.872C209.813 182.676 209.876 180.628 209.88 180.541V152.97C209.759 151.956 209.846 150.929 210.138 149.95C210.427 148.971 210.913 148.062 211.567 147.278C212.261 146.417 212.708 145.385 212.862 144.29L215.03 128.036C215.071 127.723 215.234 127.439 215.481 127.244C215.73 127.049 216.043 126.958 216.357 126.991C217.457 127.049 218.562 127.022 219.658 126.911L219.671 126.91C219.978 126.888 220.28 126.983 220.518 127.176C220.757 127.369 220.913 127.646 220.954 127.95L223.205 144.549C223.361 145.635 223.795 146.662 224.469 147.528C225.117 148.32 225.586 149.242 225.844 150.232C226.021 150.909 226.096 151.607 226.068 152.303C226.043 152.945 225.965 153.586 225.965 154.228V180.414C225.965 184.155 223.346 184.694 223.32 184.699C221.596 184.917 219.861 185.026 218.124 185.026ZM216.244 127.918C216.175 127.914 216.106 127.937 216.052 127.981C215.999 128.025 215.963 128.087 215.954 128.156L213.786 144.417C213.608 145.682 213.09 146.875 212.289 147.869C211.712 148.559 211.283 149.361 211.029 150.223C210.774 151.086 210.698 151.991 210.808 152.884L210.811 152.941V180.559C210.81 180.593 210.761 182.32 211.637 183.228C211.819 183.412 212.036 183.556 212.278 183.65C212.519 183.745 212.777 183.787 213.035 183.775L213.092 183.779C216.44 184.199 219.827 184.199 223.175 183.779C223.22 183.768 225.033 183.354 225.033 180.414L225.04 154.134C225.041 153.471 225.127 152.81 225.14 152.147C225.151 151.587 225.085 151.026 224.944 150.48C224.72 149.612 224.309 148.803 223.74 148.109C222.964 147.112 222.461 145.929 222.283 144.677L220.032 128.076C220.02 128.008 219.985 127.946 219.933 127.902C219.879 127.858 219.813 127.836 219.744 127.839C218.593 127.955 217.437 127.981 216.283 127.92C216.27 127.918 216.257 127.918 216.244 127.918Z" fill="#3F3D56"/>
<path d="M216.285 153.435H219.72C221.086 153.435 222.395 153.978 223.362 154.944C224.327 155.91 224.87 157.22 224.87 158.586V171.512C224.87 172.878 224.327 174.188 223.362 175.154C222.395 176.12 221.086 176.662 219.72 176.662H216.285C214.917 176.662 213.609 176.12 212.642 175.154C211.677 174.188 211.133 172.878 211.133 171.512V158.586C211.133 157.22 211.677 155.91 212.642 154.944C213.609 153.978 214.917 153.435 216.285 153.435Z" fill="#6C63FF"/>
<path d="M37.7087 47.5638C46.8024 47.5638 54.1743 40.192 54.1743 31.0983C54.1743 22.0046 46.8024 14.6328 37.7087 14.6328C28.615 14.6328 21.2432 22.0046 21.2432 31.0983C21.2432 40.192 28.615 47.5638 37.7087 47.5638Z" fill="#F0F0F0"/>
<path d="M417.073 33.7323C426.167 33.7323 433.539 26.3605 433.539 17.2667C433.539 8.17309 426.167 0.801208 417.073 0.801208C407.981 0.801208 400.608 8.17309 400.608 17.2667C400.608 26.3605 407.981 33.7323 417.073 33.7323Z" fill="#F0F0F0"/>
<path d="M228.708 75.2262C235.255 75.2262 240.563 69.9183 240.563 63.3709C240.563 56.8234 235.255 51.5157 228.708 51.5157C222.16 51.5157 216.852 56.8234 216.852 63.3709C216.852 69.9183 222.16 75.2262 228.708 75.2262Z" fill="#F0F0F0"/>
</svg>
