<svg xmlns="http://www.w3.org/2000/svg" xmlns:xlink="http://www.w3.org/1999/xlink" width="160" zoomAndPan="magnify" viewBox="0 0 120 123.000003" height="164" preserveAspectRatio="xMidYMid meet" version="1.0"><path stroke-linecap="butt" transform="matrix(0.10746, 0, 0, 0.10746, 59.779576, 70.827323)" fill-opacity="1" fill="#f4f4f4" fill-rule="nonzero" stroke-linejoin="miter" d="M -462.621644 158.715262 C -458.295894 130.216198 -436.23093 105.82478 -409.803864 100.372153 C -383.376799 94.955877 -354.441525 108.8419 -340.591853 133.596827 C -342.409395 93.101984 -335.357331 50.82595 -313.328718 17.855732 C -291.336456 -15.114486 -252.368349 -36.670538 -215.290485 -28.891457 C -178.212622 -21.076025 -148.223174 20.836501 -157.09278 60.27717 C -175.1228 5.096585 -148.114121 -58.22659 -105.183771 -94.177577 C -62.253422 -130.164915 -6.854732 -143.869184 47.126275 -151.466511 C 79.478529 -156.010367 112.521448 -158.700329 144.582894 -152.266229 C 176.644341 -145.83213 207.978771 -129.401547 227.753631 -101.556799 C 247.528492 -73.71205 253.671785 -33.580716 238.00457 -2.864251 C 255.19852 -17.259186 276.427414 -26.964862 298.237922 -26.492301 C 320.04843 -26.056091 342.113394 -14.351118 353.018648 5.932654 C 363.923902 26.216427 361.379343 54.71549 345.021462 70.1646 C 369.630985 55.333455 401.728782 55.98777 425.793042 71.800388 C 449.857303 87.649357 462.652801 117.929612 461.525924 148.209867 C 461.525924 148.209867 -462.621644 158.715262 -462.621644 158.715262 Z M -462.621644 158.715262 " stroke="#000000" stroke-width="3" stroke-opacity="1" stroke-miterlimit="10"/><path stroke-linecap="round" transform="matrix(0.10746, 0, 0, 0.10746, 44.608853, 52.066263)" fill-opacity="1" fill="#f99716" fill-rule="nonzero" stroke-linejoin="round" d="M 0.00485723 -309.598827 C 170.962888 -309.598827 309.605016 -170.99305 309.605016 0.00133175 C 309.605016 170.995713 170.962888 309.601491 0.00485723 309.601491 C -170.989524 309.601491 -309.595302 170.995713 -309.595302 0.00133175 C -309.595302 -170.99305 -170.989524 -309.598827 0.00485723 -309.598827 Z M 0.00485723 -309.598827 " stroke="#000000" stroke-width="3" stroke-opacity="1" stroke-miterlimit="4"/><path stroke-linecap="round" transform="matrix(0.10746, 0, 0, 0.10746, 44.608853, 52.066263)" fill-opacity="1" fill="#f4f4f4" fill-rule="nonzero" stroke-linejoin="round" d="M 0.00485723 -288.22453 C 159.185214 -288.22453 288.230719 -159.179025 288.230719 0.00133175 C 288.230719 159.181688 159.185214 288.227193 0.00485723 288.227193 C -159.175499 288.227193 -288.221004 159.181688 -288.221004 0.00133175 C -288.221004 -159.179025 -159.175499 -288.22453 0.00485723 -288.22453 Z M 0.00485723 -288.22453 " stroke="#000000" stroke-width="3" stroke-opacity="1" stroke-miterlimit="4"/><path stroke-linecap="round" transform="matrix(0.10746, 0, 0, 0.10746, 0.48387, 2.804385)" fill="none" stroke-linejoin="round" d="M 161.511515 458.423341 C 161.511515 458.423341 188.011282 458.423341 188.011282 458.423341 " stroke="#000000" stroke-width="3" stroke-opacity="1" stroke-miterlimit="4"/><path stroke-linecap="round" transform="matrix(0.10746, 0, 0, 0.10746, 0.48387, 2.804385)" fill="none" stroke-linejoin="round" d="M 633.200098 458.423341 C 633.200098 458.423341 659.736216 458.423341 659.736216 458.423341 " stroke="#000000" stroke-width="3" stroke-opacity="1" stroke-miterlimit="4"/><path stroke-linecap="round" transform="matrix(0.10746, 0, 0, 0.10746, 0.48387, 2.804385)" fill="none" stroke-linejoin="round" d="M 403.680854 712.552109 C 403.680854 712.552109 403.680854 686.015991 403.680854 686.015991 " stroke="#000000" stroke-width="3" stroke-opacity="1" stroke-miterlimit="4"/><path stroke-linecap="round" transform="matrix(0.10746, 0, 0, 0.10746, 0.48387, 2.804385)" fill="none" stroke-linejoin="round" d="M 403.680854 230.830692 C 403.680854 230.830692 403.680854 204.294574 403.680854 204.294574 " stroke="#000000" stroke-width="3" stroke-opacity="1" stroke-miterlimit="4"/><path stroke-linecap="round" transform="matrix(0.107343, 0.00499939, -0.00499939, 0.107343, 34.443607, 47.459255)" fill-opacity="1" fill="#f4f4f4" fill-rule="nonzero" stroke-linejoin="round" d="M 103.357617 39.707183 C 103.357617 39.707183 101.788856 43.528442 101.788856 43.528442 C 100.485219 46.7915 96.773088 48.347218 93.510031 47.043581 C 93.510031 47.043581 -99.84732 -31.433182 -99.84732 -31.433182 C -103.110377 -32.736819 -104.666095 -36.448949 -103.362458 -39.712007 C -103.362458 -39.712007 -101.793697 -43.533266 -101.793697 -43.533266 C -100.49006 -46.796324 -96.77793 -48.352042 -93.514872 -47.048405 C -93.514872 -47.048405 99.842478 31.428358 99.842478 31.428358 C 103.105536 32.731995 104.661254 36.444126 103.357617 39.707183 Z M 103.357617 39.707183 " stroke="#000000" stroke-width="3" stroke-opacity="1" stroke-miterlimit="4"/><path stroke-linecap="round" transform="matrix(0.10746, 0, 0, 0.10746, 44.608853, 43.943814)" fill-opacity="1" fill="#f4f4f4" fill-rule="nonzero" stroke-linejoin="round" d="M 2.076855 84.020752 C 2.076855 84.020752 -2.067141 84.020752 -2.067141 84.020752 C -5.556822 84.020752 -8.428539 81.149035 -8.428539 77.659354 C -8.428539 77.659354 -8.428539 -77.631462 -8.428539 -77.631462 C -8.428539 -81.157494 -5.556822 -83.99286 -2.067141 -83.99286 C -2.067141 -83.99286 2.076855 -83.99286 2.076855 -83.99286 C 5.566537 -83.99286 8.401903 -81.157494 8.401903 -77.631462 C 8.401903 -77.631462 8.401903 77.659354 8.401903 77.659354 C 8.401903 81.149035 5.566537 84.020752 2.076855 84.020752 Z M 2.076855 84.020752 " stroke="#000000" stroke-width="3" stroke-opacity="1" stroke-miterlimit="4"/><path stroke-linecap="round" transform="matrix(0.10746, 0, 0, 0.10746, 44.608853, 52.066154)" fill-opacity="1" fill="#f99716" fill-rule="nonzero" stroke-linejoin="round" d="M 0.00485723 -18.50023 C 10.219445 -18.50023 18.507438 -10.212237 18.507438 0.00235082 C 18.507438 10.216939 10.219445 18.504932 0.00485723 18.504932 C -10.209731 18.504932 -18.497724 10.216939 -18.497724 0.00235082 C -18.497724 -10.212237 -10.209731 -18.50023 0.00485723 -18.50023 Z M 0.00485723 -18.50023 " stroke="#000000" stroke-width="3" stroke-opacity="1" stroke-miterlimit="4"/><path stroke-linecap="butt" transform="matrix(0.10746, 0, 0, 0.10746, 10.604528, 74.878983)" fill-opacity="1" fill="#f4f4f4" fill-rule="nonzero" stroke-linejoin="miter" d="M 28.217009 -0.000714926 C 28.217009 15.557447 15.566914 28.207542 0.00875183 28.207542 C -15.585761 28.207542 -28.199505 15.557447 -28.199505 -0.000714926 C -28.199505 -15.558877 -15.585761 -28.208972 0.00875183 -28.208972 C 15.566914 -28.208972 28.217009 -15.558877 28.217009 -0.000714926 Z M 28.217009 -0.000714926 " stroke="#000000" stroke-width="3" stroke-opacity="1" stroke-miterlimit="10"/><path fill="#f99716" d="M 99.601562 32.976562 C 99.601562 32.976562 94.847656 41.214844 94.847656 41.214844 C 94.847656 41.214844 104.359375 41.214844 104.359375 41.214844 C 104.359375 41.214844 99.601562 32.976562 99.601562 32.976562 Z M 99.601562 32.976562 " fill-opacity="1" fill-rule="nonzero"/><path stroke-linecap="butt" transform="matrix(0.10746, 0, 0, 0.10746, 102.471692, 38.782745)" fill="none" stroke-linejoin="miter" d="M 0.00897266 -38.327706 C 0.00897266 -38.327706 -44.266358 38.336229 -44.266358 38.336229 C -44.266358 38.336229 44.247953 38.336229 44.247953 38.336229 C 44.247953 38.336229 0.00897266 -38.327706 0.00897266 -38.327706 Z M 0.00897266 -38.327706 " stroke="#000000" stroke-width="3" stroke-opacity="1" stroke-miterlimit="10"/><path stroke-linecap="butt" transform="matrix(0.107343, 0.00499939, -0.00499939, 0.107343, 44.369217, 91.527587)" fill-opacity="1" fill="#000000" fill-rule="nonzero" stroke-linejoin="miter" d="M 0.0174926 -106.262613 C -58.679775 -106.258123 -106.245005 -58.664181 -106.242205 -0.00322553 C -106.237714 58.694042 -58.680084 106.260963 0.0171829 106.256472 C 58.678139 106.253673 106.24506 58.696043 106.240569 -0.0012246 C 106.23777 -58.66218 58.678448 -106.265413 0.0174926 -106.262613 Z M 0.0176104 85.950692 C -47.472042 85.942664 -85.946144 47.450543 -85.936425 -0.00279799 C -85.926705 -47.456139 -47.470896 -85.928549 0.0170651 -85.956833 C 47.470406 -85.947114 85.944508 -47.454993 85.934789 -0.00165213 C 85.925069 47.451689 47.46926 85.924099 0.0176104 85.950692 Z M 10.122214 -93.232446 C 10.122214 -93.232446 -10.145543 97.450275 -10.145543 97.450275 M -97.370753 -6.420795 C -97.370753 -6.420795 94.563277 11.023025 94.563277 11.023025 M -68.365144 65.518268 C -68.365144 65.518268 69.835561 -62.825619 69.835561 -62.825619 M -61.283005 -75.423508 C -61.283005 -75.423508 57.876545 75.759585 57.876545 75.759585 M -87.438783 39.623376 C -87.438783 39.623376 90.03406 -36.21892 90.03406 -36.21892 M -85.929796 -42.834433 C -85.929796 -42.834433 90.027568 49.589596 90.027568 49.589596 M -24.725773 -90.590513 C -24.725773 -90.590513 23.713286 89.978118 23.713286 89.978118 M -43.063734 89.958621 C -43.063734 89.958621 42.235779 -83.483512 42.235779 -83.483512 " stroke="#000000" stroke-width="3" stroke-opacity="1" stroke-miterlimit="10"/><path stroke-linecap="butt" transform="matrix(0.10746, 0.000091673, -0.000091673, 0.10746, 85.713791, 87.948658)" fill-opacity="1" fill="#000000" fill-rule="nonzero" stroke-linejoin="miter" d="M -0.00813788 -106.248335 C -58.678412 -106.234635 -106.257471 -58.683474 -106.243771 -0.0131998 C -106.230039 58.693425 -58.678909 106.236133 -0.00860403 106.258784 C 58.698021 106.245053 106.240729 58.693922 106.263349 -0.0127337 C 106.249648 -58.683008 58.698487 -106.262067 -0.00813788 -106.248335 Z M 0.0104119 85.938638 C -47.463806 85.942787 -85.955826 47.480065 -85.923625 0.0058161 C -85.927774 -47.468402 -47.465021 -85.924071 0.00919705 -85.92822 C 47.447064 -85.932338 85.939084 -47.469616 85.943233 0.00460128 C 85.947382 47.478819 47.448279 85.93452 0.0104119 85.938638 Z M 10.144877 -93.207039 C 10.144877 -93.207039 -10.157991 97.470534 -10.157991 97.470534 M -97.379626 -6.418513 C -97.379626 -6.418513 94.567777 11.011554 94.567777 11.011554 M -68.382962 65.53145 C -68.382962 65.53145 69.822579 -62.79593 69.822579 -62.79593 M -61.269406 -75.443248 C -61.269406 -75.443248 57.872285 75.747387 57.872285 75.747387 M -87.416558 39.629525 C -87.416558 39.629525 90.01996 -36.240682 90.01996 -36.240682 M -85.923804 -42.815495 C -85.923804 -42.815495 90.020474 49.583694 90.020474 49.583694 M -24.74972 -90.596359 C -24.74972 -90.596359 23.714597 89.953361 23.714597 89.953361 M -43.061913 89.973977 C -43.061913 89.973977 42.250973 -83.492398 42.250973 -83.492398 " stroke="#000000" stroke-width="3" stroke-opacity="1" stroke-miterlimit="10"/><path stroke-linecap="butt" transform="matrix(0.10746, 0, 0, 0.107457, 94.818523, 50.830163)" fill-opacity="1" fill="#f7f3eb" fill-rule="nonzero" stroke-linejoin="miter" d="M 35.640485 -6.925774 C 35.204275 -9.652146 28.915579 -10.851749 26.043862 -11.578781 C 21.536357 -12.742033 16.192782 -12.414869 11.612576 -11.615133 C 6.487106 -10.742694 1.725146 -9.07052 -2.455202 -6.744016 C -6.926356 -4.272106 -11.724668 -2.018306 -15.832313 0.744417 C -20.339818 3.725249 -24.992727 6.451621 -30.009143 8.996234 C -31.463177 9.723266 -36.406892 11.431792 -33.935035 12.340583 C -32.844509 12.740451 -29.354828 11.940715 -28.191601 11.83166 C -25.792445 11.686254 -23.42964 11.504496 -21.066835 11.213683 C -13.833017 10.341244 -6.635549 9.287047 0.63462 8.741773 C 8.304649 8.160147 16.192782 6.996895 23.644706 5.506479 C 25.389547 5.142963 28.006808 4.815798 29.460841 3.943359 C 31.169331 2.925514 32.223506 0.744417 33.27768 -0.564241 C 34.54996 -2.200064 36.403853 -4.962787 35.640485 -6.925774 Z M 35.640485 -6.925774 " stroke="#000000" stroke-width="3" stroke-opacity="1" stroke-miterlimit="10"/><path stroke-linecap="round" transform="matrix(0.10746, 0, 0, 0.107457, 60.841063, 53.225925)" fill-opacity="1" fill="#f99716" fill-rule="nonzero" stroke-linejoin="round" d="M -51.047932 -81.530748 C -51.047932 -81.530748 -104.520028 69.292111 -104.520028 69.292111 C -104.520028 69.292111 24.670881 81.506255 24.670881 81.506255 C 24.670881 81.506255 93.410331 -23.331809 93.410331 -23.331809 C 93.410331 -23.331809 104.497339 -81.530748 104.497339 -81.530748 C 104.497339 -81.530748 -51.047932 -81.530748 -51.047932 -81.530748 Z M -51.047932 -81.530748 " stroke="#000000" stroke-width="3" stroke-opacity="1" stroke-miterlimit="4"/><path stroke-linecap="round" transform="matrix(0.10746, 0, 0, 0.107457, 62.277587, 49.284065)" fill-opacity="1" fill="#f4f4f4" fill-rule="nonzero" stroke-linejoin="round" d="M -76.011883 -12.131286 C -76.011883 -12.131286 85.240472 -13.948867 85.240472 -13.948867 C 85.240472 -13.948867 80.551213 10.770233 80.551213 10.770233 C 80.551213 10.770233 -85.244998 13.932824 -85.244998 13.932824 C -85.244998 13.932824 -76.011883 -12.131286 -76.011883 -12.131286 Z M -76.011883 -12.131286 " stroke="#000000" stroke-width="3" stroke-opacity="1" stroke-miterlimit="4"/><path stroke-linecap="round" transform="matrix(0.10746, 0, 0, 0.107457, 63.934833, 43.773222)" fill-opacity="1" fill="#f99716" fill-rule="nonzero" stroke-linejoin="round" d="M -81.110266 -13.266331 C -81.110266 -13.266331 -90.379732 17.487137 -90.379732 17.487137 C -90.379732 17.487137 85.122155 16.760105 85.122155 16.760105 C 85.122155 16.760105 90.393027 -6.50493 90.393027 -6.50493 C 38.156861 -15.592834 -19.277476 -17.483119 -81.110266 -13.266331 Z M -81.110266 -13.266331 " stroke="#000000" stroke-width="3" stroke-opacity="1" stroke-miterlimit="4"/><path stroke-linecap="round" transform="matrix(0.10746, 0, 0, 0.107457, 44.377385, 91.525458)" fill-opacity="1" fill="#f4f4f4" fill-rule="nonzero" stroke-linejoin="round" d="M 22.151819 0.0175452 C 22.151819 12.231689 12.228038 22.15568 0.0141537 22.15568 C -12.236082 22.15568 -22.159863 12.231689 -22.159863 0.0175452 C -22.159863 -12.23295 -12.236082 -22.156941 0.0141537 -22.156941 C 12.228038 -22.156941 22.151819 -12.23295 22.151819 0.0175452 Z M 22.151819 0.0175452 " stroke="#000000" stroke-width="3" stroke-opacity="1" stroke-miterlimit="4"/><path stroke-linecap="round" transform="matrix(0.10746, 0, 0, 0.107457, 85.71411, 87.948637)" fill-opacity="1" fill="#f4f4f4" fill-rule="nonzero" stroke-linejoin="round" d="M 22.144497 0.00541655 C 22.144497 12.21956 12.220716 22.143551 0.0068314 22.143551 C -12.243404 22.143551 -22.167185 12.21956 -22.167185 0.00541655 C -22.167185 -12.245078 -12.243404 -22.16907 0.0068314 -22.16907 C 12.220716 -22.16907 22.144497 -12.245078 22.144497 0.00541655 Z M 22.144497 0.00541655 " stroke="#000000" stroke-width="3" stroke-opacity="1" stroke-miterlimit="4"/><path stroke-linecap="round" transform="matrix(0.10746, 0, 0, 0.107457, 70.454843, 70.566861)" fill-opacity="1" fill="#f99716" fill-rule="nonzero" stroke-linejoin="round" d="M 167.670464 -170.311559 C 167.670464 -170.311559 167.052499 -155.770912 167.052499 -155.770912 C 167.052499 -155.770912 182.792416 -155.371044 182.792416 -155.371044 C 182.792416 -155.371044 167.670464 -91.174088 167.670464 -91.174088 C 167.670464 -91.174088 -146.909761 21.007002 -146.909761 21.007002 C -146.909761 21.007002 -122.591045 -23.814542 -122.591045 -23.814542 C -122.591045 -23.814542 -138.803523 -24.396167 -138.803523 -24.396167 C -138.803523 -24.396167 -222.701276 124.936276 -222.701276 124.936276 C -222.701276 124.936276 -193.766002 136.27798 -193.766002 136.27798 C -193.766002 136.27798 -155.706666 54.268732 -155.706666 54.268732 C -155.706666 54.268732 -50.143808 180.481547 -50.143808 180.481547 C -50.143808 180.481547 151.494337 -41.554131 151.494337 -41.554131 C 151.494337 -41.554131 142.006766 58.667278 142.006766 58.667278 C 142.006766 58.667278 166.688991 53.214535 166.688991 53.214535 C 166.688991 53.214535 180.284207 -58.748446 180.284207 -58.748446 C 180.284207 -58.748446 197.914368 -54.204494 197.914368 -54.204494 C 188.644902 -65.982417 189.335568 -80.704822 197.914368 -97.753731 C 197.914368 -97.753731 182.792416 -89.247452 182.792416 -89.247452 C 182.792416 -89.247452 200.059068 -158.351877 200.059068 -158.351877 C 200.059068 -158.351877 220.669998 -163.877322 220.669998 -163.877322 C 220.669998 -163.877322 222.705645 -180.490011 222.705645 -180.490011 C 222.705645 -180.490011 167.670464 -170.311559 167.670464 -170.311559 Z M -49.925703 149.655375 C -49.925703 149.655375 -144.874114 38.855646 -144.874114 38.855646 C -144.874114 38.855646 161.454469 -74.743157 161.454469 -74.743157 C 161.454469 -74.743157 -49.925703 149.655375 -49.925703 149.655375 Z M -49.925703 149.655375 " stroke="#000000" stroke-width="3" stroke-opacity="1" stroke-miterlimit="4"/><path stroke-linecap="butt" transform="matrix(0.10746, 0, 0, 0.107457, 50.771124, 74.957033)" fill-opacity="1" fill="#f99716" fill-rule="nonzero" stroke-linejoin="miter" d="M 17.906142 -18.139469 C 17.906142 -18.139469 4.965241 -20.902192 4.965241 -20.902192 C 4.965241 -20.902192 -17.899442 16.430919 -17.899442 16.430919 C -17.899442 16.430919 -4.049769 20.902168 -4.049769 20.902168 C -4.049769 20.902168 17.906142 -18.139469 17.906142 -18.139469 Z M 17.906142 -18.139469 " stroke="#000000" stroke-width="3" stroke-opacity="1" stroke-miterlimit="10"/><path stroke-linecap="round" transform="matrix(0.10746, 0, 0, 0.107457, 86.071411, 82.735229)" fill-opacity="1" fill="#f4f4f4" fill-rule="nonzero" stroke-linejoin="round" d="M 3.370405 40.669516 C 5.224298 42.5598 6.351174 45.140765 6.351174 48.012542 C 6.351174 53.828801 1.625564 58.554511 -4.190571 58.554511 C -10.043057 58.554511 -14.768668 53.828801 -14.768668 48.012542 C -14.768668 44.341029 -12.914774 41.105735 -10.079408 39.215451 C -10.079408 39.215451 2.098125 -55.771325 2.098125 -55.771325 C 2.098125 -55.771325 14.74822 -58.570399 14.74822 -58.570399 C 14.74822 -58.570399 3.370405 40.669516 3.370405 40.669516 Z M 3.370405 40.669516 " stroke="#000000" stroke-width="3" stroke-opacity="1" stroke-miterlimit="4"/><path stroke-linecap="round" transform="matrix(0.10746, 0, 0, 0.107457, 46.030327, 88.379538)" fill-opacity="1" fill="#f4f4f4" fill-rule="nonzero" stroke-linejoin="round" d="M -5.916596 24.604164 C -5.480386 25.694712 -5.262281 26.821612 -5.262281 28.021216 C -5.262281 33.255848 -9.51533 37.472636 -14.713501 37.472636 C -19.948023 37.472636 -24.164721 33.255848 -24.164721 28.021216 C -24.164721 23.186451 -20.493286 19.187773 -15.804026 18.67885 C -15.804026 18.67885 13.131247 -37.484398 13.131247 -37.484398 C 13.131247 -37.484398 24.145554 -33.158556 24.145554 -33.158556 C 24.145554 -33.158556 -5.916596 24.604164 -5.916596 24.604164 Z M -5.916596 24.604164 " stroke="#000000" stroke-width="3" stroke-opacity="1" stroke-miterlimit="4"/><path stroke-linecap="butt" transform="matrix(0.10746, 0, 0, 0.107457, 97.2613, 51.565923)" fill-opacity="1" fill="#000000" fill-rule="nonzero" stroke-linejoin="miter" d="M -26.750328 -6.393387 C -26.750328 -6.393387 -28.785976 15.490286 -28.785976 15.490286 C -28.785976 15.490286 25.485838 6.256976 25.485838 6.256976 C 25.485838 6.256976 28.757414 -15.481291 28.757414 -15.481291 C 28.757414 -15.481291 -26.750328 -6.393387 -26.750328 -6.393387 Z M -26.750328 -6.393387 " stroke="#000000" stroke-width="3" stroke-opacity="1" stroke-miterlimit="10"/><path stroke-linecap="butt" transform="matrix(0.10746, 0, 0, 0.107457, 57.941047, 66.867212)" fill-opacity="1" fill="#f4f4f4" fill-rule="nonzero" stroke-linejoin="miter" d="M -38.274094 -10.869365 C -43.181459 -7.088797 -43.944826 0.47234 -40.964057 5.961434 C -38.019638 11.450528 -32.130801 14.940283 -26.06021 16.467051 C -19.953268 18.030171 -13.59187 17.884764 -7.303173 17.703006 C 4.801659 17.412193 16.942841 17.085029 29.084024 16.794216 C 32.028443 16.721513 35.009212 16.612458 37.735525 15.521909 C 40.425488 14.431361 42.788293 12.104857 43.042749 9.233079 C 43.95152 -1.018077 15.706913 -8.361103 7.709726 -10.796662 C -3.449984 -14.213714 -28.386664 -18.030633 -38.274094 -10.869365 Z M -38.274094 -10.869365 " stroke="#000000" stroke-width="3" stroke-opacity="1" stroke-miterlimit="10"/><path stroke-linecap="round" transform="matrix(0.10746, 0, 0, 0.107457, 92.06508, 62.400953)" fill-opacity="1" fill="#f4f4f4" fill-rule="nonzero" stroke-linejoin="round" d="M -3.186537 -21.761677 C 12.371626 -21.761677 12.371626 21.78756 -3.186537 21.78756 C -11.838038 10.409504 -12.383301 -3.913033 -3.186537 -21.761677 Z M -3.186537 -21.761677 " stroke="#000000" stroke-width="3" stroke-opacity="1" stroke-miterlimit="4"/><path stroke-linecap="round" transform="matrix(0.10746, 0, 0, 0.107457, 67.372682, 54.226782)" fill-opacity="1" fill="#f4f4f4" fill-rule="nonzero" stroke-linejoin="round" d="M 40.407364 -101.132241 C 34.663931 -98.914792 28.811444 -95.970311 22.813555 -92.553259 C -23.824581 -66.125633 -61.665812 -25.738987 -89.801368 19.882293 C -102.233357 40.021089 -114.847101 65.68533 -106.886265 89.786452 C -100.852025 108.107668 -89.292456 106.071977 -73.079978 105.744812 C -27.786824 104.836022 12.271809 100.728289 49.567778 71.792402 C 75.376879 51.799013 94.75188 23.808267 105.111871 -7.126959 C 109.728428 -20.940573 114.853898 -38.425701 113.254461 -53.148106 C 111.618672 -68.124972 99.332086 -78.703293 90.244375 -89.608778 C 75.267826 -107.602829 58.473735 -108.111751 40.407364 -101.132241 Z M 40.407364 -101.132241 " stroke="#000000" stroke-width="3" stroke-opacity="1" stroke-miterlimit="4"/><path stroke-linecap="round" transform="matrix(0.10746, 0, 0, 0.107457, 72.499146, 46.185855)" fill-opacity="1" fill="#000000" fill-rule="nonzero" stroke-linejoin="round" d="M -0.900826 -28.484363 C 3.570328 -29.647615 8.913903 -28.811528 11.785619 -25.176366 C 14.511933 -21.759314 14.36653 -16.960901 13.930319 -12.635058 C 12.694391 -0.384563 10.040779 11.684173 6.042186 23.280339 C 5.097064 26.043062 3.533977 29.205653 0.62591 29.460114 C -1.300685 29.641872 -3.154578 28.333214 -4.136051 26.66104 C -5.153875 24.988865 -5.481033 23.025878 -5.80819 21.099242 C -7.262224 12.447557 -8.716258 3.832224 -10.170292 -4.819461 C -10.97001 -9.690577 -14.496042 -18.669427 -10.715554 -22.995269 C -8.82531 -25.140015 -3.845244 -28.484363 -0.900826 -28.484363 Z M -0.900826 -28.484363 " stroke="#000000" stroke-width="3" stroke-opacity="1" stroke-miterlimit="4"/><path stroke-linecap="butt" transform="matrix(0.10746, 0, 0, 0.107457, 78.356024, 55.039377)" fill-opacity="1" fill="#f7f3eb" fill-rule="nonzero" stroke-linejoin="miter" d="M -91.572946 -16.143045 C -87.610703 -11.017467 -83.503058 -6.000944 -79.28636 -1.093476 C -66.636265 13.592578 -52.931996 27.260786 -38.318956 39.72939 C -38.100851 39.911149 -37.882745 40.092907 -37.62829 40.274665 C -34.356713 43.037388 -30.721629 45.654704 -26.577632 45.618352 C -22.651741 45.582001 -19.16206 43.146442 -15.926834 40.783587 C 11.590757 20.60844 39.144698 0.469644 66.662289 -19.705504 C 66.662289 -19.705504 91.380864 -13.852893 91.380864 -13.852893 C 91.59897 -18.796713 90.144936 -33.228305 86.255395 -35.991028 C 81.166277 -39.553486 74.659475 -45.042581 68.87969 -42.897835 C 59.42847 -39.40808 50.558864 -35.482105 42.016415 -31.228966 C 29.875232 -25.230949 18.424716 -18.5059 7.01055 -11.199225 C -3.567546 -4.437824 -14.145643 2.796147 -25.305353 10.429987 C -35.665344 -8.291096 -45.988984 -26.975827 -56.348975 -45.660558 C -56.348975 -45.660558 -91.572946 -16.143045 -91.572946 -16.143045 Z M -91.572946 -16.143045 " stroke="#000000" stroke-width="3" stroke-opacity="1" stroke-miterlimit="10"/><path stroke-linecap="butt" transform="matrix(0.10746, 0, 0, 0.107457, 78.385789, 55.152422)" fill-opacity="1" fill="#f4f4f4" fill-rule="nonzero" stroke-linejoin="miter" d="M -18.021366 4.652279 C -16.349227 6.25175 -14.604387 7.851221 -13.768317 9.959615 C -13.186704 11.41368 -13.114002 13.049503 -12.568739 14.539919 C -12.023476 16.030335 -10.787548 17.448048 -9.18811 17.448048 C -6.970709 17.448048 -5.843833 14.867084 -5.189517 12.75869 C -3.517378 7.524057 -0.863767 1.889556 4.261703 -0.109783 C 6.697209 -1.018573 9.496225 -1.054925 11.786328 -2.29088 C 16.511938 -4.835493 18.038674 -12.542036 15.712219 -17.449504 C 3.970896 -10.688103 -7.04341 -3.308725 -18.021366 4.652279 Z M -18.021366 4.652279 " stroke="#000000" stroke-width="3" stroke-opacity="1" stroke-miterlimit="10"/><path stroke-linecap="butt" transform="matrix(0.10746, 0, 0, 0.107457, 72.74072, 56.04883)" fill-opacity="1" fill="#f4f4f4" fill-rule="nonzero" stroke-linejoin="miter" d="M -27.031372 -10.48746 C -14.381277 4.198594 -0.677008 17.866802 13.936032 30.335406 C 14.154137 30.517164 14.372243 30.698922 14.626699 30.880681 C 16.880451 30.953384 19.134203 30.844329 21.351605 30.553516 C 23.496305 30.262703 26.040864 29.462968 26.549776 27.354574 C 27.022337 25.427938 25.4229 23.574006 23.787112 22.483457 C 19.570414 19.648031 14.335892 18.811944 9.755685 16.594495 C 5.175478 14.413398 0.95878 9.760391 2.049306 4.816571 C 2.703621 1.944793 5.102777 -0.854281 4.012251 -3.617004 C 2.921726 -6.307024 -0.74971 -6.779595 -2.821708 -8.851637 C -7.692721 -13.686402 -1.149569 -23.392284 -5.766126 -28.48151 C -7.947177 -30.844365 -11.836718 -30.95342 -14.708435 -29.463004 C -17.543801 -27.972588 -19.579448 -25.282568 -21.251587 -22.519845 C -23.468989 -18.884683 -25.722741 -14.704247 -27.031372 -10.48746 Z M -27.031372 -10.48746 " stroke="#000000" stroke-width="3" stroke-opacity="1" stroke-miterlimit="10"/><path stroke-linecap="butt" transform="matrix(0.10746, 0, 0, 0.107457, 85.341436, 53.92644)" fill-opacity="1" fill="#000000" fill-rule="nonzero" stroke-linejoin="miter" d="M -29.786163 -4.33197 C -29.786163 -4.33197 -28.804691 19.696449 -28.804691 19.696449 C -28.804691 19.696449 28.084384 3.047408 28.084384 3.047408 C 28.084384 3.047408 29.792874 -19.708704 29.792874 -19.708704 C 29.792874 -19.708704 -29.786163 -4.33197 -29.786163 -4.33197 Z M -29.786163 -4.33197 " stroke="#000000" stroke-width="3" stroke-opacity="1" stroke-miterlimit="10"/><path stroke-linecap="round" transform="matrix(0.10746, 0, 0, 0.107457, 70.362312, 49.144157)" fill-opacity="1" fill="#f4f4f4" fill-rule="nonzero" stroke-linejoin="round" d="M -22.455808 -29.368623 C -31.325414 -18.099622 -35.178604 -3.231811 -33.797272 11.018023 C -32.41594 25.304209 -26.054542 38.899714 -16.676023 49.732495 C -3.444315 34.174003 15.130967 23.232167 35.160284 19.233489 C 25.709064 6.146907 20.801699 -10.211321 21.492365 -26.351439 C 21.964926 -37.184221 20.656296 -49.725529 7.024729 -47.180916 C -4.571191 -45.03617 -15.149288 -38.638286 -22.455808 -29.368623 Z M -22.455808 -29.368623 " stroke="#000000" stroke-width="3" stroke-opacity="1" stroke-miterlimit="4"/><path stroke-linecap="round" transform="matrix(0.10746, 0, 0, 0.107457, 64.60237, 88.604657)" fill-opacity="1" fill="#f4f4f4" fill-rule="nonzero" stroke-linejoin="round" d="M -0.00751609 -34.017558 C -18.764553 -34.017558 -34.031908 -18.78623 -34.031908 0.00755608 C -34.031908 18.764991 -18.764553 34.03267 -0.00751609 34.03267 C 18.785872 34.03267 34.016876 18.764991 34.016876 0.00755608 C 34.016876 -18.78623 18.785872 -34.017558 -0.00751609 -34.017558 Z M -0.00751609 21.527713 C -11.894243 21.527713 -21.527217 11.894535 -21.527217 0.00755608 C -21.527217 -11.879423 -11.894243 -21.512601 -0.00751609 -21.512601 C 11.879211 -21.512601 21.512185 -11.879423 21.512185 0.00755608 C 21.512185 11.894535 11.879211 21.527713 -0.00751609 21.527713 Z M -0.00751609 21.527713 " stroke="#000000" stroke-width="3" stroke-opacity="1" stroke-miterlimit="4"/><path stroke-linecap="butt" transform="matrix(0.10746, 0, 0, 0.107457, 85.82351, 53.080216)" fill-opacity="1" fill="#f7f3eb" fill-rule="nonzero" stroke-linejoin="miter" d="M -34.272251 3.543003 C -31.327832 2.852323 -6.31845 -6.453691 -4.60996 -4.16354 C -3.264979 -2.309607 -3.374032 3.979223 -4.064698 6.014913 C -5.773187 10.958733 -9.044764 16.011608 -11.153113 20.882725 C -13.588619 26.444522 -10.17164 23.318283 -6.718309 22.554899 C -5.88224 22.373141 -5.409679 23.063822 -4.573609 22.882064 C -3.519435 22.591251 -2.937821 21.864218 -1.992699 21.500702 C -0.465964 20.955428 1.206175 20.591912 2.841963 20.373802 C 5.895434 19.901231 9.348765 19.028792 11.638868 17.029453 C 16.727987 12.630908 16.00097 0.707577 17.273249 -5.617604 C 17.854863 -8.562085 17.782161 -8.67114 20.690229 -9.79804 C 22.144263 -10.343314 29.269029 -12.48806 30.432256 -14.087531 C 32.613306 -17.177419 34.285445 -23.393545 21.889807 -19.722032 C 14.72869 -17.577286 12.911148 -23.866116 8.112836 -25.029368 C 2.333051 -26.447081 -3.083225 -25.102071 -8.354097 -22.884622 C -11.88013 -21.394206 -24.239417 -14.341992 -32.054849 -10.706831 " stroke="#000000" stroke-width="3" stroke-opacity="1" stroke-miterlimit="10"/><path stroke-linecap="butt" transform="matrix(0.10746, 0, 0, 0.107457, 96.767516, 51.453952)" fill-opacity="1" fill="#f7f3eb" fill-rule="nonzero" stroke-linejoin="miter" d="M -6.778858 -15.747943 C -7.215068 -14.948208 -7.687629 -14.148472 -8.450997 -13.675901 C -9.941382 -12.803462 -11.613521 -12.221837 -13.212958 -11.676562 C -14.885097 -11.131288 -17.320604 -11.349398 -18.083971 -9.531817 C -20.301373 -4.188129 -11.250012 -5.533139 -9.105312 -6.042062 C -7.978436 -6.296523 -3.252826 -8.404917 -2.380406 -7.786939 C -1.398933 -7.059907 -2.162301 -2.843119 -2.053248 -1.607164 C -1.544336 3.263952 -1.68974 6.35384 -4.125246 11.07955 C -4.670509 12.170099 -7.28777 15.877963 -6.560753 16.968512 C -5.761034 18.168115 -4.379702 17.477435 -3.107423 16.786754 C -2.12595 16.205128 -0.890021 16.423238 -0.126653 17.295677 C 0.200504 17.622841 0.527662 17.840951 1.109276 17.913654 C 2.672362 18.095412 3.799238 16.205128 5.071518 15.768909 C 6.162043 15.441744 7.252569 15.877963 8.488497 15.768909 C 9.360918 15.732557 9.978882 15.405392 10.560496 15.041876 C 11.287513 14.569305 12.196284 14.569305 12.996002 14.932821 C 14.450036 15.623502 16.085824 8.971156 16.231228 8.462234 C 17.757963 3.336656 19.248348 -1.098242 19.902663 -6.441929 C 20.120768 -7.968697 20.302522 -8.25951 19.684558 -9.60452 C 18.957541 -11.203991 17.394455 -13.094275 16.376631 -14.621043 C 14.377335 -17.529173 11.541968 -18.14715 8.16134 -18.14715 C 4.780711 -18.110799 1.072925 -17.856337 -2.235002 -17.492821 C -3.616334 -17.311063 -6.342648 -16.511327 -6.778858 -15.747943 Z M -6.778858 -15.747943 " stroke="#000000" stroke-width="3" stroke-opacity="1" stroke-miterlimit="10"/><path stroke-linecap="round" transform="matrix(0.10746, -0.000104762, 0.000104762, 0.10746, 67.483541, 63.119651)" fill-opacity="1" fill="#000000" fill-rule="nonzero" stroke-linejoin="round" d="M -47.915433 -24.206611 C -61.188306 -19.275833 -74.389683 -13.109056 -84.395907 -3.122323 C -89.890269 2.397653 -94.477455 9.554301 -94.194197 17.297312 C -93.875509 25.985479 -87.339695 33.51648 -79.527952 37.304586 C -71.716245 41.129043 -62.774613 41.828426 -54.086977 42.055001 C -9.231044 43.116555 36.473362 31.456134 73.321774 5.828346 C 80.56048 0.818983 87.727334 -5.06287 91.261232 -13.129317 C 94.467335 -20.541768 93.642641 -32.2112 87.068634 -37.851993 C 80.966797 -43.092466 67.988098 -41.614734 60.536425 -41.876454 C 37.054533 -42.662715 13.533419 -40.504594 -9.408846 -35.510541 C -22.497945 -32.651583 -35.369825 -28.883642 -47.915433 -24.206611 Z M -47.915433 -24.206611 " stroke="#000000" stroke-width="3" stroke-opacity="1" stroke-miterlimit="4"/><path stroke-linecap="butt" transform="matrix(0.10746, -0.0000982147, 0.0000982147, 0.10746, 77.497849, 40.21281)" fill-opacity="1" fill="#000000" fill-rule="nonzero" stroke-linejoin="miter" d="M -10.696583 -7.551827 C -11.28288 -2.426891 -8.416048 2.919306 -3.801652 5.286329 C -6.055969 5.902234 -7.403342 8.518264 -7.07831 10.845017 C -6.753279 13.171769 -5.046584 15.136275 -3.012001 16.301363 C -0.977384 17.430099 1.384988 17.904819 3.711176 18.197752 C 5.964662 18.490619 8.618273 18.493044 10.110218 16.785917 C 11.274707 15.405649 11.276501 13.442704 11.241779 11.66148 C 11.101923 5.590758 10.962168 -0.589017 8.931738 -6.297958 C 7.481492 -10.443282 3.634716 -17.462515 -1.381234 -17.976011 C -6.288132 -18.489408 -10.256652 -11.622722 -10.696583 -7.551827 Z M -10.696583 -7.551827 " stroke="#000000" stroke-width="3" stroke-opacity="1" stroke-miterlimit="10"/><path stroke-linecap="butt" transform="matrix(0.10746, 0, 0, 0.10746, 78.026119, 43.257364)" fill-opacity="1" fill="#f7f3eb" fill-rule="nonzero" stroke-linejoin="miter" d="M -28.233206 17.707033 C -27.50619 26.394885 -22.453422 34.610176 -15.001498 39.190383 C -9.766976 42.425608 -2.533158 43.661537 2.265154 39.808347 C 5.609432 37.154735 6.954413 32.792634 8.408447 28.75769 C 9.571674 25.595166 10.916655 22.505344 12.479742 19.524575 C 14.079179 16.398402 15.896721 13.344931 17.896018 10.436863 C 20.98584 5.929358 25.856853 1.458204 26.765624 -4.176177 C 28.546816 -14.790624 18.00507 -28.531244 12.007181 -36.346676 C 9.280867 -39.909059 4.918766 -43.653196 0.81112 -41.835654 C -1.151826 -40.963234 -2.387755 -39.000288 -3.47828 -37.146395 C -7.33147 -30.784997 -11.22101 -24.387248 -15.0742 -18.025849 C -15.655814 -17.008026 -16.273778 -16.026553 -16.891742 -15.008729 C -17.109847 -14.60887 -17.400654 -14.17266 -17.65511 -13.73645 C -21.762756 -6.90249 -25.7977 0.367679 -27.50619 7.965006 C -28.233206 11.16388 -28.524013 14.399106 -28.233206 17.707033 Z M -28.233206 17.707033 " stroke="#000000" stroke-width="3" stroke-opacity="1" stroke-miterlimit="10"/><path stroke-linecap="butt" transform="matrix(0.10746, 0, 0, 0.10746, 76.389623, 44.337227)" fill-opacity="1" fill="#f4f4f4" fill-rule="nonzero" stroke-linejoin="miter" d="M -12.277258 -2.084001 C -11.513891 -0.775371 -10.605119 0.460558 -9.732699 1.696487 C -5.47965 7.730727 -1.226601 13.801318 3.026448 19.835559 C 4.335078 21.689452 6.443428 23.797801 8.515426 22.852679 C 9.5696 22.380118 10.151214 21.325944 10.514722 20.235418 C 12.295914 15.437106 11.205388 9.657322 7.82476 5.804132 C 5.861814 3.586731 3.09915 1.732837 2.517536 -1.138879 C 1.863221 -4.228701 3.898868 -7.209471 4.40778 -10.299293 C 5.098446 -14.515991 2.044975 -21.531704 -2.426179 -23.785457 C -6.497474 -16.951498 -10.568769 -9.681328 -12.277258 -2.084001 Z M -12.277258 -2.084001 " stroke="#000000" stroke-width="3" stroke-opacity="1" stroke-miterlimit="10"/><path stroke-linecap="butt" transform="matrix(0.10746, -0.0000982147, 0.0000982147, 0.10746, 82.094443, 39.162171)" fill-opacity="1" fill="#f7f3eb" fill-rule="nonzero" stroke-linejoin="miter" d="M -40.080669 17.029522 C -38.128123 28.409127 -31.631258 39.283973 -21.640128 45.145594 C -11.649031 51.043565 1.800644 51.201261 11.185339 44.448578 C 11.221723 44.41226 11.294458 44.375976 11.330842 44.339658 C 18.64221 39.039114 22.794079 30.427755 25.491947 21.778715 C 26.403277 18.980531 27.169269 16.109513 27.935261 13.238495 C 29.503795 7.278387 31.035946 1.354597 33.549303 -4.27749 C 35.807706 -9.364547 38.901979 -14.232734 39.743098 -19.757297 C 41.352302 -30.44298 33.691978 -41.064433 23.772121 -45.362902 C 10.25496 -51.227745 -2.578512 -49.458282 -13.162452 -43.070203 C -22.618885 -37.371761 -30.333899 -27.927588 -35.142309 -16.88132 C -36.781519 -13.138679 -38.130088 -9.214018 -39.078864 -5.216291 C -40.8667 2.052248 -41.382555 9.649107 -40.080669 17.029522 Z M -40.080669 17.029522 " stroke="#000000" stroke-width="3" stroke-opacity="1" stroke-miterlimit="10"/><path stroke-linecap="butt" transform="matrix(0.10746, -0.0000982147, 0.0000982147, 0.10746, 80.931127, 36.973526)" fill-opacity="1" fill="#f4f4f4" fill-rule="nonzero" stroke-linejoin="miter" d="M 19.210854 5.861952 C 17.716117 10.622549 13.350097 14.907961 8.370332 14.576252 C 2.518213 14.171044 -2.274349 7.877964 -7.982626 9.181378 C -9.873268 9.61586 -11.473867 10.886678 -13.219538 11.793854 C -14.965209 12.70103 -17.146757 13.244299 -18.854316 12.224914 C -21.542816 10.623019 -20.775428 6.225266 -18.483399 4.11901 C -16.154985 1.976438 -12.91903 1.179676 -10.191256 -0.417269 C -6.990655 -2.304588 -4.588809 -5.246813 -2.005474 -7.898065 C 0.614244 -10.585635 3.706324 -13.054667 7.414574 -13.56019 C 17.375965 -14.932418 21.544151 -1.624193 19.210854 5.861952 Z M 19.210854 5.861952 " stroke="#000000" stroke-width="3" stroke-opacity="1" stroke-miterlimit="10"/><path stroke-linecap="butt" transform="matrix(0.10746, -0.0000982147, 0.0000982147, 0.10746, 83.568879, 42.078671)" fill-opacity="1" fill="#f4f4f4" fill-rule="nonzero" stroke-linejoin="miter" d="M -11.297848 6.636799 C -9.518717 8.892178 -7.703235 11.147591 -5.887753 13.403004 C -4.834809 14.748948 -3.672844 16.131343 -2.365178 17.186713 C 4.94619 11.88617 9.098059 3.27481 11.795928 -5.37423 C 12.707257 -8.172414 13.473249 -11.043432 14.239241 -13.91445 C 12.168971 -15.806587 9.589225 -17.081225 7.153786 -17.156152 C 4.209401 -17.195194 1.154171 -15.271391 0.533549 -12.363889 C -0.232975 -8.911258 2.307663 -4.619534 -0.166486 -2.113586 C -1.840153 -0.442975 -4.566067 -0.881677 -6.892154 -1.283663 C -9.181892 -1.685615 -12.126375 -1.615604 -13.182477 0.49178 C -14.238511 2.526464 -12.750253 4.854279 -11.297848 6.636799 Z M -11.297848 6.636799 " stroke="#000000" stroke-width="3" stroke-opacity="1" stroke-miterlimit="10"/><path stroke-linecap="butt" transform="matrix(0.10746, -0.0000982147, 0.0000982147, 0.10746, 82.290728, 35.810753)" fill-opacity="1" fill="#000000" fill-rule="nonzero" stroke-linejoin="miter" d="M -28.825039 21.509625 C -22.136087 21.079528 -16.241836 15.159724 -15.872215 8.471503 C -14.748927 12.398423 -11.116602 15.418865 -7.118708 16.185887 C -3.084463 16.952942 1.206165 15.611881 4.334728 12.997479 C 7.499643 10.383109 9.575096 6.604516 10.45117 2.606722 C 10.99434 4.897323 11.646528 7.224374 12.989715 9.188548 C 14.332935 11.116372 16.476239 12.645067 18.838943 12.756279 C 21.165297 12.867458 23.638649 11.23393 24.004317 8.871458 C 24.945385 13.307123 26.068041 17.924709 29.154839 21.235459 C 32.205319 24.509824 37.911203 25.82367 41.22192 22.773224 C 43.695836 20.521731 44.0628 16.741577 43.811401 13.397068 C 42.84242 -0.271742 34.166199 -13.002474 22.030835 -19.374967 C 9.895505 -25.78381 -5.226409 -25.833982 -17.627359 -20.029178 C -25.337058 -16.401138 -31.921808 -10.66372 -36.762814 -3.725129 C -39.23786 -0.237709 -41.277029 3.613619 -42.7711 7.647199 C -44.046536 11.099366 -42.195733 14.481688 -39.726202 17.028505 C -36.929846 19.93913 -32.896565 21.760359 -28.825039 21.509625 Z M -28.825039 21.509625 " stroke="#000000" stroke-width="3" stroke-opacity="1" stroke-miterlimit="10"/><path stroke-linecap="butt" transform="matrix(0.10746, -0.0000982147, 0.0000982147, 0.10746, 82.122707, 33.750472)" fill-opacity="1" fill="#f4f4f4" fill-rule="nonzero" stroke-linejoin="miter" d="M -22.646722 -16.273925 C -9.15249 -25.094852 9.169094 -25.914176 23.375359 -18.340213 C 29.806334 -14.917354 35.436095 -9.859438 38.992696 -3.531137 C 42.512912 2.833481 43.850883 10.504736 42.026896 17.555136 C 42.245665 16.828319 17.529126 14.588326 15.311758 14.549949 C 6.296918 14.359955 -2.755038 15.005998 -11.662387 16.524593 C -20.606054 18.006804 -29.441433 20.325184 -37.950385 23.443581 C -39.332182 23.95123 -42.205692 25.911551 -43.112835 24.129529 C -43.838522 22.674832 -43.181151 19.331153 -42.997935 17.731882 C -42.594255 13.551902 -41.609028 9.445155 -40.078705 5.52066 C -36.653654 -3.309469 -30.575921 -11.11935 -22.646722 -16.273925 Z M -22.646722 -16.273925 " stroke="#000000" stroke-width="3" stroke-opacity="1" stroke-miterlimit="10"/><path stroke-linecap="butt" transform="matrix(0.10746, -0.0000982147, 0.0000982147, 0.10746, 84.353921, 35.318957)" fill-opacity="1" fill="#f4f4f4" fill-rule="nonzero" stroke-linejoin="miter" d="M 29.977778 -11.228751 C 38.810798 -10.966222 47.897675 -10.049145 55.527364 -5.680068 C 59.124202 -3.604781 62.646645 0.324331 61.370612 4.430813 C 60.641502 6.720251 58.568009 8.354144 56.349977 9.042784 C 54.168296 9.731456 51.805558 9.656595 49.551973 9.472781 C 37.7752 8.480544 26.436929 4.980498 14.842841 2.970604 C -5.25598 -0.537449 -26.158739 0.570324 -46.084012 6.041093 C -51.501649 7.526527 -56.84768 10.211605 -62.26505 11.406232 C -62.661255 7.407275 -51.60791 4.472957 -48.735098 3.276004 C -42.66225 0.809696 -36.444264 -1.365673 -30.190226 -3.213851 C -17.6458 -6.910174 -4.811697 -9.370302 8.130263 -10.521701 C 15.401027 -11.169372 22.707777 -11.41715 29.977778 -11.228751 Z M 29.977778 -11.228751 " stroke="#000000" stroke-width="3" stroke-opacity="1" stroke-miterlimit="10"/><path stroke-linecap="butt" transform="matrix(0.10746, -0.0000982147, 0.0000982147, 0.10746, 77.45021, 38.176065)" fill-opacity="1" fill="#f7f3eb" fill-rule="nonzero" stroke-linejoin="miter" d="M 11.911729 2.334702 C 11.078882 -1.192093 10.209752 -4.791623 8.54057 -8.028375 C 6.871389 -11.265127 4.293137 -14.175553 0.877388 -15.523657 C -2.502043 -16.835377 -6.755589 -16.294001 -9.229871 -13.64265 C -11.776954 -10.882312 -11.926178 -6.702099 -11.602443 -2.957664 C -11.134533 2.131884 -9.903455 7.440236 -6.489966 11.260196 C -3.040125 15.08019 3.065187 16.866962 7.357144 14.071868 " stroke="#000000" stroke-width="3" stroke-opacity="1" stroke-miterlimit="10"/><path stroke-linecap="round" transform="matrix(0.10746, -0.0000130953, 0.0000130953, 0.10746, 64.428921, 92.988567)" fill-opacity="1" fill="#000000" fill-rule="nonzero" stroke-linejoin="round" d="M 27.63195 14.977255 C 27.63195 14.977255 -30.710148 6.682153 -30.710148 6.682153 C -30.710148 6.682153 -27.617686 -14.982575 -27.617686 -14.982575 C -27.617686 -14.982575 30.688061 -6.687477 30.688061 -6.687477 C 30.688061 -6.687477 27.63195 14.977255 27.63195 14.977255 Z M 27.63195 14.977255 " stroke="#000000" stroke-width="3" stroke-opacity="1" stroke-miterlimit="4"/><path stroke-linecap="butt" transform="matrix(0.10746, -0.0000130953, 0.0000130953, 0.10746, 65.297319, 81.684026)" fill-opacity="1" fill="#f7f3eb" fill-rule="nonzero" stroke-linejoin="miter" d="M 13.236724 -75.030558 C 13.236724 -75.030558 -48.03214 70.110905 -48.03214 70.110905 C -48.03214 70.110905 -17.388975 75.022004 -17.388975 75.022004 C -17.388975 75.022004 48.02299 -62.776084 48.02299 -62.776084 C 48.02299 -62.776084 13.236724 -75.030558 13.236724 -75.030558 Z M 13.236724 -75.030558 " stroke="#000000" stroke-width="3" stroke-opacity="1" stroke-miterlimit="10"/><path stroke-linecap="round" transform="matrix(0.10746, -0.0000130953, 0.0000130953, 0.10746, 63.556936, 85.463496)" fill-opacity="1" fill="#f4f4f4" fill-rule="nonzero" stroke-linejoin="round" d="M -0.270523 -39.864365 C -0.270523 -39.864365 31.826034 -29.682217 31.826034 -29.682217 C 31.826034 -29.682217 -1.189008 39.852929 -1.189008 39.852929 C -1.189008 39.852929 -31.832173 34.94183 -31.832173 34.94183 C -31.832173 34.94183 -0.270523 -39.864365 -0.270523 -39.864365 Z M -0.270523 -39.864365 " stroke="#000000" stroke-width="3" stroke-opacity="1" stroke-miterlimit="4"/><path stroke-linecap="butt" transform="matrix(0.10746, -0.0000130953, 0.0000130953, 0.10746, 64.954403, 82.448428)" fill-opacity="1" fill="#f99716" fill-rule="nonzero" stroke-linejoin="miter" d="M -13.278516 -11.80828 C -13.278516 -11.80828 -18.805488 1.67721 -18.805488 1.67721 C -18.805488 1.67721 12.418657 11.78655 12.418657 11.78655 C 12.418657 11.78655 18.818041 -1.626132 18.818041 -1.626132 C 18.818041 -1.626132 -13.278516 -11.80828 -13.278516 -11.80828 Z M -13.278516 -11.80828 " stroke="#000000" stroke-width="3" stroke-opacity="1" stroke-miterlimit="10"/><path stroke-linecap="round" transform="matrix(0.10746, -0.0000130953, 0.0000130953, 0.10746, 64.124287, 90.465552)" fill-opacity="1" fill="#f4f4f4" fill-rule="nonzero" stroke-linejoin="round" d="M -29.181145 -15.968172 C -27.036694 -13.932263 -24.8559 -11.823648 -22.166083 -10.623742 C -19.439912 -9.460183 -16.095647 -9.350723 -13.732625 -11.131626 C -9.806366 -14.148268 -9.95091 -21.20035 -5.297798 -22.871922 C -2.098786 -23.998408 1.390598 -21.562476 3.171435 -18.654192 C 4.952268 -15.709556 5.751566 -12.256128 7.71417 -9.456874 C 10.985175 -4.767216 16.873768 -2.767202 22.398911 -1.239793 C 27.924058 0.251265 33.849064 1.742372 37.810806 5.8505 C 41.518122 9.704142 42.716885 16.392843 39.081322 20.318292 C 35.62754 24.025657 29.775089 23.734137 24.758748 23.115562 C 5.529434 20.786764 -13.736173 17.985401 -32.347142 12.530506 C -36.200194 11.40316 -40.525741 9.730494 -41.942963 5.949834 C -42.706083 3.914093 -42.451348 1.624021 -42.196626 -0.556999 C -41.614455 -5.137134 -41.068638 -9.680924 -40.486467 -14.261059 C -40.231749 -16.405728 -39.649533 -21.349373 -37.06853 -22.112426 C -34.596589 -22.802791 -30.780388 -17.567804 -29.181145 -15.968172 Z M -29.181145 -15.968172 " stroke="#000000" stroke-width="3" stroke-opacity="1" stroke-miterlimit="4"/><path stroke-linecap="round" transform="matrix(0.10746, -0.0000130953, 0.0000130953, 0.10746, 69.305642, 72.54227)" fill-opacity="1" fill="#000000" fill-rule="nonzero" stroke-linejoin="round" d="M -41.101532 132.900185 C -37.066663 133.518641 -32.704588 133.737277 -28.996492 131.19317 C -25.61558 128.867128 -23.252256 124.614367 -21.034354 120.506992 C -6.999756 94.481496 7.034838 68.492351 21.069432 42.503206 C 38.88536 9.57151 56.73766 -23.541935 70.773446 -59.309458 C 74.955087 -69.923395 78.845983 -81.04628 79.75618 -92.751142 C 80.702729 -104.455999 78.196044 -116.960996 71.362962 -124.159296 C 62.312767 -133.720672 48.535521 -131.468598 37.266041 -125.581134 C 16.072156 -114.56941 -1.415232 -92.979139 -14.686263 -68.589338 C -27.920948 -44.163182 -37.41185 -16.828502 -46.793673 10.288086 C -54.502772 32.606566 -62.248222 54.925042 -69.957321 77.243522 C -73.011873 86.112757 -79.847387 98.871071 -80.321118 108.467637 C -80.68561 116.53748 -72.143626 120.35536 -67.636453 123.082223 C -59.530813 127.990575 -50.225492 132.063003 -41.101532 132.900185 Z M -41.101532 132.900185 " stroke="#000000" stroke-width="3" stroke-opacity="1" stroke-miterlimit="4"/></svg>