<svg width="102" height="197" viewBox="0 0 102 197" fill="none" xmlns="http://www.w3.org/2000/svg">
<g opacity="0.1">
<circle cx="12.4" cy="46" r="5.2" fill="white"/>
<circle cx="33.2" cy="46" r="5.2" fill="white"/>
<circle cx="54" cy="46" r="5.2" fill="white"/>
<circle cx="12.4" cy="66.8" r="5.2" fill="white"/>
<circle cx="33.2" cy="66.8" r="5.2" fill="white"/>
<circle cx="54" cy="66.8" r="5.2" fill="white"/>
<circle cx="75.2" cy="66.8" r="5.2" fill="white"/>
<circle cx="12.4" cy="87.6" r="5.2" fill="white"/>
<circle cx="33.2" cy="87.6" r="5.2" fill="white"/>
<circle cx="54" cy="87.6" r="5.2" fill="white"/>
<circle cx="75.6" cy="87.6" r="5.2" fill="white"/>
<circle cx="75.2" cy="87.6" r="5.2" fill="white"/>
<circle cx="96.4" cy="87.6" r="5.2" fill="white"/>
<circle cx="12.4" cy="108.4" r="5.2" fill="white"/>
<circle cx="33.2" cy="108.4" r="5.2" fill="white"/>
<circle cx="54" cy="108.4" r="5.2" fill="white"/>
<circle cx="75.6" cy="108.4" r="5.2" fill="white"/>
<circle cx="75.2" cy="108.4" r="5.2" fill="white"/>
<circle cx="96.4" cy="108.4" r="5.2" fill="white"/>
<circle cx="12.4" cy="129.2" r="5.2" fill="white"/>
<circle cx="33.2" cy="129.2" r="5.2" fill="white"/>
<circle cx="54" cy="129.2" r="5.2" fill="white"/>
<circle cx="75.2" cy="129.2" r="5.2" fill="white"/>
<circle cx="12.4" cy="150" r="5.2" fill="white"/>
<circle cx="33.2" cy="150" r="5.2" fill="white"/>
<circle cx="54" cy="150" r="5.2" fill="white"/>
<circle cx="12.4" cy="170.8" r="5.2" fill="white"/>
<circle cx="12.4" cy="191.2" r="5.2" fill="white"/>
<circle cx="33.2" cy="170.8" r="5.2" fill="white"/>
<circle cx="12.4" cy="25.2" r="5.2" fill="white"/>
<circle cx="12.4" cy="5.2" r="5.2" fill="white"/>
<circle cx="33.2" cy="25.2" r="5.2" fill="white"/>
</g>
</svg>
