<svg width="30" height="30" viewBox="0 0 30 30" fill="none" xmlns="http://www.w3.org/2000/svg">
<path d="M14.8931 16.6326C15.8094 16.6326 16.5521 15.8898 16.5521 14.9736C16.5521 14.0574 15.8094 13.3146 14.8931 13.3146C13.9769 13.3146 13.2341 14.0574 13.2341 14.9736C13.2341 15.8898 13.9769 16.6326 14.8931 16.6326Z" stroke="#6B6B6B" stroke-width="2" stroke-miterlimit="10"/>
<path d="M20.1191 8.76389L16.0604 13.6227" stroke="#6B6B6B" stroke-width="2" stroke-miterlimit="10" stroke-linecap="round"/>
<path d="M10.3485 11.0706L13.629 13.7457" stroke="#6B6B6B" stroke-width="2" stroke-miterlimit="10" stroke-linecap="round"/>
<path d="M26.2929 20.9052C27.2187 19.1325 27.7419 17.1135 27.7419 14.9742C27.7419 7.87771 21.9891 2.12491 14.8929 2.12491C7.7979 2.12491 2.0448 7.87771 2.0448 14.9742C2.0448 22.0689 7.7976 27.822 14.8929 27.822C16.1046 27.822 17.2758 27.6552 18.3867 27.3402" stroke="#6B6B6B" stroke-width="2" stroke-miterlimit="10" stroke-linecap="round"/>
<path d="M23.9244 28.0395C23.9244 28.3008 23.7774 28.431 23.4819 28.431H20.6793C20.5515 28.431 20.4507 28.3932 20.3775 28.3161C20.3031 28.2405 20.2662 28.146 20.2662 28.0332C20.2662 27.8853 20.3229 27.7524 20.436 27.6345L22.1175 25.8279C22.3239 25.602 22.4748 25.3947 22.5705 25.2051C22.6665 25.0158 22.7142 24.828 22.7142 24.6414C22.7142 24.4101 22.6485 24.2328 22.5156 24.1098C22.3833 23.9874 22.194 23.9253 21.9471 23.9253C21.7461 23.9253 21.5505 23.9643 21.3612 24.0405C21.1719 24.1164 20.9814 24.2211 20.7906 24.3537C20.7408 24.3873 20.6916 24.4161 20.6424 24.438C20.5938 24.4602 20.5446 24.471 20.4954 24.471C20.4117 24.471 20.3391 24.4326 20.2779 24.3534C20.2164 24.2751 20.1852 24.1812 20.1852 24.0732C20.1852 23.9991 20.1987 23.9355 20.2263 23.8809C20.2527 23.8269 20.2959 23.775 20.3553 23.7264C20.5716 23.5545 20.8242 23.4177 21.1146 23.3172C21.4047 23.2161 21.6942 23.1657 21.9846 23.1657C22.491 23.1657 22.8951 23.2935 23.1975 23.5494C23.4999 23.8047 23.6511 24.1491 23.6511 24.5817C23.6511 24.8811 23.5872 25.1628 23.4594 25.4256C23.331 25.6887 23.115 25.9821 22.8108 26.3064L21.5346 27.6636H23.4816C23.7774 27.6639 23.9244 27.7893 23.9244 28.0395ZM28.4442 26.7714C28.518 26.8359 28.5549 26.9265 28.5549 27.0444C28.5549 27.2901 28.4079 27.4131 28.1124 27.4131H27.7368V27.996C27.7368 28.1481 27.6933 28.266 27.6072 28.3494C27.5205 28.4328 27.4092 28.4751 27.2721 28.4751C27.1344 28.4751 27.0219 28.4328 26.9358 28.3494C26.8503 28.2663 26.8074 28.1481 26.8074 27.996V27.4131H24.8751C24.7422 27.4131 24.6396 27.375 24.5658 27.2991C24.492 27.2229 24.4551 27.1284 24.4551 27.015C24.4551 26.8971 24.4944 26.7843 24.573 26.6757L26.8518 23.4018C26.901 23.3331 26.9625 23.2803 27.0363 23.2434C27.1095 23.2065 27.1857 23.1876 27.2649 23.1876C27.3927 23.1876 27.5028 23.2299 27.5964 23.313C27.6903 23.397 27.7371 23.5152 27.7371 23.6673V26.6757H28.1127C28.2603 26.6757 28.371 26.7078 28.4442 26.7714ZM25.4361 26.6757H26.8077V24.6924L25.4361 26.6757Z" fill="#6B6B6B"/>
</svg>
