<svg width="34" height="34" viewBox="0 0 34 34" fill="none" xmlns="http://www.w3.org/2000/svg">
<path d="M15.0451 21.5528C15.0173 20.9861 14.7726 20.4518 14.3617 20.0606C13.9508 19.6693 13.4051 19.4511 12.8378 19.4511C12.2704 19.4511 11.7247 19.6693 11.3138 20.0606C10.9029 20.4518 10.6582 20.9861 10.6304 21.5528C10.6227 21.843 10.6723 22.1319 10.7763 22.403C10.8802 22.674 11.0366 22.922 11.2364 23.1326C11.4362 23.3433 11.6755 23.5125 11.9407 23.6306C12.2059 23.7488 12.4918 23.8136 12.782 23.8212C13.3681 23.8367 13.9364 23.6188 14.3618 23.2153C14.7872 22.8118 15.0349 22.2558 15.0504 21.6697C15.0504 21.6378 15.0504 21.5953 15.0451 21.5528ZM12.4154 22.4984C12.2731 22.4303 12.1523 22.3245 12.0661 22.1924C11.9799 22.0603 11.9317 21.907 11.9267 21.7494C11.9192 21.6841 11.9192 21.6181 11.9267 21.5528C11.9558 21.3346 12.0631 21.1344 12.2287 20.9894C12.3943 20.8444 12.607 20.7644 12.8271 20.7644C13.0473 20.7644 13.2599 20.8444 13.4255 20.9894C13.5912 21.1344 13.6985 21.3346 13.7276 21.5528C13.7314 21.5952 13.7314 21.6379 13.7276 21.6803C13.7255 21.8342 13.6848 21.9851 13.6092 22.1192C13.5336 22.2533 13.4255 22.3662 13.2949 22.4476C13.1643 22.5291 13.0153 22.5764 12.8616 22.5853C12.708 22.5941 12.5545 22.5643 12.4154 22.4984ZM29.0913 21.5528C29.0635 20.9861 28.8188 20.4518 28.4079 20.0606C27.997 19.6693 27.4514 19.4511 26.884 19.4511C26.3166 19.4511 25.771 19.6693 25.3601 20.0606C24.9492 20.4518 24.7045 20.9861 24.6767 21.5528C24.669 21.843 24.7186 22.1319 24.8225 22.403C24.9265 22.674 25.0828 22.922 25.2826 23.1326C25.4824 23.3433 25.7217 23.5125 25.9869 23.6306C26.2521 23.7488 26.538 23.8136 26.8282 23.8212C27.4144 23.8367 27.9826 23.6188 28.408 23.2153C28.8335 22.8118 29.0812 22.2558 29.0967 21.6697C29.0967 21.6378 29.0967 21.5953 29.0913 21.5528ZM26.4617 22.4984C26.3194 22.4303 26.1985 22.3245 26.1123 22.1924C26.0261 22.0603 25.9779 21.907 25.9729 21.7494C25.9655 21.6841 25.9655 21.6181 25.9729 21.5528C26.002 21.3346 26.1093 21.1344 26.275 20.9894C26.4406 20.8444 26.6532 20.7644 26.8734 20.7644C27.0935 20.7644 27.3062 20.8444 27.4718 20.9894C27.6374 21.1344 27.7448 21.3346 27.7738 21.5528C27.7777 21.5952 27.7777 21.6379 27.7738 21.6803C27.7717 21.8342 27.731 21.9851 27.6554 22.1192C27.5798 22.2533 27.4717 22.3662 27.3411 22.4476C27.2105 22.5291 27.0615 22.5764 26.9079 22.5853C26.7542 22.5941 26.6008 22.5643 26.4617 22.4984ZM13.462 14.3012C13.3238 14.7439 13.1592 15.1955 12.9679 15.6559H13.462C13.4391 15.2047 13.4391 14.7525 13.462 14.3012Z" fill="#9C9C9C"/>
<path d="M31.3439 16.5484L29.9148 14.6359C29.7738 14.4424 29.5893 14.2849 29.3761 14.1759C29.1629 14.067 28.927 14.0099 28.6876 14.0091H26.8282C26.7908 14.0091 26.7538 14.0016 26.7192 13.9871C26.6847 13.9727 26.6535 13.9514 26.6272 13.9247C26.601 13.898 26.5804 13.8663 26.5666 13.8316C26.5527 13.7968 26.546 13.7596 26.5467 13.7222L26.5945 11.8363C26.6212 11.6228 26.6031 11.4061 26.5415 11.1999C26.48 10.9938 26.3762 10.8027 26.2368 10.6389C26.0974 10.475 25.9255 10.3419 25.7319 10.2481C25.5383 10.1542 25.3273 10.1017 25.1123 10.0938H9.27042C8.8872 10.1037 8.52169 10.2572 8.24622 10.5238C7.97076 10.7904 7.80542 11.1507 7.78292 11.5334L7.69261 12.5587H5.42417C5.29034 12.5583 5.16127 12.6084 5.06278 12.699C4.96429 12.7896 4.90363 12.9141 4.89292 13.0475C4.89292 13.1884 4.94889 13.3235 5.04852 13.4232C5.14815 13.5228 5.28327 13.5788 5.42417 13.5788H7.54917L7.42698 14.9972H4.12261C3.98877 14.9968 3.85971 15.0469 3.76122 15.1375C3.66273 15.2281 3.60206 15.3525 3.59136 15.4859C3.59136 15.6268 3.64733 15.762 3.74696 15.8616C3.84659 15.9612 3.98171 16.0172 4.12261 16.0172H7.36323L7.27823 17.5313H2.82104C2.68721 17.5308 2.55815 17.5809 2.45966 17.6715C2.36116 17.7621 2.3005 17.8866 2.28979 18.02C2.28979 18.1609 2.34577 18.296 2.44539 18.3957C2.54502 18.4953 2.68015 18.5512 2.82104 18.5512H7.15073L6.94886 20.8941C6.94006 20.9714 6.94695 21.0497 6.96912 21.1244C6.99128 21.199 7.02826 21.2684 7.07786 21.3284C7.12745 21.3884 7.18863 21.4378 7.25774 21.4736C7.32686 21.5094 7.40249 21.5309 7.48011 21.5369H9.65292C9.72379 21.5373 9.79232 21.5115 9.84529 21.4644C9.89826 21.4173 9.93192 21.3523 9.93979 21.2819C10.0338 20.5963 10.373 19.9679 10.8945 19.513C11.416 19.0582 12.0846 18.8076 12.7767 18.8076C13.4687 18.8076 14.1373 19.0582 14.6588 19.513C15.1804 19.9679 15.5195 20.5963 15.6135 21.2819C15.6225 21.3519 15.6565 21.4162 15.7092 21.4631C15.762 21.51 15.8299 21.5362 15.9004 21.5369H23.7629C23.8338 21.5373 23.9023 21.5115 23.9553 21.4644C24.0083 21.4173 24.0419 21.3523 24.0498 21.2819C24.1438 20.5963 24.483 19.9679 25.0045 19.513C25.526 19.0582 26.1946 18.8076 26.8867 18.8076C27.5787 18.8076 28.2473 19.0582 28.7688 19.513C29.2904 19.9679 29.6295 20.5963 29.7235 21.2819C29.7325 21.3519 29.7665 21.4162 29.8192 21.4631C29.872 21.51 29.9399 21.5362 30.0104 21.5369H31.2642C31.3228 21.5348 31.3804 21.5212 31.4338 21.4969C31.4871 21.4725 31.5352 21.4379 31.5751 21.395C31.6151 21.3521 31.6462 21.3017 31.6667 21.2467C31.6872 21.1918 31.6966 21.1333 31.6945 21.0747V17.6056C31.6949 17.2246 31.5719 16.8537 31.3439 16.5484ZM10.912 16.7663H10.1948L10.7845 13.5788H12.2507L12.1232 14.2641H11.3795L11.2732 14.8484H11.9267L11.8045 15.5125H11.1564L10.912 16.7663ZM13.5151 16.7663V16.235H12.7501L12.527 16.7663H11.7673L13.207 13.5788H14.0198L14.2748 16.7663H13.5151ZM16.5114 14.3438C16.3667 14.2432 16.1981 14.1828 16.0226 14.1684C15.9433 14.165 15.865 14.1873 15.7995 14.2322C15.7699 14.2535 15.7448 14.2804 15.7257 14.3114C15.7065 14.3424 15.6937 14.3768 15.6879 14.4128C15.6631 14.5474 15.7552 14.6979 15.9642 14.8644C16.1071 14.9832 16.2292 15.125 16.3254 15.2841C16.4408 15.4694 16.479 15.6925 16.4317 15.9056C16.3831 16.1775 16.2355 16.4217 16.0173 16.5909C15.8272 16.7414 15.5976 16.8335 15.3562 16.8562C15.1148 16.8788 14.872 16.831 14.6573 16.7184L14.7954 15.9747C14.9501 16.0904 15.1342 16.1604 15.3267 16.1766C15.4092 16.1794 15.4901 16.1531 15.5551 16.1022C15.6178 16.0517 15.6594 15.9798 15.672 15.9003C15.6841 15.8382 15.6728 15.7739 15.6401 15.7197C15.5903 15.6438 15.5294 15.5758 15.4595 15.5178C15.2791 15.3699 15.1277 15.1898 15.0132 14.9866C14.9343 14.8213 14.9101 14.6352 14.9442 14.4553C14.9887 14.1913 15.1263 13.952 15.332 13.7806C15.5319 13.6068 15.7896 13.514 16.0545 13.5203C16.2568 13.52 16.4565 13.5654 16.6389 13.6531L16.5114 14.3438ZM18.732 14.3172H18.2326L17.7757 16.7822H17.0426L17.4995 14.3172H17.0001L17.1329 13.5894H18.8648L18.732 14.3172ZM21.9195 15.4488C21.863 15.9648 21.706 16.4647 21.4573 16.9203C21.2051 17.3798 20.8659 17.7858 20.4585 18.1156C20.3648 18.1916 20.2568 18.248 20.141 18.2818C20.0251 18.3155 19.9037 18.3259 19.7839 18.3122H19.7201C19.5513 18.279 19.3953 18.1988 19.27 18.0809C19.1448 17.9629 19.0553 17.812 19.0121 17.6455C18.9688 17.479 18.9734 17.3037 19.0253 17.1397C19.0773 16.9757 19.1745 16.8297 19.3057 16.7184L19.3642 16.6759C19.607 16.5104 19.8146 16.2984 19.9751 16.0522C20.1356 15.8061 20.2457 15.5305 20.2992 15.2416C20.3934 14.6314 20.2611 14.0078 19.9273 13.4884C19.6474 13.0201 19.2476 12.635 18.7692 12.3728C17.8713 11.8931 16.824 11.7753 15.842 12.0434C16.214 11.7416 16.6418 11.5159 17.101 11.3794C17.5676 11.2413 18.0568 11.1962 18.5407 11.2466C19.0303 11.2997 19.5049 11.4477 19.9379 11.6822C20.3749 11.9225 20.7611 12.2454 21.0748 12.6331C21.3897 13.013 21.6295 13.4493 21.7814 13.9188C21.9307 14.4086 21.983 14.9229 21.9354 15.4328L21.9195 15.4488ZM30.1857 17.1434H26.9823C26.9217 17.1434 26.8636 17.1194 26.8208 17.0765C26.7779 17.0337 26.7539 16.9756 26.7539 16.915V15.3531C26.7539 15.2728 26.7858 15.1958 26.8425 15.139C26.8993 15.0822 26.9764 15.0503 27.0567 15.0503H28.6876C28.7351 15.0501 28.7819 15.0611 28.8244 15.0823C28.8668 15.1035 28.9037 15.1344 28.932 15.1725L30.2814 17C30.2863 17.0136 30.288 17.0282 30.2865 17.0426C30.2849 17.057 30.2802 17.0708 30.2725 17.0831C30.2648 17.0954 30.2545 17.1058 30.2422 17.1135C30.2299 17.1211 30.2161 17.1259 30.2017 17.1275L30.1857 17.1434Z" fill="#9C9C9C"/>
</svg>
