<svg width="34" height="34" viewBox="0 0 34 34" fill="none" xmlns="http://www.w3.org/2000/svg">
<path d="M15.0449 21.5528C15.017 20.9861 14.7723 20.4518 14.3614 20.0606C13.9505 19.6693 13.4049 19.4511 12.8375 19.4511C12.2701 19.4511 11.7245 19.6693 11.3136 20.0606C10.9027 20.4518 10.658 20.9861 10.6302 21.5528C10.6225 21.843 10.6721 22.1319 10.776 22.403C10.88 22.674 11.0363 22.922 11.2361 23.1326C11.4359 23.3433 11.6753 23.5125 11.9404 23.6306C12.2056 23.7488 12.4915 23.8136 12.7817 23.8212C13.3679 23.8367 13.9361 23.6188 14.3616 23.2153C14.787 22.8118 15.0347 22.2558 15.0502 21.6697C15.0502 21.6378 15.0502 21.5953 15.0449 21.5528ZM12.4152 22.4984C12.2729 22.4303 12.152 22.3245 12.0658 22.1924C11.9796 22.0603 11.9314 21.907 11.9264 21.7494C11.919 21.6841 11.919 21.6181 11.9264 21.5528C11.9555 21.3346 12.0628 21.1344 12.2285 20.9894C12.3941 20.8444 12.6067 20.7644 12.8269 20.7644C13.047 20.7644 13.2597 20.8444 13.4253 20.9894C13.5909 21.1344 13.6983 21.3346 13.7274 21.5528C13.7312 21.5952 13.7312 21.6379 13.7274 21.6803C13.7252 21.8342 13.6845 21.9851 13.6089 22.1192C13.5333 22.2533 13.4252 22.3662 13.2946 22.4476C13.164 22.5291 13.015 22.5764 12.8614 22.5853C12.7077 22.5941 12.5543 22.5643 12.4152 22.4984ZM29.0911 21.5528C29.0633 20.9861 28.8186 20.4518 28.4077 20.0606C27.9968 19.6693 27.4511 19.4511 26.8838 19.4511C26.3164 19.4511 25.7707 19.6693 25.3598 20.0606C24.9489 20.4518 24.7042 20.9861 24.6764 21.5528C24.6687 21.843 24.7183 22.1319 24.8223 22.403C24.9263 22.674 25.0826 22.922 25.2824 23.1326C25.4822 23.3433 25.7215 23.5125 25.9867 23.6306C26.2519 23.7488 26.5378 23.8136 26.828 23.8212C27.4141 23.8367 27.9824 23.6188 28.4078 23.2153C28.8332 22.8118 29.0809 22.2558 29.0964 21.6697C29.0964 21.6378 29.0964 21.5953 29.0911 21.5528ZM26.4614 22.4984C26.3191 22.4303 26.1983 22.3245 26.1121 22.1924C26.0259 22.0603 25.9777 21.907 25.9727 21.7494C25.9653 21.6841 25.9653 21.6181 25.9727 21.5528C26.0018 21.3346 26.1091 21.1344 26.2747 20.9894C26.4404 20.8444 26.653 20.7644 26.8731 20.7644C27.0933 20.7644 27.3059 20.8444 27.4715 20.9894C27.6372 21.1344 27.7445 21.3346 27.7736 21.5528C27.7774 21.5952 27.7774 21.6379 27.7736 21.6803C27.7715 21.8342 27.7308 21.9851 27.6552 22.1192C27.5796 22.2533 27.4715 22.3662 27.3409 22.4476C27.2103 22.5291 27.0613 22.5764 26.9076 22.5853C26.754 22.5941 26.6005 22.5643 26.4614 22.4984ZM13.4617 14.3012C13.3236 14.7439 13.1589 15.1955 12.9677 15.6559H13.4617C13.4388 15.2047 13.4388 14.7525 13.4617 14.3012Z" fill="white"/>
<path d="M31.3436 16.5484L29.9146 14.6359C29.7736 14.4424 29.589 14.2849 29.3758 14.1759C29.1626 14.067 28.9268 14.0099 28.6874 14.0091H26.828C26.7906 14.0091 26.7535 14.0016 26.719 13.9871C26.6845 13.9727 26.6532 13.9514 26.627 13.9247C26.6008 13.898 26.5801 13.8663 26.5663 13.8316C26.5525 13.7968 26.5457 13.7596 26.5464 13.7222L26.5942 11.8363C26.6209 11.6228 26.6029 11.4061 26.5413 11.1999C26.4797 10.9938 26.3759 10.8027 26.2366 10.6389C26.0972 10.475 25.9252 10.3419 25.7316 10.2481C25.538 10.1542 25.327 10.1017 25.1121 10.0938H9.27018C8.88695 10.1037 8.52144 10.2572 8.24598 10.5238C7.97052 10.7904 7.80517 11.1507 7.78268 11.5334L7.69236 12.5587H5.42393C5.29009 12.5583 5.16103 12.6084 5.06254 12.699C4.96404 12.7896 4.90338 12.9141 4.89268 13.0475C4.89268 13.1884 4.94865 13.3235 5.04828 13.4232C5.1479 13.5228 5.28303 13.5788 5.42393 13.5788H7.54893L7.42674 14.9972H4.12236C3.98853 14.9968 3.85947 15.0469 3.76097 15.1375C3.66248 15.2281 3.60182 15.3525 3.59111 15.4859C3.59111 15.6268 3.64708 15.762 3.74671 15.8616C3.84634 15.9612 3.98147 16.0172 4.12236 16.0172H7.36299L7.27799 17.5313H2.8208C2.68697 17.5308 2.5579 17.5809 2.45941 17.6715C2.36092 17.7621 2.30026 17.8866 2.28955 18.02C2.28955 18.1609 2.34552 18.296 2.44515 18.3957C2.54478 18.4953 2.6799 18.5512 2.8208 18.5512H7.15049L6.94861 20.8941C6.93982 20.9714 6.94671 21.0497 6.96887 21.1244C6.99104 21.199 7.02802 21.2684 7.07761 21.3284C7.1272 21.3884 7.18838 21.4378 7.2575 21.4736C7.32661 21.5094 7.40224 21.5309 7.47986 21.5369H9.65268C9.72355 21.5373 9.79207 21.5115 9.84504 21.4644C9.89801 21.4173 9.93168 21.3523 9.93955 21.2819C10.0336 20.5963 10.3727 19.9679 10.8943 19.513C11.4158 19.0582 12.0844 18.8076 12.7764 18.8076C13.4684 18.8076 14.1371 19.0582 14.6586 19.513C15.1801 19.9679 15.5193 20.5963 15.6133 21.2819C15.6223 21.3519 15.6563 21.4162 15.709 21.4631C15.7617 21.51 15.8296 21.5362 15.9002 21.5369H23.7627C23.8335 21.5373 23.9021 21.5115 23.955 21.4644C24.008 21.4173 24.0417 21.3523 24.0496 21.2819C24.1436 20.5963 24.4827 19.9679 25.0043 19.513C25.5258 19.0582 26.1944 18.8076 26.8864 18.8076C27.5784 18.8076 28.2471 19.0582 28.7686 19.513C29.2901 19.9679 29.6293 20.5963 29.7233 21.2819C29.7323 21.3519 29.7663 21.4162 29.819 21.4631C29.8717 21.51 29.9396 21.5362 30.0102 21.5369H31.2639C31.3225 21.5348 31.3802 21.5212 31.4335 21.4969C31.4869 21.4725 31.5349 21.4379 31.5749 21.395C31.6149 21.3521 31.646 21.3017 31.6664 21.2467C31.6869 21.1918 31.6964 21.1333 31.6942 21.0747V17.6056C31.6946 17.2246 31.5716 16.8537 31.3436 16.5484ZM10.9117 16.7663H10.1946L10.7842 13.5788H12.2505L12.123 14.2641H11.3792L11.273 14.8484H11.9264L11.8042 15.5125H11.1561L10.9117 16.7663ZM13.5149 16.7663V16.235H12.7499L12.5267 16.7663H11.7671L13.2067 13.5788H14.0196L14.2746 16.7663H13.5149ZM16.5111 14.3438C16.3665 14.2432 16.1979 14.1828 16.0224 14.1684C15.943 14.165 15.8647 14.1873 15.7992 14.2322C15.7696 14.2535 15.7446 14.2804 15.7254 14.3114C15.7063 14.3424 15.6934 14.3768 15.6877 14.4128C15.6629 14.5474 15.755 14.6979 15.9639 14.8644C16.1069 14.9832 16.229 15.125 16.3252 15.2841C16.4406 15.4694 16.4787 15.6925 16.4314 15.9056C16.3829 16.1775 16.2352 16.4217 16.0171 16.5909C15.827 16.7414 15.5973 16.8335 15.3559 16.8562C15.1146 16.8788 14.8718 16.831 14.6571 16.7184L14.7952 15.9747C14.9498 16.0904 15.1339 16.1604 15.3264 16.1766C15.409 16.1794 15.4899 16.1531 15.5549 16.1022C15.6175 16.0517 15.6592 15.9798 15.6717 15.9003C15.6839 15.8382 15.6725 15.7739 15.6399 15.7197C15.59 15.6438 15.5291 15.5758 15.4592 15.5178C15.2788 15.3699 15.1275 15.1898 15.013 14.9866C14.934 14.8213 14.9098 14.6352 14.9439 14.4553C14.9885 14.1913 15.126 13.952 15.3317 13.7806C15.5317 13.6068 15.7894 13.514 16.0542 13.5203C16.2565 13.52 16.4563 13.5654 16.6386 13.6531L16.5111 14.3438ZM18.7317 14.3172H18.2324L17.7755 16.7822H17.0424L17.4992 14.3172H16.9999L17.1327 13.5894H18.8645L18.7317 14.3172ZM21.9192 15.4488C21.8628 15.9648 21.7057 16.4647 21.4571 16.9203C21.2049 17.3798 20.8656 17.7858 20.4583 18.1156C20.3645 18.1916 20.2566 18.248 20.1407 18.2818C20.0249 18.3155 19.9035 18.3259 19.7836 18.3122H19.7199C19.5511 18.279 19.395 18.1988 19.2698 18.0809C19.1445 17.9629 19.0551 17.812 19.0118 17.6455C18.9685 17.479 18.9731 17.3037 19.0251 17.1397C19.077 16.9757 19.1742 16.8297 19.3055 16.7184L19.3639 16.6759C19.6067 16.5104 19.8144 16.2984 19.9749 16.0522C20.1353 15.8061 20.2455 15.5305 20.2989 15.2416C20.3931 14.6314 20.2609 14.0078 19.927 13.4884C19.6472 13.0201 19.2474 12.635 18.7689 12.3728C17.8711 11.8931 16.8237 11.7753 15.8417 12.0434C16.2138 11.7416 16.6416 11.5159 17.1008 11.3794C17.5674 11.2413 18.0565 11.1962 18.5405 11.2466C19.0301 11.2997 19.5046 11.4477 19.9377 11.6822C20.3747 11.9225 20.7608 12.2454 21.0745 12.6331C21.3895 13.013 21.6293 13.4493 21.7811 13.9188C21.9305 14.4086 21.9828 14.9229 21.9352 15.4328L21.9192 15.4488ZM30.1855 17.1434H26.982C26.9215 17.1434 26.8634 17.1194 26.8205 17.0765C26.7777 17.0337 26.7536 16.9756 26.7536 16.915V15.3531C26.7536 15.2728 26.7855 15.1958 26.8423 15.139C26.8991 15.0822 26.9761 15.0503 27.0564 15.0503H28.6874C28.7348 15.0501 28.7817 15.0611 28.8241 15.0823C28.8666 15.1035 28.9034 15.1344 28.9317 15.1725L30.2811 17C30.286 17.0136 30.2878 17.0282 30.2862 17.0426C30.2847 17.057 30.2799 17.0708 30.2722 17.0831C30.2646 17.0954 30.2542 17.1058 30.2419 17.1135C30.2297 17.1211 30.2158 17.1259 30.2014 17.1275L30.1855 17.1434Z" fill="white"/>
</svg>
