<svg width="18" height="18" viewBox="0 0 18 18" fill="none" xmlns="http://www.w3.org/2000/svg">
<path d="M8.99984 2.33332C7.23173 2.33332 5.53604 3.0357 4.28579 4.28594C3.03555 5.53619 2.33317 7.23188 2.33317 8.99999C2.33317 10.7681 3.03555 12.4638 4.28579 13.714C5.53604 14.9643 7.23173 15.6667 8.99984 15.6667C10.7679 15.6667 12.4636 14.9643 13.7139 13.714C14.9641 12.4638 15.6665 10.7681 15.6665 8.99999C15.6665 7.23188 14.9641 5.53619 13.7139 4.28594C12.4636 3.0357 10.7679 2.33332 8.99984 2.33332ZM0.666504 8.99999C0.666504 4.39749 4.39734 0.666656 8.99984 0.666656C13.6023 0.666656 17.3332 4.39749 17.3332 8.99999C17.3332 13.6025 13.6023 17.3333 8.99984 17.3333C4.39734 17.3333 0.666504 13.6025 0.666504 8.99999Z" fill="white"/>
<path d="M9 7.33333C9.22101 7.33333 9.43298 7.42113 9.58926 7.57741C9.74554 7.73369 9.83333 7.94565 9.83333 8.16667V13.1667C9.83333 13.3877 9.74554 13.5996 9.58926 13.7559C9.43298 13.9122 9.22101 14 9 14C8.77899 14 8.56702 13.9122 8.41074 13.7559C8.25446 13.5996 8.16667 13.3877 8.16667 13.1667V8.16667C8.16667 7.94565 8.25446 7.73369 8.41074 7.57741C8.56702 7.42113 8.77899 7.33333 9 7.33333ZM10.25 5.25C10.25 5.58152 10.1183 5.89946 9.88388 6.13388C9.64946 6.3683 9.33152 6.5 9 6.5C8.66848 6.5 8.35054 6.3683 8.11612 6.13388C7.8817 5.89946 7.75 5.58152 7.75 5.25C7.75 4.91848 7.8817 4.60054 8.11612 4.36612C8.35054 4.1317 8.66848 4 9 4C9.33152 4 9.64946 4.1317 9.88388 4.36612C10.1183 4.60054 10.25 4.91848 10.25 5.25Z" fill="white"/>
</svg>
