<svg id="visual" viewBox="0 0 960 540" width="960" height="540" xmlns="http://www.w3.org/2000/svg" xmlns:xlink="http://www.w3.org/1999/xlink" version="1.1"><g transform="translate(-20.576618950292527 57.24358063232688)"><path d="M140.1 -262.1C190.2 -213.7 245.3 -193.6 297 -154.6C348.7 -115.7 396.8 -57.8 391.1 -3.3C385.3 51.2 325.6 102.3 281.4 154.3C237.2 206.3 208.6 259 164.3 287.8C120 316.5 60 321.3 -4.6 329.2C-69.2 337.1 -138.3 348.3 -200.8 330C-263.3 311.8 -319.2 264.1 -340.1 204.2C-361 144.3 -347 72.2 -325.8 12.3C-304.6 -47.7 -276.1 -95.3 -265.6 -173.3C-255.1 -251.2 -262.6 -359.4 -221.3 -412.9C-180 -466.4 -90 -465.2 -22.5 -426.2C45 -387.3 90 -310.6 140.1 -262.1" fill="#4063db"></path></g></svg>