<svg id="visual" viewBox="0 0 960 540" width="960" height="540" xmlns="http://www.w3.org/2000/svg" xmlns:xlink="http://www.w3.org/1999/xlink" version="1.1"><g transform="translate(444.1175756069472 276.66309367842155)"><path d="M126.6 -208.2C172.5 -192.7 223.9 -175.9 257.1 -140.9C290.3 -106 305.1 -53 284.5 -11.9C263.9 29.2 207.7 58.3 172.7 90.1C137.7 121.8 123.9 156.2 98.6 187.3C73.3 218.4 36.7 246.2 -3.7 252.5C-44 258.9 -88 243.8 -114.4 213.3C-140.8 182.9 -149.7 137.2 -170.5 99.1C-191.3 61 -224.2 30.5 -222.1 1.2C-220.1 -28.1 -183.1 -56.3 -168.4 -105C-153.7 -153.7 -161.2 -223 -136.9 -250.9C-112.5 -278.9 -56.3 -265.4 -8 -251.6C40.3 -237.9 80.7 -223.7 126.6 -208.2" fill="#3496ef"></path></g></svg>