<svg width="64" height="64" viewBox="0 0 64 64" fill="none" xmlns="http://www.w3.org/2000/svg">
<path d="M36.4827 19.7942L36.4149 34.4428L35.7604 35.8422C34.9704 37.5576 33.2099 39.2955 31.4042 40.1532C30.2531 40.6949 29.8242 40.7626 27.838 40.7626C25.8517 40.7626 25.4229 40.6949 24.2943 40.1532C22.5789 39.3632 20.841 37.693 19.9833 36.0227C19.3061 34.7588 19.261 34.5105 19.261 32.2985C19.261 30.064 19.3061 29.8383 20.0058 28.4163C20.9312 26.5429 22.6918 24.8501 24.52 24.1504C25.5131 23.7441 26.258 23.6313 27.838 23.6313C30.569 23.6313 32.0587 24.2181 33.9096 26.0012C34.6544 26.7461 35.2638 27.3329 35.2864 27.3329C35.2864 27.3329 35.2412 25.0307 35.1735 22.2093L35.0607 17.0631L33.1421 16.4085C30.4562 15.4831 26.6417 15.3251 23.8655 16.0248C20.7055 16.8148 18.4484 18.0788 16.0785 20.4487C13.8214 22.6833 12.6928 24.4438 11.7223 27.2878L11.1354 29.0257L11.0677 44.0129L11 59L12.1737 58.842C14.5662 58.526 17.0716 56.7203 18.2227 54.4858C18.8547 53.2218 19.1933 51.0099 19.103 48.5948C19.0578 47.4437 19.0578 46.5182 19.103 46.5182C19.1256 46.5182 19.7801 46.8342 20.525 47.2179C24.8812 49.4073 30.8173 49.3848 35.1961 47.1728C37.0244 46.27 38.1529 45.48 39.5523 44.1709L40.6809 43.1326L41.358 43.8774C43.9762 46.6537 47.9939 48.5948 51.8084 48.9333L53.456 49.0688V45.0963C53.456 40.6046 53.6592 41.1012 51.6504 40.7626C49.7093 40.4692 47.4747 38.957 46.2107 37.1287C44.7436 34.9845 44.7888 35.323 44.6533 22.7058L44.5405 11.1946L43.9311 9.90809C42.78 7.44785 40.2746 5.59703 37.6789 5.28104L36.5278 5.14561L36.4827 19.7942Z" fill="white"/>
</svg>
