<svg width="149" height="91" viewBox="0 0 149 91" fill="none" xmlns="http://www.w3.org/2000/svg">
<path d="M91.5352 35.714L90.7414 32.8209L91.5352 35.714ZM0.00576026 85.8275C-0.096851 87.4812 1.16054 88.9049 2.81421 89.0076L29.7624 90.6797C31.4161 90.7823 32.8398 89.5249 32.9424 87.8713C33.045 86.2176 31.7876 84.7938 30.134 84.6912L6.18004 83.2049L7.66638 59.2509C7.76899 57.5973 6.51161 56.1735 4.85793 56.0709C3.20426 55.9683 1.78051 57.2257 1.6779 58.8794L0.00576026 85.8275ZM145.115 0.914269C107.935 25.6748 89.859 50.4412 84.2302 66.8675C82.8189 70.9858 82.1466 74.7068 82.233 77.847C82.318 80.9339 83.1582 83.8544 85.224 85.8089C87.4171 87.8839 90.3588 88.2905 93.29 87.5517C96.14 86.8333 99.1981 85.0109 102.342 82.2726L98.4011 77.7482C95.6367 80.1561 93.4101 81.3337 91.8235 81.7337C90.318 82.1131 89.6709 81.7563 89.3476 81.4505C88.897 81.0241 88.2931 79.9464 88.2307 77.6819C88.1699 75.4708 88.6469 72.4873 89.9061 68.8125C94.9593 54.0663 111.903 30.2408 148.441 5.90821L145.115 0.914269ZM102.342 82.2726C108.459 76.9442 113.918 70.5974 117.939 64.2409C121.921 57.9456 124.669 51.3635 124.992 45.5965C125.155 42.6747 124.703 39.8161 123.319 37.3224C121.914 34.7891 119.675 32.8656 116.695 31.6572C110.924 29.3174 102.355 29.6344 90.7414 32.8209L92.329 38.6071C103.623 35.5083 110.566 35.6466 114.44 37.2175C116.282 37.9644 117.399 39.0187 118.072 40.2332C118.768 41.4875 119.119 43.1469 119.001 45.2613C118.76 49.5667 116.603 55.1292 112.868 61.0333C109.172 66.8764 104.1 72.7842 98.4011 77.7482L102.342 82.2726ZM90.7414 32.8209C53.448 43.0535 15.3971 71.0624 1.01413 83.7647L4.98587 88.2619C19.0833 75.8118 56.319 48.4875 92.329 38.6071L90.7414 32.8209Z" fill="#797979"/>
</svg>
