<svg width="629" height="277" viewBox="0 0 629 277" fill="none" xmlns="http://www.w3.org/2000/svg">
<g clip-path="url(#clip0)">
<path d="M187.129 228.073C184.967 245.027 177.015 260.539 168.532 275.481C168.252 275.99 167.963 276.491 167.668 277H79.5012C77.718 276.537 75.9579 276.028 74.2051 275.481C64.247 272.447 54.8458 267.819 46.3668 261.777C13.9304 238.392 1.44894 194.203 7.08656 154.607C10.5921 130.007 21.3812 104.891 42.3908 91.6418C53.4838 84.6338 67.7329 82.3561 80.5026 84.9603C80.8368 85.0211 81.1706 85.097 81.5118 85.1653C92.4984 87.6405 102.286 93.7905 107.856 103.699C117.871 121.503 111.907 143.56 106.983 163.377C102.074 183.193 99.4105 206.913 113.66 221.528C108.956 207.672 113.599 191.143 124.836 181.774C133.327 174.705 145.148 172.055 155.93 174.249C156.961 174.469 157.978 174.72 158.98 175.024C161.4 175.733 163.734 176.711 165.937 177.939C182.744 187.331 189.55 208.963 187.129 228.073Z" fill="#F2F2F2"/>
<path d="M134.852 275.482C137.295 276.051 139.746 276.552 142.211 277H128.88C127.135 276.529 125.398 276.028 123.676 275.482C119.889 274.297 116.161 272.938 112.491 271.404C97.7718 265.224 84.213 255.946 73.9547 243.6C68.9378 237.619 64.841 230.922 61.7996 223.73C58.5017 215.602 56.4059 207.036 55.5781 198.303C53.7191 180.384 55.6159 161.972 59.1592 144.373C62.8159 126.131 68.7184 108.414 76.7319 91.6268C77.6955 89.6147 78.692 87.6154 79.7213 85.6286C79.7921 85.4651 79.8993 85.3198 80.0347 85.2041C80.1701 85.0883 80.3302 85.0049 80.5026 84.9605C80.8529 84.8925 81.2158 84.9662 81.5118 85.1654C81.8672 85.3694 82.1306 85.7022 82.2478 86.095C82.365 86.4878 82.327 86.9106 82.1417 87.2762C73.8794 103.4 67.6163 120.473 63.4916 138.116C59.4552 155.329 57.1638 173.338 57.9452 191.037C58.6887 207.573 63.0063 223.837 72.8014 237.359C81.7471 249.705 94.0993 259.438 107.765 266.067C116.414 270.208 125.5 273.366 134.852 275.482Z" fill="white"/>
<path d="M164.109 277H160.179C159.738 276.499 159.314 275.99 158.896 275.481C149.944 264.597 143.879 251.629 141.263 237.777C138.086 220.49 140.557 202.639 148.312 186.868C150.475 182.446 153.024 178.223 155.93 174.249C156.961 174.47 157.978 174.72 158.98 175.024C151.338 185.155 146.198 196.951 143.979 209.449C142 221.159 142.658 233.165 145.906 244.589C149.153 256.012 154.908 266.567 162.751 275.481C163.191 275.99 163.646 276.499 164.109 277Z" fill="white"/>
<path d="M518.17 264.087C518.74 268.562 520.839 272.656 523.078 276.599C523.152 276.733 523.228 276.866 523.306 277H546.575C547.045 276.878 547.51 276.743 547.972 276.599C550.6 275.798 553.082 274.577 555.319 272.982C563.88 266.81 567.174 255.148 565.686 244.698C564.761 238.206 561.914 231.577 556.369 228.081C553.358 226.245 549.765 225.616 546.31 226.317C546.222 226.333 546.134 226.353 546.044 226.371C544.606 226.649 543.243 227.229 542.044 228.072C540.846 228.915 539.84 230.003 539.091 231.263C536.448 235.962 538.022 241.783 539.322 247.013C540.617 252.243 541.32 258.503 537.56 262.36C538.111 260.747 538.223 259.016 537.884 257.345C537.545 255.674 536.768 254.124 535.632 252.853C534.496 251.583 533.042 250.638 531.42 250.116C529.799 249.593 528.067 249.513 526.404 249.882C526.131 249.94 525.863 250.006 525.599 250.087C524.96 250.274 524.344 250.532 523.762 250.856C519.327 253.335 517.531 259.044 518.17 264.087Z" fill="#F2F2F2"/>
<path d="M531.967 276.599C531.322 276.75 530.675 276.882 530.024 277H533.542C534.003 276.876 534.462 276.744 534.916 276.599C535.915 276.287 536.899 275.928 537.868 275.523C541.796 273.927 545.284 271.411 548.038 268.185C549.362 266.607 550.444 264.839 551.246 262.941C552.117 260.796 552.67 258.535 552.888 256.23C553.288 251.465 552.969 246.667 551.943 241.997C550.978 237.183 549.42 232.507 547.305 228.077C547.051 227.546 546.788 227.018 546.516 226.494C546.498 226.45 546.469 226.412 546.434 226.382C546.398 226.351 546.356 226.329 546.31 226.317C546.218 226.299 546.122 226.319 546.044 226.371C545.95 226.425 545.881 226.513 545.85 226.617C545.819 226.72 545.829 226.832 545.878 226.928C548.058 231.184 549.711 235.69 550.8 240.346C551.921 244.913 552.413 249.612 552.264 254.313C552.184 258.685 550.82 262.936 548.343 266.538C545.934 269.782 542.765 272.384 539.115 274.115C536.833 275.207 534.435 276.041 531.967 276.599Z" fill="white"/>
<path d="M524.245 277H525.282C525.399 276.868 525.511 276.733 525.621 276.599C527.983 273.727 529.584 270.304 530.275 266.648C531.113 262.086 530.461 257.375 528.414 253.213C527.843 252.045 527.17 250.931 526.404 249.882C526.131 249.94 525.863 250.006 525.599 250.087C527.615 252.76 528.972 255.874 529.558 259.172C530.08 262.263 529.906 265.431 529.049 268.446C528.192 271.461 526.673 274.246 524.603 276.599C524.487 276.733 524.367 276.868 524.245 277Z" fill="white"/>
<path d="M308.437 161.349H235.612L234.84 138.943C234.807 137.971 234.984 137.004 235.36 136.108C235.736 135.212 236.301 134.408 237.017 133.752C237.733 133.095 238.583 132.602 239.508 132.305C240.433 132.009 241.411 131.916 242.375 132.034L284.755 137.227H284.76C291.043 137.244 297.063 139.753 301.501 144.203C305.939 148.653 308.433 154.682 308.437 160.969V161.349Z" fill="#6C63FF"/>
<path d="M275.979 81.8702H225.187C224.512 81.8701 223.843 82.0031 223.219 82.2617C222.594 82.5203 222.027 82.8994 221.55 83.3774C221.072 83.8553 220.693 84.4228 220.435 85.0473C220.176 85.6719 220.043 86.3413 220.044 87.0172V137.844C220.043 138.52 220.176 139.189 220.435 139.814C220.693 140.438 221.072 141.006 221.55 141.484C222.027 141.962 222.594 142.341 223.219 142.599C223.843 142.858 224.512 142.991 225.187 142.991H275.979C276.655 142.991 277.324 142.858 277.948 142.599C278.572 142.341 279.139 141.962 279.617 141.484C280.094 141.006 280.473 140.438 280.731 139.814C280.99 139.189 281.123 138.52 281.123 137.844V87.0172C281.123 86.3413 280.99 85.6719 280.731 85.0473C280.473 84.4228 280.094 83.8553 279.617 83.3773C279.139 82.8994 278.572 82.5203 277.948 82.2617C277.324 82.0031 276.655 81.8701 275.979 81.8702Z" fill="#CCCCCC"/>
<path d="M264.54 119.876L240.559 124.55C239.136 124.825 237.663 124.525 236.461 123.714C235.26 122.904 234.429 121.65 234.15 120.227L232.307 110.754C232.031 109.331 232.331 107.856 233.141 106.654C233.951 105.452 235.204 104.62 236.626 104.341L260.607 99.668C262.03 99.3925 263.503 99.6929 264.705 100.503C265.906 101.314 266.738 102.568 267.016 103.991L268.86 113.463C269.135 114.887 268.835 116.361 268.025 117.564C267.215 118.766 265.962 119.598 264.54 119.876Z" fill="#3F3D56"/>
<path d="M259.742 108.685L241.441 112.252C241.106 112.317 240.759 112.246 240.476 112.056C240.193 111.865 239.998 111.57 239.933 111.235C239.868 110.9 239.938 110.552 240.129 110.269C240.319 109.986 240.614 109.791 240.949 109.726L259.25 106.159C259.585 106.094 259.932 106.165 260.215 106.355C260.498 106.546 260.693 106.841 260.758 107.176C260.824 107.511 260.753 107.858 260.563 108.141C260.372 108.424 260.077 108.62 259.742 108.685Z" fill="white"/>
<path d="M256.185 113.967L246.719 115.811C246.384 115.877 246.037 115.806 245.754 115.615C245.471 115.425 245.276 115.129 245.211 114.794C245.145 114.459 245.216 114.112 245.406 113.829C245.597 113.546 245.892 113.351 246.227 113.285L255.693 111.441C255.859 111.408 256.029 111.409 256.195 111.443C256.36 111.476 256.518 111.542 256.658 111.637C256.798 111.731 256.918 111.852 257.011 111.993C257.104 112.134 257.169 112.292 257.201 112.458C257.233 112.624 257.233 112.794 257.199 112.96C257.166 113.125 257.1 113.283 257.005 113.423C256.911 113.563 256.79 113.683 256.649 113.776C256.508 113.87 256.351 113.934 256.185 113.967Z" fill="white"/>
<path d="M281.123 87.0172V93.7726H220.044V87.0172C220.043 86.3413 220.176 85.6719 220.435 85.0473C220.693 84.4228 221.072 83.8553 221.55 83.3774C222.027 82.8994 222.594 82.5203 223.219 82.2617C223.843 82.0031 224.512 81.8701 225.187 81.8702H275.979C276.655 81.8701 277.324 82.0031 277.948 82.2617C278.572 82.5203 279.139 82.8994 279.616 83.3774C280.094 83.8553 280.473 84.4228 280.731 85.0473C280.99 85.6719 281.123 86.3413 281.123 87.0172Z" fill="#B3B3B3"/>
<path d="M403.092 95.8881C402.739 94.7491 402.141 93.7013 401.34 92.8185C400.539 91.9357 399.554 91.2394 398.455 90.7787C397.356 90.318 396.169 90.104 394.979 90.1518C393.788 90.1996 392.622 90.5081 391.564 91.0555L321.686 65.9675L318.608 83.436L388.263 102.604C389.3 104.322 390.931 105.601 392.847 106.197C394.763 106.792 396.831 106.664 398.658 105.837C400.486 105.009 401.947 103.539 402.764 101.705C403.581 99.8717 403.698 97.8019 403.092 95.8881Z" fill="#FFB8B8"/>
<path opacity="0.2" d="M403.092 95.8881C402.739 94.7491 402.141 93.7013 401.34 92.8185C400.539 91.9357 399.554 91.2394 398.455 90.7787C397.356 90.318 396.169 90.104 394.979 90.1518C393.788 90.1996 392.622 90.5081 391.564 91.0555L321.686 65.9675L318.608 83.436L388.263 102.604C389.3 104.322 390.931 105.601 392.847 106.197C394.763 106.792 396.831 106.664 398.658 105.837C400.486 105.009 401.947 103.539 402.764 101.705C403.581 99.8717 403.698 97.8019 403.092 95.8881Z" fill="black"/>
<path d="M334.089 69.1506L327.49 86.4012C327.302 86.892 327.011 87.3366 326.636 87.7046C326.261 88.0726 325.811 88.3555 325.317 88.5338C324.823 88.7122 324.297 88.782 323.773 88.7384C323.25 88.6947 322.742 88.5387 322.284 88.281L306.247 79.2486C303.744 78.2729 301.729 76.3436 300.644 73.8836C299.56 71.4236 299.494 68.6336 300.462 66.1253C301.43 63.617 303.352 61.5951 305.807 60.5029C308.263 59.4106 311.051 59.3371 313.56 60.2986L331.468 64.273C331.981 64.387 332.463 64.6102 332.881 64.9274C333.3 65.2446 333.646 65.6484 333.894 66.1113C334.143 66.5742 334.289 67.0853 334.323 67.6098C334.356 68.1342 334.276 68.6598 334.089 69.1506Z" fill="#6C63FF"/>
<path d="M408.592 111.861L383.553 123.25L386.841 135.634C393.189 159.549 394.873 184.464 391.803 209.017L410.109 212.843L425.284 174.12L419.973 130.083L408.592 111.861Z" fill="#6C63FF"/>
<path d="M457.721 169.185C441.269 169.185 427.863 181.153 427.212 196.139H488.229C487.578 181.152 474.172 169.185 457.721 169.185Z" fill="#3F3D56"/>
<path d="M444.914 171.768C444.058 104.119 405.557 110.342 405.557 110.342C405.557 110.342 406.277 131.399 406.623 132.054C431.157 178.505 390.666 232.963 339.125 222.944C338.153 222.755 337.22 222.564 336.324 222.369C329.794 221.005 324.028 217.202 320.199 211.735C316.37 206.268 314.767 199.547 315.714 192.938C320.791 152.139 295.539 152.861 295.539 152.861H258.613L239.437 135.591C238.76 134.981 237.945 134.547 237.061 134.326C236.178 134.105 235.254 134.103 234.37 134.322C233.486 134.541 232.669 134.973 231.99 135.581C231.312 136.189 230.792 136.954 230.477 137.809L228.01 144.509C228.01 144.509 191.591 148.305 194.626 183.991H205.885C205.858 185.005 205.899 186.019 206.007 187.028L290.039 186.344C294.964 186.304 299.312 190.298 299.332 195.227C299.337 196.427 299.101 197.616 298.636 198.722C298.171 199.829 297.488 200.83 296.628 201.666C295.768 202.502 294.748 203.156 293.629 203.588C292.511 204.021 291.316 204.223 290.118 204.183L276.57 203.731C272.397 222.333 282.64 234.861 293.926 242.738C304.553 250.048 317.162 253.923 330.056 253.843H366.861C414.662 253.843 423.008 213.602 423.008 213.602C448.047 202.972 444.914 171.768 444.914 171.768Z" fill="#3F3D56"/>
<path d="M455.444 275.861C479.016 275.861 498.124 256.74 498.124 233.153C498.124 209.566 479.016 190.444 455.444 190.444C431.873 190.444 412.765 209.566 412.765 233.153C412.765 256.74 431.873 275.861 455.444 275.861Z" fill="#3F3D56"/>
<path d="M455.444 243.621C461.222 243.621 465.905 238.934 465.905 233.153C465.905 227.372 461.222 222.685 455.444 222.685C449.667 222.685 444.984 227.372 444.984 233.153C444.984 238.934 449.667 243.621 455.444 243.621Z" fill="white"/>
<path d="M239.961 275.861C267.094 275.861 289.089 253.851 289.089 226.699C289.089 199.548 267.094 177.537 239.961 177.537C212.828 177.537 190.832 199.548 190.832 226.699C190.832 253.851 212.828 275.861 239.961 275.861Z" fill="#3F3D56"/>
<path d="M239.961 238.748C246.611 238.748 252.002 233.354 252.002 226.699C252.002 220.044 246.611 214.649 239.961 214.649C233.31 214.649 227.919 220.044 227.919 226.699C227.919 233.354 233.31 238.748 239.961 238.748Z" fill="white"/>
<path d="M383.624 126.615L374.615 102.129C374.146 100.853 373.932 99.4969 373.986 98.1381C374.041 96.7793 374.362 95.4445 374.932 94.21C375.501 92.9754 376.309 91.8652 377.307 90.9428C378.306 90.0204 379.476 89.3038 380.751 88.8341L406.579 79.3196C408.823 78.4927 411.208 78.1163 413.597 78.2116C415.986 78.307 418.333 78.8724 420.504 79.8754C422.675 80.8785 424.627 82.2996 426.249 84.0577C427.871 85.8157 429.131 87.8762 429.957 90.1216C430.702 92.137 431.083 94.2689 431.081 96.4177C431.072 99.1462 430.454 101.838 429.275 104.298C428.095 106.758 426.383 108.924 424.262 110.639C422.73 111.869 421.007 112.84 419.163 113.516L383.624 126.615Z" fill="#3F3D56"/>
<path d="M430.702 96.4176C430.7 99.0904 430.099 101.729 428.943 104.139C427.788 106.548 426.107 108.668 424.025 110.342C420.83 109.499 417.857 107.97 415.313 105.861C412.768 103.752 410.713 101.113 409.291 98.129C407.869 95.1449 407.113 91.8866 407.076 88.5805C407.039 85.2745 407.722 82.0001 409.078 78.985C411.68 78.4187 414.376 78.4428 416.968 79.0556C419.56 79.6684 421.982 80.8543 424.056 82.5263C426.13 84.1982 427.803 86.3138 428.953 88.7176C430.103 91.1214 430.701 93.7525 430.702 96.4176Z" fill="#6C63FF"/>
<path d="M201.075 188.926C206.942 188.926 211.697 183.147 211.697 176.018C211.697 168.89 206.942 163.111 201.075 163.111C195.208 163.111 190.453 168.89 190.453 176.018C190.453 183.147 195.208 188.926 201.075 188.926Z" fill="#6C63FF"/>
<path d="M341.489 221.708H350.792L355.217 197.565L341.488 197.566L341.489 221.708Z" fill="#FFB8B8"/>
<path d="M339.116 218.669L357.435 218.668H357.436C358.969 218.668 360.487 218.97 361.904 219.557C363.32 220.144 364.607 221.005 365.691 222.089C366.775 223.174 367.635 224.462 368.222 225.879C368.809 227.297 369.111 228.816 369.111 230.35V230.73L339.117 230.731L339.116 218.669Z" fill="#2F2E41"/>
<path d="M352.287 211.799C352.178 211.799 352.069 211.794 351.96 211.783L339.087 210.845C338.566 210.797 338.064 210.63 337.618 210.356C337.172 210.083 336.795 209.711 336.516 209.268C336.237 208.826 336.063 208.325 336.007 207.805C335.952 207.285 336.017 206.759 336.197 206.268L353.425 167.534C353.548 167.189 353.598 166.822 353.573 166.456C353.547 166.09 353.446 165.734 353.276 165.409C353.107 165.081 352.869 164.792 352.58 164.561C352.291 164.331 351.956 164.165 351.598 164.073C343.497 161.954 322.711 156.311 304.718 149.709C297.009 146.881 292.154 142.793 290.288 137.56C287.827 130.66 291.467 124.368 291.624 124.104L291.746 123.898L308.677 125.438L327.032 127L367.256 148.584C370.626 150.408 373.186 153.435 374.426 157.063C375.666 160.691 375.495 164.653 373.947 168.161L355.402 209.774C355.134 210.377 354.697 210.889 354.144 211.248C353.591 211.607 352.946 211.799 352.287 211.799Z" fill="#2F2E41"/>
<path d="M311.621 48.8062C321.913 48.8062 330.256 40.4571 330.256 30.158C330.256 19.8588 321.913 11.5098 311.621 11.5098C301.329 11.5098 292.985 19.8588 292.985 30.158C292.985 40.4571 301.329 48.8062 311.621 48.8062Z" fill="#FFB8B8"/>
<path d="M336.178 223.985H345.48L349.906 199.843L336.177 199.844L336.178 223.985Z" fill="#FFB8B8"/>
<path d="M333.805 220.946L352.124 220.946H352.125C353.658 220.946 355.176 221.248 356.593 221.835C358.009 222.422 359.296 223.282 360.38 224.367C361.464 225.452 362.324 226.74 362.911 228.157C363.497 229.575 363.799 231.094 363.799 232.628V233.007L333.806 233.009L333.805 220.946Z" fill="#2F2E41"/>
<path d="M346.975 214.077C346.867 214.077 346.758 214.071 346.649 214.061L333.776 213.123C333.255 213.075 332.752 212.907 332.307 212.634C331.861 212.361 331.484 211.988 331.205 211.546C330.925 211.104 330.751 210.603 330.696 210.083C330.641 209.563 330.705 209.037 330.885 208.545L348.114 169.812C348.237 169.467 348.287 169.1 348.262 168.734C348.236 168.368 348.135 168.012 347.965 167.687C347.795 167.358 347.558 167.069 347.269 166.839C346.98 166.609 346.645 166.442 346.287 166.351C338.186 164.232 317.4 158.589 299.407 151.987C291.698 149.158 286.843 145.071 284.977 139.838C282.516 132.938 286.156 126.646 286.312 126.382L286.434 126.175L303.366 127.715L321.721 129.278L361.944 150.862C365.315 152.686 367.875 155.713 369.115 159.341C370.355 162.969 370.184 166.931 368.635 170.439L350.091 212.052C349.823 212.654 349.386 213.166 348.833 213.526C348.28 213.885 347.635 214.076 346.975 214.077Z" fill="#2F2E41"/>
<path d="M317.368 59.3805L297.641 52.5471C297.641 52.5471 285.257 62.0682 291.206 85.6877C294.312 97.8763 293.407 110.742 288.626 122.375C288.05 123.815 287.387 125.217 286.639 126.575C286.639 126.575 308.643 153.149 329.129 133.408L321.162 95.0657C321.162 95.0657 333.681 69.6305 317.368 59.3805Z" fill="#6C63FF"/>
<path d="M313.935 49.4404C311.282 45.4677 309.189 39.9591 312.109 36.1792C314.992 32.4481 320.677 32.9978 325.092 31.3468C331.241 29.0472 334.807 21.8186 333.695 15.3449C332.582 8.87118 327.389 3.50467 321.203 1.30887C315.016 -0.886931 308.04 -0.172805 301.981 2.3558C294.523 5.46853 288.126 11.4899 285.443 19.1174C282.76 26.7449 284.194 35.9032 289.76 41.7658C295.726 48.0512 305.091 49.7263 313.753 49.6247" fill="#2F2E41"/>
<path d="M296.6 15.5527C293.257 18.2753 288.158 17.066 284.571 14.6766C280.983 12.2871 278.072 8.88473 274.19 7.01133C267.347 3.70859 259.073 5.90415 252.413 9.56252C245.753 13.2209 239.849 18.275 232.814 21.1459C225.779 24.0168 216.801 24.1587 211.474 18.7378C210.163 22.5385 210.056 26.6515 211.167 30.5154C212.278 34.3793 214.554 37.806 217.683 40.3281C220.813 42.8501 224.643 44.3446 228.653 44.6076C232.662 44.8706 236.655 43.8893 240.086 41.7976C247.795 37.099 252.053 27.2474 260.699 24.6541C265.483 23.219 270.62 24.3748 275.455 25.6267C280.291 26.8786 285.333 28.2313 290.212 27.1656C295.092 26.0998 299.657 21.7117 299.036 16.7525L296.6 15.5527Z" fill="#2F2E41"/>
<path d="M402.164 95.1285C401.674 94.0417 400.951 93.0758 400.048 92.2986C399.144 91.5215 398.081 90.9521 396.933 90.6306C395.786 90.3091 394.582 90.2432 393.406 90.4377C392.23 90.6322 391.112 91.0823 390.129 91.7562L317.691 75.4874L316.791 93.2024L388.278 103.624C389.518 105.201 391.295 106.268 393.269 106.623C395.244 106.978 397.28 106.595 398.992 105.548C400.703 104.501 401.972 102.862 402.556 100.942C403.141 99.0212 403.002 96.9528 402.164 95.1285Z" fill="#FFB8B8"/>
<path d="M330.392 77.1149L325.971 95.0483C325.845 95.5586 325.611 96.0357 325.284 96.4472C324.957 96.8587 324.546 97.1949 324.078 97.433C323.609 97.671 323.095 97.8052 322.571 97.8265C322.046 97.8478 321.523 97.7557 321.037 97.5564L304.009 90.5732C301.402 89.9157 299.162 88.2502 297.781 85.9423C296.4 83.6344 295.99 80.8725 296.642 78.2626C297.294 75.6528 298.953 73.4082 301.257 72.0213C303.56 70.6344 306.319 70.2186 308.929 70.8651L327.19 72.5981C327.713 72.6479 328.219 72.8098 328.673 73.0729C329.128 73.336 329.521 73.6941 329.824 74.1227C330.128 74.5514 330.336 75.0405 330.434 75.5569C330.532 76.0732 330.518 76.6046 330.392 77.1148V77.1149Z" fill="#6C63FF"/>
<path d="M393.796 109.204C396.73 109.204 399.108 106.824 399.108 103.889C399.108 100.953 396.73 98.574 393.796 98.574C390.863 98.574 388.485 100.953 388.485 103.889C388.485 106.824 390.863 109.204 393.796 109.204Z" fill="#6C63FF"/>
<path d="M629 276.241C628.999 276.442 628.919 276.635 628.777 276.777C628.635 276.919 628.442 276.999 628.241 277H0.758745C0.557514 277 0.364523 276.92 0.222231 276.778C0.0799384 276.635 0 276.442 0 276.241C0 276.039 0.0799384 275.846 0.222231 275.704C0.364523 275.561 0.557514 275.481 0.758745 275.481H628.241C628.442 275.482 628.635 275.562 628.777 275.705C628.919 275.847 628.999 276.04 629 276.241Z" fill="#3F3D56"/>
</g>
<defs>
<clipPath id="clip0">
<rect width="629" height="277" fill="white"/>
</clipPath>
</defs>
</svg>
